<svg width="29" height="26" viewBox="0 0 29 26" version="1.1" xmlns="http://www.w3.org/2000/svg" xmlns:xlink="http://www.w3.org/1999/xlink">
<title>check</title>
<desc>Created using Figma</desc>
<g id="Canvas" transform="translate(-12561 -5278)">
<g id="check">
<g id="Vector">
<use xlink:href="#path0_stroke" transform="matrix(0.636588 0.771204 -0.636588 0.771204 12563 5290.9)" fill="#9ECC2E"/>
</g>
<g id="Vector">
<use xlink:href="#path1_stroke" transform="matrix(0.636588 -0.771204 0.636588 0.771204 12571.5 5301)" fill="#9ECC2E"/>
</g>
</g>
</g>
<defs>
<path id="path0_stroke" d="M 9.27679e-08 -2.00001C -1.10457 -2.00001 -2 -1.10458 -2 -1.09863e-05C -2 1.10456 -1.10457 1.99999 9.27679e-08 1.99999L 9.27679e-08 -2.00001ZM 12.9667 1.99999C 14.0713 1.99999 14.9667 1.10456 14.9667 -1.09863e-05C 14.9667 -1.10458 14.0713 -2.00001 12.9667 -2.00001L 12.9667 1.99999ZM 9.27679e-08 1.99999L 12.9667 1.99999L 12.9667 -2.00001L 9.27679e-08 -2.00001L 9.27679e-08 1.99999Z"/>
<path id="path1_stroke" d="M 1.85536e-07 -2.00001C -1.10457 -2.00001 -2 -1.10458 -2 -1.09863e-05C -2 1.10456 -1.10457 1.99999 1.85536e-07 1.99999L 1.85536e-07 -2.00001ZM 25.9335 1.99999C 27.038 1.99999 27.9335 1.10456 27.9335 -1.09863e-05C 27.9335 -1.10458 27.038 -2.00001 25.9335 -2.00001L 25.9335 1.99999ZM 1.85536e-07 1.99999L 25.9335 1.99999L 25.9335 -2.00001L 1.85536e-07 -2.00001L 1.85536e-07 1.99999Z"/>
</defs>
</svg>
