<svg width="40" height="40" viewBox="0 0 40 40" version="1.1" xmlns="http://www.w3.org/2000/svg" xmlns:xlink="http://www.w3.org/1999/xlink">
<title>006-doc</title>
<desc>Created using Figma</desc>
<g id="Canvas" transform="translate(-23209 -245)">
<g id="006-doc">
<g id="Group">
<g id="Group">
<g id="Vector">
<use xlink:href="#path0_fill" transform="translate(23209 245)"/>
</g>
</g>
</g>
<g id="Group">
<g id="Group">
<g id="Vector">
<use xlink:href="#path1_fill" transform="translate(23213 263.777)"/>
</g>
</g>
</g>
<g id="Group">
<g id="Group">
<g id="Vector">
<use xlink:href="#path2_fill" transform="translate(23227.4 263.664)"/>
</g>
</g>
</g>
<g id="Group">
<g id="Group">
<g id="Vector">
<use xlink:href="#path3_fill" transform="translate(23219.8 263.664)"/>
</g>
</g>
</g>
</g>
</g>
<defs>
<path id="path0_fill" d="M 39.7718 10.8248L 28.9574 0.235781C 28.8034 0.0851562 28.591 0 28.3692 0L 12.251 0C 10.4472 0 8.97961 1.38234 8.97961 3.08141L 8.97961 13.8462L 2.44753 13.8462C 1.09795 13.8462 4.42777e-09 14.8805 4.42777e-09 16.1519L 4.42777e-09 27.6944C 4.42777e-09 28.9657 1.09795 30 2.44753 30L 8.97961 30L 8.97961 36.924C 8.97961 38.6201 10.4472 40 12.251 40L 36.7286 40C 38.5324 40 40 38.6209 40 36.9257L 40 11.3582C 40 11.1593 39.9182 10.9681 39.7718 10.8248ZM 28.5715 2.07664L 37.4492 10.7692L 28.5715 10.7692L 28.5715 2.07664ZM 2.44753 28.4616C 1.99817 28.4616 1.63271 28.1174 1.63271 27.6944L 1.63271 16.1519C 1.63271 15.7288 1.99825 15.3846 2.44753 15.3846L 24.4912 15.3846C 24.9405 15.3846 25.3061 15.7288 25.3061 16.1519L 25.3061 27.6944C 25.3061 28.1174 24.9405 28.4616 24.4912 28.4616L 2.44753 28.4616ZM 38.3673 36.9257C 38.3673 37.7726 37.6321 38.4616 36.7285 38.4616L 12.251 38.4616C 11.3474 38.4616 10.6122 37.7719 10.6122 36.9241L 10.6122 30L 24.4911 30C 25.8408 30 26.9387 28.9657 26.9387 27.6944L 26.9387 16.1519C 26.9387 14.8805 25.8408 13.8462 24.4911 13.8462L 10.6122 13.8462L 10.6122 3.08141C 10.6122 2.23055 11.3474 1.53844 12.251 1.53844L 26.9387 1.53844L 26.9387 11.5384C 26.9387 11.9633 27.3043 12.3077 27.7551 12.3077L 38.3673 12.3077L 38.3673 36.9257Z"/>
<path id="path1_fill" d="M 5.64869 1.805C 5.49565 1.38289 5.27262 1.02617 4.97913 0.734609C 4.68588 0.443125 4.33344 0.240391 3.92205 0.126172C 3.61595 0.0418754 3.17123 9.53674e-09 2.58756 9.53674e-09L 2.02412e-08 9.53674e-09L 2.02412e-08 6.6075L 2.66409 6.6075C 3.18715 6.6075 3.60493 6.56102 3.91732 6.46766C 4.3351 6.34148 4.66673 6.1657 4.91222 5.94039C 5.23755 5.64289 5.48777 5.25383 5.66329 4.77305C 5.80672 4.37937 5.87835 3.91078 5.87835 3.36672C 5.87827 2.74789 5.80174 2.22726 5.64869 1.805ZM 4.27109 4.51844C 4.17558 4.81445 4.05188 5.02688 3.90049 5.15609C 3.74902 5.28531 3.55842 5.37711 3.32884 5.43109C 3.15357 5.4732 2.86804 5.49414 2.47273 5.49414L 1.41566 5.49414L 1.41566 1.11758L 2.05173 1.11758C 2.6291 1.11758 3.01644 1.13859 3.21418 1.1807C 3.47891 1.23492 3.69729 1.33859 3.86949 1.49164C 4.04152 1.64492 4.17558 1.85836 4.27109 2.13188C 4.36677 2.40516 4.41477 2.79726 4.41477 3.3082C 4.41486 3.81906 4.36685 4.2225 4.27109 4.51844Z"/>
<path id="path2_fill" d="M 4.73538 4.29078C 4.61723 4.77461 4.42273 5.1293 4.15171 5.35445C 3.88068 5.57984 3.55701 5.69258 3.18069 5.69258C 2.67047 5.69258 2.25601 5.51524 1.93723 5.16086C 1.61828 4.80625 1.45885 4.21117 1.45885 3.37586C 1.45885 2.58875 1.62069 2.0193 1.94436 1.66781C 2.26804 1.31609 2.6897 1.14023 3.20945 1.14023C 3.58577 1.14023 3.90539 1.23945 4.16845 1.43774C 4.43152 1.63617 4.60463 1.90656 4.68746 2.24906L 6.08894 1.93344C 5.92959 1.40461 5.6904 0.999063 5.37162 0.716563C 4.83586 0.238907 4.13919 5.43594e-07 3.28142 5.43594e-07C 2.29912 5.43594e-07 1.50669 0.304219 0.904113 0.912735C 0.301454 1.52125 2.32774e-07 2.37523 2.32774e-07 3.475C 2.32774e-07 4.51461 0.299795 5.33422 0.899387 5.93367C 1.49873 6.53313 2.26405 6.83289 3.19528 6.83289C 3.94767 6.83289 4.56873 6.65789 5.05831 6.30774C 5.54771 5.95774 5.89767 5.42219 6.10809 4.70102L 4.73538 4.29078Z"/>
<path id="path3_fill" d="M 5.87139 0.906016C 5.25098 0.301954 4.42447 5.43594e-07 3.39119 5.43594e-07C 2.82037 5.43594e-07 2.3167 0.0871088 1.87978 0.261328C 1.55138 0.390546 1.24918 0.588829 0.973423 0.856329C 0.697505 1.12359 0.479955 1.4257 0.320356 1.76227C 0.106702 2.21898 -2.22654e-07 2.78383 -2.22654e-07 3.45688C -2.22654e-07 4.50859 0.307754 5.33422 0.923015 5.93359C 1.53852 6.53305 2.36777 6.83281 3.41042 6.83281C 4.44039 6.83281 5.26309 6.53172 5.8786 5.92914C 6.49386 5.32664 6.80161 4.49203 6.80161 3.42531C 6.80161 2.34961 6.49154 1.50984 5.87139 0.906016ZM 4.79507 5.11797C 4.43326 5.50102 3.96997 5.69258 3.40545 5.69258C 2.84118 5.69258 2.37565 5.49953 2.00895 5.11352C 1.64224 4.72734 1.45877 4.16023 1.45877 3.41203C 1.45877 2.6518 1.63735 2.08313 1.99444 1.70602C 2.3516 1.32891 2.82202 1.14023 3.40545 1.14023C 3.98912 1.14023 4.45706 1.32656 4.80933 1.6993C 5.16177 2.0718 5.33787 2.6368 5.33787 3.39391C 5.33787 4.16024 5.15705 4.73484 4.79507 5.11797Z"/>
</defs>
</svg>
