<svg width="71" height="88" viewBox="0 0 71 88" version="1.1" xmlns="http://www.w3.org/2000/svg" xmlns:xlink="http://www.w3.org/1999/xlink">
<title>icon_tem C</title>
<desc>Created using Figma</desc>
<g id="Canvas" transform="translate(-282 -3857)">
<g id="icon_tem C">
<g id="Group">
<g id="Vector">
<use xlink:href="#path0_stroke" transform="translate(301.005 3858)"/>
</g>
<g id="Vector">
<use xlink:href="#path1_stroke" transform="translate(308.652 3929.16)"/>
</g>
<g id="Vector">
<use xlink:href="#path2_stroke" transform="translate(312.303 3865.98)" fill="#9ECC2E"/>
</g>
<g id="Vector">
<use xlink:href="#path3_stroke" transform="translate(282.182 3877.18)"/>
</g>
<g id="Vector">
<use xlink:href="#path3_stroke" transform="translate(307 3877)"/>
</g>
<g id="Vector">
<use xlink:href="#path4_stroke" transform="translate(308.5 3886)"/>
</g>
<g id="Vector">
<use xlink:href="#path4_stroke" transform="translate(308.5 3905)"/>
</g>
<g id="Vector">
<use xlink:href="#path5_stroke" transform="translate(307 3895.97)"/>
</g>
<g id="Vector">
<use xlink:href="#path5_stroke" transform="translate(307 3914.97)"/>
</g>
<g id="Vector">
<use xlink:href="#path6_stroke" transform="translate(282 3923)"/>
</g>
<g id="Vector">
<use xlink:href="#path7_stroke" transform="translate(287.396 3872)"/>
</g>
<g id="Vector">
<use xlink:href="#path8_stroke" transform="translate(338.645 3926.66)"/>
</g>
<g id="Vector">
<use xlink:href="#path9_stroke" transform="translate(333.508 3923.04)"/>
</g>
</g>
</g>
</g>
<defs>
<path id="path0_stroke" d="M 19.1195 66.6943L 18.1195 66.6943L 18.1195 67.1229L 18.4299 67.4185L 19.1195 66.6943ZM 11.2979 0L 11.2979 -1L 11.2979 0ZM 3.47628 7.76338L 2.47628 7.76338L 3.47628 7.76338ZM 3.47628 66.6943L 4.16589 67.4185L 4.47628 67.1229L 4.47628 66.6943L 3.47628 66.6943ZM 11.2979 86L 11.2979 85L 11.2979 86ZM 20.1195 66.6943L 20.1195 7.76338L 18.1195 7.76338L 18.1195 66.6943L 20.1195 66.6943ZM 20.1195 7.76338C 20.1195 5.43677 19.1883 3.20696 17.5331 1.5641L 16.1242 2.98359C 17.4027 4.25255 18.1195 5.97204 18.1195 7.76338L 20.1195 7.76338ZM 17.5331 1.5641C 15.8782 -0.0785202 13.6352 -1 11.2979 -1L 11.2979 1C 13.1095 1 14.8454 1.71437 16.1242 2.98359L 17.5331 1.5641ZM 11.2979 -1C 8.96067 -1 6.71767 -0.0785201 5.06273 1.5641L 6.47165 2.98359C 7.75038 1.71437 9.4863 1 11.2979 1L 11.2979 -1ZM 5.06273 1.5641C 3.40753 3.20696 2.47628 5.43677 2.47628 7.76338L 4.47628 7.76338C 4.47628 5.97204 5.19316 4.25255 6.47165 2.98359L 5.06273 1.5641ZM 2.47628 7.76338L 2.47628 66.6943L 4.47628 66.6943L 4.47628 7.76338L 2.47628 7.76338ZM 2.78668 65.9702C 1.01536 67.6569 -0.207931 69.832 -0.724639 72.2161L 1.22998 72.6397C 1.66152 70.6486 2.68357 68.8301 4.16589 67.4185L 2.78668 65.9702ZM -0.724639 72.2161C -1.24136 74.6003 -1.02756 77.0833 -0.111038 79.3455L 1.74261 78.5945C 0.976887 76.7045 0.798458 74.6308 1.22998 72.6397L -0.724639 72.2161ZM -0.111038 79.3455C 0.805453 81.6076 2.38233 83.5446 4.41557 84.9083L 5.52956 83.2472C 3.82681 82.1053 2.50836 80.4846 1.74261 78.5945L -0.111038 79.3455ZM 4.41557 84.9083C 6.44872 86.2718 8.84559 87 11.2979 87L 11.2979 85C 9.24133 85 7.2324 84.3893 5.52956 83.2472L 4.41557 84.9083ZM 11.2979 87C 13.7502 87 16.1471 86.2718 18.1803 84.9083L 17.0663 83.2472C 15.3634 84.3893 13.3545 85 11.2979 85L 11.2979 87ZM 18.1803 84.9083C 20.2135 83.5446 21.7904 81.6076 22.7069 79.3455L 20.8532 78.5945C 20.0875 80.4846 18.769 82.1053 17.0663 83.2472L 18.1803 84.9083ZM 22.7069 79.3455C 23.6234 77.0833 23.8372 74.6003 23.3205 72.2161L 21.3658 72.6397C 21.7974 74.6308 21.6189 76.7045 20.8532 78.5945L 22.7069 79.3455ZM 23.3205 72.2161C 22.8038 69.832 21.5805 67.6569 19.8092 65.9702L 18.4299 67.4185C 19.9123 68.8301 20.9343 70.6486 21.3658 72.6397L 23.3205 72.2161Z"/>
<path id="path1_stroke" d="M 6.30019 3.62291C 6.30019 5.06447 5.12076 6.24582 3.65009 6.24582L 3.65009 8.24582C 6.21121 8.24582 8.30019 6.18311 8.30019 3.62291L 6.30019 3.62291ZM 3.65009 6.24582C 2.17943 6.24582 1 5.06447 1 3.62291L -1 3.62291C -1 6.18311 1.08898 8.24582 3.65009 8.24582L 3.65009 6.24582ZM 1 3.62291C 1 2.18135 2.17943 1 3.65009 1L 3.65009 -1C 1.08898 -1 -1 1.06271 -1 3.62291L 1 3.62291ZM 3.65009 1C 5.12076 1 6.30019 2.18135 6.30019 3.62291L 8.30019 3.62291C 8.30019 1.06271 6.21121 -1 3.65009 -1L 3.65009 1Z"/>
<path id="path2_stroke" d="M -2 0L -2 58.6705L 2 58.6705L 2 0L -2 0Z"/>
<path id="path3_stroke" d="M 10.4288 -1L 0 -1L 0 1L 10.4288 1L 10.4288 -1Z"/>
<path id="path4_stroke" d="M 7.5 -1L 0 -1L 0 1L 7.5 1L 7.5 -1Z"/>
<path id="path5_stroke" d="M 10.4288 -1L -5.30438e-08 -1L -5.30438e-08 0.999998L 10.4288 0.999998L 10.4288 -1Z"/>
<path id="path6_stroke" d="M 10.4288 -1.00001L 7.95657e-08 -1.00001L 7.95657e-08 0.999987L 10.4288 0.999987L 10.4288 -1.00001Z"/>
<path id="path7_stroke" d="M -1 -3.15893e-07L -1 10.3512L 1 10.3512L 1 -3.15893e-07L -1 -3.15893e-07Z"/>
<path id="path8_stroke" d="M 1.51129e-06 7.76338L 1 7.76338L 1.51129e-06 7.76338ZM 12.6501 12.541C 11.6968 13.488 10.4811 14.134 9.1562 14.3961L 9.54426 16.3581C 11.2543 16.0198 12.8258 15.1856 14.0597 13.9598L 12.6501 12.541ZM 9.1562 14.3961C 7.83129 14.6581 6.45792 14.5242 5.21014 14.0115L 4.45007 15.8615C 6.06156 16.5236 7.83428 16.6963 9.54426 16.3581L 9.1562 14.3961ZM 5.21014 14.0115C 3.96242 13.4989 2.89713 12.631 2.14817 11.5187L 0.489208 12.6358C 1.45979 14.0772 2.83851 15.1994 4.45007 15.8615L 5.21014 14.0115ZM 2.14817 11.5187C 1.39927 10.4065 1 9.09965 1 7.76338L -0.999999 7.76338C -0.999999 9.49864 -0.481438 11.1943 0.489208 12.6358L 2.14817 11.5187ZM 1 7.76338C 1 6.42712 1.39927 5.12025 2.14817 4.00807L 0.489208 2.89099C -0.481438 4.33249 -0.999999 6.02813 -0.999999 7.76338L 1 7.76338ZM 2.14817 4.00807C 2.89713 2.8958 3.96242 2.02787 5.21014 1.51524L 4.45007 -0.334709C 2.83851 0.327416 1.45979 1.44959 0.489208 2.89099L 2.14817 4.00807ZM 5.21014 1.51524C 6.45792 1.00257 7.83129 0.868644 9.1562 1.1307L 9.54426 -0.831291C 7.83428 -1.16951 6.06156 -0.996805 4.45007 -0.334709L 5.21014 1.51524ZM 9.1562 1.1307C 10.4811 1.39275 11.6968 2.03874 12.6501 2.98582L 14.0597 1.56698C 12.8258 0.341155 11.2543 -0.493063 9.54426 -0.831291L 9.1562 1.1307Z"/>
<path id="path9_stroke" d="M 3.51916 2.24275C 3.51916 2.92208 2.96229 3.48551 2.25958 3.48551L 2.25958 5.48551C 4.05274 5.48551 5.51916 4.04071 5.51916 2.24275L 3.51916 2.24275ZM 2.25958 3.48551C 1.55687 3.48551 0.999997 2.92208 0.999997 2.24275L -1 2.24275C -1 4.04071 0.466422 5.48551 2.25958 5.48551L 2.25958 3.48551ZM 0.999997 2.24275C 0.999997 1.56343 1.55687 1 2.25958 1L 2.25958 -1C 0.466422 -1 -1 0.444797 -1 2.24275L 0.999997 2.24275ZM 2.25958 1C 2.96229 1 3.51916 1.56343 3.51916 2.24275L 5.51916 2.24275C 5.51916 0.444797 4.05274 -1 2.25958 -1L 2.25958 1Z"/>
</defs>
</svg>
