<svg width="69" height="72" viewBox="0 0 69 72" version="1.1" xmlns="http://www.w3.org/2000/svg" xmlns:xlink="http://www.w3.org/1999/xlink">
<title>icon_eco</title>
<desc>Created using Figma</desc>
<g id="Canvas" transform="translate(-282 -4073)">
<g id="icon_eco">
<g id="Group">
<g id="Vector">
<use xlink:href="#path0_stroke" transform="translate(310.174 4105.05)" fill="#9ECC2E"/>
</g>
<g id="Vector">
<use xlink:href="#path1_stroke" transform="translate(324.544 4105.05)" fill="#9ECC2E"/>
</g>
<g id="Vector">
<use xlink:href="#path2_stroke" transform="translate(297.51 4105.05)" fill="#9ECC2E"/>
</g>
<g id="Vector">
<use xlink:href="#path3_stroke" transform="translate(297.51 4111.35)" fill="#9ECC2E"/>
</g>
<g id="Vector">
<use xlink:href="#path4_stroke" transform="translate(307.113 4078.71)"/>
</g>
<g id="Vector">
<use xlink:href="#path5_stroke" transform="translate(283 4083.41)"/>
</g>
<g id="Vector">
<use xlink:href="#path6_stroke" transform="translate(299.187 4119.8)"/>
</g>
<g id="Vector">
<use xlink:href="#path7_stroke" transform="translate(307.113 4074)"/>
</g>
<g id="Vector">
<use xlink:href="#path8_stroke" transform="translate(285.535 4127.39)"/>
</g>
<g id="Vector">
<use xlink:href="#path9_stroke" transform="translate(340.807 4119.8)"/>
</g>
</g>
</g>
</g>
<defs>
<path id="path0_stroke" d="M 9.30561 9.34851C 8.70652 9.94995 7.94404 10.3588 7.11501 10.5244L 7.89854 14.4469C 9.5063 14.1257 10.9821 13.3334 12.1396 12.1714L 9.30561 9.34851ZM 7.11501 10.5244C 6.28601 10.6899 5.42663 10.6052 4.64524 10.2804L 3.11008 13.9741C 4.62422 14.6034 6.29073 14.768 7.89854 14.4469L 7.11501 10.5244ZM 4.64524 10.2804C 3.86378 9.95561 3.19467 9.40504 2.72338 8.6972L -0.606111 10.9141C 0.303039 12.2795 1.596 13.3448 3.11008 13.9741L 4.64524 10.2804ZM 2.72338 8.6972C 2.25202 7.98929 2 7.15623 2 6.30344L -2 6.30344C -2 7.94421 -1.51521 9.54872 -0.606111 10.9141L 2.72338 8.6972ZM 2 6.30344C 2 5.45064 2.25202 4.61759 2.72338 3.90967L -0.606111 1.6928C -1.51521 3.05816 -2 4.66266 -2 6.30344L 2 6.30344ZM 2.72338 3.90967C 3.19467 3.20184 3.86378 2.65127 4.64524 2.32648L 3.11008 -1.3672C 1.596 -0.737925 0.303039 0.327359 -0.606111 1.6928L 2.72338 3.90967ZM 4.64524 2.32648C 5.42663 2.00172 6.28601 1.91693 7.11501 2.08252L 7.89854 -1.83999C 6.29073 -2.16115 4.62422 -1.99651 3.11008 -1.3672L 4.64524 2.32648ZM 7.11501 2.08252C 7.94404 2.24812 8.70652 2.65693 9.30561 3.25837L 12.1396 0.435483C 10.9821 -0.726568 9.5063 -1.51884 7.89854 -1.83999L 7.11501 2.08252Z"/>
<path id="path1_stroke" d="M 10.5615 6.30343C 10.5615 8.68696 8.63814 10.6069 6.28075 10.6069L 6.28075 14.6069C 10.8609 14.6069 14.5615 10.8825 14.5615 6.30343L 10.5615 6.30343ZM 6.28075 10.6069C 3.92335 10.6069 2 8.68696 2 6.30343L -2 6.30343C -2 10.8825 1.70062 14.6069 6.28075 14.6069L 6.28075 10.6069ZM 2 6.30343C 2 3.91991 3.92335 2 6.28075 2L 6.28075 -2C 1.70062 -2 -2 1.72438 -2 6.30343L 2 6.30343ZM 6.28075 2C 8.63814 2 10.5615 3.91991 10.5615 6.30343L 14.5615 6.30343C 14.5615 1.72438 10.8609 -2 6.28075 -2L 6.28075 2Z"/>
<path id="path2_stroke" d="M -1.18171e-06 -4.74391e-07L -1.18171e-06 -2L -2 -2L -2 -4.74391e-07L -1.18171e-06 -4.74391e-07ZM -1.18171e-06 12.6069L -2 12.6069L -2 14.6069L -1.18171e-06 14.6069L -1.18171e-06 12.6069ZM 7.81995 -2L -1.18171e-06 -2L -1.18171e-06 2L 7.81995 2L 7.81995 -2ZM -2 -4.74391e-07L -2 6.30343L 2 6.30343L 2 -4.74391e-07L -2 -4.74391e-07ZM -2 6.30343L -2 12.6069L 2 12.6069L 2 6.30343L -2 6.30343ZM -1.18171e-06 14.6069L 7.81995 14.6069L 7.81995 10.6069L -1.18171e-06 10.6069L -1.18171e-06 14.6069Z"/>
<path id="path3_stroke" d="M 7.81995 -2L -1.18171e-06 -2L -1.18171e-06 2L 7.81995 2L 7.81995 -2Z"/>
<path id="path4_stroke" d="M 0.2586 2.06986C 4.92997 0.819308 9.82514 0.662785 14.5663 1.61235L 14.9591 -0.348703C 9.91635 -1.35867 4.70979 -1.19218 -0.2586 0.137895L 0.2586 2.06986ZM 14.5663 1.61235C 19.3075 2.56192 23.7681 4.59224 27.6038 7.54684L 28.8243 5.9624C 24.7456 2.82061 20.0018 0.661258 14.9591 -0.348703L 14.5663 1.61235ZM 27.6038 7.54684C 31.4395 10.5015 34.5478 14.3014 36.6883 18.6535L 38.483 17.7708C 36.2075 13.1443 32.903 9.10419 28.8243 5.9624L 27.6038 7.54684ZM 36.6883 18.6535C 38.8289 23.0056 39.9445 27.7934 39.9488 32.6472L 41.9488 32.6454C 41.9442 27.4864 40.7585 22.3972 38.483 17.7708L 36.6883 18.6535Z"/>
<path id="path5_stroke" d="M 10.2424 50.3238C 6.85864 46.93 4.28849 42.8076 2.72689 38.2688L 0.835691 38.9194C 2.49572 43.7444 5.22809 48.1272 8.82612 51.7359L 10.2424 50.3238ZM 2.72689 38.2688C 1.16528 33.7299 0.653256 28.8938 1.22967 24.1269L -0.755871 23.8868C -1.36857 28.9539 -0.824337 34.0945 0.835691 38.9194L 2.72689 38.2688ZM 1.22967 24.1269C 1.80608 19.3599 3.45577 14.7873 6.0536 10.7553L 4.37235 9.67205C 1.61044 13.9587 -0.143169 18.8196 -0.755871 23.8868L 1.22967 24.1269ZM 6.0536 10.7553C 8.65141 6.72334 12.1292 3.33787 16.2232 0.855052L 15.1861 -0.855051C 10.8321 1.7854 7.13427 5.3854 4.37235 9.67205L 6.0536 10.7553Z"/>
<path id="path6_stroke" d="M 46.8114 -0.258435C 45.555 4.43799 43.2379 8.78067 40.04 12.433L 41.5448 13.7505C 44.9448 9.86723 47.4079 5.25054 48.7434 0.258435L 46.8114 -0.258435ZM 40.04 12.433C 36.8421 16.0854 32.8494 18.9493 28.3715 20.8031L 29.1365 22.651C 33.8989 20.6794 38.1447 17.6338 41.5448 13.7505L 40.04 12.433ZM 28.3715 20.8031C 23.8936 22.6568 19.0507 23.4507 14.2181 23.1233L 14.0829 25.1187C 19.2231 25.467 24.3741 24.6225 29.1365 22.651L 28.3715 20.8031ZM 14.2181 23.1233C 9.38541 22.7959 4.69263 21.3559 0.503467 18.9149L -0.503468 20.6429C 3.95156 23.2389 8.94264 24.7704 14.0829 25.1187L 14.2181 23.1233Z"/>
<path id="path7_stroke" d="M 0 5.80988L -0.826484 5.24692L -1.42045 6.11893L -0.517885 6.66533L 0 5.80988ZM 3.13093 -0.562961L -0.826484 5.24692L 0.826484 6.37285L 4.7839 0.562961L 3.13093 -0.562961ZM -0.517885 6.66533L 5.50342 10.3106L 6.53919 8.5997L 0.517885 4.95443L -0.517885 6.66533Z"/>
<path id="path8_stroke" d="M 6.9913 7.05736L 6.91509 8.05445L 7.9705 8.13512L 7.99111 7.07683L 6.9913 7.05736ZM -0.0762084 7.5201L 6.91509 8.05445L 7.06751 6.06027L 0.0762096 5.52591L -0.0762084 7.5201ZM 7.99111 7.07683L 8.12857 0.019472L 6.12895 -0.0194763L 5.99149 7.03788L 7.99111 7.07683Z"/>
<path id="path9_stroke" d="M 6.15683 0L 7.05882 -0.431751L 6.60064 -1.38896L 5.67231 -0.874779L 6.15683 0ZM 10.0947 5.91055L 7.05882 -0.431751L 5.25484 0.431751L 8.29067 6.77405L 10.0947 5.91055ZM 5.67231 -0.874779L -0.484523 2.53537L 0.484522 4.28493L 6.64135 0.874779L 5.67231 -0.874779Z"/>
</defs>
</svg>
