<svg width="88" height="43" viewBox="0 0 88 43" version="1.1" xmlns="http://www.w3.org/2000/svg" xmlns:xlink="http://www.w3.org/1999/xlink">
<title>icon_l</title>
<desc>Created using Figma</desc>
<g id="Canvas" transform="translate(-428 -4088)">
<g id="icon_l">
<g id="Group">
<g id="Vector 2">
<use xlink:href="#path0_stroke" transform="translate(482 4090)" fill="#9ECC2E"/>
</g>
<g id="Vector">
<use xlink:href="#path1_stroke" transform="translate(429 4094)"/>
</g>
<g id="Vector">
<use xlink:href="#path2_stroke" transform="translate(429 4111.49)"/>
</g>
<g id="Vector">
<use xlink:href="#path3_stroke" transform="translate(479 4089)"/>
</g>
<g id="Vector">
<use xlink:href="#path4_stroke" transform="translate(508.559 4089)"/>
</g>
<g id="Vector">
<use xlink:href="#path5_stroke" transform="translate(506 4120)"/>
</g>
</g>
</g>
</g>
<defs>
<path id="path0_stroke" d="M 3.6539 -1.28236L -1.53478 4.92768L 1.53478 7.4924L 6.72346 1.28236L 3.6539 -1.28236ZM 13.5596 -1.28236L 8.37088 4.92768L 11.4404 7.4924L 16.6291 1.28236L 13.5596 -1.28236ZM 23.4652 -1.28236L 18.2765 4.92768L 21.3461 7.4924L 26.5348 1.28236L 23.4652 -1.28236ZM 3.6539 10.5732L -1.53478 16.7832L 1.53478 19.3479L 6.72346 13.1379L 3.6539 10.5732ZM 13.5596 10.5732L 8.37088 16.7832L 11.4404 19.3479L 16.6291 13.1379L 13.5596 10.5732ZM 23.4652 10.5732L 18.2765 16.7832L 21.3461 19.3479L 26.5348 13.1379L 23.4652 10.5732ZM 3.6539 21.5076L -1.53478 27.7176L 1.53478 30.2824L 6.72346 24.0723L 3.6539 21.5076ZM 13.5596 21.5076L 8.37088 27.7176L 11.4404 30.2824L 16.6291 24.0723L 13.5596 21.5076ZM 23.4652 21.5076L 18.2765 27.7176L 21.3461 30.2824L 26.5348 24.0723L 23.4652 21.5076Z"/>
<path id="path1_stroke" d="M 20.4474 4.15349e-05L 20.4474 1.00004L 20.4498 1.00004L 20.4474 4.15349e-05ZM 30.4524 4.00711L 31.1474 3.28818L 31.1448 3.28566L 30.4524 4.00711ZM 44.883 17.9592L 44.1879 18.6781L 44.1928 18.6827L 44.883 17.9592ZM 41.3855 26.123L 41.3855 27.123L 41.3855 26.123ZM 37.8881 24.722L 37.1929 25.4409L 37.1973 25.4451L 37.8881 24.722ZM 0 1.00004L 20.4474 1.00004L 20.4474 -0.999958L 0 -0.999958L 0 1.00004ZM 20.4498 1.00004C 23.9214 0.991632 27.2598 2.32895 29.7599 4.72856L 31.1448 3.28566C 28.2705 0.526815 24.4337 -1.00961 20.445 -0.999956L 20.4498 1.00004ZM 29.7573 4.72604L 44.1879 18.6781L 45.5781 17.2402L 31.1474 3.28818L 29.7573 4.72604ZM 44.1928 18.6827C 44.5531 19.0264 44.8396 19.4392 45.0354 19.8959L 46.8737 19.1082C 46.5714 18.4027 46.129 17.7657 45.5733 17.2356L 44.1928 18.6827ZM 45.0354 19.8959C 45.2311 20.3527 45.3319 20.8441 45.3319 21.3406L 47.3319 21.3406C 47.3319 20.5732 47.176 19.8138 46.8737 19.1082L 45.0354 19.8959ZM 45.3319 21.3406C 45.3319 21.8371 45.2311 22.3285 45.0354 22.7853L 46.8737 23.573C 47.176 22.8674 47.3319 22.108 47.3319 21.3406L 45.3319 21.3406ZM 45.0354 22.7853C 44.8396 23.242 44.5531 23.6547 44.1928 23.9985L 45.5733 25.4456C 46.129 24.9155 46.5714 24.2785 46.8737 23.573L 45.0354 22.7853ZM 44.1922 23.999C 43.4375 24.72 42.432 25.123 41.3855 25.123L 41.3855 27.123C 42.9458 27.123 44.4464 26.5222 45.5738 25.4451L 44.1922 23.999ZM 41.3855 25.123C 40.339 25.123 39.3335 24.72 38.5789 23.999L 37.1973 25.4451C 38.3247 26.5222 39.8252 27.123 41.3855 27.123L 41.3855 25.123ZM 38.5832 24.0032L 25.8026 11.6438L 24.4123 13.0815L 37.1929 25.4409L 38.5832 24.0032Z"/>
<path id="path2_stroke" d="M 13.5885 5.18163L 14.259 4.43973L 14.2563 4.43729L 13.5885 5.18163ZM 23.7589 14.3736L 23.0884 15.1155L 23.0911 15.1179L 23.7589 14.3736ZM 34.6175 18.5146L 34.6175 17.5146L 34.6154 17.5146L 34.6175 18.5146ZM 0.00212288 1.00004C 4.77221 0.989918 9.37574 2.74556 12.9206 5.92597L 14.2563 4.43729C 10.3427 0.926177 5.26169 -1.01113 -0.00212288 -0.999951L 0.00212288 1.00004ZM 12.9179 5.92353L 23.0884 15.1154L 24.4294 13.6317L 14.259 4.43974L 12.9179 5.92353ZM 23.0911 15.1179C 26.2553 17.957 30.3636 19.5236 34.6196 19.5146L 34.6154 17.5146C 30.8532 17.5225 27.2224 16.1377 24.4267 13.6292L 23.0911 15.1179ZM 34.6175 19.5146L 61.5798 19.5146L 61.5798 17.5146L 34.6175 17.5146L 34.6175 19.5146ZM 61.5798 19.5146C 64.9216 19.5146 67.6871 16.8881 67.6871 13.5764L 65.6871 13.5764C 65.6871 15.7206 63.8811 17.5146 61.5798 17.5146L 61.5798 19.5146ZM 67.6871 13.5764C 67.6871 10.2636 64.9124 7.6382 61.5798 7.6382L 61.5798 9.6382C 63.8739 9.6382 65.6871 11.4332 65.6871 13.5764L 67.6871 13.5764ZM 61.5798 7.6382L 40.7424 7.6382L 40.7424 9.6382L 61.5798 9.6382L 61.5798 7.6382Z"/>
<path id="path3_stroke" d="M 32.0204 31L 32.0204 32L 34.1319 32L 32.794 30.3664L 32.0204 31ZM 32.0954 16.0227L 31.3207 15.3904L 31.3173 15.3945L 32.0954 16.0227ZM 32.2308 15.8568L 33.0055 16.4891L 33.0071 16.4871L 32.2308 15.8568ZM 31.4536 0.033187L 32.1754 -0.658938L 31.9187 -0.926562L 31.5497 -0.962187L 31.4536 0.033187ZM 31.1098 5.06394e-07L 31.2059 -0.995373L 31.1579 -1L 31.1098 -1L 31.1098 5.06394e-07ZM 2.54359e-06 5.06394e-07L 2.54359e-06 -1L -0.999997 -1L -0.999997 5.06394e-07L 2.54359e-06 5.06394e-07ZM 2.54359e-06 31L -0.999997 31L -0.999997 32L 2.54359e-06 32L 2.54359e-06 31ZM 32.794 30.3664C 29.3569 26.1694 29.4423 20.9004 32.8734 16.6509L 31.3173 15.3945C 27.318 20.3477 27.1825 26.6709 31.2467 31.6336L 32.794 30.3664ZM 32.8701 16.655L 33.0055 16.4891L 31.4561 15.2244L 31.3207 15.3904L 32.8701 16.655ZM 33.0071 16.4871C 35.0814 13.9325 36.1378 10.8972 35.9856 7.79796L 33.988 7.89608C 34.114 10.4613 33.2454 13.0207 31.4545 15.2264L 33.0071 16.4871ZM 35.9856 7.79796C 35.8334 4.70016 34.4843 1.74888 32.1754 -0.658938L 30.7318 0.725312C 32.7432 2.82287 33.8619 5.32944 33.988 7.89608L 35.9856 7.79796ZM 31.5497 -0.962187L 31.2059 -0.995373L 31.0137 0.995374L 31.3575 1.02856L 31.5497 -0.962187ZM 31.1098 -1L 2.54359e-06 -1L 2.54359e-06 1L 31.1098 1L 31.1098 -1ZM -0.999997 5.06394e-07L -0.999997 31L 1 31L 1 5.06394e-07L -0.999997 5.06394e-07ZM 2.54359e-06 32L 32.0204 32L 32.0204 30L 2.54359e-06 30L 2.54359e-06 32Z"/>
<path id="path4_stroke" d="M 0 1L 7.44091 1L 7.44091 -0.999997L 0 -0.999997L 0 1Z"/>
<path id="path5_stroke" d="M -1.18476e-06 0.999995L 9.99994 0.999995L 9.99994 -1L -1.18476e-06 -1L -1.18476e-06 0.999995Z"/>
</defs>
</svg>
