<svg width="67" height="67" viewBox="0 0 67 67" version="1.1" xmlns="http://www.w3.org/2000/svg" xmlns:xlink="http://www.w3.org/1999/xlink">
<title>icon_nonf</title>
<desc>Created using Figma</desc>
<g id="Canvas" transform="translate(-285 -3883)">
<g id="icon_nonf">
<g id="nature">
<g id="Group">
<g id="Vector">
<use xlink:href="#path0_stroke" transform="translate(297 3892)" fill="#9ECC2E"/>
</g>
</g>
</g>
<g id="Ellipse">
<mask id="mask0_outline_ins">
<use xlink:href="#path1_fill" fill="white" transform="matrix(-1 0 0 -1 352 3950)"/>
</mask>
<g mask="url(#mask0_outline_ins)">
<use xlink:href="#path2_stroke_2x" transform="matrix(-1 0 0 -1 352 3950)"/>
</g>
</g>
<g id="Vector">
<use xlink:href="#path3_stroke" transform="matrix(-1 8.74228e-08 -8.74228e-08 -1 308.45 3936.6)"/>
</g>
<g id="Vector">
<use xlink:href="#path4_stroke" transform="matrix(-1 8.74228e-08 -8.74228e-08 -1 338.6 3909.8)"/>
</g>
<g id="Vector">
<use xlink:href="#path5_stroke" transform="matrix(1.31134e-07 1 -1 1.31134e-07 338.6 3896.4)"/>
</g>
</g>
</g>
<defs>
<path id="path0_stroke" d="M 11.8236 45L 10.9109 46.7796C 11.6875 47.1779 12.6327 47.0266 13.2462 46.4057C 13.8597 45.7849 13.9997 44.8379 13.5921 44.066L 11.8236 45ZM 12.7943 32.1012L 14.3929 33.3031L 14.393 33.303L 12.7943 32.1012ZM 16.2071 24.9191L 17.7346 23.6279C 17.238 23.0405 16.4486 22.7899 15.7041 22.9833C 14.9597 23.1768 14.3921 23.78 14.2444 24.5349L 16.2071 24.9191ZM 17.4869 31.3894L 15.5321 30.9668C 15.3441 31.8362 15.7529 32.7252 16.5352 33.1485C 17.3175 33.5717 18.2854 33.4275 18.9102 32.7945L 17.4869 31.3894ZM 21 17.1544L 22.0733 15.4668C 21.3843 15.0287 20.4983 15.0533 19.8347 15.529C 19.1712 16.0047 18.8634 16.836 19.0571 17.6291L 21 17.1544ZM 28.6499 45L 26.9081 44.017C 26.4738 44.7866 26.596 45.7501 27.2088 46.3869C 27.8216 47.0236 28.7797 47.1827 29.5654 46.7781L 28.6499 45ZM 31.7277 9.19586L 32.8335 7.52936C 32.0779 7.02801 31.0796 7.09771 30.4011 7.6992C 29.7225 8.30069 29.5335 9.28343 29.9406 10.0937L 31.7277 9.19586ZM 30.783 17.1544L 28.862 17.7111C 29.0485 18.3546 29.5448 18.8621 30.1841 19.0627C 30.8234 19.2633 31.5206 19.1305 32.0414 18.7089L 30.783 17.1544ZM 15.3659 0L 15.9815 -1.90287C 15.3179 -2.11759 14.5904 -1.97108 14.0616 -1.51624C 13.5329 -1.06141 13.2792 -0.363952 13.3923 0.324298L 15.3659 0ZM 8.07628 21.129L 6.08044 21.2578C 6.13231 22.0614 6.66102 22.7554 7.42193 23.0189C 8.18284 23.2823 9.02753 23.0638 9.56517 22.4643L 8.07628 21.129ZM 6.11343 13.8215L 7.82551 12.7877C 7.37499 12.0416 6.49322 11.6732 5.64584 11.877C 4.79845 12.0807 4.18058 12.8098 4.11851 13.6791L 6.11343 13.8215ZM 0.403379 27.9493L 2.35375 28.3921L 2.35377 28.392L 0.403379 27.9493ZM 13.5921 44.066C 12.1275 41.2926 11.8963 39.3345 12.1444 37.8207C 12.4002 36.2602 13.2076 34.8797 14.3929 33.3031L 11.1957 30.8993C 9.90323 32.6185 8.61325 34.6349 8.19712 37.1737C 7.77335 39.7591 8.29573 42.6025 10.055 45.934L 13.5921 44.066ZM 14.393 33.303C 15.8877 31.3148 16.8231 29.3442 17.3864 27.8709C 17.669 27.1319 17.8606 26.511 17.9835 26.0656C 18.0449 25.8426 18.0894 25.663 18.1195 25.5338C 18.1346 25.4691 18.1461 25.417 18.1544 25.3783C 18.1585 25.3589 18.1619 25.3429 18.1644 25.3304C 18.1657 25.3241 18.1668 25.3187 18.1677 25.3142C 18.1682 25.3119 18.1686 25.3099 18.1689 25.308C 18.1691 25.3071 18.1693 25.3063 18.1694 25.3055C 18.1695 25.3051 18.1696 25.3045 18.1697 25.3043C 18.1698 25.3038 18.1699 25.3032 16.2071 24.9191C 14.2444 24.5349 14.2445 24.5344 14.2446 24.5339C 14.2446 24.5337 14.2447 24.5333 14.2448 24.533C 14.2449 24.5324 14.245 24.5319 14.2451 24.5314C 14.2453 24.5304 14.2454 24.5297 14.2455 24.5291C 14.2457 24.5281 14.2458 24.5278 14.2457 24.5284C 14.2454 24.5296 14.2445 24.5341 14.2428 24.5418C 14.2395 24.5572 14.2334 24.5854 14.224 24.6255C 14.2053 24.7057 14.1739 24.8334 14.1275 25.0018C 14.0344 25.3391 13.8816 25.837 13.6502 26.4424C 13.1855 27.6578 12.4145 29.2782 11.1957 30.8993L 14.393 33.303ZM 16.2071 24.9191C 14.6797 26.2102 14.6791 26.2095 14.6785 26.2088C 14.6783 26.2085 14.6777 26.2078 14.6774 26.2074C 14.6766 26.2065 14.6759 26.2056 14.6752 26.2048C 14.6738 26.2032 14.6726 26.2017 14.6714 26.2003C 14.6692 26.1976 14.6674 26.1954 14.6661 26.1938C 14.6634 26.1906 14.6626 26.1896 14.6636 26.1908C 14.6654 26.1931 14.6741 26.2041 14.6884 26.2234C 14.717 26.2623 14.7678 26.3338 14.8317 26.436C 14.9602 26.6414 15.1374 26.9628 15.2971 27.3837C 15.6132 28.2167 15.8626 29.4382 15.5321 30.9668L 19.4417 31.8121C 19.9646 29.3939 19.574 27.3801 19.0369 25.9646C 18.77 25.2613 18.4672 24.7052 18.2225 24.3141C 18.0998 24.118 17.9905 23.9616 17.9059 23.847C 17.8635 23.7896 17.8272 23.7425 17.7982 23.706C 17.7837 23.6877 17.771 23.672 17.7604 23.659C 17.7551 23.6525 17.7502 23.6467 17.7459 23.6415C 17.7438 23.6389 17.7417 23.6365 17.7398 23.6342C 17.7389 23.6331 17.738 23.632 17.7371 23.631C 17.7367 23.6304 17.736 23.6297 17.7358 23.6294C 17.7352 23.6287 17.7346 23.6279 16.2071 24.9191ZM 18.9102 32.7945C 21.2223 30.4523 22.3377 26.9893 22.8413 24.0518C 23.3445 21.116 23.3168 18.2107 22.9429 16.6798L 19.0571 17.6291C 19.2522 18.4276 19.3522 20.731 18.8988 23.376C 18.4456 26.0193 17.5199 28.5091 16.0636 29.9844L 18.9102 32.7945ZM 19.9267 18.8421C 23.6839 21.2315 26.5753 25.5576 27.9336 30.39C 29.2931 35.2267 29.0313 40.2549 26.9081 44.017L 30.3916 45.983C 33.1745 41.0521 33.3468 34.8661 31.7844 29.3076C 30.2207 23.7447 26.8341 18.4945 22.0733 15.4668L 19.9267 18.8421ZM 29.5654 46.7781C 36.3497 43.285 40.4109 39.2302 42.4314 34.9019C 44.4616 30.5528 44.3093 26.1899 43.1719 22.3419C 42.0431 18.5231 39.9318 15.1512 37.9243 12.615C 35.9385 10.1062 33.9234 8.25258 32.8335 7.52936L 30.6219 10.8624C 31.2384 11.2714 32.9536 12.7801 34.7879 15.0975C 36.6005 17.3875 38.399 20.306 39.3359 23.4757C 40.2642 26.6162 40.3334 29.9399 38.8069 33.2099C 37.2708 36.5006 33.9971 39.9972 27.7343 43.2219L 29.5654 46.7781ZM 29.9406 10.0937C 30.35 10.9087 30.617 12.0806 30.5476 13.2033C 30.4783 14.3246 30.0997 15.1344 29.5246 15.6L 32.0414 18.7089C 33.7645 17.314 34.4271 15.2767 34.54 13.4501C 34.6528 11.6246 34.2431 9.74757 33.5149 8.29802L 29.9406 10.0937ZM 32.7039 16.5978C 30.6172 9.39662 26.4683 4.77383 22.8408 1.96214C 21.0311 0.559506 19.3487 -0.395264 18.1079 -1.0034C 17.4866 -1.30786 16.9735 -1.52671 16.607 -1.67228C 16.4236 -1.7451 16.2767 -1.7997 16.1709 -1.8376C 16.118 -1.85655 16.0754 -1.87134 16.0437 -1.88215C 16.0278 -1.88756 16.0146 -1.89197 16.0042 -1.89542C 15.9991 -1.89714 15.9946 -1.89862 15.9908 -1.89986C 15.9889 -1.90048 15.9872 -1.90105 15.9856 -1.90155C 15.9849 -1.9018 15.9838 -1.90213 15.9835 -1.90225C 15.9825 -1.90257 15.9815 -1.90287 15.3659 0C 14.7502 1.90287 14.7493 1.9026 14.7485 1.90234C 14.7483 1.90227 14.7475 1.90202 14.7471 1.90189C 14.7463 1.90162 14.7456 1.9014 14.7451 1.90124C 14.7441 1.90091 14.7438 1.90081 14.7442 1.90093C 14.7449 1.90117 14.7484 1.90231 14.7544 1.90437C 14.7665 1.90849 14.7891 1.91628 14.8216 1.92793C 14.8866 1.95122 14.9911 1.98986 15.1305 2.04524C 15.4095 2.15607 15.8273 2.33347 16.3475 2.58842C 17.3895 3.09911 18.832 3.9158 20.3903 5.12366C 23.4987 7.53299 27.0585 11.4874 28.862 17.7111L 32.7039 16.5978ZM 13.3923 0.324298C 14.4047 6.4849 11.3826 14.4471 6.5874 19.7936L 9.56517 22.4643C 14.9172 16.4971 18.6024 7.36165 17.3394 -0.324298L 13.3923 0.324298ZM 10.0721 21.0001C 9.88838 18.1539 9.67586 15.852 7.82551 12.7877L 4.40136 14.8554C 5.74148 17.0747 5.90773 18.5827 6.08044 21.2578L 10.0721 21.0001ZM 4.11851 13.6791C 3.97399 15.7032 3.04541 17.6302 1.79543 19.9251C 0.613398 22.0953 -0.900622 24.6587 -1.54701 27.5066L 2.35377 28.392C 2.84785 26.2151 4.00981 24.2222 5.30817 21.8384C 6.53857 19.5794 7.89479 16.9549 8.10835 13.964L 4.11851 13.6791ZM -1.54699 27.5065C -2.40861 31.3018 -2.11731 34.8257 0.00172034 38.1318C 2.05004 41.3275 5.66392 44.0885 10.9109 46.7796L 12.7363 43.2204C 7.72019 40.6478 4.85156 38.2858 3.36935 35.9733C 1.95783 33.7711 1.67056 31.4014 2.35375 28.3921L -1.54699 27.5065Z"/>
<path id="path1_fill" d="M 67 33.5C 67 52.0015 52.0015 67 33.5 67C 14.9985 67 0 52.0015 0 33.5C 0 14.9985 14.9985 0 33.5 0C 52.0015 0 67 14.9985 67 33.5Z"/>
<path id="path2_stroke_2x" d="M 65 33.5C 65 50.897 50.897 65 33.5 65L 33.5 69C 53.1061 69 69 53.1061 69 33.5L 65 33.5ZM 33.5 65C 16.103 65 2 50.897 2 33.5L -2 33.5C -2 53.1061 13.8939 69 33.5 69L 33.5 65ZM 2 33.5C 2 16.103 16.103 2 33.5 2L 33.5 -2C 13.8939 -2 -2 13.8939 -2 33.5L 2 33.5ZM 33.5 2C 50.897 2 65 16.103 65 33.5L 69 33.5C 69 13.8939 53.1061 -2 33.5 -2L 33.5 2Z"/>
<path id="path3_stroke" d="M -0.707107 9.34289C -1.09763 9.73342 -1.09763 10.3666 -0.707107 10.7571C -0.316583 11.1476 0.316583 11.1476 0.707107 10.7571L -0.707107 9.34289ZM 10.7571 0.707107C 11.1476 0.316583 11.1476 -0.316583 10.7571 -0.707107C 10.3666 -1.09763 9.73342 -1.09763 9.34289 -0.707107L 10.7571 0.707107ZM 0.707107 10.7571L 10.7571 0.707107L 9.34289 -0.707107L -0.707107 9.34289L 0.707107 10.7571Z"/>
<path id="path4_stroke" d="M -0.67828 12.6652C -1.0841 13.0398 -1.10941 13.6725 -0.734803 14.0783C -0.3602 14.4841 0.272459 14.5094 0.67828 14.1348L -0.67828 12.6652ZM 15.1949 0.734803C 15.6008 0.3602 15.6261 -0.272459 15.2515 -0.67828C 14.8769 -1.0841 14.2442 -1.10941 13.8384 -0.734803L 15.1949 0.734803ZM 0.67828 14.1348L 15.1949 0.734803L 13.8384 -0.734803L -0.67828 12.6652L 0.67828 14.1348Z"/>
<path id="path5_stroke" d="M -0.707107 39.4929C -1.09763 39.8834 -1.09763 40.5166 -0.707107 40.9071C -0.316582 41.2976 0.316583 41.2976 0.707107 40.9071L -0.707107 39.4929ZM 40.9071 0.707107C 41.2976 0.316582 41.2976 -0.316583 40.9071 -0.707107C 40.5166 -1.09763 39.8834 -1.09763 39.4929 -0.707107L 40.9071 0.707107ZM 0.707107 40.9071L 40.9071 0.707107L 39.4929 -0.707107L -0.707107 39.4929L 0.707107 40.9071Z"/>
</defs>
</svg>
