<svg width="79" height="86" viewBox="0 0 79 86" version="1.1" xmlns="http://www.w3.org/2000/svg" xmlns:xlink="http://www.w3.org/1999/xlink">
<title>icon_teplop</title>
<desc>Created using Figma</desc>
<g id="Canvas" transform="translate(-428 -3858)">
<g id="icon_teplop">
<g id="Group">
<g id="Vector">
<use xlink:href="#path0_stroke" transform="translate(429.002 3858)"/>
</g>
<g id="Vector 2">
<use xlink:href="#path1_stroke" transform="translate(433 3866)" fill="#9ECC2E"/>
</g>
<g id="Vector 2.1">
<use xlink:href="#path1_stroke" transform="translate(433 3918)" fill="#9ECC2E"/>
</g>
<g id="Vector">
<use xlink:href="#path2_stroke" transform="translate(429 3859.47)"/>
</g>
<g id="Vector">
<use xlink:href="#path3_stroke" transform="translate(429 3936.57)"/>
</g>
<g id="Vector">
<use xlink:href="#path4_stroke" transform="translate(429.002 3858)"/>
</g>
<g id="Vector">
<use xlink:href="#path5_stroke" transform="translate(429.002 3912.52)"/>
</g>
<g id="Vector">
<use xlink:href="#path6_stroke" transform="translate(473 3883)"/>
</g>
<g id="0,032">
<use xlink:href="#path7_fill" transform="translate(429 3889)"/>
</g>
<g id="Vector">
<use xlink:href="#path8_stroke" transform="translate(492.557 3926.66)"/>
</g>
<g id="Vector">
<use xlink:href="#path9_stroke" transform="translate(487.385 3923.04)"/>
</g>
</g>
</g>
</g>
<defs>
<path id="path0_stroke" d="M 44.4203 31.4773L 44.4203 32.4773L 45.4203 32.4773L 45.4203 31.4773L 44.4203 31.4773ZM 43.4203 0L 43.4203 31.4773L 45.4203 31.4773L 45.4203 0L 43.4203 0ZM 44.4203 30.4773L -3.63543e-07 30.4773L -3.63543e-07 32.4773L 44.4203 32.4773L 44.4203 30.4773Z"/>
<path id="path1_stroke" d="M 3.97018 -1.28827L -1.52982 5.24298L 1.52982 7.81952L 7.02982 1.28827L 3.97018 -1.28827ZM 14.4702 -1.28827L 8.97018 5.24298L 12.0298 7.81952L 17.5298 1.28827L 14.4702 -1.28827ZM 24.9702 -1.28827L 19.4702 5.24298L 22.5298 7.81952L 28.0298 1.28827L 24.9702 -1.28827ZM 35.4702 -1.28827L 29.9702 5.24298L 33.0298 7.81952L 38.5298 1.28827L 35.4702 -1.28827ZM 3.97018 11.1805L -1.52982 17.7117L 1.52982 20.2883L 7.02982 13.757L 3.97018 11.1805ZM 14.4702 11.1805L 8.97018 17.7117L 12.0298 20.2883L 17.5298 13.757L 14.4702 11.1805ZM 24.9702 11.1805L 19.4702 17.7117L 22.5298 20.2883L 28.0298 13.757L 24.9702 11.1805ZM 35.4702 11.1805L 29.9702 17.7117L 33.0298 20.2883L 38.5298 13.757L 35.4702 11.1805Z"/>
<path id="path2_stroke" d="M 22.8994 3.17112L 23.4235 2.31949L 23.4222 2.31869L 22.8994 3.17112ZM 22.6611 3.02499L 22.1368 3.87649L 22.1383 3.87742L 22.6611 3.02499ZM 43.89 2.24604C 40.8326 4.15831 37.2892 5.18038 33.6675 5.19338L 33.6747 7.19337C 37.6675 7.17903 41.576 6.05233 44.9506 3.94168L 43.89 2.24604ZM 33.6675 5.19338C 30.0458 5.20638 26.4949 4.20979 23.4235 2.31949L 22.3752 4.02275C 25.7652 6.10909 29.6818 7.2077 33.6747 7.19337L 33.6675 5.19338ZM 23.4222 2.31869L 23.184 2.17256L 22.1383 3.87742L 22.3765 4.02355L 23.4222 2.31869ZM 23.1855 2.17348C 19.5869 -0.0424741 15.3993 -1.14226 11.163 -0.985256L 11.2371 1.01337C 15.0796 0.870964 18.8763 1.86873 22.1368 3.87649L 23.1855 2.17348ZM 11.163 -0.985256C 6.92672 -0.828255 2.83411 0.578415 -0.586427 3.05483L 0.586428 4.67483C 3.68471 2.43173 7.39454 1.15578 11.2371 1.01337L 11.163 -0.985256Z"/>
<path id="path3_stroke" d="M 22.8994 3.17112L 23.4235 2.31949L 23.4222 2.31869L 22.8994 3.17112ZM 22.6611 3.02499L 22.1368 3.8765L 22.1383 3.87742L 22.6611 3.02499ZM 43.89 2.24604C 40.8326 4.15831 37.2892 5.18038 33.6675 5.19338L 33.6747 7.19337C 37.6675 7.17903 41.576 6.05233 44.9506 3.94168L 43.89 2.24604ZM 33.6675 5.19338C 30.0458 5.20639 26.4949 4.20979 23.4235 2.31949L 22.3752 4.02276C 25.7652 6.10909 29.6818 7.20771 33.6747 7.19337L 33.6675 5.19338ZM 23.4222 2.31869L 23.184 2.17256L 22.1383 3.87742L 22.3765 4.02355L 23.4222 2.31869ZM 23.1855 2.17349C 19.5869 -0.0424725 15.3993 -1.14225 11.163 -0.985254L 11.2371 1.01337C 15.0796 0.870966 18.8763 1.86873 22.1368 3.8765L 23.1855 2.17349ZM 11.163 -0.985254C 6.92672 -0.828253 2.83411 0.578417 -0.586427 3.05483L 0.586428 4.67484C 3.68471 2.43173 7.39454 1.15578 11.2371 1.01337L 11.163 -0.985254Z"/>
<path id="path4_stroke" d="M 0.999998 86L 0.999998 0L -1 0L -1 86L 0.999998 86Z"/>
<path id="path5_stroke" d="M 44.4203 1.0252e-06L 45.4203 1.0252e-06L 45.4203 -0.999999L 44.4203 -0.999999L 44.4203 1.0252e-06ZM 45.4203 31.4773L 45.4203 1.0252e-06L 43.4203 1.0252e-06L 43.4203 31.4773L 45.4203 31.4773ZM 44.4203 -0.999999L -3.63543e-07 -0.999999L -3.63543e-07 1L 44.4203 1L 44.4203 -0.999999Z"/>
<path id="path6_stroke" d="M 19 18.0017L 19.6878 18.7275L 20.4539 18.0016L 19.6878 17.2757L 19 18.0017ZM -0.687776 0.725921L 18.3122 18.7276L 19.6878 17.2757L 0.68778 -0.725921L -0.687776 0.725921ZM 18.3122 17.2758L -0.680895 35.2741L 0.694793 36.7259L 19.6878 18.7275L 18.3122 17.2758Z"/>
<path id="path7_fill" d="M 10.205 17.16C 9.501 17.16 8.909 16.984 8.429 16.632C 7.949 16.28 7.57567 15.6827 7.309 14.84C 7.053 13.9973 6.925 12.8507 6.925 11.4C 6.925 9.94933 7.053 8.80267 7.309 7.96C 7.57567 7.11733 7.949 6.52 8.429 6.168C 8.909 5.816 9.501 5.64 10.205 5.64C 10.909 5.64 11.501 5.816 11.981 6.168C 12.461 6.52 12.829 7.11733 13.085 7.96C 13.3517 8.80267 13.485 9.94933 13.485 11.4C 13.485 12.8507 13.3517 13.9973 13.085 14.84C 12.829 15.6827 12.461 16.28 11.981 16.632C 11.501 16.984 10.909 17.16 10.205 17.16ZM 10.205 16.2C 10.7277 16.2 11.165 15.8373 11.517 15.112C 11.869 14.3867 12.045 13.1493 12.045 11.4C 12.045 9.65067 11.869 8.41333 11.517 7.688C 11.165 6.96267 10.7277 6.6 10.205 6.6C 9.68233 6.6 9.245 6.96267 8.893 7.688C 8.541 8.41333 8.365 9.65067 8.365 11.4C 8.365 13.1493 8.541 14.3867 8.893 15.112C 9.245 15.8373 9.68233 16.2 10.205 16.2ZM 14.9212 18.84L 14.9212 15.32L 16.4413 15.32L 15.9612 18.84L 14.9212 18.84ZM 21.08 17.16C 20.376 17.16 19.784 16.984 19.304 16.632C 18.824 16.28 18.4507 15.6827 18.184 14.84C 17.928 13.9973 17.8 12.8507 17.8 11.4C 17.8 9.94933 17.928 8.80267 18.184 7.96C 18.4507 7.11733 18.824 6.52 19.304 6.168C 19.784 5.816 20.376 5.64 21.08 5.64C 21.784 5.64 22.376 5.816 22.856 6.168C 23.336 6.52 23.704 7.11733 23.96 7.96C 24.2267 8.80267 24.36 9.94933 24.36 11.4C 24.36 12.8507 24.2267 13.9973 23.96 14.84C 23.704 15.6827 23.336 16.28 22.856 16.632C 22.376 16.984 21.784 17.16 21.08 17.16ZM 21.08 16.2C 21.6027 16.2 22.04 15.8373 22.392 15.112C 22.744 14.3867 22.92 13.1493 22.92 11.4C 22.92 9.65067 22.744 8.41333 22.392 7.688C 22.04 6.96267 21.6027 6.6 21.08 6.6C 20.5573 6.6 20.12 6.96267 19.768 7.688C 19.416 8.41333 19.24 9.65067 19.24 11.4C 19.24 13.1493 19.416 14.3867 19.768 15.112C 20.12 15.8373 20.5573 16.2 21.08 16.2ZM 27.64 17.16C 27.192 17.16 26.744 17.128 26.296 17.064C 25.848 17 25.496 16.9253 25.24 16.84L 25.24 16.12L 27.32 16.12C 28.12 16.12 28.6907 15.9547 29.032 15.624C 29.384 15.2827 29.56 14.728 29.56 13.96C 29.56 13.16 29.384 12.5893 29.032 12.248C 28.6907 11.896 28.12 11.72 27.32 11.72L 26.2 11.72L 26.2 10.6L 27.16 10.6C 27.8747 10.6 28.3973 10.44 28.728 10.12C 29.0693 9.78933 29.24 9.28267 29.24 8.6C 29.24 7.97067 29.0853 7.496 28.776 7.176C 28.4773 6.84533 28.0453 6.68 27.48 6.68L 25.4 6.68L 25.4 5.96C 25.656 5.87467 26.008 5.8 26.456 5.736C 26.904 5.672 27.352 5.64 27.8 5.64C 28.76 5.64 29.48 5.88533 29.96 6.376C 30.44 6.86667 30.68 7.608 30.68 8.6C 30.68 9.19733 30.5573 9.69333 30.312 10.088C 30.0773 10.4827 29.72 10.8027 29.24 11.048L 29.24 11.112C 29.8373 11.2613 30.28 11.5973 30.568 12.12C 30.856 12.6427 31 13.256 31 13.96C 31 15.0907 30.7387 15.9067 30.216 16.408C 29.6933 16.9093 28.8347 17.16 27.64 17.16ZM 31.8006 15.72C 31.95 15.5387 32.11 15.3413 32.2806 15.128C 32.4513 14.9147 32.6326 14.6853 32.8246 14.44C 33.7633 13.2667 34.4246 12.4187 34.8086 11.896C 35.2033 11.3627 35.4913 10.8773 35.6726 10.44C 35.8646 9.992 35.9606 9.512 35.9606 9C 35.9606 8.18933 35.8113 7.60267 35.5126 7.24C 35.214 6.86667 34.7766 6.68 34.2006 6.68L 31.9606 6.68L 31.9606 5.96C 32.2166 5.87467 32.5633 5.8 33.0006 5.736C 33.4486 5.672 33.902 5.64 34.3606 5.64C 35.4166 5.64 36.1846 5.90667 36.6646 6.44C 37.1553 6.96267 37.4006 7.816 37.4006 9C 37.4006 9.58667 37.294 10.1413 37.0806 10.664C 36.8673 11.176 36.5633 11.704 36.1686 12.248C 35.7846 12.7813 35.1713 13.5707 34.3286 14.616C 34.0833 14.9467 33.7473 15.368 33.3206 15.88L 37.4006 15.88L 37.4006 17L 31.8006 17L 31.8006 15.72Z"/>
<path id="path8_stroke" d="M 1.52132e-06 7.76338L 1 7.76338L 1.52132e-06 7.76338ZM 12.7412 12.5386C 11.781 13.4862 10.5557 14.1333 9.21951 14.3958L 9.60511 16.3583C 11.324 16.0206 12.9045 15.1874 14.146 13.9621L 12.7412 12.5386ZM 9.21951 14.3958C 7.88324 14.6584 6.49815 14.5241 5.24006 14.0107L 4.48429 15.8624C 6.10445 16.5236 7.88634 16.696 9.60511 16.3583L 9.21951 14.3958ZM 5.24006 14.0107C 3.98208 13.4972 2.90909 12.6284 2.1552 11.5162L 0.499682 12.6383C 1.47676 14.0798 2.864 15.201 4.48429 15.8624L 5.24006 14.0107ZM 2.1552 11.5162C 1.40143 10.4041 1 9.09816 1 7.76338L -0.999998 7.76338C -0.999998 9.50013 -0.477514 11.1967 0.499682 12.6383L 2.1552 11.5162ZM 1 7.76338C 1 6.42861 1.40143 5.12264 2.1552 4.01061L 0.499682 2.88845C -0.477514 4.3301 -0.999998 6.02664 -0.999998 7.76338L 1 7.76338ZM 2.1552 4.01061C 2.90909 2.89841 3.98208 2.02956 5.24006 1.51612L 4.48429 -0.335588C 2.864 0.325731 1.47676 1.44697 0.499682 2.88845L 2.1552 4.01061ZM 5.24006 1.51612C 6.49815 1.00263 7.88324 0.868383 9.21951 1.13094L 9.60511 -0.831534C 7.88634 -1.16925 6.10445 -0.996857 4.48429 -0.335588L 5.24006 1.51612ZM 9.21951 1.13094C 10.5557 1.39349 11.781 2.04056 12.7412 2.98814L 14.146 1.56466C 12.9045 0.33934 11.324 -0.493805 9.60511 -0.831534L 9.21951 1.13094Z"/>
<path id="path9_stroke" d="M 3.54917 2.24275C 3.54917 2.91587 2.99185 3.48551 2.27458 3.48551L 2.27458 5.48551C 4.06975 5.48551 5.54917 4.04692 5.54917 2.24275L 3.54917 2.24275ZM 2.27458 3.48551C 1.55732 3.48551 0.999997 2.91587 0.999997 2.24275L -1 2.24275C -1 4.04692 0.479411 5.48551 2.27458 5.48551L 2.27458 3.48551ZM 0.999997 2.24275C 0.999997 1.56964 1.55732 1 2.27458 1L 2.27458 -1C 0.479411 -1 -1 0.438592 -1 2.24275L 0.999997 2.24275ZM 2.27458 1C 2.99185 1 3.54917 1.56964 3.54917 2.24275L 5.54917 2.24275C 5.54917 0.438592 4.06975 -1 2.27458 -1L 2.27458 1Z"/>
</defs>
</svg>
