<svg width="72" height="72" viewBox="0 0 72 72" version="1.1" xmlns="http://www.w3.org/2000/svg" xmlns:xlink="http://www.w3.org/1999/xlink">
<title>icon_bio</title>
<desc>Created using Figma</desc>
<g id="Canvas" transform="translate(-283 -4211)">
<g id="icon_bio">
<g id="Group">
<g id="Vector">
<use xlink:href="#icon_biopath0_stroke" transform="translate(307 4241)" fill="#9ECC2E"/>
</g>
<g id="Vector">
<use xlink:href="#icon_biopath1_stroke" transform="translate(296 4223)"/>
</g>
<g id="Vector">
<use xlink:href="#icon_biopath2_stroke" transform="translate(284 4212)"/>
</g>
<g id="Vector">
<use xlink:href="#icon_biopath3_stroke" transform="translate(291.522 4219.47)"/>
</g>
<g id="Vector">
<use xlink:href="#icon_biopath4_stroke" transform="translate(340.325 4212)"/>
</g>
<g id="Vector">
<use xlink:href="#icon_biopath5_stroke" transform="translate(340.318 4219.55)"/>
</g>
<g id="Vector">
<use xlink:href="#icon_biopath6_stroke" transform="translate(340.325 4268.32)"/>
</g>
<g id="Vector">
<use xlink:href="#icon_biopath7_stroke" transform="translate(340.354 4268.37)"/>
</g>
<g id="Vector">
<use xlink:href="#icon_biopath8_stroke" transform="translate(284 4268.32)"/>
</g>
<g id="Vector">
<use xlink:href="#icon_biopath9_stroke" transform="translate(291.53 4268.32)"/>
</g>
</g>
</g>
</g>
<defs>
<path id="icon_biopath0_stroke" d="M 1.39907 4.71595C 0.609751 3.94326 -0.656507 3.95675 -1.42919 4.74607C -2.20188 5.53539 -2.1884 6.80165 -1.39907 7.57434L 1.39907 4.71595ZM 9.04548 15L 7.64641 16.4292C 8.43064 17.1969 9.68701 17.1892 10.4618 16.4121L 9.04548 15ZM 25.4164 1.41206C 26.1962 0.62983 26.1943 -0.636498 25.4121 -1.41636C 24.6298 -2.19622 23.3635 -2.1943 22.5836 -1.41207L 25.4164 1.41206ZM -1.39907 7.57434L 7.64641 16.4292L 10.4446 13.5708L 1.39907 4.71595L -1.39907 7.57434ZM 10.4618 16.4121L 25.4164 1.41206L 22.5836 -1.41207L 7.62913 13.5879L 10.4618 16.4121Z"/>
<path id="icon_biopath1_stroke" d="M 23 0L 23.7414 -0.671035C 23.5518 -0.880552 23.2824 -1.00006 22.9998 -1C 22.7172 -0.999942 22.4478 -0.880325 22.2583 -0.670731L 23 0ZM 0 11.3785L 0 10.3785C -0.552285 10.3785 -1 10.8262 -1 11.3785L 0 11.3785ZM 23 50.5L 22.6621 51.4412C 22.8806 51.5196 23.1194 51.5196 23.3379 51.4412L 23 50.5ZM 46 11.3785L 47 11.3785C 47 10.8262 46.5523 10.3785 46 10.3785L 46 11.3785ZM 23 0C 22.2583 -0.670731 22.2585 -0.67091 22.2586 -0.671046C 22.2586 -0.671034 22.2587 -0.671127 22.2586 -0.671103C 22.2586 -0.671056 22.2584 -0.670836 22.258 -0.670447C 22.2573 -0.669667 22.256 -0.668207 22.2541 -0.666077C 22.2502 -0.661817 22.2438 -0.654877 22.235 -0.645343C 22.2174 -0.626275 22.1901 -0.596838 22.1533 -0.557723C 22.0796 -0.479485 21.968 -0.36257 21.8203 -0.212499C 21.5248 0.0877115 21.0856 0.520188 20.5178 1.04087C 19.3812 2.08312 17.735 3.47391 15.702 4.86371C 11.6174 7.65598 6.06722 10.3785 0 10.3785L 0 12.3785C 6.64304 12.3785 12.5929 9.41178 16.8307 6.51479C 18.9589 5.05996 20.6795 3.60613 21.8695 2.51491C 22.465 1.96886 22.9289 1.51239 23.2458 1.19034C 23.4043 1.02928 23.5261 0.901734 23.6094 0.813294C 23.651 0.769071 23.683 0.734615 23.7052 0.710625C 23.7162 0.698629 23.7248 0.689249 23.7309 0.682571C 23.734 0.679232 23.7364 0.676569 23.7382 0.674592C 23.7391 0.673603 23.7398 0.672786 23.7404 0.672142C 23.7407 0.671821 23.741 0.671467 23.7412 0.671306C 23.7415 0.670997 23.7417 0.670731 23 0ZM -1 11.3785L -1 13.4926L 1 13.4926L 1 11.3785L -1 11.3785ZM -1 13.4926C -1 21.2549 -0.122508 28.9461 3.29793 35.6069C 6.73846 42.3068 12.6998 47.865 22.6621 51.4412L 23.3379 49.5588C 13.8002 46.135 8.26154 40.8946 5.07706 34.6933C 1.87251 28.4529 1 21.1404 1 13.4926L -1 13.4926ZM 23.3379 51.4412C 33.3002 47.865 39.2615 42.3068 42.7021 35.6069C 46.1225 28.9461 47 21.2549 47 13.4926L 45 13.4926C 45 21.1404 44.1275 28.4529 40.9229 34.6933C 37.7385 40.8946 32.1998 46.135 22.6621 49.5588L 23.3379 51.4412ZM 47 13.4926L 47 11.3785L 45 11.3785L 45 13.4926L 47 13.4926ZM 46 10.3785C 39.9371 10.3785 34.3869 7.65604 30.3011 4.86364C 28.2675 3.4738 26.6205 2.08296 25.4832 1.04067C 24.9151 0.519976 24.4755 0.0874796 24.1798 -0.212749C 24.032 -0.36283 23.9203 -0.479754 23.8466 -0.558001C 23.8097 -0.597121 23.7823 -0.626562 23.7647 -0.645634C 23.7559 -0.65517 23.7496 -0.662112 23.7457 -0.666375C 23.7437 -0.668506 23.7424 -0.669967 23.7417 -0.670748C 23.7413 -0.671138 23.7411 -0.671358 23.7411 -0.671406C 23.7411 -0.67143 23.7411 -0.671337 23.7411 -0.67135C 23.7413 -0.671214 23.7414 -0.671035 23 0C 22.2586 0.671035 22.2588 0.671301 22.2591 0.67161C 22.2592 0.671771 22.2596 0.672123 22.2598 0.672445C 22.2604 0.673088 22.2612 0.673905 22.2621 0.674893C 22.2639 0.676869 22.2663 0.679531 22.2693 0.682869C 22.2754 0.689545 22.284 0.698923 22.2951 0.710916C 22.3173 0.734902 22.3493 0.769354 22.391 0.813573C 22.4743 0.902003 22.5962 1.02954 22.7548 1.19059C 23.0719 1.51262 23.5361 1.96907 24.1319 2.51511C 25.3225 3.60629 27.0439 5.06007 29.1726 6.51486C 33.4113 9.41171 39.3611 12.3785 46 12.3785L 46 10.3785Z"/>
<path id="icon_biopath2_stroke" d="M 0.707322 -0.706891C 0.316917 -1.09753 -0.316248 -1.09773 -0.706891 -0.707323C -1.09753 -0.316918 -1.09773 0.316247 -0.707323 0.706891L 0.707322 -0.706891ZM 12.9679 14.3905C 13.3583 14.7811 13.9915 14.7813 14.3821 14.3909C 14.7727 14.0005 14.7729 13.3673 14.3825 12.9767L 12.9679 14.3905ZM -0.707323 0.706891L 12.9679 14.3905L 14.3825 12.9767L 0.707322 -0.706891L -0.707323 0.706891Z"/>
<path id="icon_biopath3_stroke" d="M 7.1265 5.21987e-08C 7.1265 -0.552285 6.67878 -1 6.1265 -1C 5.57421 -1 5.1265 -0.552285 5.1265 5.21987e-08L 7.1265 5.21987e-08ZM 6.1265 6.15761L 6.1265 7.15761C 6.67878 7.15761 7.1265 6.70989 7.1265 6.15761L 6.1265 6.15761ZM 4.69501e-07 5.15761C -0.552284 5.15761 -1 5.60532 -1 6.15761C -1 6.70989 -0.552284 7.15761 4.69501e-07 7.15761L 4.69501e-07 5.15761ZM 5.1265 5.21987e-08L 5.1265 6.15761L 7.1265 6.15761L 7.1265 5.21987e-08L 5.1265 5.21987e-08ZM 6.1265 5.15761L 4.69501e-07 5.15761L 4.69501e-07 7.15761L 6.1265 7.15761L 6.1265 5.15761Z"/>
<path id="icon_biopath4_stroke" d="M 14.3825 0.706891C 14.7729 0.316247 14.7727 -0.316917 14.3821 -0.707323C 13.9915 -1.09773 13.3583 -1.09753 12.9679 -0.706891L 14.3825 0.706891ZM -0.707323 12.9767C -1.09773 13.3673 -1.09754 14.0005 -0.706892 14.3909C -0.316248 14.7813 0.316917 14.7811 0.707322 14.3905L -0.707323 12.9767ZM 12.9679 -0.706891L -0.707323 12.9767L 0.707322 14.3905L 14.3825 0.706891L 12.9679 -0.706891Z"/>
<path id="icon_biopath5_stroke" d="M 6.15384 7.13024C 6.70613 7.13024 7.15384 6.68252 7.15384 6.13024C 7.15384 5.57795 6.70613 5.13024 6.15384 5.13024L 6.15384 7.13024ZM -2.29534e-06 6.13024L -1 6.13024C -1 6.68252 -0.552287 7.13024 -2.29534e-06 7.13024L -2.29534e-06 6.13024ZM 0.999998 5.21987e-08C 0.999998 -0.552285 0.552282 -1 -2.29534e-06 -1C -0.552287 -1 -1 -0.552285 -1 5.21987e-08L 0.999998 5.21987e-08ZM 6.15384 5.13024L -2.29534e-06 5.13024L -2.29534e-06 7.13024L 6.15384 7.13024L 6.15384 5.13024ZM 0.999998 6.13024L 0.999998 5.21987e-08L -1 5.21987e-08L -1 6.13024L 0.999998 6.13024Z"/>
<path id="icon_biopath6_stroke" d="M 12.9679 14.3905C 13.3583 14.7811 13.9915 14.7813 14.3821 14.3909C 14.7727 14.0005 14.7729 13.3673 14.3825 12.9767L 12.9679 14.3905ZM 0.707322 -0.706893C 0.316917 -1.09754 -0.316248 -1.09773 -0.706892 -0.707325C -1.09754 -0.316919 -1.09773 0.316245 -0.707323 0.706889L 0.707322 -0.706893ZM 14.3825 12.9767L 0.707322 -0.706893L -0.707323 0.706889L 12.9679 14.3905L 14.3825 12.9767Z"/>
<path id="icon_biopath7_stroke" d="M -0.999999 6.15761C -0.999999 6.70989 -0.552283 7.15761 1.46067e-06 7.15761C 0.552286 7.15761 1 6.70989 1 6.15761L -0.999999 6.15761ZM 1.46067e-06 1.04397e-06L 1.46067e-06 -0.999999C -0.552283 -0.999999 -0.999999 -0.552284 -0.999999 1.04397e-06L 1.46067e-06 1.04397e-06ZM 6.12478 1C 6.67707 1 7.12478 0.552286 7.12478 1.04397e-06C 7.12478 -0.552284 6.67707 -0.999999 6.12478 -0.999999L 6.12478 1ZM 1 6.15761L 1 1.04397e-06L -0.999999 1.04397e-06L -0.999999 6.15761L 1 6.15761ZM 1.46067e-06 1L 6.12478 1L 6.12478 -0.999999L 1.46067e-06 -0.999999L 1.46067e-06 1Z"/>
<path id="icon_biopath8_stroke" d="M -0.707323 12.9767C -1.09773 13.3673 -1.09753 14.0005 -0.706891 14.3909C -0.316248 14.7813 0.316917 14.7811 0.707322 14.3905L -0.707323 12.9767ZM 14.3825 0.706889C 14.7729 0.316245 14.7727 -0.31692 14.3821 -0.707325C 13.9915 -1.09773 13.3583 -1.09754 12.9679 -0.706893L 14.3825 0.706889ZM 0.707322 14.3905L 14.3825 0.706889L 12.9679 -0.706893L -0.707323 12.9767L 0.707322 14.3905Z"/>
<path id="icon_biopath9_stroke" d="M -3.13001e-07 -1C -0.552285 -1 -1 -0.552287 -1 -1.87915e-06C -1 0.552283 -0.552285 0.999998 -3.13001e-07 0.999998L -3.13001e-07 -1ZM 6.15214 -1.87915e-06L 7.15214 -1.87915e-06C 7.15214 -0.552287 6.70442 -1 6.15214 -1L 6.15214 -1.87915e-06ZM 5.15214 6.12853C 5.15214 6.68081 5.59985 7.12853 6.15214 7.12853C 6.70442 7.12853 7.15214 6.68081 7.15214 6.12853L 5.15214 6.12853ZM -3.13001e-07 0.999998L 6.15214 0.999998L 6.15214 -1L -3.13001e-07 -1L -3.13001e-07 0.999998ZM 5.15214 -1.87915e-06L 5.15214 6.12853L 7.15214 6.12853L 7.15214 -1.87915e-06L 5.15214 -1.87915e-06Z"/>
</defs>
</svg>
