<svg width="187" height="60" viewBox="0 0 187 60" version="1.1" xmlns="http://www.w3.org/2000/svg" xmlns:xlink="http://www.w3.org/1999/xlink">
<title>logo</title>
<desc>Created using Figma</desc>
<g id="Canvas" transform="translate(-246 -2621)">
<g id="logo">
<g id="Vector">
<use xlink:href="#path0_fill" transform="translate(258.073 2629.45)"/>
</g>
<g id="Vector">
<use xlink:href="#path1_fill" transform="translate(369.727 2629.46)"/>
</g>
<g id="Vector">
<use xlink:href="#path2_fill" transform="translate(246 2621)" fill="#9ECC2E"/>
</g>
<g id="Union">
<use xlink:href="#path3_fill" transform="translate(256.004 2669.63)" fill="#9ECC2E"/>
</g>
</g>
</g>
<defs>
<path id="path0_fill" d="M 85.3597 0.533205L 83.1894 0.533205C 81.0471 0.533205 80.1957 2.31201 80.1957 4.50514L 80.1957 28.3867L 94.7387 28.3867L 94.7387 24.1433L 85.3597 24.1433L 85.3597 0.533205ZM 56.0505 9.32718L 56.0505 8.47707C 56.0973 6.86577 55.7747 5.26564 55.1084 3.80505C 54.5215 2.57542 53.5619 1.57304 52.3728 0.947544C 51.0063 0.280382 49.5037 -0.042916 47.9904 0.00456781C 46.8934 -0.00861243 45.801 0.152858 44.7524 0.483199C 43.8201 0.77886 42.956 1.2649 42.2123 1.91195C 41.4966 2.52663 40.9283 3.30141 40.5514 4.17652C 40.1476 5.1447 39.9455 6.18852 39.9583 7.2412C 39.9367 8.65597 40.2887 10.0505 40.9771 11.2774C 41.74 12.5526 42.7845 13.6267 44.0267 14.4135L 48.6255 17.4996C 49.1922 17.8627 49.7249 18.2788 50.2165 18.7427C 50.6066 19.1175 50.9218 19.5664 51.1446 20.0643C 51.3576 20.569 51.4623 21.1147 51.4517 21.6645C 51.4602 22.2125 51.338 22.7544 51.0958 23.2432C 50.8646 23.7114 50.5059 24.101 50.063 24.3648C 49.5557 24.6536 48.9825 24.7991 48.4021 24.7863C 47.928 24.7939 47.4561 24.719 47.0065 24.5648C 46.5481 24.4134 46.1334 24.1483 45.7992 23.7933C 45.4081 23.3681 45.1211 22.8539 44.9618 22.2931C 44.7361 21.5096 44.6302 20.6951 44.6478 19.8785L 44.6478 18.7998L 39.714 18.7998L 39.714 19.8785C 39.6681 21.5687 39.9998 23.2473 40.684 24.7863C 41.3086 26.1207 42.3296 27.2185 43.601 27.9224C 45.0904 28.6971 46.7463 29.0754 48.4161 29.0225C 49.9914 29.0673 51.5562 28.7474 52.9939 28.0867C 54.1857 27.5137 55.1736 26.5749 55.8202 25.4007C 56.4896 24.1063 56.8213 22.657 56.7832 21.193C 56.7975 20.2797 56.6895 19.3687 56.4622 18.4855C 56.2681 17.7612 55.9567 17.0754 55.541 16.4567C 55.1267 15.8506 54.6364 15.303 54.0825 14.8279C 53.4674 14.3006 52.8219 13.8115 52.1495 13.3634L 46.8739 9.79152C 46.5328 9.57121 46.2189 9.30978 45.9388 9.01285C 45.6766 8.72703 45.4747 8.38902 45.3456 8.01987C 45.193 7.56024 45.1221 7.07635 45.1363 6.59112C 45.1286 6.12628 45.2655 5.67099 45.527 5.29095C 45.7804 4.93893 46.1231 4.66468 46.518 4.498C 46.9614 4.31579 47.4359 4.22592 47.9137 4.23367C 48.5288 4.21188 49.1362 4.37854 49.6582 4.71231C 50.1797 5.08424 50.5671 5.62144 50.7608 6.24108C 51.0469 7.12256 51.1792 8.04871 51.1516 8.97713L 51.1516 9.28432L 56.0505 9.32718ZM 5.17797 15.8066L 8.4927 15.8066C 8.91576 15.7843 9.33718 15.8754 9.71534 16.0708C 10.0935 16.2663 10.4153 16.5593 10.649 16.921C 11.1726 17.8884 11.4148 18.989 11.3469 20.0928C 11.3708 20.9403 11.2648 21.7864 11.0328 22.6003C 10.8745 23.1587 10.5379 23.6466 10.0768 23.9862C 9.59779 24.2883 9.04075 24.4353 8.47875 24.4077L 5.17099 24.4077L 5.17797 15.8066ZM 5.17797 5.27666C 5.17797 4.84804 5.35243 4.50514 5.77811 4.50514L 7.96932 4.50514C 8.60904 4.47423 9.24579 4.61197 9.8186 4.90519C 10.2747 5.16715 10.6238 5.58793 10.8026 6.09105C 11.0147 6.72243 11.1116 7.38834 11.0887 8.05559C 11.1573 9.04531 10.8912 10.0291 10.335 10.8417C 10.0291 11.1892 9.6488 11.4596 9.22391 11.6318C 8.79902 11.8041 8.341 11.8735 7.88559 11.8346L 5.17099 11.8346L 5.17099 5.27666L 5.17797 5.27666ZM 0.0139585 28.3796L 10.4118 28.3796C 11.3577 28.3938 12.294 28.1835 13.1473 27.7652C 13.9208 27.3674 14.587 26.7811 15.0873 26.0579C 15.6262 25.2687 16.0189 24.3849 16.2457 23.4504C 16.5116 22.3644 16.6406 21.2481 16.6295 20.1285C 16.6518 19.0738 16.4984 18.023 16.1759 17.021C 15.8956 16.2093 15.4345 15.4755 14.8291 14.8779C 14.1824 14.2578 13.4239 13.7725 12.596 13.4491C 13.1609 13.3281 13.6866 13.0627 14.1243 12.6776C 14.5876 12.2749 14.9775 11.7911 15.2757 11.2489C 15.587 10.6638 15.8216 10.0393 15.9735 9.39147C 16.3474 7.88512 16.3039 6.30193 15.8479 4.81946C 15.6 4.031 15.1988 3.30202 14.6686 2.67633C 14.0954 2.01332 13.3784 1.49707 12.5751 1.169C 11.5994 0.77955 10.5585 0.590224 9.51155 0.611787L 2.99373 0.611787C 0.851363 0.611787 -1.27778e-06 2.39059 -1.27778e-06 4.58372L 0.0139585 28.3796ZM 18.1578 28.3796L 23.6986 28.3796L 25.3176 21.1287L 31.1585 21.1287L 32.4426 28.3796L 38.0253 28.3796L 32.8543 4.48371C 32.3728 2.29771 31.3051 0.526065 29.1697 0.526065L 27.774 0.526065C 25.6316 0.526065 24.5709 2.30486 24.0894 4.498L 18.1578 28.3796ZM 25.9596 16.9996L 27.8229 7.26977L 27.8229 7.18405C 27.8478 7.05408 27.9161 6.93701 28.016 6.85286C 28.1159 6.76871 28.2413 6.7227 28.3707 6.7227C 28.5 6.7227 28.6254 6.76871 28.7253 6.85286C 28.8253 6.93701 28.8935 7.05408 28.9185 7.18405L 28.9185 7.22691L 28.9185 7.29835L 30.4746 17.0282L 25.9596 16.9996ZM 58.1789 28.3796L 63.7197 28.3796L 65.3387 21.1287L 71.1796 21.1287L 72.4636 28.3796L 78.0463 28.3796L 72.8754 4.48371C 72.3939 2.29771 71.3262 0.526065 69.1908 0.526065L 67.7951 0.526065C 65.6527 0.526065 64.592 2.30486 64.1105 4.498L 58.1789 28.3796ZM 66.0016 17.0067L 67.8649 7.27692L 67.8649 7.19119C 67.8898 7.06122 67.9581 6.94415 68.058 6.86C 68.1579 6.77585 68.2833 6.72984 68.4127 6.72984C 68.5421 6.72984 68.6674 6.77585 68.7674 6.86C 68.8673 6.94415 68.9355 7.06122 68.9605 7.19119L 68.9605 7.23406L 68.9605 7.3055L 70.5167 17.0353L 66.0016 17.0067ZM 103.566 4.7766L 106.979 4.7766C 109.121 4.7766 109.972 2.99781 109.972 0.804671L 109.972 0.533205L 94.9759 0.533205C 92.8336 0.533205 91.9822 2.31201 91.9822 4.50514L 91.9822 4.7766L 98.3884 4.7766L 98.3884 28.351L 103.552 28.351L 103.566 4.7766Z"/>
<path id="path1_fill" d="M 46.4621 4.28773C 47.1347 4.26831 47.7962 4.46573 48.3533 4.85209C 48.8919 5.26535 49.2996 5.83185 49.5257 6.48087C 49.8109 7.29873 49.948 8.16297 49.9304 9.03119L 49.9304 20.3326C 50.0051 21.5166 49.6879 22.6919 49.0302 23.6688C 48.7188 24.0506 48.3242 24.3522 47.8782 24.5495C 47.4322 24.7468 46.9471 24.8342 46.4621 24.8046C 45.9544 24.8427 45.4451 24.7585 44.9749 24.5588C 44.5047 24.3591 44.0867 24.0494 43.7545 23.6545C 43.1086 22.6784 42.8015 21.5087 42.8822 20.3326L 42.8822 8.94547C 42.8028 7.73146 43.1088 6.52367 43.7545 5.50217C 44.0754 5.08967 44.4897 4.76348 44.9615 4.55186C 45.4333 4.34025 45.9484 4.24958 46.4621 4.28773ZM 37.6066 9.57411L 37.6066 19.6825C 37.5754 21.1847 37.7998 22.681 38.2695 24.1045C 38.6442 25.1961 39.2744 26.1772 40.1048 26.962C 40.9067 27.6976 41.8611 28.2374 42.8962 28.5408C 45.2337 29.1702 47.6905 29.1702 50.0281 28.5408C 51.0912 28.2551 52.0659 27.6974 52.8605 26.9202C 53.6552 26.1429 54.2438 25.1715 54.571 24.0974C 55.0194 22.6547 55.2316 21.1461 55.1991 19.6325L 55.1991 9.55984C 55.2303 8.04168 55.0182 6.52855 54.571 5.08069C 54.2194 3.96658 53.6088 2.95655 52.7915 2.13746C 51.997 1.38353 51.041 0.830607 50.0002 0.522973C 48.8529 0.169337 47.6603 -0.00644575 46.4621 0.00147551C 45.2579 -0.017743 44.0578 0.150875 42.9032 0.501537C 41.8239 0.818816 40.8372 1.40217 40.0294 2.2005C 39.2215 2.99883 38.6173 3.98777 38.2695 5.08069C 37.8002 6.52384 37.5782 8.03924 37.6135 9.55984L 37.6066 9.57411ZM 34.2151 9.60984L 34.2151 8.22394C 34.2557 6.70125 33.9348 5.19121 33.2799 3.82339C 32.67 2.62191 31.7088 1.6454 30.5305 1.03018C 29.1443 0.344016 27.6174 0.00838638 26.0783 0.0514816C 23.2869 0.0514816 21.1724 0.832532 19.7349 2.39464C 18.2974 3.95674 17.5856 6.36657 17.5995 9.62413L 17.5995 19.7683C 17.5867 20.957 17.7061 22.1433 17.9554 23.3044C 18.1862 24.3729 18.6279 25.3817 19.2534 26.2691C 19.9181 27.1687 20.8043 27.8713 21.8214 28.3051C 23.153 28.8438 24.5772 29.1014 26.0085 29.0623C 27.3775 29.096 28.7387 28.8407 30.0071 28.3122C 31.0085 27.8711 31.8794 27.1692 32.5333 26.2762C 33.1627 25.3789 33.6089 24.3609 33.8452 23.283C 34.1069 22.1116 34.2333 20.9127 34.222 19.7111L 34.222 18.5181L 29.058 18.5181L 29.058 20.004C 29.088 20.9688 28.9727 21.9326 28.7161 22.8615C 28.5545 23.4779 28.1896 24.018 27.6833 24.3903C 27.166 24.7144 26.5653 24.8712 25.9596 24.8403C 25.339 24.8755 24.7221 24.7214 24.1871 24.3974C 23.6866 24.0313 23.3303 23.4942 23.1822 22.8829C 22.9441 21.9508 22.8384 20.9884 22.8682 20.0254L 22.8682 8.98119C 22.839 8.04086 22.9496 7.10144 23.1962 6.19512C 23.3554 5.593 23.716 5.06716 24.215 4.70921C 24.7575 4.39202 25.3775 4.24079 26.0015 4.27345C 26.6189 4.23922 27.2327 4.39069 27.767 4.70921C 28.2547 5.07001 28.6011 5.59675 28.744 6.19512C 28.9789 7.10344 29.0823 8.04213 29.051 8.98119L 29.051 9.59555L 34.2151 9.60984ZM 0.020933 4.51633L 0.020933 28.3979L 14.5639 28.3979L 14.5639 24.1545L 5.16402 24.1545L 5.16402 15.5034L 13.7195 15.5034L 13.7195 11.26L 5.16402 11.26L 5.16402 5.54504C 5.16402 5.11641 5.33846 4.77351 5.76415 4.77351L 11.5702 4.77351C 13.7125 4.77351 14.5639 2.99471 14.5639 0.801579L 14.5639 0.530113L 2.99373 0.530113C 0.851368 0.530113 -1.27778e-06 2.30891 -1.27778e-06 4.50919L 0.020933 4.51633Z"/>
<path id="path2_fill" d="M 127.83 4.55772L 14.4662 4.55772C 13.156 4.5564 11.8586 4.82106 10.649 5.33639C 9.43286 5.85726 8.3281 6.61689 7.3971 7.57239C 6.46441 8.52178 5.72413 9.65043 5.21876 10.8935C 4.71339 12.1366 4.45289 13.4697 4.45221 14.8162L 4.45221 31.1754C 4.45092 32.5166 4.70945 33.8448 5.21286 35.083C 6.24462 37.5966 8.19926 39.595 10.656 40.648C 11.8656 41.1633 13.163 41.428 14.4732 41.4267L 172.534 41.4267C 173.844 41.428 175.141 41.1633 176.351 40.648C 177.567 40.1273 178.672 39.3677 179.603 38.412C 180.535 37.4635 181.275 36.336 181.78 35.0942C 182.285 33.8524 182.546 32.5206 182.548 31.1754L 182.548 14.8162C 182.549 13.475 182.291 12.1468 181.787 10.9085C 180.757 8.39222 178.802 6.39106 176.344 5.33639C 175.134 4.82106 173.837 4.5564 172.527 4.55772L 127.83 4.55772ZM 4.24984 4.35055C 5.5892 2.9727 7.18114 1.87912 8.93431 1.13255C 10.6875 0.385974 12.5674 0.00110118 14.4662 0L 172.534 0C 176.368 0.00943214 180.042 1.57269 182.753 4.34788C 185.464 7.12307 186.991 10.8843 187 14.809L 187 31.1682C 186.991 35.0929 185.464 38.8542 182.753 41.6294C 180.042 44.4046 176.368 45.9678 172.534 45.9773L 14.4662 45.9773C 10.6341 45.966 6.96206 44.4031 4.25171 41.6298C 1.54136 38.8566 0.0128869 35.0983 1.01431e-07 31.1754L 1.01431e-07 14.8162C -0.000225271 12.8711 0.375122 10.9452 1.10446 9.1491C 1.8338 7.35304 2.90274 5.72227 4.24984 4.35055Z"/>
<path id="path3_fill" fill-rule="evenodd" d="M 164.993 4.3013L 165.523 4.3013L 165.544 1.93679L 165.042 1.93679C 164.91 1.92752 164.778 1.95047 164.657 2.00393C 164.535 2.05716 164.428 2.13967 164.344 2.24392C 164.171 2.48538 164.085 2.78054 164.1 3.07962C 164.096 3.2947 164.134 3.50833 164.211 3.70828C 164.273 3.87942 164.38 4.03006 164.519 4.14407C 164.578 4.18948 164.644 4.22561 164.713 4.25174C 164.802 4.28543 164.897 4.30252 164.993 4.3013ZM 165.523 9.53054L 165.523 5.95877L 165.077 5.9302L 163.793 9.50198L 161.483 9.50198L 163.179 5.42288C 162.924 5.28299 162.701 5.09085 162.523 4.85842C 162.326 4.60452 162.174 4.31668 162.076 4.00833C 161.964 3.66531 161.907 3.30569 161.909 2.94412C 161.907 2.59158 161.963 2.24124 162.076 1.90823C 162.182 1.59573 162.345 1.30716 162.558 1.05813C 162.697 0.899684 162.856 0.761989 163.031 0.649196C 163.127 0.587429 163.228 0.532985 163.332 0.486599C 163.66 0.341091 164.015 0.268093 164.372 0.272243L 167.694 0.272243L 167.694 9.53054L 165.523 9.53054ZM 157.1 9.47342L 155.007 9.47342L 155.007 0.243679L 157.052 0.272243L 157.052 2.55813C 157.052 2.74173 157.041 2.93606 157.027 3.14114L 157.01 3.39407C 156.989 3.69412 156.954 4.00125 156.912 4.3157C 156.875 4.5928 156.844 4.86428 156.813 5.1304L 156.8 5.23709C 156.778 5.42678 156.756 5.60769 156.743 5.7803C 156.735 5.88064 156.731 5.9783 156.731 6.07302L 158.566 0.272243L 160.659 0.272243L 160.659 9.45901L 158.566 9.45901L 158.566 7.31594C 158.566 7.06594 158.58 6.78738 158.615 6.49441C 158.65 6.20144 158.685 5.89431 158.733 5.5801L 158.866 4.66555C 158.908 4.37283 158.971 4.10134 158.971 3.85134L 157.1 9.47342ZM 147.84 0.243679L 150.01 0.243679L 150.01 7.75882L 151.406 7.75882L 151.406 0.272243L 153.576 0.272243L 153.576 7.72317L 154.044 7.72317L 154.044 11.3736L 151.95 11.3736L 151.95 9.47342L 147.84 9.47342L 147.84 0.243679ZM 143.897 4.26565L 144.428 4.26565L 144.463 1.91531L 143.96 1.91531C 143.828 1.90603 143.696 1.92898 143.575 1.98245C 143.454 2.03591 143.346 2.11819 143.262 2.22244C 143.089 2.46389 143.003 2.7593 143.018 3.05838C 143.016 3.17215 143.026 3.28543 143.047 3.39675C 143.066 3.49563 143.093 3.5928 143.13 3.68704C 143.192 3.85794 143.298 4.00857 143.437 4.12283C 143.572 4.21878 143.733 4.26883 143.897 4.26565ZM 144.428 9.4949L 144.428 5.92288L 144.002 5.9302L 142.718 9.50198L 140.408 9.50198L 142.104 5.42288C 141.85 5.28299 141.626 5.09085 141.448 4.85842C 141.251 4.60452 141.1 4.31668 141.001 4.00833C 140.926 3.77786 140.876 3.53982 140.851 3.29885C 140.839 3.18118 140.833 3.06277 140.834 2.94412C 140.833 2.77053 140.846 2.59719 140.873 2.4263C 140.901 2.25051 140.944 2.07717 141.001 1.90823C 141.107 1.59573 141.271 1.30716 141.483 1.05813C 141.698 0.813015 141.962 0.617946 142.257 0.486599C 142.432 0.409206 142.614 0.352321 142.8 0.316677C 142.963 0.285183 143.13 0.27029 143.297 0.272243L 146.598 0.272243L 146.598 9.4949L 144.428 9.4949ZM 133.876 4.5657L 133.876 0.208034L 139.543 0.272243L 139.543 9.47342L 137.373 9.47342L 137.373 1.98684L 135.942 1.98684L 135.942 5.1658C 135.945 5.54275 135.936 5.9197 135.915 6.29592C 135.903 6.51956 135.886 6.74295 135.865 6.96585C 135.829 7.39236 135.749 7.81375 135.628 8.22317C 135.59 8.35916 135.54 8.49099 135.479 8.61697C 135.408 8.76321 135.323 8.90188 135.223 9.03054C 135.065 9.22171 134.86 9.36721 134.63 9.45193C 134.379 9.53909 134.114 9.5801 133.848 9.57351C 133.707 9.58499 133.564 9.58499 133.423 9.57351C 133.295 9.55154 133.169 9.52053 133.046 9.4805C 132.923 9.43924 132.802 9.39163 132.683 9.33767L 132.683 7.7803C 132.754 7.81106 132.83 7.83035 132.906 7.83743L 133.213 7.83743C 133.317 7.84402 133.421 7.8218 133.514 7.77322C 133.571 7.73709 133.619 7.68826 133.654 7.63089C 133.675 7.59768 133.691 7.56155 133.702 7.52322C 133.76 7.34768 133.795 7.16507 133.807 6.98025C 133.833 6.82888 133.851 6.65994 133.863 6.47293C 133.872 6.32449 133.876 6.16507 133.876 5.99441L 133.876 4.5657ZM 129.347 1.77957C 129.236 1.72732 129.114 1.70071 128.991 1.70095L 128.999 1.76516C 128.933 1.75418 128.867 1.75076 128.802 1.75515C 128.751 1.75857 128.7 1.76663 128.65 1.77957C 128.535 1.83377 128.438 1.92044 128.37 2.02957C 128.329 2.0989 128.299 2.17385 128.281 2.25198C 128.265 2.31912 128.257 2.38845 128.259 2.45828L 128.259 7.13748C 128.256 7.29715 128.294 7.4551 128.37 7.59451C 128.437 7.70999 128.533 7.80423 128.65 7.86599C 128.758 7.92141 128.877 7.95022 128.999 7.95022C 129.12 7.95022 129.239 7.92141 129.347 7.86599C 129.463 7.80423 129.56 7.70999 129.627 7.59451C 129.707 7.45657 129.748 7.29812 129.745 7.13748L 129.745 2.45828C 129.749 2.30642 129.707 2.15701 129.627 2.02957C 129.557 1.9219 129.461 1.83572 129.347 1.77957ZM 127.666 0.20071C 128.094 0.0595966 128.542 -0.00803034 128.991 0.00075872L 129.012 0.0649677C 129.452 0.0676533 129.888 0.145046 130.303 0.293727C 130.642 0.40945 130.952 0.599636 131.211 0.850856C 131.39 1.0303 131.537 1.23928 131.646 1.46878C 131.679 1.53738 131.708 1.60769 131.734 1.67947C 131.79 1.83963 131.832 2.00393 131.86 2.17092C 131.889 2.34329 131.903 2.51834 131.901 2.69387L 131.901 6.74441C 131.917 7.28543 131.812 7.82278 131.594 8.31619C 131.393 8.74685 131.056 9.09646 130.638 9.30911C 130.114 9.53689 129.551 9.65408 128.981 9.65408C 128.412 9.65408 127.848 9.53689 127.324 9.30911C 126.903 9.09768 126.564 8.74807 126.361 8.31619C 126.139 7.824 126.031 7.28616 126.047 6.74441L 126.047 2.59402C 126.043 2.24539 126.103 1.8992 126.221 1.57229C 126.335 1.26126 126.517 0.980495 126.751 0.750759C 127.014 0.502224 127.326 0.314479 127.666 0.20071ZM 121.336 2.24392C 121.285 2.50003 121.261 2.76126 121.266 3.02249L 119.299 3.07254C 119.294 2.63699 119.365 2.20413 119.508 1.79397C 119.632 1.43972 119.827 1.11599 120.08 0.843776C 120.323 0.584255 120.618 0.381862 120.945 0.250759C 121.084 0.195583 121.227 0.151638 121.372 0.119167C 121.587 0.0710712 121.806 0.048122 122.027 0.0508075C 122.417 0.0461689 122.805 0.11404 123.172 0.250759C 123.486 0.36819 123.773 0.550563 124.016 0.786647C 124.242 1.0054 124.421 1.27078 124.539 1.56521C 124.659 1.85965 124.72 2.17508 124.721 2.49392C 124.73 2.82254 124.687 3.15066 124.595 3.4656C 124.519 3.73513 124.377 3.98098 124.183 4.17996C 124.054 4.30178 123.912 4.40872 123.761 4.49929C 123.659 4.56008 123.553 4.61331 123.444 4.65847C 123.663 4.73611 123.875 4.83157 124.079 4.94436C 124.267 5.05008 124.435 5.19046 124.574 5.35867C 124.655 5.46292 124.724 5.57595 124.78 5.69558C 124.828 5.80032 124.867 5.90994 124.895 6.02298C 124.981 6.35623 125.021 6.69998 125.014 7.04446C 125.021 7.45242 124.949 7.85769 124.804 8.23758C 124.678 8.56082 124.477 8.84768 124.218 9.07327C 123.954 9.30349 123.645 9.4739 123.311 9.57351C 122.928 9.68728 122.531 9.7427 122.132 9.73782C 121.86 9.74002 121.589 9.71365 121.322 9.65921C 121.052 9.60281 120.791 9.50662 120.548 9.37332C 120.372 9.27639 120.21 9.15554 120.066 9.01468C 120.007 8.95657 119.951 8.89505 119.899 8.83035C 119.697 8.57986 119.545 8.29104 119.452 7.98025C 119.335 7.5845 119.279 7.17239 119.285 6.75882L 121.28 6.75882C 121.272 7.02859 121.302 7.29812 121.371 7.55886C 121.41 7.72244 121.504 7.86648 121.636 7.96609C 121.759 8.04715 121.902 8.08718 122.048 8.08035C 122.207 8.09011 122.365 8.05008 122.502 7.96609C 122.584 7.90213 122.651 7.82083 122.698 7.72854C 122.725 7.67532 122.746 7.61819 122.76 7.55886C 122.82 7.2969 122.846 7.02786 122.837 6.75882C 122.867 6.43313 122.791 6.10647 122.62 5.8301C 122.527 5.72781 122.411 5.64944 122.283 5.6011C 122.154 5.55276 122.016 5.53567 121.88 5.55154L 121.567 5.55154L 121.567 3.80838L 122.083 3.80838C 122.195 3.80593 122.303 3.76565 122.39 3.69412C 122.498 3.60232 122.582 3.4844 122.634 3.3511C 122.703 3.1741 122.736 2.98465 122.732 2.79397C 122.735 2.59109 122.709 2.38894 122.655 2.19387C 122.616 2.04153 122.534 1.90457 122.418 1.80105C 122.296 1.70486 122.146 1.65261 121.992 1.65261C 121.838 1.65261 121.688 1.70486 121.567 1.80105C 121.446 1.92019 121.366 2.07522 121.336 2.24392ZM 112.599 9.43777L 112.599 0.208034L 114.644 0.272243L 114.644 2.55813C 114.644 2.79837 114.626 3.05691 114.606 3.33425L 114.602 3.39407C 114.581 3.69412 114.546 4.00125 114.504 4.3157C 114.486 4.45706 114.468 4.59695 114.451 4.73562C 114.431 4.90481 114.412 5.07205 114.393 5.23709C 114.358 5.53714 114.323 5.8157 114.323 6.07302L 116.158 0.272243L 118.252 0.272243L 118.252 9.42337L 116.158 9.42337L 116.158 7.2803C 116.158 7.0303 116.172 6.75174 116.207 6.45877L 116.218 6.36477C 116.25 6.10037 116.282 5.82522 116.326 5.54422L 116.458 4.62991C 116.471 4.54422 116.485 4.46023 116.498 4.3782C 116.532 4.17996 116.563 3.99221 116.563 3.81546L 114.693 9.43777L 112.599 9.43777ZM 108.901 1.84378C 108.789 1.79177 108.668 1.76492 108.545 1.76516C 108.427 1.76687 108.31 1.79373 108.203 1.84378C 108.088 1.89798 107.991 1.98489 107.924 2.09378C 107.847 2.22293 107.809 2.37161 107.812 2.52249L 107.812 7.20169C 107.809 7.3616 107.848 7.51931 107.924 7.65896C 107.99 7.77444 108.087 7.86843 108.203 7.93045C 108.311 7.98562 108.431 8.01443 108.552 8.01443C 108.673 8.01443 108.792 7.98562 108.901 7.93045C 109.017 7.86843 109.114 7.77444 109.18 7.65896C 109.26 7.52078 109.301 7.36233 109.298 7.20169L 109.298 2.52249C 109.302 2.37063 109.26 2.22146 109.18 2.09378C 109.111 1.98635 109.014 1.89993 108.901 1.84378ZM 107.219 0.265163C 107.647 0.12405 108.095 0.0564228 108.545 0.0649677C 108.992 0.0652118 109.435 0.142604 109.857 0.293727C 110.195 0.40945 110.505 0.599636 110.764 0.850856C 110.996 1.08401 111.175 1.36697 111.287 1.67947C 111.348 1.8533 111.393 2.0325 111.421 2.21414C 111.445 2.37258 111.456 2.53299 111.455 2.69387L 111.455 6.80886C 111.47 7.34964 111.365 7.88699 111.148 8.3804C 110.946 8.81131 110.61 9.16067 110.192 9.37332C 109.667 9.6011 109.104 9.71853 108.534 9.71853C 107.965 9.71853 107.401 9.6011 106.877 9.37332C 106.683 9.27615 106.507 9.14944 106.353 8.99881C 106.173 8.82254 106.024 8.61331 105.914 8.3804C 105.692 7.88845 105.585 7.35037 105.6 6.80886L 105.6 2.65823C 105.597 2.3096 105.656 1.96341 105.774 1.63675C 105.832 1.48001 105.907 1.33084 105.996 1.19217C 106.085 1.05569 106.188 0.928981 106.305 0.815212C 106.479 0.649684 106.676 0.511257 106.888 0.403591C 106.994 0.349392 107.105 0.303249 107.219 0.265163ZM 98.775 4.62991L 98.775 0.272243L 104.435 0.272243L 104.435 9.48758L 102.264 9.48758L 102.264 2.001L 100.876 2.001L 100.876 5.17996C 100.877 5.3782 100.875 5.57644 100.87 5.77468C 100.86 6.17727 100.836 6.57937 100.799 6.98025C 100.763 7.40652 100.683 7.82791 100.562 8.23758C 100.477 8.53176 100.338 8.80593 100.15 9.0447C 99.9917 9.23611 99.7871 9.38137 99.5566 9.46634C 99.305 9.55325 99.0405 9.59426 98.775 9.58767C 98.6334 9.59915 98.4911 9.59915 98.3494 9.58767C 98.2546 9.57132 98.1609 9.55008 98.0684 9.52395C 98.0362 9.51492 98.0043 9.50515 97.9725 9.4949C 97.8494 9.4534 97.7283 9.40579 97.6097 9.35208L 97.6097 7.7947C 97.6808 7.82522 97.7561 7.84451 97.833 7.85183L 98.14 7.85183C 98.2439 7.85842 98.3475 7.83621 98.4401 7.78738C 98.5308 7.73074 98.5979 7.64163 98.6285 7.53738C 98.6861 7.36184 98.7214 7.17947 98.7331 6.99441C 98.7611 6.75637 98.775 6.44436 98.775 6.05862L 98.775 4.62991ZM 90.0102 9.50906L 84.9579 9.50906L 84.9579 0.272243L 90.0032 0.272243L 90.0032 2.02249L 87.1282 2.02249L 87.1282 3.83694L 89.7031 3.83694L 89.7031 5.61575L 87.1351 5.61575L 87.1351 7.75882L 90.0102 7.75882L 90.0102 9.50906ZM 84.1205 2.02249L 82.5084 2.02249L 82.5225 9.50906L 80.5266 9.50906L 80.5266 2.02249L 78.8169 2.02249L 78.8169 0.272243L 84.1205 0.272243L 84.1205 2.02249ZM 71.978 4.3013L 72.5084 4.3013L 72.5364 1.93679L 72.0338 1.93679C 71.9021 1.92752 71.77 1.95047 71.6487 2.00393C 71.5272 2.05716 71.42 2.13967 71.3361 2.24392C 71.2363 2.38308 71.1654 2.54007 71.1261 2.70535C 71.0973 2.82693 71.0854 2.95291 71.0918 3.07962C 71.0885 3.2947 71.1265 3.50833 71.2035 3.70828C 71.2654 3.87942 71.3715 4.03006 71.5105 4.14407C 71.6457 4.24661 71.8097 4.30178 71.978 4.3013ZM 72.5084 9.53054L 72.5084 5.95877L 72.0828 5.9302L 70.7987 9.50198L 68.4889 9.50198L 70.1846 5.42288C 69.9303 5.28299 69.7069 5.09085 69.5287 4.85842C 69.3315 4.60452 69.1804 4.31668 69.082 4.00833C 68.97 3.66531 68.9133 3.30569 68.9145 2.94412C 68.9126 2.59158 68.9692 2.24124 69.082 1.90823C 69.1879 1.59573 69.3513 1.30716 69.5635 1.05813C 69.7788 0.813015 70.043 0.617946 70.3381 0.486599C 70.6661 0.341091 71.0205 0.268093 71.3779 0.272243L 74.6787 0.272243L 74.6787 9.53054L 72.5084 9.53054ZM 64.881 1.92947L 64.3158 5.99441L 65.4602 5.99441L 64.881 1.92947ZM 61.657 9.50906L 63.6179 0.279323L 66.2279 0.279323L 68.2236 9.50906L 66.0882 9.50906L 65.7602 7.65896L 64.0995 7.65896L 63.8203 9.50906L 61.657 9.50906ZM 55.202 0.279323L 57.3723 0.279323L 57.3723 3.84402L 58.7679 3.84402L 58.7679 0.272243L 60.9382 0.272243L 60.9382 9.47342L 58.7679 9.47342L 58.7679 5.55154L 57.3723 5.55154L 57.3723 9.50906L 55.202 9.50906L 55.202 0.279323ZM 48.1748 3.57254L 48.1748 0.279323L 50.359 0.279323L 50.359 3.37966C 50.348 3.55471 50.4001 3.72757 50.5055 3.8655C 50.5665 3.92215 50.6383 3.96536 50.7163 3.99246C 50.7944 4.01956 50.8771 4.02981 50.9591 4.02273C 51.0504 4.0242 51.1415 4.01907 51.2319 4.00735C 51.2855 4.00051 51.3389 3.99124 51.3918 3.97976C 51.5246 3.95047 51.6534 3.90506 51.7756 3.84402L 51.7756 0.272243L 53.9459 0.272243L 53.9459 9.55203L 51.7756 9.55203L 51.7756 5.63015L 51.4407 5.70852L 51.0986 5.7659L 50.68 5.7659L 50.1287 5.7659C 49.9565 5.76541 49.7853 5.74124 49.6193 5.69436C 49.4347 5.64187 49.2584 5.56228 49.0959 5.45852C 48.9206 5.34817 48.7649 5.20803 48.6354 5.04422C 48.5533 4.94143 48.4818 4.83059 48.4217 4.71365C 48.3739 4.62039 48.3332 4.52322 48.3004 4.42288C 48.2427 4.23928 48.2046 4.05008 48.1866 3.85867C 48.1777 3.7637 48.1738 3.66824 48.1748 3.57254ZM 41.3568 9.50906L 41.3568 0.279323L 43.4015 0.272243L 43.4015 2.55813C 43.4015 2.81546 43.3806 3.09402 43.3596 3.39407C 43.3387 3.69412 43.3038 4.00125 43.262 4.3157C 43.2201 4.62991 43.1852 4.93704 43.1503 5.23709C 43.1153 5.53714 43.0806 5.8157 43.0806 6.07302L 44.9159 0.272243L 47.0094 0.272243L 47.0094 9.4949L 44.9159 9.4949L 44.9159 7.35159C 44.9159 7.10159 44.9298 6.82302 44.9647 6.53006C 44.9996 6.23733 45.0344 5.9302 45.0834 5.61575L 45.2159 4.70144C 45.2578 4.40847 45.3205 4.13699 45.3205 3.88699L 43.4503 9.50906L 41.3568 9.50906ZM 35.3624 9.50906L 35.3624 0.279323L 40.4078 0.272243L 40.4078 2.02249L 37.5327 2.02249L 37.5327 9.50906L 35.3624 9.50906ZM 31.6219 1.8511C 31.5102 1.79885 31.3889 1.772 31.2661 1.77249L 31.28 1.76516C 31.1567 1.76712 31.0353 1.79641 30.9242 1.8511C 30.8096 1.90506 30.7126 1.99197 30.645 2.1011C 30.5687 2.23001 30.53 2.37893 30.5333 2.52957L 30.5333 7.20877C 30.5303 7.36868 30.5688 7.52639 30.645 7.66604C 30.7113 7.78152 30.8081 7.87551 30.9242 7.93753C 31.0325 7.99295 31.152 8.02176 31.2731 8.02176C 31.3942 8.02176 31.5137 7.99295 31.6219 7.93753C 31.6915 7.90042 31.7541 7.85183 31.8074 7.79397C 31.843 7.75515 31.8745 7.71243 31.9011 7.66604C 31.9363 7.60549 31.964 7.54104 31.9836 7.47415C 32.0089 7.3887 32.0212 7.2991 32.0198 7.20877L 32.0198 2.52957C 32.0231 2.37796 31.9818 2.22854 31.9011 2.1011C 31.8318 1.99343 31.7353 1.90701 31.6219 1.8511ZM 29.9402 0.272243C 30.3684 0.13113 30.8164 0.0635029 31.2661 0.0722919L 31.2941 0.0649677C 31.7338 0.0676533 32.1699 0.145046 32.5849 0.293727C 32.9235 0.40945 33.233 0.599636 33.4922 0.850856C 33.7246 1.08401 33.9033 1.36697 34.0156 1.67947C 34.1296 2.00491 34.1863 2.34841 34.1831 2.69387L 34.1831 6.83743C 34.1984 7.3782 34.0934 7.9158 33.876 8.40896C 33.6688 8.83303 33.3301 9.17459 32.913 9.38064C 32.6628 9.48928 32.4038 9.57278 32.1394 9.6304C 31.8496 9.69339 31.5533 9.72561 31.2556 9.72561C 30.6861 9.72561 30.1225 9.60818 29.5983 9.38064C 29.1777 9.16922 28.8387 8.81961 28.6352 8.38748C 28.4133 7.89553 28.3059 7.35769 28.3212 6.81594L 28.3212 2.66531C 28.318 2.31692 28.3772 1.97073 28.4957 1.64383C 28.61 1.33279 28.7912 1.05203 29.026 0.822292C 29.2884 0.573513 29.6002 0.386013 29.9402 0.272243ZM 21.4963 4.63699L 21.4963 0.279323L 27.1977 0.272243L 27.1977 9.4949L 25.0275 9.4949L 25.0275 2.00808L 23.5968 2.00808L 23.5968 5.18704C 23.6017 5.78811 23.576 6.38894 23.5201 6.98733C 23.4839 7.41384 23.4043 7.83523 23.2828 8.24466C 23.1986 8.53885 23.0587 8.81301 22.8711 9.05203C 22.7129 9.24319 22.5083 9.3887 22.2779 9.47342C 22.0264 9.56033 21.7618 9.60159 21.4963 9.59475C 21.3547 9.60647 21.2123 9.60647 21.0707 9.59475C 20.9431 9.57278 20.8171 9.54177 20.6938 9.50198C 20.5705 9.46072 20.4495 9.41287 20.3309 9.35916L 20.3309 7.80178C 20.4021 7.8323 20.4774 7.85159 20.5543 7.85891L 20.8613 7.85891C 20.9652 7.8655 21.0688 7.84329 21.1614 7.7947C 21.2521 7.73782 21.3191 7.64871 21.3498 7.54446C 21.4075 7.36892 21.4426 7.18655 21.4545 7.00174C 21.4687 6.87991 21.4794 6.73904 21.4863 6.57888C 21.493 6.42556 21.4963 6.25466 21.4963 6.06594L 21.4963 4.63699ZM 16.9674 1.8511C 16.8557 1.79885 16.7342 1.772 16.6114 1.77249L 16.6394 1.76516C 16.5113 1.76492 16.385 1.79422 16.2695 1.8511C 16.1549 1.90506 16.058 1.99197 15.9903 2.1011C 15.9141 2.23001 15.8754 2.37893 15.8788 2.52957L 15.8788 7.20877C 15.8756 7.36868 15.9142 7.52639 15.9903 7.66604C 16.0177 7.71365 16.0502 7.75759 16.087 7.79715C 16.1396 7.85354 16.2013 7.90115 16.2695 7.93753C 16.3236 7.96511 16.3805 7.98611 16.4388 8.00027C 16.4974 8.01443 16.5577 8.02176 16.6184 8.02176C 16.7395 8.02176 16.859 7.99295 16.9674 7.93753C 17.0835 7.87551 17.1802 7.78152 17.2464 7.66604C 17.3268 7.52786 17.3679 7.36966 17.3651 7.20877L 17.3651 2.52957C 17.3685 2.37796 17.3271 2.22854 17.2464 2.1011C 17.1772 1.99343 17.0807 1.90701 16.9674 1.8511ZM 15.2855 0.272243C 15.7137 0.13113 16.1617 0.0635029 16.6114 0.0722919L 16.6464 0.0649677C 17.0814 0.0693622 17.5128 0.146511 17.9235 0.293727C 18.2618 0.40945 18.5715 0.599636 18.8306 0.850856C 19.063 1.08401 19.2418 1.36697 19.354 1.67947C 19.468 2.00491 19.5246 2.34841 19.5215 2.69387L 19.5215 6.81594C 19.5292 7.08889 19.5062 7.36087 19.4537 7.62674C 19.4022 7.88772 19.3221 8.14309 19.2143 8.38748C 19.0127 8.81839 18.6763 9.16775 18.2584 9.38064C 17.7341 9.60818 17.1705 9.72561 16.6009 9.72561C 16.0315 9.72561 15.4679 9.60818 14.9436 9.38064C 14.5232 9.16922 14.1841 8.81961 13.9806 8.38748C 13.7588 7.89553 13.6512 7.35769 13.6666 6.81594L 13.6666 2.66531C 13.6634 2.31692 13.7225 1.97073 13.8411 1.64383C 13.9553 1.33279 14.1366 1.05203 14.3714 0.822292C 14.6338 0.573513 14.9457 0.386013 15.2855 0.272243ZM 6.98131 0.279323L 9.07482 0.279323L 9.10973 3.95852L 10.631 0.279323L 12.9618 0.279323L 10.9659 4.35842L 12.9618 9.51638L 10.6728 9.51638L 9.66796 6.30154L 9.07482 7.36599L 9.07482 9.50906L 6.98131 9.50906L 6.98131 0.279323ZM 2.13829 2.49392L 2.13829 3.26541L 0.00987656 3.28689L 0.00987656 2.72244C 0.00755723 2.37649 0.0666393 2.03274 0.184315 1.70803C 0.298085 1.3926 0.479237 1.10696 0.714711 0.872341C 0.975453 0.617946 1.28746 0.425319 1.6289 0.307888C 1.87548 0.223415 2.12914 0.164333 2.38622 0.131374C 2.57213 0.107448 2.75975 0.0971943 2.94774 0.100856C 3.39745 0.0925556 3.84545 0.160183 4.27367 0.300808C 4.61376 0.414089 4.92577 0.601833 5.18786 0.850856C 5.42333 1.07986 5.60473 1.36087 5.71825 1.67239C 5.77453 1.83352 5.81688 1.99905 5.84496 2.16702C 5.87389 2.34085 5.88756 2.51712 5.88573 2.69387L 5.88573 6.69436C 5.90685 7.28347 5.79711 7.86966 5.56469 8.40896C 5.36474 8.85012 5.01854 9.20437 4.58764 9.40921C 4.06774 9.63552 3.5056 9.74295 2.94078 9.72342C 2.37352 9.74563 1.80858 9.63821 1.28698 9.40921C 0.861805 9.20877 0.518666 8.86258 0.316883 8.43045C 0.0878795 7.89041 -0.0195424 7.30423 0.00291856 6.71585L 0.00291856 6.12307L 2.18016 6.12307L 2.18016 7.00882C 2.17455 7.20022 2.21032 7.39041 2.28478 7.56594C 2.31163 7.62674 2.34703 7.6824 2.38964 7.73147C 2.43895 7.78836 2.49779 7.83645 2.56395 7.87332C 2.69164 7.9385 2.83312 7.97024 2.9757 7.96609C 3.07555 7.97073 3.17516 7.9534 3.26781 7.91507C 3.31432 7.89602 3.35851 7.87185 3.39965 7.84329C 3.44066 7.81472 3.47875 7.78176 3.51305 7.74466C 3.65844 7.53714 3.72985 7.28518 3.71544 7.0303L 3.71544 5.55154L 2.557 5.55154L 2.557 3.84402L 3.68053 3.84402L 3.68053 2.46536C 3.68151 2.32595 3.64269 2.18948 3.56884 2.07254C 3.49877 1.97073 3.40197 1.89138 3.28966 1.84378C 3.213 1.80984 3.13207 1.78787 3.04943 1.7781C 3.0111 1.77371 2.97252 1.77175 2.93383 1.77249C 2.84447 1.77346 2.75634 1.78787 2.67223 1.81497C 2.57885 1.84524 2.49035 1.8909 2.41039 1.95095C 2.3308 2.01004 2.26427 2.08548 2.21508 2.17239C 2.16527 2.272 2.1389 2.38211 2.13829 2.49392ZM 90.9453 9.5093L 90.9453 0.272487L 96.7164 0.272487L 96.7164 9.5093L 94.5392 9.5093L 94.5392 2.02273L 93.1226 2.02273L 93.1226 9.5093L 90.9453 9.5093Z"/>
</defs>
</svg>
