<svg width="190" height="60" viewBox="0 0 190 60" version="1.1" xmlns="http://www.w3.org/2000/svg" xmlns:xlink="http://www.w3.org/1999/xlink">
<title>logo</title>
<desc>Created using Figma</desc>
<g id="Canvas" transform="translate(-2740 -1990)">
<g id="logo">
<g id="Vector">
<use xlink:href="#path0_fill" transform="translate(2752.27 1998.45)" fill="#BDBDBD"/>
</g>
<g id="Vector">
<use xlink:href="#path1_fill" transform="translate(2865.71 1998.46)" fill="#BDBDBD"/>
</g>
<g id="Vector">
<use xlink:href="#path2_fill" transform="translate(2740 1990)" fill="#BDBDBD"/>
</g>
<g id="Vector">
<use xlink:href="#path3_fill" transform="translate(2750.16 2038.63)" fill="#BDBDBD"/>
</g>
<g id="Vector">
<use xlink:href="#path4_fill" transform="translate(2842.57 2038.9)" fill="#BDBDBD"/>
</g>
</g>
</g>
<defs>
<path id="path0_fill" d="M 86.7291 0.533201L 84.524 0.533201C 82.3473 0.533201 81.4823 2.31199 81.4823 4.50511L 81.4823 28.3865L 96.2585 28.3865L 96.2585 24.1431L 86.7291 24.1431L 86.7291 0.533201ZM 56.9497 9.32711L 56.9497 8.47701C 56.9973 6.86572 56.6695 5.2656 55.9925 3.80502C 55.3962 2.5754 54.4212 1.57303 53.2131 0.947537C 51.8245 0.28038 50.2979 -0.0429157 48.7603 0.00456778C 47.6457 -0.00861236 46.5358 0.152857 45.4704 0.483195C 44.5231 0.778854 43.6452 1.26489 42.8895 1.91194C 42.1623 2.52661 41.5849 3.30138 41.202 4.17649C 40.7917 5.14466 40.5864 6.18847 40.5993 7.24114C 40.5774 8.6559 40.9351 10.0504 41.6345 11.2773C 42.4096 12.5525 43.4709 13.6266 44.733 14.4134L 49.4055 17.4995C 49.9814 17.8625 50.5226 18.2787 51.0221 18.7425C 51.4184 19.1174 51.7387 19.5662 51.9652 20.0641C 52.1816 20.5689 52.2879 21.1146 52.2771 21.6643C 52.2857 22.2123 52.1616 22.7542 51.9155 23.243C 51.6806 23.7112 51.3162 24.1008 50.8661 24.3646C 50.3507 24.6534 49.7683 24.7989 49.1786 24.7861C 48.6969 24.7937 48.2174 24.7188 47.7606 24.5646C 47.2949 24.4132 46.8735 24.1482 46.5339 23.7931C 46.1366 23.3679 45.845 22.8537 45.6831 22.2929C 45.4538 21.5095 45.3462 20.695 45.364 19.8784L 45.364 18.7997L 40.3512 18.7997L 40.3512 19.8784C 40.3044 21.5685 40.6415 23.2471 41.3367 24.7861C 41.9713 26.1205 43.0087 27.2183 44.3005 27.9222C 45.8138 28.6968 47.4962 29.0752 49.1928 29.0223C 50.7934 29.0671 52.3834 28.7472 53.8441 28.0865C 55.055 27.5135 56.0587 26.5747 56.7157 25.4004C 57.3958 24.1061 57.7329 22.6568 57.6941 21.1928C 57.7086 20.2795 57.5989 19.3686 57.368 18.4853C 57.1708 17.7611 56.8544 17.0753 56.4321 16.4565C 56.0111 15.8505 55.5129 15.3029 54.9502 14.8278C 54.3252 14.3005 53.6693 13.8114 52.9862 13.3633L 47.6259 9.79144C 47.2794 9.57113 46.9604 9.30971 46.6758 9.01278C 46.4094 8.72696 46.2042 8.38895 46.0731 8.01981C 45.9181 7.56018 45.846 7.07629 45.8604 6.59107C 45.8526 6.12624 45.9916 5.67094 46.2574 5.29091C 46.5148 4.93889 46.863 4.66464 47.2643 4.49796C 47.7148 4.31575 48.1969 4.22589 48.6823 4.23364C 49.3073 4.21184 49.9245 4.3785 50.4549 4.71227C 50.9847 5.0842 51.3784 5.6214 51.5752 6.24103C 51.8658 7.1225 52.0003 8.04864 51.9722 8.97706L 51.9722 9.28425L 56.9497 9.32711ZM 5.26104 15.8064L 8.62895 15.8064C 9.0588 15.7842 9.48698 15.8753 9.87121 16.0707C 10.2554 16.2661 10.5824 16.5592 10.8199 16.9209C 11.3519 17.8883 11.5979 18.9889 11.5289 20.0927C 11.5532 20.9401 11.4455 21.7862 11.2098 22.6001C 11.0489 23.1585 10.7069 23.6465 10.2385 23.986C 9.75176 24.2882 9.18579 24.4351 8.61477 24.4075L 5.25395 24.4075L 5.26104 15.8064ZM 5.26104 5.27662C 5.26104 4.848 5.43829 4.50511 5.87081 4.50511L 8.09717 4.50511C 8.74715 4.47419 9.39412 4.61194 9.97612 4.90515C 10.4395 5.16711 10.7943 5.58788 10.9759 6.091C 11.1914 6.72238 11.2899 7.38828 11.2666 8.05553C 11.3363 9.04524 11.0659 10.029 10.5008 10.8416C 10.1899 11.1891 9.80359 11.4595 9.37189 11.6318C 8.94018 11.804 8.47481 11.8734 8.01209 11.8345L 5.25395 11.8345L 5.25395 5.27662L 5.26104 5.27662ZM 0.0141837 28.3794L 10.5788 28.3794C 11.5399 28.3935 12.4912 28.1832 13.3582 27.765C 14.1442 27.3672 14.8211 26.7809 15.3293 26.0577C 15.8769 25.2685 16.2759 24.3847 16.5063 23.4502C 16.7765 22.3643 16.9076 21.2479 16.8963 20.1284C 16.919 19.0737 16.7631 18.0228 16.4354 17.0209C 16.1506 16.2091 15.6821 15.4754 15.067 14.8778C 14.4099 14.2576 13.6393 13.7724 12.7981 13.449C 13.372 13.328 13.9062 13.0626 14.3509 12.6775C 14.8217 12.2748 15.2178 11.791 15.5208 11.2488C 15.837 10.6637 16.0754 10.0392 16.2298 9.3914C 16.6096 7.88505 16.5654 6.30188 16.1022 4.81942C 15.8502 4.03097 15.4426 3.30199 14.9039 2.67631C 14.3215 2.0133 13.593 1.49706 12.7768 1.16899C 11.7855 0.779544 10.7279 0.590219 9.66415 0.611782L 3.04176 0.611782C 0.865023 0.611782 0 2.39057 0 4.58369L 0.0141837 28.3794ZM 18.4491 28.3794L 24.0788 28.3794L 25.7238 21.1285L 31.6584 21.1285L 32.963 28.3794L 38.6353 28.3794L 33.3814 4.48367C 32.8921 2.2977 31.8073 0.526061 29.6377 0.526061L 28.2196 0.526061C 26.0428 0.526061 24.9651 2.30484 24.4759 4.49796L 18.4491 28.3794ZM 26.3761 16.9994L 28.2692 7.26972L 28.2692 7.184C 28.2946 7.05403 28.3639 6.93696 28.4654 6.85281C 28.567 6.76866 28.6943 6.72265 28.8258 6.72265C 28.9573 6.72265 29.0846 6.76866 29.1862 6.85281C 29.2877 6.93696 29.3571 7.05403 29.3824 7.184L 29.3824 7.22686L 29.3824 7.29829L 30.9635 17.028L 26.3761 16.9994ZM 59.1122 28.3794L 64.742 28.3794L 66.3869 21.1285L 72.3215 21.1285L 73.6262 28.3794L 79.2984 28.3794L 74.0445 4.48367C 73.5553 2.2977 72.4704 0.526061 70.3008 0.526061L 68.8827 0.526061C 66.706 0.526061 65.6282 2.30484 65.139 4.49796L 59.1122 28.3794ZM 67.0605 17.0066L 68.9536 7.27686L 68.9536 7.19114C 68.979 7.06117 69.0483 6.9441 69.1498 6.85995C 69.2514 6.7758 69.3788 6.72979 69.5102 6.72979C 69.6417 6.72979 69.7691 6.7758 69.8706 6.85995C 69.9721 6.9441 70.0415 7.06117 70.0668 7.19114L 70.0668 7.234L 70.0668 7.30544L 71.6479 17.0352L 67.0605 17.0066ZM 105.228 4.77656L 108.695 4.77656C 110.872 4.77656 111.737 2.99778 111.737 0.804665L 111.737 0.533201L 96.4996 0.533201C 94.3229 0.533201 93.4579 2.31199 93.4579 4.50511L 93.4579 4.77656L 99.9668 4.77656L 99.9668 28.3508L 105.214 28.3508L 105.228 4.77656Z"/>
<path id="path1_fill" d="M 47.2075 4.2877C 47.8909 4.26828 48.563 4.46569 49.129 4.85205C 49.6762 5.26531 50.0905 5.8318 50.3202 6.48082C 50.61 7.29867 50.7493 8.1629 50.7314 9.03112L 50.7314 20.3325C 50.8073 21.5165 50.4851 22.6917 49.8168 23.6686C 49.5004 24.0504 49.0994 24.352 48.6463 24.5493C 48.1931 24.7466 47.7003 24.834 47.2075 24.8044C 46.6917 24.8425 46.1741 24.7583 45.6964 24.5586C 45.2186 24.3589 44.794 24.0492 44.4565 23.6543C 43.8002 22.6782 43.4881 21.5085 43.5702 20.3325L 43.5702 8.9454C 43.4895 7.73139 43.8004 6.52361 44.4565 5.50213C 44.7825 5.08963 45.2034 4.76344 45.6828 4.55183C 46.1622 4.34021 46.6855 4.24955 47.2075 4.2877ZM 38.2099 9.57404L 38.2099 19.6824C 38.1783 21.1846 38.4062 22.6809 38.8835 24.1043C 39.2642 25.1959 39.9044 26.177 40.7482 26.9618C 41.5629 27.6974 42.5326 28.2372 43.5844 28.5406C 45.9594 29.1699 48.4556 29.1699 50.8307 28.5406C 51.9108 28.2549 52.9011 27.6972 53.7086 26.92C 54.516 26.1427 55.1141 25.1713 55.4465 24.0972C 55.9021 22.6545 56.1177 21.1459 56.0846 19.6324L 56.0846 9.55976C 56.1164 8.04162 55.9008 6.5285 55.4465 5.08065C 55.0893 3.96655 54.4688 2.95653 53.6385 2.13744C 52.8312 1.38352 51.8599 0.830601 50.8023 0.522969C 49.6366 0.169336 48.4249 -0.00644569 47.2075 0.0014755C 45.984 -0.0177428 44.7646 0.150874 43.5914 0.501533C 42.4949 0.818809 41.4924 1.40216 40.6716 2.20049C 39.8508 2.99881 39.2368 3.98774 38.8835 5.08065C 38.4066 6.52379 38.1811 8.03917 38.217 9.55976L 38.2099 9.57404ZM 34.764 9.60976L 34.764 8.22388C 34.8052 6.7012 34.4792 5.19117 33.8138 3.82336C 33.1941 2.62189 32.2175 1.64539 31.0203 1.03017C 29.6118 0.344014 28.0605 0.00838631 26.4966 0.0514812C 23.6605 0.0514812 21.5121 0.832526 20.0515 2.39462C 18.5909 3.95671 17.8677 6.36652 17.8819 9.62405L 17.8819 19.7681C 17.8688 20.9568 17.9901 22.1432 18.2435 23.3042C 18.478 24.3727 18.9268 25.3815 19.5623 26.2689C 20.2376 27.1685 21.1381 27.8711 22.1715 28.3048C 23.5244 28.8436 24.9715 29.1011 26.4257 29.0621C 27.8167 29.0958 29.1997 28.8404 30.4885 28.312C 31.5059 27.8709 32.3909 27.169 33.0552 26.276C 33.6947 25.3787 34.1481 24.3607 34.3882 23.2828C 34.6541 22.1114 34.7825 20.9126 34.771 19.711L 34.771 18.518L 29.5242 18.518L 29.5242 20.0039C 29.5547 20.9687 29.4375 21.9325 29.1768 22.8613C 29.0126 23.4777 28.6418 24.0178 28.1274 24.3901C 27.6018 24.7142 26.9915 24.871 26.3761 24.8401C 25.7455 24.8753 25.1187 24.7212 24.5751 24.3972C 24.0666 24.0311 23.7045 23.494 23.5541 22.8828C 23.3122 21.9506 23.2047 20.9883 23.2351 20.0253L 23.2351 8.98112C 23.2054 8.04079 23.3178 7.10138 23.5683 6.19507C 23.7301 5.59296 24.0964 5.06712 24.6035 4.70918C 25.1547 4.39199 25.7847 4.24076 26.4186 4.27342C 27.046 4.23918 27.6695 4.39066 28.2125 4.70918C 28.708 5.06997 29.0599 5.59671 29.2051 6.19507C 29.4438 7.10339 29.5489 8.04207 29.5171 8.98112L 29.5171 9.59547L 34.764 9.60976ZM 0.0212689 4.5163L 0.0212689 28.3977L 14.7976 28.3977L 14.7976 24.1543L 5.24686 24.1543L 5.24686 15.5033L 13.9396 15.5033L 13.9396 11.26L 5.24686 11.26L 5.24686 5.54499C 5.24686 5.11637 5.42411 4.77347 5.85662 4.77347L 11.7558 4.77347C 13.9325 4.77347 14.7976 2.99469 14.7976 0.801573L 14.7976 0.530108L 3.04176 0.530108C 0.865027 0.530108 -1.29828e-06 2.30889 -1.29828e-06 4.50915L 0.0212689 4.5163Z"/>
<path id="path2_fill" d="M 129.881 4.55768L 14.6983 4.55768C 13.3671 4.55636 12.0489 4.82102 10.8199 5.33634C 9.58419 5.85722 8.4617 6.61684 7.51577 7.57233C 6.56812 8.52171 5.81596 9.65036 5.30248 10.8935C 4.789 12.1365 4.52432 13.4696 4.52364 14.816L 4.52364 31.1751C 4.52233 32.5163 4.78501 33.8445 5.29648 35.0827C 6.3448 37.5963 8.33079 39.5947 10.827 40.6477C 12.056 41.163 13.3742 41.4277 14.7054 41.4264L 175.302 41.4264C 176.633 41.4277 177.951 41.163 179.18 40.6477C 180.416 40.127 181.538 39.3673 182.484 38.4117C 183.431 37.4632 184.183 36.3357 184.696 35.0939C 185.21 33.8521 185.475 32.5204 185.476 31.1751L 185.476 14.816C 185.478 13.4748 185.215 12.1467 184.704 10.9084C 183.657 8.39215 181.671 6.39101 179.173 5.33634C 177.944 4.82102 176.626 4.55636 175.295 4.55768L 129.881 4.55768ZM 4.31802 4.35052C 5.67887 2.97268 7.29634 1.87911 9.07764 1.13254C 10.8589 0.385971 12.769 0.00110117 14.6983 0L 175.302 0C 179.197 0.00943207 182.93 1.57268 185.685 4.34784C 188.439 7.12301 189.991 10.8842 190 14.8089L 190 31.168C 189.991 35.0927 188.439 38.8539 185.685 41.6291C 182.93 44.4042 179.197 45.9675 175.302 45.9769L 14.6983 45.9769C 10.8047 45.9656 7.07375 44.4027 4.31992 41.6295C 1.56608 38.8563 0.0130936 35.098 1.03058e-07 31.1751L 1.03058e-07 14.816C -0.000228885 12.871 0.38114 10.9451 1.12218 9.14903C 1.86322 7.35298 2.94931 5.72222 4.31802 4.35052Z"/>
<path id="path3_fill" d="M 168.179 4.30125L 167.64 4.30125C 167.467 4.30332 167.297 4.24812 167.158 4.14409C 167.017 4.02998 166.909 3.87936 166.846 3.70833C 166.768 3.50828 166.729 3.29469 166.732 3.07968C 166.717 2.78059 166.805 2.48536 166.981 2.24386C 167.066 2.13953 167.175 2.05723 167.298 2.0038C 167.422 1.95038 167.556 1.92737 167.69 1.93669L 168.2 1.93669L 168.179 4.30125ZM 168.179 5.9586L 168.179 9.53045L 170.384 9.53045L 170.384 0.272204L 167.009 0.272204C 166.646 0.268159 166.286 0.341181 165.953 0.486517C 165.653 0.618011 165.384 0.812911 165.165 1.05802C 164.95 1.30717 164.784 1.59577 164.676 1.90811C 164.562 2.24116 164.504 2.59145 164.506 2.94395C 164.505 3.30573 164.562 3.66526 164.676 4.00836C 164.776 4.31664 164.93 4.60451 165.13 4.85846C 165.311 5.09087 165.538 5.28301 165.797 5.42282L 164.074 9.50187L 166.42 9.50187L 167.725 5.93002L 168.179 5.9586ZM 157.494 0.243634L 157.494 9.4733L 159.621 9.4733L 161.521 3.8512C 161.521 4.10123 161.457 4.37269 161.415 4.66558L 161.28 5.57997C 161.23 5.8943 161.195 6.20149 161.159 6.49438C 161.124 6.78727 161.11 7.06587 161.11 7.3159L 161.11 9.45901L 163.237 9.45901L 163.237 0.272204L 161.11 0.272204L 159.245 6.07289C 159.245 5.81572 159.281 5.53711 159.316 5.23708C 159.351 4.93704 159.387 4.62987 159.429 4.31555C 159.472 4.00122 159.507 3.69404 159.529 3.394C 159.55 3.09397 159.571 2.81536 159.571 2.55819L 159.571 0.272204L 157.494 0.243634ZM 152.417 0.243634L 150.212 0.243634L 150.212 9.4733L 154.388 9.4733L 154.388 11.3735L 156.515 11.3735L 156.515 7.72309L 156.04 7.72309L 156.04 0.272204L 153.835 0.272204L 153.835 7.75881L 152.417 7.75881L 152.417 0.243634ZM 146.745 4.26553L 146.206 4.26553C 146.039 4.26868 145.875 4.21869 145.738 4.12266C 145.597 4.00855 145.489 3.85793 145.426 3.6869C 145.348 3.48685 145.309 3.27325 145.313 3.05825C 145.297 2.75916 145.385 2.46393 145.561 2.22243C 145.646 2.1181 145.755 2.0358 145.878 1.98237C 146.002 1.92895 146.136 1.90594 146.27 1.91526L 146.78 1.91526L 146.745 4.26553ZM 146.745 5.92288L 146.745 9.49473L 148.95 9.49473L 148.95 0.272204L 145.596 0.272204C 145.233 0.268159 144.873 0.341181 144.54 0.486517C 144.24 0.618011 143.971 0.812911 143.753 1.05802C 143.537 1.30717 143.371 1.59577 143.263 1.90811C 143.149 2.24116 143.091 2.59145 143.093 2.94395C 143.092 3.30572 143.15 3.66523 143.263 4.00836C 143.363 4.31664 143.517 4.60451 143.717 4.85846C 143.898 5.09087 144.125 5.28301 144.384 5.42282L 142.661 9.50187L 145.008 9.50187L 146.312 5.93002L 146.745 5.92288ZM 136.024 0.207913L 136.024 4.56557C 136.024 5.1323 136.024 5.60855 136.024 5.99431C 136.024 6.38007 136.001 6.70868 135.953 6.98015C 135.941 7.16499 135.905 7.34748 135.847 7.52306C 135.816 7.62727 135.748 7.71628 135.655 7.7731C 135.561 7.82173 135.456 7.84394 135.351 7.83739L 135.039 7.83739C 134.961 7.83016 134.884 7.81088 134.812 7.78024L 134.812 9.33757C 134.932 9.39144 135.055 9.43913 135.18 9.48044C 135.306 9.52044 135.434 9.55147 135.563 9.57331C 135.707 9.58487 135.852 9.58487 135.996 9.57331C 136.266 9.57999 136.534 9.53888 136.79 9.45187C 137.024 9.36708 137.232 9.22171 137.393 9.03039C 137.581 8.79097 137.72 8.51673 137.804 8.22316C 137.927 7.81364 138.008 7.39225 138.045 6.96586C 138.102 6.36755 138.128 5.76667 138.123 5.16565L 138.123 1.98669L 139.576 1.98669L 139.576 9.4733L 141.782 9.4733L 141.782 0.272204L 136.024 0.207913ZM 131.061 1.70095C 131.186 1.70056 131.309 1.72737 131.423 1.77953C 131.538 1.83557 131.636 1.92197 131.706 2.02956C 131.788 2.15703 131.83 2.30636 131.827 2.45818L 131.827 7.13731C 131.829 7.29803 131.788 7.45636 131.706 7.5945C 131.639 7.71 131.54 7.80407 131.423 7.86597C 131.312 7.92131 131.191 7.95012 131.068 7.95012C 130.945 7.95012 130.824 7.92131 130.713 7.86597C 130.596 7.80407 130.497 7.71 130.43 7.5945C 130.352 7.45496 130.313 7.29715 130.316 7.13731L 130.316 2.45818C 130.313 2.30734 130.352 2.15865 130.43 2.02956C 130.499 1.92046 130.597 1.83364 130.713 1.77953C 130.829 1.75014 130.95 1.74527 131.068 1.76524L 131.061 1.70095ZM 131.061 0.000739158C 130.604 -0.00794587 130.149 0.0596416 129.714 0.200762C 129.368 0.314424 129.051 0.502081 128.785 0.750831C 128.546 0.980457 128.362 1.26124 128.246 1.57235C 128.126 1.89913 128.066 2.24535 128.069 2.59391L 128.069 6.7444C 128.053 7.28607 128.162 7.82401 128.388 8.31602C 128.595 8.74798 128.939 9.09762 129.366 9.30899C 129.899 9.53671 130.472 9.65408 131.05 9.65408C 131.629 9.65408 132.202 9.53671 132.734 9.30899C 133.159 9.09633 133.501 8.74684 133.706 8.31602C 133.926 7.82272 134.033 7.28532 134.018 6.7444L 134.018 2.69392C 134.021 2.34831 133.963 2.00485 133.847 1.67952C 133.733 1.36695 133.552 1.08387 133.316 0.850842C 133.052 0.599672 132.738 0.409501 132.394 0.293634C 131.972 0.144908 131.529 0.0676669 131.082 0.0650408L 131.061 0.000739158ZM 123.212 3.02254C 123.207 2.76113 123.23 2.49994 123.283 2.24386C 123.313 2.0751 123.394 1.9201 123.517 1.80096C 123.641 1.7048 123.793 1.65266 123.949 1.65266C 124.106 1.65266 124.258 1.7048 124.382 1.80096C 124.499 1.90463 124.583 2.04152 124.623 2.19386C 124.678 2.38898 124.704 2.59115 124.701 2.79393C 124.705 2.98448 124.671 3.17393 124.602 3.35114C 124.548 3.48444 124.463 3.60229 124.353 3.69404C 124.265 3.76561 124.155 3.80578 124.041 3.80834L 123.517 3.80834L 123.517 5.5514L 123.836 5.5514C 123.974 5.53572 124.114 5.55274 124.244 5.60111C 124.375 5.64948 124.492 5.72785 124.587 5.83001C 124.761 6.10636 124.838 6.43312 124.807 6.75869C 124.817 7.02769 124.79 7.29675 124.729 7.55878C 124.692 7.72121 124.599 7.86527 124.467 7.96598C 124.328 8.0501 124.168 8.08994 124.006 8.08027C 123.858 8.0871 123.712 8.04714 123.588 7.96598C 123.453 7.86644 123.358 7.72224 123.318 7.55878C 123.248 7.29815 123.217 7.02852 123.226 6.75869L 121.198 6.75869C 121.192 7.17228 121.25 7.58431 121.368 7.98026C 121.463 8.29085 121.617 8.57969 121.822 8.83036C 122.005 9.05227 122.229 9.2366 122.482 9.37329C 122.729 9.50655 122.994 9.60281 123.269 9.65904C 123.539 9.71362 123.815 9.73995 124.091 9.73762C 124.496 9.74254 124.9 9.68718 125.289 9.57331C 125.628 9.47376 125.942 9.30335 126.211 9.07325C 126.474 8.8475 126.678 8.56063 126.807 8.23743C 126.954 7.85749 127.026 7.45226 127.019 7.04444C 127.026 6.69993 126.986 6.35613 126.899 6.02289C 126.838 5.78074 126.727 5.55433 126.573 5.35852C 126.432 5.19044 126.261 5.04999 126.069 4.94418C 125.862 4.83158 125.646 4.73602 125.424 4.65844C 125.701 4.54578 125.956 4.38364 126.176 4.17981C 126.372 3.98088 126.516 3.73519 126.594 3.46544C 126.688 3.15054 126.731 2.82253 126.722 2.4939C 126.721 2.17515 126.659 1.85959 126.537 1.56521C 126.417 1.27076 126.235 1.00539 126.006 0.786551C 125.759 0.550467 125.467 0.36808 125.148 0.250773C 124.775 0.113905 124.381 0.0461378 123.985 0.0507503C 123.609 0.0461291 123.236 0.114025 122.886 0.250773C 122.553 0.381841 122.253 0.584161 122.007 0.843702C 121.749 1.1159 121.551 1.43959 121.425 1.79382C 121.28 2.20416 121.208 2.63702 121.212 3.07254L 123.212 3.02254ZM 114.406 0.207913L 114.406 9.43758L 116.533 9.43758L 118.433 3.81549C 118.433 4.06552 118.369 4.33698 118.327 4.62987L 118.192 5.54426C 118.142 5.85859 118.107 6.16577 118.071 6.45866C 118.036 6.75155 118.022 7.03015 118.022 7.28018L 118.022 9.42329L 120.149 9.42329L 120.149 0.272204L 118.022 0.272204L 116.157 6.07289C 116.157 5.81572 116.192 5.53711 116.228 5.23708C 116.263 4.93704 116.299 4.62987 116.341 4.31555C 116.384 4.00122 116.419 3.69404 116.441 3.394C 116.462 3.09397 116.483 2.81536 116.483 2.55819L 116.483 0.272204L 114.406 0.207913ZM 110.286 1.76524C 110.411 1.76485 110.534 1.79166 110.648 1.84382C 110.763 1.89986 110.861 1.98626 110.931 2.09385C 111.013 2.22132 111.055 2.37065 111.052 2.52247L 111.052 7.2016C 111.055 7.36233 111.013 7.52065 110.931 7.6588C 110.864 7.77429 110.766 7.86836 110.648 7.93026C 110.538 7.98561 110.416 8.01441 110.293 8.01441C 110.17 8.01441 110.049 7.98561 109.939 7.93026C 109.821 7.86836 109.723 7.77429 109.655 7.6588C 109.578 7.51925 109.539 7.36144 109.542 7.2016L 109.542 2.52247C 109.538 2.37163 109.578 2.22294 109.655 2.09385C 109.724 1.98475 109.822 1.89794 109.939 1.84382C 110.048 1.79363 110.166 1.76687 110.286 1.76524ZM 110.286 0.0650408C 109.829 0.0563558 109.374 0.123943 108.939 0.265064C 108.594 0.378726 108.277 0.566371 108.01 0.815122C 107.772 1.04475 107.587 1.32554 107.471 1.63665C 107.351 1.96343 107.291 2.30964 107.294 2.6582L 107.294 6.80869C 107.279 7.35036 107.388 7.88831 107.613 8.38032C 107.82 8.81228 108.164 9.16192 108.592 9.37329C 109.124 9.60102 109.697 9.71837 110.276 9.71837C 110.854 9.71837 111.427 9.60102 111.96 9.37329C 112.384 9.16063 112.726 8.81114 112.931 8.38032C 113.152 7.88702 113.258 7.34961 113.243 6.80869L 113.243 2.69392C 113.246 2.34831 113.189 2.00485 113.073 1.67952C 112.959 1.36695 112.777 1.08387 112.541 0.850842C 112.278 0.599672 111.963 0.409501 111.619 0.293634C 111.191 0.142555 110.74 0.0652798 110.286 0.0650408ZM 100.36 0.272204L 100.36 4.62987C 100.36 5.1966 100.36 5.67285 100.36 6.05861C 100.36 6.44437 100.346 6.75631 100.317 6.99444C 100.305 7.17928 100.269 7.36177 100.211 7.53735C 100.18 7.64156 100.112 7.73057 100.019 7.78739C 99.9253 7.83602 99.82 7.85823 99.7145 7.85168L 99.4025 7.85168C 99.3244 7.84445 99.2479 7.82517 99.1756 7.79453L 99.1756 9.35186C 99.2961 9.40573 99.4191 9.45341 99.5443 9.49473C 99.6697 9.53459 99.7976 9.56561 99.9272 9.58759C 100.071 9.59915 100.216 9.59915 100.36 9.58759C 100.629 9.59426 100.898 9.55316 101.154 9.46615C 101.388 9.38136 101.596 9.236 101.757 9.04468C 101.947 8.80585 102.089 8.53156 102.175 8.23743C 102.298 7.8279 102.379 7.40654 102.416 6.98015C 102.473 6.38184 102.499 5.78095 102.494 5.17993L 102.494 2.00098L 103.905 2.00098L 103.905 9.48758L 106.11 9.48758L 106.11 0.272204L 100.36 0.272204ZM 86.3208 9.50901L 91.4542 9.50901L 91.4542 7.75881L 88.533 7.75881L 88.533 5.61569L 91.1423 5.61569L 91.1423 3.83692L 88.5259 3.83692L 88.5259 2.02241L 91.4471 2.02241L 91.4471 0.272204L 86.3208 0.272204L 86.3208 9.50901ZM 83.8321 2.02241L 85.47 2.02241L 85.47 0.272204L 80.0813 0.272204L 80.0813 2.02241L 81.8185 2.02241L 81.8185 9.50901L 83.8463 9.50901L 83.8321 2.02241ZM 73.6717 4.30125L 73.1328 4.30125C 72.9618 4.30177 72.7952 4.24665 72.6577 4.14409C 72.5165 4.02998 72.4087 3.87936 72.3458 3.70833C 72.2675 3.50828 72.2289 3.29469 72.2323 3.07968C 72.217 2.78059 72.3047 2.48536 72.4805 2.24386C 72.5659 2.13953 72.6748 2.05723 72.7981 2.0038C 72.9214 1.95038 73.0556 1.92737 73.1895 1.93669L 73.7 1.93669L 73.6717 4.30125ZM 73.6717 5.9586L 73.6717 9.53045L 75.8767 9.53045L 75.8767 0.272204L 72.523 0.272204C 72.1598 0.268159 71.7999 0.341181 71.4666 0.486517C 71.1666 0.618011 70.8982 0.812911 70.6795 1.05802C 70.4639 1.30717 70.2978 1.59577 70.1903 1.90811C 70.0757 2.24116 70.0181 2.59145 70.0201 2.94395C 70.0189 3.30573 70.0764 3.66526 70.1903 4.00836C 70.2902 4.31664 70.4439 4.60451 70.6441 4.85846C 70.8252 5.09087 71.0522 5.28301 71.3106 5.42282L 69.5876 9.50187L 71.9345 9.50187L 73.2391 5.93002L 73.6717 5.9586ZM 65.3476 5.99431L 65.9219 1.92954L 66.5104 5.99431L 65.3476 5.99431ZM 64.6385 0.279343L 62.6462 9.50901L 64.8442 9.50901L 65.1278 7.6588L 66.8153 7.6588L 67.1485 9.50901L 69.3182 9.50901L 67.2903 0.279343L 64.6385 0.279343ZM 58.2927 0.279343L 56.0876 0.279343L 56.0876 9.50901L 58.2927 9.50901L 58.2927 5.5514L 59.7108 5.5514L 59.7108 9.4733L 61.9159 9.4733L 61.9159 0.272204L 59.7108 0.272204L 59.7108 3.84406L 58.2927 3.84406L 58.2927 0.279343ZM 48.9476 0.279343L 48.9476 3.57259C 48.9446 3.86103 48.9877 4.14807 49.0752 4.4227C 49.1506 4.64884 49.2659 4.85939 49.4156 5.0442C 49.5472 5.20796 49.7054 5.34806 49.8835 5.45853C 50.0487 5.56233 50.2278 5.64173 50.4153 5.69428C 50.5839 5.7412 50.758 5.76523 50.9329 5.76572L 51.493 5.76572L 51.9185 5.76572L 52.2659 5.70857L 52.6062 5.62998L 52.6062 9.55188L 54.8113 9.55188L 54.8113 0.272204L 52.6062 0.272204L 52.6062 3.84406C 52.4821 3.90494 52.3512 3.95051 52.2163 3.97979C 52.0718 4.01062 51.9243 4.025 51.7767 4.02265C 51.6932 4.02973 51.6093 4.01943 51.53 3.99239C 51.4507 3.96535 51.3778 3.92215 51.3158 3.86549C 51.2087 3.72744 51.1557 3.55456 51.1669 3.37972L 51.1669 0.279343L 48.9476 0.279343ZM 42.0203 0.279343L 42.0203 9.50901L 44.1474 9.50901L 46.0477 3.88692C 46.0477 4.13695 45.9838 4.40841 45.9413 4.7013L 45.8066 5.61569C 45.757 5.93002 45.7215 6.2372 45.6861 6.53009C 45.6506 6.82298 45.6364 7.10159 45.6364 7.35162L 45.6364 9.49473L 47.7635 9.49473L 47.7635 0.272204L 45.6364 0.272204L 43.7717 6.07289C 43.7717 5.81572 43.8071 5.53711 43.8426 5.23708C 43.878 4.93704 43.9135 4.62987 43.956 4.31555C 43.9985 4.00122 44.034 3.69404 44.0553 3.394C 44.0765 3.09397 44.0978 2.81536 44.0978 2.55819L 44.0978 0.272204L 42.0203 0.279343ZM 35.9297 0.279343L 35.9297 9.50901L 38.1348 9.50901L 38.1348 2.02241L 41.0561 2.02241L 41.0561 0.272204L 35.9297 0.279343ZM 31.7677 1.77239C 31.8925 1.772 32.0158 1.79881 32.1293 1.85097C 32.2445 1.90701 32.3425 1.9934 32.4129 2.10099C 32.4948 2.22846 32.5368 2.3778 32.5335 2.52962L 32.5335 7.20875C 32.5363 7.36948 32.4945 7.5278 32.4129 7.66595C 32.3455 7.78144 32.2472 7.8755 32.1293 7.9374C 32.0192 7.99274 31.8978 8.02156 31.7748 8.02156C 31.6517 8.02156 31.5304 7.99274 31.4203 7.9374C 31.3023 7.8755 31.2041 7.78144 31.1367 7.66595C 31.0592 7.5264 31.0201 7.36859 31.0232 7.20875L 31.0232 2.52962C 31.0198 2.37878 31.0591 2.23008 31.1367 2.10099C 31.2054 1.99189 31.3038 1.90509 31.4203 1.85097C 31.5332 1.79635 31.6566 1.76709 31.7819 1.76524L 31.7677 1.77239ZM 31.7677 0.0721806C 31.3108 0.0634956 30.8556 0.131083 30.4205 0.272204C 30.0751 0.385865 29.7583 0.573522 29.4917 0.822272C 29.2532 1.0519 29.069 1.33268 28.9528 1.64379C 28.8324 1.97057 28.7723 2.31679 28.7756 2.66535L 28.7756 6.81584C 28.76 7.35751 28.8692 7.89545 29.0946 8.38746C 29.3013 8.81942 29.6459 9.16906 30.0731 9.38043C 30.6058 9.60816 31.1784 9.72552 31.7571 9.72552C 32.3357 9.72552 32.9084 9.60816 33.441 9.38043C 33.8648 9.17453 34.209 8.83286 34.4195 8.40889C 34.6403 7.91559 34.747 7.37819 34.7315 6.83727L 34.7315 2.69392C 34.7347 2.34831 34.6771 2.00485 34.5613 1.67952C 34.4473 1.36695 34.2656 1.08387 34.0295 0.850842C 33.7662 0.599672 33.4516 0.409501 33.1078 0.293634C 32.6861 0.144908 32.2428 0.0676669 31.7961 0.0650408L 31.7677 0.0721806ZM 21.8412 0.279343L 21.8412 4.63701C 21.8412 5.20374 21.8412 5.67999 21.8412 6.06575C 21.8412 6.45151 21.827 6.76345 21.7987 7.00158C 21.7867 7.18642 21.7509 7.36891 21.6923 7.54449C 21.6612 7.6487 21.593 7.73771 21.5009 7.79453C 21.4068 7.84316 21.3015 7.86537 21.196 7.85882L 20.884 7.85882C 20.8059 7.85159 20.7294 7.83231 20.6571 7.80167L 20.6571 9.359C 20.7775 9.41287 20.9006 9.46056 21.0258 9.50187C 21.1512 9.54173 21.2791 9.57277 21.4087 9.59475C 21.5526 9.6063 21.6973 9.6063 21.8412 9.59475C 22.1109 9.60142 22.3797 9.56031 22.6353 9.4733C 22.8694 9.38851 23.0773 9.24314 23.238 9.05182C 23.4287 8.81299 23.5708 8.53871 23.6563 8.24459C 23.7798 7.83505 23.8606 7.41368 23.8974 6.98729C 23.9543 6.38898 23.9804 5.78811 23.9754 5.18708L 23.9754 2.00812L 25.4289 2.00812L 25.4289 9.49473L 27.634 9.49473L 27.634 0.272204L 21.8412 0.279343ZM 16.878 1.77239C 17.0027 1.772 17.1261 1.79881 17.2396 1.85097C 17.3548 1.90701 17.4528 1.9934 17.5232 2.10099C 17.6051 2.22846 17.6471 2.3778 17.6437 2.52962L 17.6437 7.20875C 17.6465 7.36948 17.6048 7.5278 17.5232 7.66595C 17.4558 7.78144 17.3575 7.8755 17.2396 7.9374C 17.1295 7.99274 17.0081 8.02156 16.8851 8.02156C 16.762 8.02156 16.6406 7.99274 16.5305 7.9374C 16.4126 7.8755 16.3143 7.78144 16.2469 7.66595C 16.1695 7.5264 16.1303 7.36859 16.1335 7.20875L 16.1335 2.52962C 16.1301 2.37878 16.1694 2.23008 16.2469 2.10099C 16.3156 1.99189 16.4141 1.90509 16.5305 1.85097C 16.6478 1.79429 16.7763 1.76498 16.9063 1.76524L 16.878 1.77239ZM 16.878 0.0721806C 16.421 0.0634956 15.9658 0.131083 15.5308 0.272204C 15.1854 0.385865 14.8686 0.573522 14.602 0.822272C 14.3634 1.0519 14.1793 1.33268 14.0631 1.64379C 13.9427 1.97057 13.8826 2.31679 13.8858 2.66535L 13.8858 6.81584C 13.8703 7.35751 13.9795 7.89545 14.2049 8.38746C 14.4116 8.81942 14.7561 9.16906 15.1834 9.38043C 15.716 9.60816 16.2887 9.72552 16.8673 9.72552C 17.446 9.72552 18.0187 9.60816 18.5513 9.38043C 18.9759 9.16777 19.3178 8.81828 19.5227 8.38746C 19.7435 7.89416 19.8502 7.35676 19.8346 6.81584L 19.8346 2.69392C 19.8379 2.34831 19.7803 2.00485 19.6645 1.67952C 19.5505 1.36695 19.3688 1.08387 19.1327 0.850842C 18.8694 0.599672 18.5548 0.409501 18.211 0.293634C 17.7938 0.146456 17.3554 0.0692364 16.9134 0.0650408L 16.878 0.0721806ZM 9.2204 0.279343L 7.09329 0.279343L 7.09329 9.50901L 9.2204 9.50901L 9.2204 7.3659L 9.82308 6.3015L 10.8441 9.51616L 13.1697 9.51616L 11.1419 4.35841L 13.1697 0.279343L 10.8015 0.279343L 9.25585 3.95836L 9.2204 0.279343ZM 2.17259 3.26542L 2.17259 2.4939C 2.17326 2.38207 2.19997 2.27196 2.25059 2.17243C 2.30055 2.08536 2.36821 2.00989 2.44912 1.95098C 2.60346 1.83684 2.78945 1.77438 2.9809 1.77239C 3.10513 1.76976 3.22846 1.79411 3.3425 1.84382C 3.45661 1.89143 3.55496 1.97071 3.62611 2.07242C 3.70115 2.18944 3.74058 2.326 3.73956 2.46532L 3.73956 3.84406L 2.59802 3.84406L 2.59802 5.5514L 3.77501 5.5514L 3.77501 7.03016C 3.78969 7.28498 3.71711 7.53716 3.56939 7.74453C 3.49943 7.81867 3.41449 7.87681 3.3203 7.91502C 3.22611 7.95323 3.12487 7.97061 3.02344 7.96598C 2.87853 7.97025 2.73481 7.93834 2.6051 7.87311C 2.4798 7.80468 2.38018 7.6968 2.32149 7.56593C 2.24576 7.39035 2.20944 7.20008 2.21514 7.00872L 2.21514 6.1229L 0.00294674 6.1229L 0.00294674 6.71583C -0.0197909 7.30421 0.0892647 7.8902 0.322016 8.43032C 0.526975 8.86253 0.875667 9.20879 1.30757 9.409C 1.83761 9.63814 2.41163 9.74551 2.98798 9.72333C 3.56184 9.7428 4.13297 9.63552 4.6613 9.409C 5.0991 9.2043 5.45078 8.84998 5.65395 8.40889C 5.89008 7.86963 6.0016 7.2834 5.98011 6.6944L 5.98011 2.69392C 5.98392 2.34593 5.92631 2.00004 5.80994 1.67238C 5.69467 1.3608 5.51037 1.07983 5.27107 0.850842C 5.00477 0.601725 4.68782 0.414019 4.34224 0.300774C 3.9071 0.160163 3.45197 0.0925884 2.99507 0.100751C 2.53992 0.0921755 2.08667 0.162251 1.655 0.307924C 1.30817 0.425376 0.991111 0.618012 0.726165 0.872272C 0.48698 1.10695 0.30287 1.39251 0.187297 1.70809C 0.0677126 2.03261 0.0076508 2.37633 0.0100386 2.72249L 0.0100386 3.28685L 2.17259 3.26542Z"/>
<path id="path4_fill" d="M -8.65521e-07 4.36017e-07L -8.65521e-07 9.23681L 2.21218 9.23681L 2.21218 1.75021L 3.65152 1.75021L 3.65152 9.23681L 5.86372 9.23681L 5.86372 4.36017e-07L -8.65521e-07 4.36017e-07Z"/>
</defs>
</svg>
