<svg width="26" height="36" viewBox="0 0 26 36" version="1.1" xmlns="http://www.w3.org/2000/svg" xmlns:xlink="http://www.w3.org/1999/xlink">
<title>metka</title>
<desc>Created using Figma</desc>
<g id="Canvas" transform="translate(-12562 -3081)">
<g id="metka">
<g id="Union">
<use xlink:href="#path0_stroke" transform="translate(12563 3082)"/>
</g>
<g id="Ellipse">
<use xlink:href="#path1_fill" transform="translate(12570 3089)" fill="#9ECC2E"/>
</g>
</g>
</g>
<defs>
<path id="path0_stroke" d="M 21.2227 19.392L 20.459 18.7464C 20.4291 18.7817 20.4018 18.8191 20.3771 18.8582L 21.2227 19.392ZM 2.77734 19.392L 3.62292 18.8582C 3.59824 18.8191 3.57088 18.7817 3.54103 18.7464L 2.77734 19.392ZM 12 34L 11.1544 34.5339C 11.3376 34.824 11.6568 35 12 35C 12.3432 35 12.6624 34.824 12.8456 34.5339L 12 34ZM 21.9863 20.0376C 23.8654 17.8147 25 14.9507 25 11.8261L 23 11.8261C 23 14.457 22.0467 16.8683 20.459 18.7464L 21.9863 20.0376ZM 25 11.8261C 25 4.7287 19.1654 -1 12 -1L 12 1C 18.0885 1 23 5.86074 23 11.8261L 25 11.8261ZM 12 -1C 4.8346 -1 -1 4.7287 -1 11.8261L 1 11.8261C 1 5.86074 5.91149 1 12 1L 12 -1ZM -1 11.8261C -1 14.9507 0.134556 17.8147 2.01366 20.0376L 3.54103 18.7464C 1.95333 16.8683 1 14.457 1 11.8261L -1 11.8261ZM 12.8456 33.4661L 3.62292 18.8582L 1.93176 19.9259L 11.1544 34.5339L 12.8456 33.4661ZM 20.3771 18.8582L 11.1544 33.4661L 12.8456 34.5339L 22.0682 19.9259L 20.3771 18.8582Z"/>
<path id="path1_fill" d="M 10 5C 10 7.76142 7.76142 10 5 10C 2.23858 10 0 7.76142 0 5C 0 2.23858 2.23858 0 5 0C 7.76142 0 10 2.23858 10 5Z"/>
</defs>
</svg>
