<svg width="40" height="15" viewBox="0 0 40 15" version="1.1" xmlns="http://www.w3.org/2000/svg" xmlns:xlink="http://www.w3.org/1999/xlink">
<title>Vector</title>
<desc>Created using Figma</desc>
<g id="Canvas" transform="translate(-457 -6619)">
<g id="Vector">
<use xlink:href="#path0_fill" transform="translate(457 6619)" fill="#828282"/>
</g>
</g>
<defs>
<path id="path0_fill" d="M 25.922 3.30409C 24.6588 2.60114 21.8931 2.93386 21.2506 3.105C 20.33 3.34977 19.9648 3.85023 19.5842 4.53886C 19.0662 5.47159 19.0184 8.71227 19.5062 9.95932C 19.7494 10.5805 20.0855 11.0243 20.5977 11.3059C 21.8718 12.0061 24.6285 11.6952 25.2672 11.5064C 26.1574 11.2432 26.5039 10.8511 26.9355 10.0711C 27.4342 9.17182 27.4696 5.88068 27.0135 4.65136C 26.7781 4.01727 26.5071 3.63 25.922 3.30409ZM 25.3478 8.64273C 25.2472 9.28977 24.893 9.55227 24.3872 9.78136C 24.0988 9.93409 22.4583 10.0759 21.8602 9.70568C 21.4744 9.46568 21.2577 9.0825 21.1661 8.51386C 21.0125 7.54159 20.9764 6.91432 21.137 5.89159C 21.2338 5.24523 21.5809 4.82864 22.1486 4.67182C 22.5886 4.62477 24.0692 4.47068 24.604 4.82318C 24.9801 5.07205 25.2368 5.40273 25.3265 5.96795C 25.4839 6.93818 25.5065 7.62273 25.3478 8.64273ZM 38.2452 3.03C 37.7127 2.91705 37.1704 2.8629 36.6273 2.86841C 35.986 2.87795 35.3357 3.00886 34.8661 3.08864C 34.7628 3.11727 34.4906 3.16636 34.0977 3.23318C 33.6448 3.16636 33.3332 3.08591 33.2868 3.06818C 32.7558 2.95295 31.8997 2.87523 31.5249 2.87523C 30.5901 2.87523 29.305 3.09477 28.7922 3.20591C 28.4315 3.285 28.4412 3.645 28.4412 3.81341L 28.4412 11.3625C 28.4412 11.4382 28.5135 11.593 28.658 11.593L 29.9579 11.593C 30.1747 11.593 30.3192 11.4382 30.3192 11.2105L 30.3192 4.95614C 30.3192 4.87227 30.374 4.88455 30.3914 4.88045C 30.5063 4.85727 31.5404 4.67045 32.4855 4.80477C 33.0145 4.87909 33.2803 5.26295 33.2803 5.71977L 33.2803 11.3618C 33.2803 11.4736 33.2997 11.5923 33.4971 11.5923L 34.7977 11.5923C 35.0138 11.5923 35.1583 11.4375 35.1583 11.2098L 35.1583 5.03318C 35.1583 4.94455 35.188 4.90159 35.3035 4.87977C 35.3035 4.87977 36.7485 4.65136 37.4704 4.80409C 38.1704 4.95136 38.1188 6.00136 38.1188 6.25295L 38.1188 11.3611C 38.1188 11.4368 38.1936 11.5916 38.3388 11.5916L 39.6374 11.5916C 39.8561 11.5916 40 11.4368 40 11.2091L 40 6.08523C 39.9981 4.24432 39.6639 3.36545 38.2452 3.03ZM 6.0668 3.40773C 4.65074 2.68636 2.74503 2.95295 2.2386 3.02727C 1.71411 3.10295 1.16252 3.20864 0.649646 3.33136C 0.141929 3.45205 0 3.61159 0 4.17068C 0.00129026 4.95 0 14.6639 0 14.7709C 0 14.8582 0.0916085 15 0.216764 15L 1.51735 15C 1.74056 15 1.94958 14.8418 1.94958 14.6168L 1.94958 11.6441C 2.3115 11.7198 2.59213 11.7689 2.96179 11.7961C 3.1334 11.8084 4.47849 11.8732 5.51844 11.6052C 6.32357 11.3993 6.90418 10.9159 7.22223 10.1959C 7.64479 9.24 7.54738 7.26886 7.51319 6.53386C 7.46286 5.48114 7.23578 4.00159 6.0668 3.40773ZM 5.52618 8.75795C 5.41974 9.45136 5.05782 9.82091 4.40624 9.96682C 3.54886 10.1591 1.94958 9.97568 1.94958 9.81273L 1.94958 5.08432C 1.94958 5.00386 2.05474 4.94182 2.09474 4.93159C 2.6431 4.84841 4.12045 4.65409 4.76751 5.00932C 5.25781 5.27795 5.44232 5.61682 5.53199 6.18614C 5.68553 7.155 5.68553 7.73455 5.52618 8.75795ZM 10.3724 3.10159L 9.02085 3.10159C 8.92537 3.10231 8.834 3.14281 8.7666 3.2143C 8.6992 3.28579 8.66121 3.38249 8.66087 3.48341L 8.66087 11.3461C 8.66087 11.4689 8.7828 11.5739 8.87764 11.5739L 10.2285 11.5739C 10.4556 11.5739 10.5898 11.3489 10.5898 11.1927L 10.5898 3.33C 10.5898 3.20932 10.4685 3.10159 10.3724 3.10159ZM 10.3769 0L 9.02795 0C 8.93223 0.000896223 8.84071 0.0416193 8.7732 0.113344C 8.7057 0.185069 8.66766 0.282018 8.66732 0.383182L 8.66732 1.66909C 8.66732 1.7925 8.77764 1.8975 8.87312 1.8975L 10.2343 1.8975C 10.4614 1.8975 10.595 1.6725 10.595 1.51568L 10.595 0.228409C 10.5956 0.107727 10.4737 0 10.3769 0ZM 14.5567 4.87773C 15.5618 4.44818 16.9082 4.8675 17.9617 5.00932C 18.0946 5.02705 18.1798 4.9725 18.1798 4.70523C 18.1798 4.41136 18.1856 3.91773 18.1798 3.63818C 18.1765 3.33409 18.1482 3.1725 17.8185 3.10432C 16.865 2.90523 15.7838 2.84455 15.267 2.87386C 14.1367 2.94273 12.8729 3.10432 12.3091 4.29477C 11.9317 5.09045 11.8046 6.29114 11.8175 7.36773L 11.8201 7.36773C 11.8117 8.42591 11.9394 9.54068 12.3091 10.32C 12.8736 11.5118 14.1367 11.672 15.267 11.7389C 15.7831 11.7716 16.865 11.7082 17.8185 11.5118C 18.1482 11.443 18.1765 11.2807 18.1798 10.9773C 18.1856 10.697 18.1798 10.202 18.1798 9.91023C 18.1798 9.64091 18.0946 9.58705 17.9617 9.60614C 16.9082 9.74727 15.5618 10.1673 14.5567 9.73636C 14.3961 9.6675 13.9896 9.31432 13.8574 8.75591C 13.7531 8.29349 13.6964 7.82052 13.6884 7.34523C 13.7013 6.85091 13.7516 6.30341 13.8574 5.86023C 13.9903 5.30114 14.3967 4.94932 14.5567 4.87773Z"/>
</defs>
</svg>
