<svg width="40" height="40" viewBox="0 0 40 40" version="1.1" xmlns="http://www.w3.org/2000/svg" xmlns:xlink="http://www.w3.org/1999/xlink">
<title>004-ppt</title>
<desc>Created using Figma</desc>
<g id="Canvas" transform="translate(-23209 -385)">
<g id="004-ppt">
<g id="Group">
<g id="Group">
<g id="Vector">
<use xlink:href="#path0_fill" transform="translate(23209 385)"/>
</g>
</g>
</g>
<g id="Group">
<g id="Group">
<g id="Vector">
<use xlink:href="#path1_fill" transform="translate(23226.4 403.777)"/>
</g>
</g>
</g>
<g id="Group">
<g id="Group">
<g id="Vector">
<use xlink:href="#path2_fill" transform="translate(23220.3 403.777)"/>
</g>
</g>
</g>
<g id="Group">
<g id="Group">
<g id="Vector">
<use xlink:href="#path3_fill" transform="translate(23213.8 403.777)"/>
</g>
</g>
</g>
</g>
</g>
<defs>
<path id="path0_fill" d="M 39.7718 10.8248L 28.9572 0.235781C 28.8034 0.0851562 28.5912 0 28.3691 0L 12.2509 0C 10.447 0 8.97955 1.38234 8.97955 3.08141L 8.97955 13.8462L 2.44737 13.8462C 1.09795 13.8462 3.79524e-08 14.8805 3.79524e-08 16.1519L 3.79524e-08 27.6944C 3.79524e-08 28.9657 1.09795 30 2.44737 30L 8.97955 30L 8.97955 36.924C 8.97955 38.6201 10.4469 40 12.2509 40L 36.7287 40C 38.5325 40 40 38.6209 40 36.9257L 40 11.3582C 40 11.1593 39.9183 10.9681 39.7718 10.8248ZM 28.5714 2.07664L 37.4492 10.7692L 28.5714 10.7692L 28.5714 2.07664ZM 2.44737 28.4616C 1.99817 28.4616 1.63263 28.1174 1.63263 27.6944L 1.63263 16.1519C 1.63263 15.7288 1.99817 15.3846 2.44737 15.3846L 24.4912 15.3846C 24.9406 15.3846 25.3061 15.7288 25.3061 16.1519L 25.3061 27.6944C 25.3061 28.1174 24.9405 28.4616 24.4912 28.4616L 2.44737 28.4616ZM 38.3673 36.9257C 38.3673 37.7726 37.6323 38.4616 36.7287 38.4616L 12.2509 38.4616C 11.3472 38.4616 10.6123 37.7719 10.6123 36.9241L 10.6123 30L 24.4912 30C 25.8408 30 26.9388 28.9657 26.9388 27.6944L 26.9388 16.1519C 26.9388 14.8805 25.8408 13.8462 24.4912 13.8462L 10.6122 13.8462L 10.6122 3.08141C 10.6122 2.23055 11.3472 1.53844 12.2508 1.53844L 26.9387 1.53844L 26.9387 11.5384C 26.9387 11.9633 27.3043 12.3077 27.755 12.3077L 38.3673 12.3077L 38.3673 36.9257Z"/>
<path id="path1_fill" d="M -1.01206e-08 9.53674e-09L -1.01206e-08 1.11766L 2.08083 1.11766L 2.08083 6.6075L 3.49649 6.6075L 3.49649 1.11766L 5.57243 1.11766L 5.57243 9.53674e-09L -1.01206e-08 9.53674e-09Z"/>
<path id="path2_fill" d="M 4.96496 0.745938C 4.69393 0.413828 4.35741 0.198281 3.9558 0.0989842C 3.69414 0.0328124 3.13294 9.53674e-09 2.2721 9.53674e-09L 5.76876e-07 9.53674e-09L 5.76876e-07 6.6075L 1.41574 6.6075L 1.41574 4.115L 2.33901 4.115C 2.97981 4.115 3.46946 4.08344 3.8074 4.02039C 4.0562 3.96922 4.30087 3.86477 4.54163 3.70711C 4.78223 3.54938 4.9808 3.33227 5.13716 3.05578C 5.29328 2.77945 5.37146 2.43828 5.37146 2.03266C 5.37146 1.50695 5.23599 1.07789 4.96496 0.745938ZM 3.75251 2.56461C 3.64556 2.71172 3.49798 2.82 3.31003 2.88906C 3.12183 2.95805 2.74882 2.99266 2.1906 2.99266L 1.41574 2.99266L 1.41574 1.11766L 2.09982 1.11766C 2.61003 1.11766 2.94954 1.13266 3.11859 1.16266C 3.34817 1.20188 3.53794 1.29938 3.68776 1.4557C 3.83782 1.61188 3.91269 1.81031 3.91269 2.0507C 3.91269 2.24594 3.85921 2.41727 3.75251 2.56461Z"/>
<path id="path3_fill" d="M 4.96496 0.745938C 4.69393 0.413828 4.35757 0.198281 3.95572 0.0989842C 3.69431 0.0328124 3.1331 9.53674e-09 2.27202 9.53674e-09L 1.01206e-07 9.53674e-09L 1.01206e-07 6.6075L 1.41591 6.6075L 1.41591 4.115L 2.33892 4.115C 2.97997 4.115 3.46938 4.08344 3.80731 4.02039C 4.05612 3.96922 4.30078 3.86477 4.54163 3.70711C 4.7824 3.54938 4.9808 3.33227 5.13716 3.05578C 5.29344 2.77945 5.37146 2.43828 5.37146 2.03266C 5.37146 1.50695 5.23599 1.07789 4.96496 0.745938ZM 3.75251 2.56461C 3.64556 2.71172 3.49823 2.82 3.31003 2.88906C 3.12191 2.95805 2.74882 2.99266 2.19085 2.99266L 1.41591 2.99266L 1.41591 1.11766L 2.09982 1.11766C 2.61003 1.11766 2.94963 1.13266 3.11859 1.16266C 3.34817 1.20188 3.53794 1.29938 3.68776 1.4557C 3.83782 1.61188 3.91269 1.81031 3.91269 2.0507C 3.91277 2.24602 3.8593 2.41727 3.75251 2.56461Z"/>
</defs>
</svg>
