<svg width="20" height="23" viewBox="0 0 20 23" version="1.1" xmlns="http://www.w3.org/2000/svg" xmlns:xlink="http://www.w3.org/1999/xlink">
<title>Vector</title>
<desc>Created using Figma</desc>
<g id="Canvas" transform="translate(-10958 -4880)">
<g id="Vector">
<use xlink:href="#path0_fill" transform="translate(10958 4880)" fill="#828282"/>
</g>
</g>
<defs>
<path id="path0_fill" d="M 16.6648 16.2581C 15.8211 16.2581 15.0659 16.6021 14.4906 17.1445L 6.5671 12.3548C 6.62429 12.0894 6.66853 11.822 6.66853 11.546C 6.66853 11.27 6.62336 11.0035 6.5671 10.7371L 14.4011 5.9924C 14.9986 6.56741 15.7888 6.92676 16.6648 6.92676C 18.5117 6.92676 20 5.38288 20 3.46336C 20 1.54769 18.5108 0 16.6648 0C 14.8216 0 13.3324 1.54769 13.3324 3.46244C 13.3324 3.74226 13.3776 4.00486 13.4339 4.27128L 5.59982 9.01981C 5.00139 8.44196 4.21211 8.08352 3.33517 8.08352C 1.48826 8.08352 -2.70063e-08 9.63029 -2.70063e-08 11.546C -2.70063e-08 13.4616 1.48826 15.0094 3.33517 15.0094C 4.21114 15.0094 5.00139 14.65 5.59889 14.075L 13.5085 18.8753C 13.4541 19.1197 13.42 19.3746 13.42 19.6286C 13.42 21.4877 14.8778 23 16.6639 23C 18.4518 23 19.9105 21.4887 19.9105 19.6286C 19.9105 17.7684 18.4527 16.2581 16.6648 16.2581Z"/>
</defs>
</svg>
