<svg width="30" height="30" viewBox="0 0 30 30" version="1.1" xmlns="http://www.w3.org/2000/svg" xmlns:xlink="http://www.w3.org/1999/xlink">
<title>i telephone</title>
<desc>Created using Figma</desc>
<g id="Canvas" transform="translate(-246 -2793)">
<g id="i telephone">
<use xlink:href="#path0_fill" transform="translate(246 2793)" fill="#9ECC2E"/>
</g>
</g>
<defs>
<path id="path0_fill" fill-rule="evenodd" d="M 15.4792 0C 19.1937 0.518066 22.5586 2.19751 25.218 4.85693C 27.7402 7.38501 29.3945 10.5688 30.0001 14.0774L 27.6965 14.4707C 27.1783 11.4429 25.7487 8.68994 23.5699 6.51123C 21.2726 4.21997 18.3634 2.76562 15.1545 2.31616L 15.4792 0ZM 22.8082 19.8455C 21.8281 18.8779 20.6045 18.8779 19.6306 19.8455C 18.8877 20.582 18.1448 21.3188 17.4144 22.0679C 17.2146 22.2739 17.0461 22.3176 16.8026 22.1802C 16.612 22.0762 16.4164 21.98 16.2211 21.884L 16.2137 21.8804C 15.9188 21.7354 15.6245 21.5906 15.348 21.4187C 13.1942 20.064 11.39 18.3223 9.79184 16.3621C 8.99899 15.3882 8.29355 14.3457 7.80035 13.1721C 7.70047 12.9348 7.71919 12.7788 7.91273 12.5852C 8.54861 11.9707 9.17079 11.3425 9.79489 10.7124L 10.1102 10.394C 11.1278 9.37012 11.1278 8.17163 10.104 7.1416C 9.92221 6.95776 9.74045 6.77539 9.55869 6.59351L 9.23309 6.26758C 8.94279 5.97729 8.6525 5.68701 8.36221 5.39355C 8.16367 5.19507 7.96581 4.99585 7.76794 4.79663C 7.36856 4.39429 6.96921 3.99219 6.56427 3.5957C 5.58414 2.64062 4.36053 2.64062 3.38664 3.60205C 3.08673 3.89697 2.79182 4.19482 2.4971 4.49243C 2.05566 4.93848 1.61465 5.38379 1.15794 5.81812C 0.4525 6.48608 0.0966494 7.30396 0.021744 8.25903C -0.0968778 9.81348 0.283936 11.2805 0.820832 12.71C 1.91957 15.6692 3.59267 18.2974 5.6216 20.707C 8.36221 23.9656 11.6335 26.5439 15.4604 28.4043C 17.1834 29.2407 18.9688 29.8838 20.9104 29.99C 22.2464 30.0647 23.4075 29.7278 24.3377 28.6851C 24.7552 28.2183 25.2077 27.7786 25.6599 27.3391L 25.663 27.3362L 25.6754 27.3237C 25.9076 27.0981 26.1396 26.8728 26.3666 26.6438C 27.3655 25.6326 27.3718 24.4089 26.3791 23.4102C 25.193 22.2178 24.0006 21.0315 22.8082 19.8455ZM 21.6158 14.8701L 23.9195 14.4768C 23.5574 12.3606 22.5585 10.4441 21.0415 8.92065C 19.4371 7.31641 17.4081 6.30518 15.1732 5.99292L 14.8486 8.30908C 16.5779 8.55249 18.1511 9.33276 19.3934 10.575C 20.567 11.7488 21.3349 13.2344 21.6158 14.8701Z"/>
</defs>
</svg>
