<svg width="82" height="71" viewBox="0 0 82 71" version="1.1" xmlns="http://www.w3.org/2000/svg" xmlns:xlink="http://www.w3.org/1999/xlink">
<title>icon_1</title>
<desc>Created using Figma</desc>
<g id="Canvas" transform="translate(-12595 -3961)">
<g id="icon_1">
<g id="Vector">
<use xlink:href="#path0_stroke" transform="translate(12628 3986)"/>
</g>
<g id="Vector">
<use xlink:href="#path1_stroke" transform="translate(12599.6 3971.65)"/>
</g>
<g id="Union">
<use xlink:href="#path2_fill" transform="translate(12615 3961)" fill="#9ECC2E"/>
</g>
<g id="Vector">
<use xlink:href="#path3_stroke" transform="translate(12596 3969)"/>
</g>
<g id="Vector">
<use xlink:href="#path4_stroke" transform="translate(12624 3981)"/>
</g>
<g id="Vector">
<use xlink:href="#path5_stroke" transform="translate(12665 3981)"/>
</g>
<g id="Vector">
<use xlink:href="#path6_stroke" transform="translate(12637 4009.75)"/>
</g>
<g id="Vector">
<use xlink:href="#path7_stroke" transform="translate(12642.7 4006)"/>
</g>
<g id="Vector">
<use xlink:href="#path8_stroke" transform="translate(12657.6 4004)" fill="#9ECC2E"/>
</g>
<g id="Vector">
<use xlink:href="#path9_stroke" transform="translate(12655 4008.69)" fill="#9ECC2E"/>
</g>
</g>
</g>
<defs>
<path id="path0_stroke" d="M 44 45L 44 46C 44.5523 46 45 45.5523 45 45L 44 45ZM 0 45L -1 45C -1 45.5523 -0.552285 46 2.22045e-16 46L 0 45ZM 0 10.7959L -0.440538 9.89816C -0.782985 10.0662 -1 10.4144 -1 10.7959L 0 10.7959ZM 22 0L 22.4405 -0.897734C 22.1627 -1.03409 21.8373 -1.03409 21.5595 -0.897734L 22 0ZM 44 10.7959L 45 10.7959C 45 10.4144 44.783 10.0662 44.4405 9.89816L 44 10.7959ZM 44 44L 0 44L 0 46L 44 46L 44 44ZM 1 45L 1 10.7959L -1 10.7959L -1 45L 1 45ZM 0.440538 11.6936L 22.4405 0.897734L 21.5595 -0.897734L -0.440538 9.89816L 0.440538 11.6936ZM 21.5595 0.897734L 43.5595 11.6936L 44.4405 9.89816L 22.4405 -0.897734L 21.5595 0.897734ZM 43 10.7959L 43 45L 45 45L 45 10.7959L 43 10.7959Z"/>
<path id="path1_stroke" d="M 10.1069 10.383C 10.4909 9.98614 10.4806 9.35306 10.0837 8.96897C 9.68689 8.58488 9.05381 8.59523 8.66972 8.99208L 10.1069 10.383ZM 1.06241e-06 5.67592L 1 5.67592L 1.06241e-06 5.67592ZM 8.66972 2.35977C 9.05381 2.75662 9.68689 2.76697 10.0837 2.38288C 10.4806 1.99879 10.4909 1.36571 10.1069 0.968854L 8.66972 2.35977ZM 8.66972 8.99208C 8.03858 9.6442 7.23817 10.0846 6.37157 10.2629L 6.77454 12.2219C 8.04141 11.9613 9.20045 11.3195 10.1069 10.383L 8.66972 8.99208ZM 6.37157 10.2629C 5.5052 10.4411 4.60673 10.3504 3.78841 10.0007L 3.00255 11.8399C 4.19426 12.3491 5.50743 12.4825 6.77454 12.2219L 6.37157 10.2629ZM 3.78841 10.0007C 2.96971 9.6509 2.26475 9.05602 1.76643 8.28636L 0.0875947 9.37333C 0.798092 10.4707 1.81123 11.3308 3.00255 11.8399L 3.78841 10.0007ZM 1.76643 8.28636C 1.26791 7.51639 1 6.60786 1 5.67592L -0.999999 5.67592C -0.999999 6.98962 -0.622694 8.27628 0.0875947 9.37333L 1.76643 8.28636ZM 1 5.67592C 1 4.74399 1.26791 3.83546 1.76643 3.06549L 0.0875947 1.97852C -0.622694 3.07557 -0.999999 4.36223 -0.999999 5.67592L 1 5.67592ZM 1.76643 3.06549C 2.26475 2.29583 2.96971 1.70095 3.78841 1.35112L 3.00255 -0.488017C 1.81123 0.0210353 0.798092 0.881144 0.0875947 1.97852L 1.76643 3.06549ZM 3.78841 1.35112C 4.60673 1.00145 5.5052 0.910725 6.37157 1.08894L 6.77454 -0.87004C 5.50743 -1.13069 4.19426 -0.997234 3.00255 -0.488017L 3.78841 1.35112ZM 6.37157 1.08894C 7.23817 1.26721 8.03858 1.70765 8.66972 2.35977L 10.1069 0.968854C 9.20045 0.0323242 8.04141 -0.609437 6.77454 -0.87004L 6.37157 1.08894Z"/>
<path id="path2_fill" fill-rule="evenodd" d="M 6 2C 6 0.895508 5.10449 0 4 0C 2.89551 0 2 0.895508 2 2L 2 18.5352C 0.804688 19.2268 0 20.5193 0 22C 0 24.2092 1.79102 26 4 26C 6.20898 26 8 24.2092 8 22C 8 20.5193 7.19531 19.2268 6 18.5352L 6 2Z"/>
<path id="path3_stroke" d="M 2.17689 1.63971C 2.17689 2.02319 1.88374 2.27942 1.58845 2.27942L 1.58845 4.27942C 3.04771 4.27942 4.1769 3.06741 4.1769 1.63971L 2.17689 1.63971ZM 1.58845 2.27942C 1.29316 2.27942 1 2.02319 1 1.63971L -1 1.63971C -1 3.06741 0.129185 4.27942 1.58845 4.27942L 1.58845 2.27942ZM 1 1.63971C 1 1.25623 1.29316 1 1.58845 1L 1.58845 -1C 0.129185 -1 -1 0.212017 -1 1.63971L 1 1.63971ZM 1.58845 1C 1.88374 1 2.17689 1.25623 2.17689 1.63971L 4.1769 1.63971C 4.1769 0.212017 3.04771 -1 1.58845 -1L 1.58845 1Z"/>
<path id="path4_stroke" d="M 48.129 19C 47.5767 19 47.129 19.4477 47.129 20C 47.129 20.5523 47.5767 21 48.129 21L 48.129 19ZM 52 20L 52 21C 52.5523 21 53 20.5523 53 20L 52 20ZM 52 12.8012L 53 12.8012C 53 12.4202 52.7835 12.0723 52.4417 11.904L 52 12.8012ZM 25.9995 0L 26.4412 -0.897158C 26.1627 -1.03428 25.8363 -1.03428 25.5578 -0.897151L 25.9995 0ZM 0 12.8012L -0.441724 11.904C -0.783521 12.0723 -1 12.4202 -1 12.8012L 0 12.8012ZM 0 20L -1 20C -1 20.5523 -0.552285 21 2.22045e-16 21L 0 20ZM 3.87097 21C 4.42325 21 4.87097 20.5523 4.87097 20C 4.87097 19.4477 4.42325 19 3.87097 19L 3.87097 21ZM 48.129 21L 52 21L 52 19L 48.129 19L 48.129 21ZM 53 20L 53 12.8012L 51 12.8012L 51 20L 53 20ZM 52.4417 11.904L 26.4412 -0.897158L 25.5578 0.897158L 51.5583 13.6984L 52.4417 11.904ZM 25.5578 -0.897151L -0.441724 11.904L 0.441724 13.6983L 26.4412 0.897151L 25.5578 -0.897151ZM -1 12.8012L -1 20L 1 20L 1 12.8012L -1 12.8012ZM 0 21L 3.87097 21L 3.87097 19L 0 19L 0 21Z"/>
<path id="path5_stroke" d="M -1 7C -1 7.55228 -0.552285 8 0 8C 0.552285 8 1 7.55228 1 7L -1 7ZM 0 0L 0 -1C -0.552285 -1 -1 -0.552285 -1 2.22045e-16L 0 0ZM 5 0L 6 0C 6 -0.552285 5.55228 -1 5 -1L 5 0ZM 4 9C 4 9.55229 4.44772 10 5 10C 5.55228 10 6 9.55229 6 9L 4 9ZM 1 7L 1 0L -1 0L -1 7L 1 7ZM 0 1L 5 1L 5 -1L 0 -1L 0 1ZM 4 0L 4 9L 6 9L 6 0L 4 0Z"/>
<path id="path6_stroke" d="M 5.73914 8.53638e-07L 6.73914 8.53638e-07C 6.73914 -0.552284 6.29143 -0.999999 5.73914 -0.999999L 5.73914 8.53638e-07ZM 5.73914 7.5L 5.73914 8.5C 6.29143 8.5 6.73914 8.05228 6.73914 7.5L 5.73914 7.5ZM -1.25552e-06 3.85839L -1 3.85839L -1.25552e-06 3.85839ZM 3.57068 1L 5.73914 1L 5.73914 -0.999999L 3.57068 -0.999999L 3.57068 1ZM 4.73914 8.53638e-07L 4.73914 7.5L 6.73914 7.5L 6.73914 8.53638e-07L 4.73914 8.53638e-07ZM 5.73914 6.5L 3.57068 6.5L 3.57068 8.5L 5.73914 8.5L 5.73914 6.5ZM 3.57068 6.5C 2.89531 6.5 2.24353 6.22657 1.75986 5.73328L 0.331803 7.13352C 1.18739 8.0061 2.35205 8.5 3.57068 8.5L 3.57068 6.5ZM 1.75986 5.73328C 1.27552 5.23932 0.999999 4.56527 0.999999 3.85839L -1 3.85839C -1 5.08315 -0.523126 6.26161 0.331803 7.13352L 1.75986 5.73328ZM 0.999999 3.85839L 0.999999 3.64161L -1 3.64161L -1 3.85839L 0.999999 3.85839ZM 0.999999 3.64161C 0.999999 2.93473 1.27552 2.26068 1.75986 1.76672L 0.331803 0.366482C -0.523127 1.23839 -1 2.41685 -1 3.64161L 0.999999 3.64161ZM 1.75986 1.76672C 2.24353 1.27343 2.89531 1 3.57068 1L 3.57068 -0.999999C 2.35205 -0.999999 1.18739 -0.506101 0.331803 0.366482L 1.75986 1.76672Z"/>
<path id="path7_stroke" d="M 6.69567 0L 7.69567 0C 7.69567 -0.354933 7.50753 -0.683271 7.20131 -0.862741C 6.8951 -1.04221 6.5167 -1.04592 6.20702 -0.872482L 6.69567 0ZM 6.69567 15L 6.20702 15.8725C 6.5167 16.0459 6.8951 16.0422 7.20131 15.8627C 7.50753 15.6833 7.69567 15.3549 7.69567 15L 6.69567 15ZM 0 11.25L -1 11.25C -1 11.6119 -0.804429 11.9456 -0.488646 12.1225L 0 11.25ZM 0 3.75L -0.488646 2.87752C -0.804429 3.05438 -1 3.38806 -1 3.75L 0 3.75ZM 5.69567 0L 5.69567 15L 7.69567 15L 7.69567 0L 5.69567 0ZM 7.18431 14.1275L 0.488646 10.3775L -0.488646 12.1225L 6.20702 15.8725L 7.18431 14.1275ZM 1 11.25L 1 3.75L -1 3.75L -1 11.25L 1 11.25ZM 0.488646 4.62248L 7.18431 0.872482L 6.20702 -0.872482L -0.488646 2.87752L 0.488646 4.62248Z"/>
<path id="path8_stroke" d="M 1.13223 -1.70876C 0.188508 -2.28275 -1.04184 -1.98302 -1.61583 -1.0393C -2.18982 -0.0955809 -1.8901 1.13477 -0.946375 1.70876L 1.13223 -1.70876ZM -1.02193 17.2808C -1.97142 17.8452 -2.2836 19.0724 -1.7192 20.0219C -1.15481 20.9714 0.0724405 21.2836 1.02193 20.7192L -1.02193 17.2808ZM -0.946375 1.70876C 0.364098 2.50581 1.45419 3.64353 2.21112 5.01362L 5.71234 3.07933C 4.62273 1.10706 3.04546 -0.545091 1.13223 -1.70876L -0.946375 1.70876ZM 2.21112 5.01362C 2.96821 6.38401 3.36414 7.93679 3.35641 9.51747L 7.35636 9.53703C 7.36741 7.27728 6.80178 5.05131 5.71234 3.07933L 2.21112 5.01362ZM 3.35641 9.51747C 3.34867 11.0981 2.93758 12.6467 2.16724 14.009L 5.64914 15.9779C 6.75793 14.017 7.34531 11.7968 7.35636 9.53703L 3.35641 9.51747ZM 2.16724 14.009C 1.39706 15.3711 0.296068 16.4974 -1.02193 17.2808L 1.02193 20.7192C 2.94666 19.5751 4.54018 17.939 5.64914 15.9779L 2.16724 14.009Z"/>
<path id="path9_stroke" d="M 1.08507 -1.70917C 0.141117 -2.28278 -1.08911 -1.98256 -1.66272 -1.03861C -2.23633 -0.0946546 -1.9361 1.13557 -0.992151 1.70918L 1.08507 -1.70917ZM -1.0215 7.92808C -1.97113 8.49224 -2.28362 9.71941 -1.71946 10.669C -1.1553 11.6187 0.0718693 11.9312 1.0215 11.367L -1.0215 7.92808ZM -0.992151 1.70918C -0.474958 2.02346 -0.0411983 2.4744 0.261391 3.02181L 3.76215 1.08669C 3.12663 -0.0630195 2.20536 -1.02841 1.08507 -1.70917L -0.992151 1.70918ZM 0.261391 3.02181C 0.564141 3.56951 0.723515 4.19227 0.720455 4.82777L 4.72041 4.84704C 4.72674 3.53226 4.39752 2.23612 3.76215 1.08669L 0.261391 3.02181ZM 0.720455 4.82777C 0.717394 5.46328 0.552034 6.08427 0.244133 6.62869L 3.72587 8.59783C 4.37239 7.45469 4.71408 6.16181 4.72041 4.84704L 0.720455 4.82777ZM 0.244133 6.62869C -0.063605 7.17281 -0.501511 7.61917 -1.0215 7.92808L 1.0215 11.367C 2.14849 10.6975 3.07919 9.74126 3.72587 8.59783L 0.244133 6.62869Z"/>
</defs>
</svg>
