<svg width="66" height="60" viewBox="0 0 66 60" version="1.1" xmlns="http://www.w3.org/2000/svg" xmlns:xlink="http://www.w3.org/1999/xlink">
<title>icon_10</title>
<desc>Created using Figma</desc>
<g id="Canvas" transform="translate(-12753 -4617)">
<g id="icon_10">
<g id="Ellipse">
<use xlink:href="#path0_stroke" transform="translate(12760.6 4628.96)" fill="#9ECC2E"/>
</g>
<g id="Vector">
<use xlink:href="#path1_stroke" transform="matrix(1 5.51396e-17 0.00618779 0.999981 12778.8 4641.97)"/>
</g>
<g id="Vector">
<use xlink:href="#path2_stroke" transform="translate(12770.5 4618)"/>
</g>
<g id="Vector">
<use xlink:href="#path3_stroke" transform="matrix(-0.502521 -0.864565 0.867473 -0.497484 12766.3 4678)"/>
</g>
<g id="Vector">
<use xlink:href="#path3_stroke" transform="matrix(-0.502521 0.864565 -0.867473 -0.497484 12821 4651.65)"/>
</g>
</g>
</g>
<defs>
<path id="path0_stroke" d="M 42.2667 -1.57531C 41.3967 -2.25585 40.1397 -2.10225 39.4592 -1.23224C 38.7786 -0.362217 38.9322 0.894763 39.8022 1.57531L 42.2667 -1.57531ZM 48.5331 16.5324C 48.6935 17.6253 49.7094 18.3813 50.8023 18.2209C 51.8951 18.0606 52.6511 17.0447 52.4908 15.9518L 48.5331 16.5324ZM 35.7613 45.2195C 36.7831 44.7999 37.2712 43.6314 36.8516 42.6096C 36.432 41.5879 35.2635 41.0997 34.2417 41.5193L 35.7613 45.2195ZM 16.2702 41.5193C 15.2485 41.0997 14.08 41.5879 13.6604 42.6096C 13.2408 43.6314 13.7289 44.7999 14.7507 45.2195L 16.2702 41.5193ZM -1.97882 15.9518C -2.13915 17.0447 -1.38317 18.0606 -0.290298 18.2209C 0.802574 18.3813 1.81849 17.6253 1.97882 16.5324L -1.97882 15.9518ZM 10.7097 1.57531C 11.5797 0.894763 11.7333 -0.362217 11.0528 -1.23224C 10.3723 -2.10225 9.11527 -2.25585 8.24525 -1.57531L 10.7097 1.57531ZM 39.8022 1.57531C 44.4284 5.19394 47.647 10.4918 48.5331 16.5324L 52.4908 15.9518C 51.4499 8.85677 47.6716 2.65248 42.2667 -1.57531L 39.8022 1.57531ZM 34.2417 41.5193C 31.476 42.6552 28.4425 43.283 25.256 43.283L 25.256 47.283C 28.9722 47.283 32.5214 46.55 35.7613 45.2195L 34.2417 41.5193ZM 25.256 43.283C 22.0695 43.283 19.0359 42.6552 16.2702 41.5193L 14.7507 45.2195C 17.9906 46.55 21.5398 47.283 25.256 47.283L 25.256 43.283ZM 1.97882 16.5324C 2.86499 10.4918 6.08361 5.19394 10.7097 1.57531L 8.24525 -1.57531C 2.84038 2.65248 -0.937957 8.85677 -1.97882 15.9518L 1.97882 16.5324Z"/>
<path id="path1_stroke" d="M 12.9222 6.91451C 12.9222 10.1747 10.2597 12.829 6.9611 12.829L 6.9611 14.829C 11.3516 14.829 14.9222 11.2919 14.9222 6.91451L 12.9222 6.91451ZM 6.9611 12.829C 3.66253 12.829 0.999999 10.1747 0.999999 6.91451L -1 6.91451C -1 11.2919 2.57065 14.829 6.9611 14.829L 6.9611 12.829ZM 0.999999 6.91451C 0.999999 3.65434 3.66253 1 6.9611 1L 6.9611 -1C 2.57065 -1 -1 2.53713 -1 6.91451L 0.999999 6.91451ZM 6.9611 1C 10.2597 1 12.9222 3.65434 12.9222 6.91451L 14.9222 6.91451C 14.9222 2.53713 11.3516 -1 6.9611 -1L 6.9611 1Z"/>
<path id="path2_stroke" d="M 30.6288 4.17262L 31.5169 4.63236C 31.7532 4.17591 31.605 3.61465 31.1741 3.33437L 30.6288 4.17262ZM 0 4.17265L -0.529844 3.32455C -0.971721 3.60061 -1.12759 4.1697 -0.888051 4.63239L 0 4.17265ZM 8.8174 21.2045L 7.92934 21.6642C 8.05777 21.9123 8.28411 22.0953 8.55355 22.1691C 8.823 22.2428 9.11099 22.2004 9.3478 22.0522L 8.8174 21.2045ZM 21.8115 21.2045L 21.2658 22.0425C 21.5026 22.1966 21.7934 22.2435 22.0666 22.1714C 22.3397 22.0993 22.5696 21.9151 22.6995 21.6642L 21.8115 21.2045ZM 31.1741 3.33437C 26.3355 0.186815 20.8637 -0.945253 15.3599 -0.998456L 15.3406 1.00145C 20.5883 1.05218 25.6544 2.12968 30.0836 5.01087L 31.1741 3.33437ZM 15.3599 -0.998456C 9.8154 -1.05205 4.33028 0.288202 -0.529844 3.32455L 0.529844 5.02074C 5.03137 2.20843 10.1336 0.951116 15.3406 1.00145L 15.3599 -0.998456ZM -0.888051 4.63239L 7.92934 21.6642L 9.70545 20.7447L 0.888051 3.7129L -0.888051 4.63239ZM 9.3478 22.0522C 11.0237 21.0037 13.3569 20.4478 15.3407 20.4667L 15.3598 18.4667C 13.061 18.4449 10.3387 19.0731 8.28699 20.3567L 9.3478 22.0522ZM 15.3407 20.4667C 17.3608 20.4859 19.6297 20.9773 21.2658 22.0425L 22.3571 20.3664C 20.3025 19.0288 17.6222 18.4883 15.3598 18.4667L 15.3407 20.4667ZM 22.6995 21.6642L 31.5169 4.63236L 29.7408 3.71287L 20.9234 20.7447L 22.6995 21.6642Z"/>
<path id="path3_stroke" d="M 30.4752 4.19372L 31.3651 4.64982C 31.5981 4.19537 31.4511 3.63843 31.0244 3.358L 30.4752 4.19372ZM 0 4.19375L -0.533687 3.34807C -0.971502 3.62436 -1.12605 4.18913 -0.889929 4.64985L 0 4.19375ZM 8.77317 21.3117L 7.88324 21.7678C 8.01133 22.0178 8.23862 22.2023 8.50954 22.2764C 8.78045 22.3504 9.07001 22.3071 9.30742 22.1571L 8.77317 21.3117ZM 21.702 21.3117L 21.1526 22.1473C 21.3899 22.3033 21.6823 22.3511 21.9569 22.2787C 22.2316 22.2063 22.4624 22.0206 22.592 21.7678L 21.702 21.3117ZM 31.0244 3.358C 26.2083 0.193426 20.7615 -0.944953 15.283 -0.998447L 15.2635 1.00146C 20.4826 1.05242 25.5208 2.13479 29.9261 5.02945L 31.0244 3.358ZM 15.283 -0.998447C 9.76349 -1.05234 4.30348 0.295466 -0.533687 3.34807L 0.533687 5.03943C 5.01121 2.21379 10.0854 0.950896 15.2635 1.00146L 15.283 -0.998447ZM -0.889929 4.64985L 7.88324 21.7678L 9.6631 20.8556L 0.889929 3.73765L -0.889929 4.64985ZM 9.30742 22.1571C 10.9734 21.1042 13.2925 20.5462 15.2636 20.5651L 15.2829 18.5652C 12.993 18.5432 10.2818 19.1753 8.23892 20.4664L 9.30742 22.1571ZM 15.2636 20.5651C 17.2714 20.5844 19.5263 21.0778 21.1526 22.1473L 22.2515 20.4762C 20.2056 19.1307 17.5361 18.5869 15.2829 18.5652L 15.2636 20.5651ZM 22.592 21.7678L 31.3651 4.64982L 29.5853 3.73763L 20.8121 20.8556L 22.592 21.7678Z"/>
</defs>
</svg>
