<svg width="72" height="72" viewBox="0 0 72 72" version="1.1" xmlns="http://www.w3.org/2000/svg" xmlns:xlink="http://www.w3.org/1999/xlink">
<title>icon_2</title>
<desc>Created using Figma</desc>
<g id="Canvas" transform="translate(-12749 -3960)">
<g id="icon_2">
<g id="Vector 2.2">
<use xlink:href="#path0_stroke" transform="translate(12760 3968)" fill="#9ECC2E"/>
</g>
<g id="Vector">
<use xlink:href="#path1_stroke" transform="translate(12750 3987.81)"/>
</g>
<g id="Vector 2">
<use xlink:href="#path2_stroke" transform="translate(12765 4004)"/>
</g>
<g id="Vector">
<use xlink:href="#path3_stroke" transform="translate(12792.6 3975.28)"/>
</g>
<g id="Vector">
<use xlink:href="#path4_stroke" transform="translate(12777.4 3961)"/>
</g>
<g id="Vector">
<use xlink:href="#path5_stroke" transform="translate(12750 3961)"/>
</g>
<g id="Vector">
<use xlink:href="#path6_stroke" transform="translate(12771.8 3989.71)"/>
</g>
</g>
</g>
<defs>
<path id="path0_stroke" d="M 37.5209 14.7698C 38.2325 13.925 38.1246 12.6633 37.2798 11.9516C 36.435 11.24 35.1733 11.348 34.4617 12.1927L 37.5209 14.7698ZM 28.9704 18.7115C 28.2588 19.5563 28.3667 20.818 29.2115 21.5296C 30.0563 22.2412 31.318 22.1333 32.0296 21.2885L 28.9704 18.7115ZM 17.5043 1.28852C 18.2159 0.44374 18.108 -0.817982 17.2632 -1.52961C 16.4184 -2.24124 15.1567 -2.1333 14.445 -1.28852L 17.5043 1.28852ZM 8.95375 5.23022C 8.24212 6.075 8.35006 7.33672 9.19484 8.04836C 10.0396 8.75998 11.3013 8.65205 12.013 7.80726L 8.95375 5.23022ZM 27.9876 1.28852C 28.6993 0.44374 28.5913 -0.817982 27.7465 -1.52961C 26.9018 -2.24124 25.64 -2.1333 24.9284 -1.28852L 27.9876 1.28852ZM 19.4371 5.23022C 18.7255 6.075 18.8334 7.33672 19.6782 8.04836C 20.523 8.75998 21.7847 8.65205 22.4963 7.80726L 19.4371 5.23022ZM 38.0321 1.78551C 38.7421 0.939335 38.6317 -0.322172 37.7855 -1.03214C 36.9393 -1.74211 35.6778 -1.63169 34.9679 -0.785513L 38.0321 1.78551ZM 29.9179 5.23323C 29.208 6.07941 29.3184 7.34091 30.1646 8.05088C 31.0108 8.76085 32.2723 8.65043 32.9822 7.80426L 29.9179 5.23323ZM 7.0209 13.7334C 7.73253 12.8886 7.62459 11.6269 6.77981 10.9153C 5.93503 10.2036 4.6733 10.3116 3.96167 11.1564L 7.0209 13.7334ZM -1.52961 17.6751C -2.24124 18.5199 -2.1333 19.7816 -1.28852 20.4932C -0.44374 21.2049 0.817982 21.0969 1.52961 20.2521L -1.52961 17.6751ZM 17.5043 13.7334C 18.2159 12.8886 18.108 11.6269 17.2632 10.9153C 16.4184 10.2036 15.1567 10.3116 14.445 11.1564L 17.5043 13.7334ZM 8.95375 17.6751C 8.24212 18.5199 8.35006 19.7816 9.19484 20.4932C 10.0396 21.2049 11.3013 21.0969 12.013 20.2521L 8.95375 17.6751ZM 27.9876 13.7334C 28.6993 12.8886 28.5913 11.6269 27.7465 10.9153C 26.9018 10.2036 25.64 10.3116 24.9284 11.1564L 27.9876 13.7334ZM 19.4371 17.6751C 18.7255 18.5199 18.8334 19.7816 19.6782 20.4932C 20.523 21.2049 21.7847 21.0969 22.4963 20.2521L 19.4371 17.6751ZM 46.499 4.82402C 47.2302 3.99615 47.1519 2.73224 46.324 2.00101C 45.4962 1.26977 44.2322 1.34811 43.501 2.17598L 46.499 4.82402ZM 39.5097 6.69472C 38.7785 7.52259 38.8568 8.7865 39.6847 9.51773C 40.5126 10.249 41.7765 10.1706 42.5077 9.34276L 39.5097 6.69472ZM 54.9173 7.92987C 55.6966 7.14711 55.6939 5.88079 54.9111 5.10145C 54.1284 4.3221 52.862 4.32487 52.0827 5.10762L 54.9173 7.92987ZM 50.0914 7.10762C 49.3121 7.89037 49.3148 9.1567 50.0976 9.93604C 50.8803 10.7154 52.1467 10.7126 52.926 9.92987L 50.0914 7.10762ZM 47.5296 15.7885C 48.2412 14.9437 48.1333 13.682 47.2885 12.9704C 46.4437 12.2588 45.182 12.3667 44.4704 13.2115L 47.5296 15.7885ZM 38.9791 19.7302C 38.2675 20.575 38.3754 21.8367 39.2202 22.5484C 40.065 23.26 41.3267 23.152 42.0383 22.3073L 38.9791 19.7302ZM 34.4617 12.1927L 28.9704 18.7115L 32.0296 21.2885L 37.5209 14.7698L 34.4617 12.1927ZM 14.445 -1.28852L 8.95375 5.23022L 12.013 7.80726L 17.5043 1.28852L 14.445 -1.28852ZM 24.9284 -1.28852L 19.4371 5.23022L 22.4963 7.80726L 27.9876 1.28852L 24.9284 -1.28852ZM 34.9679 -0.785513L 29.9179 5.23323L 32.9822 7.80426L 38.0321 1.78551L 34.9679 -0.785513ZM 3.96167 11.1564L -1.52961 17.6751L 1.52961 20.2521L 7.0209 13.7334L 3.96167 11.1564ZM 14.445 11.1564L 8.95375 17.6751L 12.013 20.2521L 17.5043 13.7334L 14.445 11.1564ZM 24.9284 11.1564L 19.4371 17.6751L 22.4963 20.2521L 27.9876 13.7334L 24.9284 11.1564ZM 43.501 2.17598L 39.5097 6.69472L 42.5077 9.34276L 46.499 4.82402L 43.501 2.17598ZM 52.0827 5.10762L 50.0914 7.10762L 52.926 9.92987L 54.9173 7.92987L 52.0827 5.10762ZM 44.4704 13.2115L 38.9791 19.7302L 42.0383 22.3073L 47.5296 15.7885L 44.4704 13.2115Z"/>
<path id="path1_stroke" d="M 0 28.7933L -1 28.7933C -1 29.2151 -0.735334 29.5916 -0.338422 29.7343L 0 28.7933ZM 0 0L 0.31996 -0.947431C 0.0147562 -1.0505 -0.321411 -1.00023 -0.583113 -0.812391C -0.844814 -0.624549 -1 -0.322138 -1 2.10372e-16L 0 0ZM 42.31 15.3441C 42.8332 15.5208 43.4007 15.2399 43.5774 14.7166C 43.7541 14.1934 43.4732 13.626 42.9499 13.4492L 42.31 15.3441ZM 42.3072 44.1345C 42.8299 44.3127 43.3982 44.0335 43.5764 43.5107C 43.7547 42.988 43.4754 42.4197 42.9527 42.2415L 42.3072 44.1345ZM 26.8227 36.7415C 26.3 36.5633 25.7318 36.8425 25.5535 37.3653C 25.3753 37.888 25.6545 38.4562 26.1773 38.6345L 26.8227 36.7415ZM 14.6616 35.129C 15.1813 35.3159 15.7541 35.0461 15.941 34.5264C 16.1279 34.0067 15.8581 33.4339 15.3384 33.247L 14.6616 35.129ZM 1 28.7933L 1 0L -1 0L -1 28.7933L 1 28.7933ZM -0.31996 0.947431L 42.31 15.3441L 42.9499 13.4492L 0.31996 -0.947431L -0.31996 0.947431ZM 42.9527 42.2415L 26.8227 36.7415L 26.1773 38.6345L 42.3072 44.1345L 42.9527 42.2415ZM 15.3384 33.247L 0.338422 27.8524L -0.338422 29.7343L 14.6616 35.129L 15.3384 33.247Z"/>
<path id="path2_stroke" d="M 0 0L 0.328521 -0.944497C 0.0227544 -1.05085 -0.31558 -1.0026 -0.57943 -0.815022C -0.843281 -0.62744 -1 -0.323735 -1 -1.0486e-16L 0 0ZM -1 18C -1 18.5523 -0.552285 19 0 19C 0.552285 19 1 18.5523 1 18L -1 18ZM 11.5 4L 12.5 4C 12.5 3.57434 12.2306 3.19534 11.8285 3.0555L 11.5 4ZM 10.5 21.5C 10.5 22.0523 10.9477 22.5 11.5 22.5C 12.0523 22.5 12.5 22.0523 12.5 21.5L 10.5 21.5ZM -1 0L -1 18L 1 18L 1 0L -1 0ZM 10.5 4L 10.5 21.5L 12.5 21.5L 12.5 4L 10.5 4ZM 11.8285 3.0555L 0.328521 -0.944497L -0.328521 0.944497L 11.1715 4.9445L 11.8285 3.0555Z"/>
<path id="path3_stroke" d="M 0 55.7169L -1 55.7169C -1 56.1199 -0.758132 56.4835 -0.386476 56.6392C -0.0148199 56.7949 0.414 56.7124 0.701272 56.4298L 0 55.7169ZM 27.3697 28.7933L 28.071 29.5062C 28.2621 29.3183 28.3697 29.0614 28.3697 28.7933L 27.3697 28.7933ZM 27.3697 0L 28.3697 0C 28.3697 -0.402974 28.1278 -0.766574 27.7562 -0.922307C 27.3845 -1.07804 26.9557 -0.995472 26.6684 -0.712867L 27.3697 0ZM 0 26.9256L -0.701299 26.2127C -0.892385 26.4007 -1 26.6575 -1 26.9256L 0 26.9256ZM 0.701272 56.4298L 28.071 29.5062L 26.6684 28.0805L -0.701272 55.004L 0.701272 56.4298ZM 28.3697 28.7933L 28.3697 0L 26.3697 0L 26.3697 28.7933L 28.3697 28.7933ZM 26.6684 -0.712867L -0.701299 26.2127L 0.701299 27.6384L 28.071 0.712867L 26.6684 -0.712867ZM -1 26.9256L -1 55.7169L 1 55.7169L 1 26.9256L -1 26.9256Z"/>
<path id="path4_stroke" d="M 42.3123 15.2313C 42.8359 15.4068 43.4027 15.1245 43.5781 14.6008C 43.7536 14.0771 43.4713 13.5104 42.9476 13.3349L 42.3123 15.2313ZM 4.04434e-07 -1.85668e-07L 0.317692 -0.948194C 0.0126427 -1.0504 -0.32295 -0.999602 -0.584084 -0.811693C -0.845218 -0.623784 -1 -0.321716 -1 -1.85668e-07L 4.04434e-07 -1.85668e-07ZM 4.04434e-07 28.7913L -1 28.7913C -1 29.2203 -0.726409 29.6015 -0.319998 29.7387L 4.04434e-07 28.7913ZM 20.4367 36.7495C 20.96 36.9262 21.5274 36.6453 21.7041 36.1221C 21.8809 35.5988 21.6 35.0314 21.0767 34.8546L 20.4367 36.7495ZM 42.9476 13.3349L 0.317692 -0.948194L -0.317691 0.948194L 42.3123 15.2313L 42.9476 13.3349ZM -1 -1.85668e-07L -1 28.7913L 1 28.7913L 1 -1.85668e-07L -1 -1.85668e-07ZM -0.319998 29.7387L 20.4367 36.7495L 21.0767 34.8546L 0.319999 27.8439L -0.319998 29.7387Z"/>
<path id="path5_stroke" d="M -0.699813 26.0977C -1.09432 26.4842 -1.10082 27.1173 -0.714326 27.5118C -0.32783 27.9063 0.305302 27.9128 0.699813 27.5263L -0.699813 26.0977ZM 28.0679 0.714326C 28.4624 0.32783 28.4689 -0.305302 28.0824 -0.699813C 27.6959 -1.09432 27.0627 -1.10082 26.6682 -0.714326L 28.0679 0.714326ZM 0.699813 27.5263L 28.0679 0.714326L 26.6682 -0.714326L -0.699813 26.0977L 0.699813 27.5263Z"/>
<path id="path6_stroke" d="M -0.699858 4.74911C -1.09434 5.13564 -1.1008 5.76877 -0.714281 6.16325C -0.327759 6.55774 0.305373 6.5642 0.699859 6.17768L -0.699858 4.74911ZM 6.27584 0.714282C 6.67033 0.327761 6.67679 -0.305371 6.29027 -0.699858C 5.90374 -1.09434 5.27061 -1.1008 4.87613 -0.71428L 6.27584 0.714282ZM 0.699859 6.17768L 6.27584 0.714282L 4.87613 -0.71428L -0.699858 4.74911L 0.699859 6.17768Z"/>
</defs>
</svg>
