<svg width="52" height="72" viewBox="0 0 52 72" version="1.1" xmlns="http://www.w3.org/2000/svg" xmlns:xlink="http://www.w3.org/1999/xlink">
<title>icon_2</title>
<desc>Created using Figma</desc>
<g id="Canvas" transform="translate(-12609 -4130)">
<g id="icon_2">
<g id="Vector">
<use xlink:href="#path0_stroke" transform="translate(12610 4131)"/>
</g>
<g id="Vector">
<use xlink:href="#path1_stroke" transform="translate(12610 4147.76)"/>
</g>
<g id="Vector">
<use xlink:href="#path2_stroke" transform="translate(12616.6 4134.68)"/>
</g>
<g id="Union">
<use xlink:href="#path3_fill" transform="translate(12620.9 4141.12)" fill="#9ECC2E"/>
</g>
<g id="Vector">
<use xlink:href="#path4_stroke" transform="translate(12610 4147.76)"/>
</g>
<g id="Vector">
<use xlink:href="#path5_stroke" transform="translate(12648.2 4131)"/>
</g>
<g id="Vector">
<use xlink:href="#path6_stroke" transform="translate(12610 4194.1)"/>
</g>
<g id="Vector">
<use xlink:href="#path7_stroke" transform="translate(12621.3 4137.37)"/>
</g>
<g id="Vector">
<use xlink:href="#path8_stroke" transform="translate(12640.7 4145)"/>
</g>
<g id="Vector">
<use xlink:href="#path9_stroke" transform="translate(12635.4 4143)"/>
</g>
<g id="Vector">
<use xlink:href="#path10_stroke" transform="translate(12621.4 4136.92)"/>
</g>
</g>
</g>
<defs>
<path id="path0_stroke" d="M -0.40217 15.845C -0.907822 16.0671 -1.13768 16.6571 -0.915565 17.1627C -0.693453 17.6684 -0.103483 17.8982 0.40217 17.6761L -0.40217 15.845ZM 38.5587 0.915565C 39.0643 0.693453 39.2942 0.103483 39.0721 -0.40217C 38.85 -0.907822 38.26 -1.13768 37.7543 -0.915565L 38.5587 0.915565ZM 0.40217 17.6761L 38.5587 0.915565L 37.7543 -0.915565L -0.40217 15.845L 0.40217 17.6761Z"/>
<path id="path1_stroke" d="M -1 46.338C -1 46.8903 -0.552285 47.338 -3.05176e-07 47.338C 0.552284 47.338 1 46.8903 1 46.338L -1 46.338ZM 1 -1.01946e-06C 1 -0.552286 0.552284 -1 -3.05176e-07 -1C -0.552285 -1 -1 -0.552286 -1 -1.01946e-06L 1 -1.01946e-06ZM 1 46.338L 1 -1.01946e-06L -1 -1.01946e-06L -1 46.338L 1 46.338Z"/>
<path id="path2_stroke" d="M 38.547 0.92066C 39.0554 0.705068 39.2929 0.118102 39.0773 -0.390365C 38.8617 -0.898831 38.2747 -1.13625 37.7662 -0.92066L 38.547 0.92066ZM 0 16.1786L -0.390365 15.2579C -0.759948 15.4146 -1 15.7772 -1 16.1786L 0 16.1786ZM -1 63.3661C -1 63.9184 -0.552285 64.3661 0 64.3661C 0.552285 64.3661 1 63.9184 1 63.3661L -1 63.3661ZM 37.7662 -0.92066L -0.390365 15.2579L 0.390365 17.0992L 38.547 0.92066L 37.7662 -0.92066ZM -1 16.1786L -1 63.3661L 1 63.3661L 1 16.1786L -1 16.1786Z"/>
<path id="path3_fill" fill-rule="evenodd" d="M 28.4221 0.447817C 29.2795 1.14435 29.4104 2.40412 28.7131 3.26129L 23.4915 9.6883C 22.7952 10.5455 21.5354 10.6758 20.678 9.97931C 19.8206 9.28253 19.6907 8.02301 20.387 7.16583L 25.6096 0.738833C 26.3059 -0.118345 27.5657 -0.248716 28.4221 0.447817ZM 38.3918 0.447817C 39.2493 1.14435 39.3792 2.40412 38.6829 3.26129L 33.4612 9.6883C 32.7639 10.5455 31.5051 10.6758 30.6477 9.97931C 29.7903 9.28253 29.6604 8.02301 30.3567 7.16583L 35.5784 0.738833C 36.2756 -0.118345 37.5344 -0.248716 38.3918 0.447817ZM 8.48365 12.7173C 9.34107 13.4141 9.47095 14.6736 8.77466 15.5308L 3.55201 21.9578C 2.85572 22.815 1.59595 22.9454 0.739506 22.2488C 0.390873 21.9656 0.162358 21.5892 0.0607952 21.1844C -0.0876423 20.5941 0.034428 19.9439 0.448491 19.4354L 5.67017 13.0084C 6.36646 12.1512 7.62622 12.0208 8.48365 12.7173ZM 18.4534 12.7173C 19.3108 13.4141 19.4407 14.6736 18.7444 15.5308L 13.5217 21.9578C 12.8254 22.815 11.5657 22.9454 10.7083 22.2488C 9.85083 21.5523 9.72095 20.2925 10.4172 19.4354L 15.6399 13.0084C 16.3362 12.1512 17.596 12.0208 18.4534 12.7173ZM 28.4221 12.7173C 29.2795 13.4141 29.4104 14.6736 28.7131 15.5308L 23.4915 21.9578C 22.7952 22.815 21.5354 22.9454 20.678 22.2488C 19.8206 21.5523 19.6907 20.2925 20.387 19.4354L 25.6096 13.0084C 26.3059 12.1512 27.5657 12.0208 28.4221 12.7173ZM 38.3918 12.7173C 39.2493 13.4141 39.3792 14.6736 38.6829 15.5308L 33.4612 21.9578C 32.7639 22.815 31.5051 22.9454 30.6477 22.2488C 29.7903 21.5523 29.6604 20.2925 30.3567 19.4354L 35.5784 13.0084C 36.2756 12.1512 37.5344 12.0208 38.3918 12.7173ZM 8.48365 25.0484C 9.34107 25.7449 9.47095 27.0047 8.77466 27.8619L 3.55201 34.2889C 2.85572 35.1461 1.59595 35.2764 0.739506 34.5799C 0.368412 34.2781 0.133061 33.8709 0.0422405 33.4366C -0.0339313 33.0711 -0.00756414 32.6863 0.125248 32.3289C 0.199467 32.1302 0.306889 31.94 0.448491 31.7664L 5.67017 25.3394C 6.36646 24.4822 7.62622 24.3519 8.48365 25.0484ZM 18.4534 25.0484C 19.3108 25.7449 19.4407 27.0047 18.7444 27.8619L 13.5217 34.2889C 12.8254 35.1461 11.5657 35.2764 10.7083 34.5799C 9.85083 33.8831 9.72095 32.6236 10.4172 31.7664L 15.6399 25.3394C 16.3362 24.4822 17.596 24.3519 18.4534 25.0484ZM 28.4221 25.0484C 29.2795 25.7449 29.4104 27.0047 28.7131 27.8619L 23.4915 34.2889C 22.7952 35.1461 21.5354 35.2764 20.678 34.5799C 19.8206 33.8831 19.6907 32.6236 20.387 31.7664L 25.6096 25.3394C 26.3059 24.4822 27.5657 24.3519 28.4221 25.0484ZM 38.3918 25.0484C 39.2493 25.7449 39.3792 27.0047 38.6829 27.8619L 33.4612 34.2889C 32.7639 35.1461 31.5051 35.2764 30.6477 34.5799C 29.7903 33.8831 29.6604 32.6236 30.3567 31.7664L 35.5784 25.3394C 36.2756 24.4822 37.5344 24.3519 38.3918 25.0484ZM 8.48365 37.3179C 9.34107 38.0147 9.47095 39.2742 8.77466 40.1314L 3.55201 46.5584C 2.85572 47.4156 1.59595 47.546 0.739506 46.8494C -0.117916 46.1529 -0.248775 44.8931 0.448491 44.036L 5.67017 37.609C 6.36646 36.7518 7.62622 36.6214 8.48365 37.3179ZM 18.4534 37.3179C 19.3108 38.0147 19.4407 39.2742 18.7444 40.1314L 13.5217 46.5584C 12.8254 47.4156 11.5657 47.546 10.7083 46.8494C 9.85083 46.1529 9.72095 44.8931 10.4172 44.036L 15.6399 37.609C 16.3362 36.7518 17.596 36.6214 18.4534 37.3179ZM 28.4221 37.3179C 29.2795 38.0147 29.4104 39.2742 28.7131 40.1314L 23.4915 46.5584C 22.7952 47.4156 21.5354 47.546 20.678 46.8494C 19.8206 46.1529 19.6907 44.8931 20.387 44.036L 25.6096 37.609C 26.3059 36.7518 27.5657 36.6214 28.4221 37.3179ZM 8.77466 52.4627C 9.47095 51.6055 9.34107 50.3458 8.48365 49.6492C 7.62622 48.9527 6.36646 49.0831 5.67017 49.9403L 0.448491 56.3673C -0.248775 57.2244 -0.117916 58.484 0.739506 59.1807C 1.59595 59.8773 2.85572 59.7469 3.55201 58.8897L 8.77466 52.4627Z"/>
<path id="path4_stroke" d="M 10.9879 6.80388C 11.4785 7.05743 12.0818 6.86523 12.3353 6.37459C 12.5889 5.88395 12.3967 5.28066 11.906 5.02711L 10.9879 6.80388ZM 0.459098 -0.888388C -0.0315447 -1.14194 -0.634833 -0.94974 -0.888385 -0.459097C -1.14194 0.0315455 -0.949736 0.634834 -0.459094 0.888386L 0.459098 -0.888388ZM 11.906 5.02711L 0.459098 -0.888388L -0.459094 0.888386L 10.9879 6.80388L 11.906 5.02711Z"/>
<path id="path5_stroke" d="M 10.9879 6.80388C 11.4785 7.05743 12.0818 6.86523 12.3353 6.37459C 12.5889 5.88395 12.3967 5.28066 11.906 5.02711L 10.9879 6.80388ZM 0.4591 -0.888387C -0.0315428 -1.14194 -0.634831 -0.949739 -0.888383 -0.459096C -1.14193 0.0315461 -0.949735 0.634835 -0.459092 0.888386L 0.4591 -0.888387ZM 11.906 5.02711L 0.4591 -0.888387L -0.459092 0.888386L 10.9879 6.80388L 11.906 5.02711Z"/>
<path id="path6_stroke" d="M 10.9306 7.7578C 11.4036 8.04296 12.0182 7.8907 12.3033 7.41773C 12.5885 6.94476 12.4362 6.33017 11.9633 6.04501L 10.9306 7.7578ZM 0.516323 -0.856394C 0.0433497 -1.14155 -0.571237 -0.989296 -0.856394 -0.516323C -1.14155 -0.0433497 -0.989296 0.571237 -0.516323 0.856394L 0.516323 -0.856394ZM 11.9633 6.04501L 0.516323 -0.856394L -0.516323 0.856394L 10.9306 7.7578L 11.9633 6.04501Z"/>
<path id="path7_stroke" d="M 38.5485 0.92068C 39.0569 0.705112 39.2944 0.118158 39.0788 -0.390319C 38.8633 -0.898797 38.2763 -1.13625 37.7678 -0.92068L 38.5485 0.92068ZM -0.390319 15.2564C -0.898796 15.4719 -1.13625 16.0589 -0.920679 16.5674C -0.705112 17.0758 -0.118157 17.3133 0.39032 17.0977L -0.390319 15.2564ZM 37.7678 -0.92068L -0.390319 15.2564L 0.39032 17.0977L 38.5485 0.92068L 37.7678 -0.92068Z"/>
<path id="path8_stroke" d="M -1 0L -1 46L 1 46L 1 0L -1 0Z"/>
<path id="path9_stroke" d="M 0.3846 -0.923083C -0.125205 -1.13549 -0.710675 -0.894405 -0.923083 -0.3846C -1.13549 0.125205 -0.894405 0.710675 -0.3846 0.923083L 0.3846 -0.923083ZM 4.41562 2.92308C 4.92543 3.13549 5.5109 2.8944 5.72331 2.3846C 5.93572 1.8748 5.69463 1.28933 5.18482 1.07692L 4.41562 2.92308ZM -0.3846 0.923083L 4.41562 2.92308L 5.18482 1.07692L 0.3846 -0.923083L -0.3846 0.923083Z"/>
<path id="path10_stroke" d="M 39.1565 0C 39.1565 -0.552285 38.7088 -1 38.1565 -1C 37.6042 -1 37.1565 -0.552285 37.1565 0L 39.1565 0ZM 38.1565 43.1333L 38.6378 44.0099C 38.9577 43.8342 39.1565 43.4983 39.1565 43.1333L 38.1565 43.1333ZM 0 64.0845L -1 64.0845C -1 64.4379 -0.813433 64.7651 -0.509263 64.9451C -0.205092 65.1251 0.171498 65.1312 0.481303 64.9611L 0 64.0845ZM 1 16.7606C 1 16.2083 0.552285 15.7606 0 15.7606C -0.552285 15.7606 -1 16.2083 -1 16.7606L 1 16.7606ZM 37.1565 0L 37.1565 43.1333L 39.1565 43.1333L 39.1565 0L 37.1565 0ZM 37.6752 42.2568L -0.481303 63.208L 0.481303 64.9611L 38.6378 44.0099L 37.6752 42.2568ZM 1 64.0845L 1 16.7606L -1 16.7606L -1 64.0845L 1 64.0845Z"/>
</defs>
</svg>
