<svg width="82" height="62" viewBox="0 0 82 62" version="1.1" xmlns="http://www.w3.org/2000/svg" xmlns:xlink="http://www.w3.org/1999/xlink">
<title>icon_4</title>
<desc>Created using Figma</desc>
<g id="Canvas" transform="translate(-12745 -4140)">
<g id="icon_4">
<g id="Union">
<use xlink:href="#path0_fill" transform="translate(12767 4146)" fill="#9ECC2E"/>
</g>
<g id="Vector">
<use xlink:href="#path1_stroke" transform="translate(12760.8 4141)"/>
</g>
<g id="Vector">
<use xlink:href="#path2_stroke" transform="translate(12746 4177)"/>
</g>
<g id="Vector 2">
<use xlink:href="#path3_stroke" transform="translate(12775.1 4148.2)"/>
</g>
<g id="Vector">
<use xlink:href="#path4_stroke" transform="translate(12746 4164.78)"/>
</g>
</g>
</g>
<defs>
<path id="path0_fill" fill-rule="evenodd" d="M 29.7462 0.470482C 30.5919 1.18215 30.6993 2.44387 29.9874 3.2886L 24.4962 9.8074C 23.7853 10.6521 22.5235 10.76 21.6778 10.0484C 20.8331 9.33669 20.7257 8.07497 21.4376 7.23025L 26.9288 0.711449C 27.6397 -0.133277 28.9015 -0.241188 29.7462 0.470482ZM 40.2296 0.470482C 41.0743 1.18215 41.1827 2.44387 40.4708 3.2886L 34.9796 9.8074C 34.2687 10.6521 33.0069 10.76 32.1612 10.0484C 31.3165 9.33669 31.2091 8.07497 31.921 7.23025L 37.4122 0.711449C 38.1231 -0.133277 39.3849 -0.241188 40.2296 0.470482ZM 8.78037 12.9153C 9.6251 13.627 9.73252 14.8887 9.02061 15.7334L 3.5294 22.2522C 2.81846 23.0969 1.55674 23.2049 0.712013 22.4932C -0.13369 21.7815 -0.241112 20.5198 0.470802 19.6751L 5.96201 13.1563C 6.35947 12.6846 6.92881 12.4426 7.50108 12.4448C 7.95322 12.4466 8.40733 12.6011 8.78037 12.9153ZM 19.2628 12.9153C 20.1085 13.627 20.2159 14.8887 19.504 15.7334L 14.0128 22.2522C 13.6798 22.6482 13.2257 22.8821 12.7501 22.9458C 12.211 23.0181 11.6446 22.8714 11.1954 22.4932C 10.3497 21.7815 10.2423 20.5198 10.9542 19.6751L 16.4454 13.1563C 17.1563 12.3115 18.4181 12.2036 19.2628 12.9153ZM 29.7462 12.9153C 30.5919 13.627 30.6993 14.8887 29.9874 15.7334L 24.4962 22.2522C 23.7853 23.0969 22.5235 23.2049 21.6778 22.4932C 20.8331 21.7815 20.7257 20.5198 21.4376 19.6751L 26.9288 13.1563C 27.6397 12.3115 28.9015 12.2036 29.7462 12.9153ZM 40.2296 12.9153C 41.0743 13.627 41.1827 14.8887 40.4708 15.7334L 34.9796 22.2522C 34.2687 23.0969 33.0069 23.2049 32.1612 22.4932C 31.3165 21.7815 31.2091 20.5198 31.921 19.6751L 37.4122 13.1563C 38.1231 12.3115 39.3849 12.2036 40.2296 12.9153ZM 19.2628 25.4226C 20.1085 26.1343 20.2159 27.396 19.504 28.2407L 14.0128 34.7595C 13.3019 35.6043 12.0401 35.7122 11.1954 35.0005C 10.3497 34.2888 10.2423 33.0271 10.9542 32.1824L 16.4454 25.6636C 17.1563 24.8189 18.4181 24.711 19.2628 25.4226ZM 29.7462 25.4226C 30.5919 26.1343 30.6993 27.396 29.9874 28.2407L 24.4962 34.7595C 24.2296 35.0757 23.8858 35.2886 23.5167 35.3941C 22.8985 35.5701 22.2071 35.4458 21.6778 35.0005C 20.8331 34.2888 20.7257 33.0271 21.4376 32.1824L 26.9288 25.6636C 27.6397 24.8189 28.9015 24.711 29.7462 25.4226ZM 40.2296 25.4226C 41.0743 26.1343 41.1827 27.396 40.4708 28.2407L 34.9796 34.7595C 34.2687 35.6043 33.0069 35.7122 32.1612 35.0005C 31.7911 34.689 31.5626 34.272 31.4825 33.8306C 31.38 33.2639 31.5206 32.6572 31.921 32.1824L 37.4122 25.6636C 38.1231 24.8189 39.3849 24.711 40.2296 25.4226ZM 50.7804 25.4226C 51.6251 26.1343 51.7325 27.396 51.0206 28.2407L 45.5294 34.7595C 44.8185 35.6043 43.5567 35.7122 42.712 35.0005C 41.8673 34.2888 41.7589 33.0271 42.4708 32.1824L 47.962 25.6636C 48.673 24.8189 49.9347 24.711 50.7804 25.4226ZM 8.81065 25.449C 9.64072 26.1775 9.72276 27.4412 8.99424 28.2715L 5.00303 32.8194C 4.27451 33.6494 3.01084 33.7317 2.18076 33.0032C 1.35069 32.2747 1.26865 31.011 1.99717 30.1807L 5.98838 25.6328C 6.7169 24.8028 7.98057 24.7205 8.81065 25.449ZM 19.2628 37.8675C 20.1085 38.5791 20.2159 39.8408 19.504 40.6856L 14.0128 47.2044C 13.3019 48.0491 12.0401 48.157 11.1954 47.4453C 10.3497 46.7337 10.2423 45.4719 10.9542 44.6272L 16.4454 38.1084C 17.1563 37.2637 18.4181 37.1558 19.2628 37.8675ZM 29.7462 37.8675C 30.5919 38.5791 30.6993 39.8408 29.9874 40.6856L 24.4962 47.2044C 23.7853 48.0491 22.5235 48.157 21.6778 47.4453C 20.8331 46.7337 20.7257 45.4719 21.4376 44.6272L 26.9288 38.1084C 27.6397 37.2637 28.9015 37.1558 29.7462 37.8675ZM 50.0206 16.2886C 50.7325 15.4439 50.6251 14.1822 49.7804 13.4705C 48.9347 12.7588 47.673 12.8667 46.962 13.7114L 41.4708 20.2302C 40.7589 21.075 40.8663 22.3367 41.712 23.0484C 42.2052 23.4641 42.8409 23.6001 43.4259 23.4732C 43.8429 23.3826 44.2335 23.1587 44.5294 22.8074L 50.0206 16.2886Z"/>
<path id="path1_stroke" d="M -6.6017e-07 23.7839L -0.47997 22.9067C -0.719486 23.0377 -0.895009 23.261 -0.9658 23.5247C -1.03659 23.7883 -0.996494 24.0695 -0.854815 24.3029L -6.6017e-07 23.7839ZM 43.4722 -6.82928e-07L 44.3251 -0.522129C 44.0466 -0.977006 43.4601 -1.13328 42.9922 -0.877286L 43.4722 -6.82928e-07ZM 65.1768 35.4532L 65.6709 36.3226C 65.9063 36.1887 66.0775 35.9651 66.1451 35.7028C 66.2127 35.4405 66.171 35.162 66.0296 34.931L 65.1768 35.4532ZM 21.9858 60L 21.131 60.5189C 21.4117 60.9814 22.0095 61.1367 22.4799 60.8694L 21.9858 60ZM 0.479968 24.6612L 43.9522 0.877285L 42.9922 -0.877286L -0.47997 22.9067L 0.479968 24.6612ZM 42.6193 0.522128L 64.3239 35.9753L 66.0296 34.931L 44.3251 -0.522129L 42.6193 0.522128ZM 64.6826 34.5838L 21.4917 59.1306L 22.4799 60.8694L 65.6709 36.3226L 64.6826 34.5838ZM 22.8406 59.4811L 0.854813 23.265L -0.854815 24.3029L 21.131 60.5189L 22.8406 59.4811Z"/>
<path id="path2_stroke" d="M 0.492165 13.4705L 22.778 0.870502L 21.7937 -0.870502L -0.492165 11.7295L 0.492165 13.4705Z"/>
<path id="path3_stroke" d="M 22.5707 43.2835L 0.85629 7.2835L -0.85629 8.31649L 20.8582 44.3165L 22.5707 43.2835ZM 37.428 35.4835L 15.7135 -0.516496L 14.001 0.516496L 35.7154 36.5165L 37.428 35.4835Z"/>
<path id="path4_stroke" d="M 35.6974 37.169C 36.2237 37.3363 36.786 37.0452 36.9533 36.5189C 37.1206 35.9926 36.8295 35.4303 36.3032 35.263L 35.6974 37.169ZM 0 24.7747L -0.858122 24.2612C -1.01501 24.5235 -1.04341 24.843 -0.935211 25.1288C -0.827013 25.4145 -0.594097 25.6352 -0.302884 25.7277L 0 24.7747ZM 15.6818 0.513447C 15.9653 0.0395192 15.811 -0.574553 15.3371 -0.858122C 14.8632 -1.14169 14.2491 -0.987374 13.9655 -0.513447L 15.6818 0.513447ZM 36.3032 35.263L 0.302884 23.8217L -0.302884 25.7277L 35.6974 37.169L 36.3032 35.263ZM 0.858122 25.2881L 15.6818 0.513447L 13.9655 -0.513447L -0.858122 24.2612L 0.858122 25.2881Z"/>
</defs>
</svg>
