<svg width="52" height="62" viewBox="0 0 52 62" version="1.1" xmlns="http://www.w3.org/2000/svg" xmlns:xlink="http://www.w3.org/1999/xlink">
<title>icon_n ob</title>
<desc>Created using Figma</desc>
<g id="Canvas" transform="translate(-12609 -4317)">
<g id="icon_n ob">
<g id="Vector">
<use xlink:href="#path0_stroke" transform="translate(12610 4318)"/>
</g>
<g id="Vector">
<use xlink:href="#path1_stroke" transform="translate(12611 4331.2)"/>
</g>
<g id="Vector">
<use xlink:href="#path2_stroke" transform="matrix(5.1027e-17 1 -1 7.34788e-17 12619 4324)" fill="#9ECC2E"/>
</g>
<g id="Vector">
<use xlink:href="#path2_stroke" transform="matrix(5.1027e-17 1 -1 7.34788e-17 12630 4324)" fill="#9ECC2E"/>
</g>
<g id="Vector">
<use xlink:href="#path2_stroke" transform="matrix(5.1027e-17 1 -1 7.34788e-17 12637 4324)" fill="#9ECC2E"/>
</g>
<g id="Vector">
<use xlink:href="#path2_stroke" transform="matrix(5.1027e-17 1 -1 7.34788e-17 12644 4324)" fill="#9ECC2E"/>
</g>
<g id="Vector">
<use xlink:href="#path2_stroke" transform="matrix(5.1027e-17 1 -1 7.34788e-17 12651 4324)" fill="#9ECC2E"/>
</g>
<g id="Vector">
<use xlink:href="#path3_stroke" transform="matrix(1 -2.93915e-16 2.04108e-16 1 12618 4337.2)"/>
</g>
<g id="Vector">
<use xlink:href="#path4_stroke" transform="translate(12618 4343.2)"/>
</g>
<g id="Vector">
<use xlink:href="#path5_stroke" transform="matrix(-4.80388e-08 1 -1 -3.97738e-08 12636.3 4349.2)" fill="#9ECC2E"/>
</g>
<g id="Vector">
<use xlink:href="#path5_stroke" transform="matrix(-4.80388e-08 1 -1 -3.97738e-08 12645 4349.2)" fill="#9ECC2E"/>
</g>
<g id="Vector">
<use xlink:href="#path5_stroke" transform="matrix(-4.80388e-08 1 -1 -3.97738e-08 12627.9 4349.2)" fill="#9ECC2E"/>
</g>
</g>
</g>
<defs>
<path id="path0_stroke" d="M 3.41759 1L 46.5824 1L 46.5824 -1L 3.41759 -1L 3.41759 1ZM 46.5824 1C 47.913 1 49 2.08528 49 3.43439L 51 3.43439C 51 0.989978 49.0268 -1 46.5824 -1L 46.5824 1ZM 49 3.43439L 49 56.5656L 51 56.5656L 51 3.43439L 49 3.43439ZM 49 56.5656C 49 57.9147 47.913 59 46.5824 59L 46.5824 61C 49.0268 61 51 59.01 51 56.5656L 49 56.5656ZM 46.5824 59L 3.41759 59L 3.41759 61L 46.5824 61L 46.5824 59ZM 3.41759 59C 2.08701 59 0.999999 57.9147 0.999999 56.5656L -1 56.5656C -1 59.01 0.973202 61 3.41759 61L 3.41759 59ZM 0.999999 56.5656L 0.999999 3.43439L -1 3.43439L -1 56.5656L 0.999999 56.5656ZM 0.999999 3.43439C 0.999999 2.08528 2.08701 1 3.41759 1L 3.41759 -1C 0.973201 -1 -1 0.989977 -1 3.43439L 0.999999 3.43439Z"/>
<path id="path1_stroke" d="M -6.01513e-07 0.999999L 49 0.999999L 49 -1L -6.01513e-07 -1L -6.01513e-07 0.999999Z"/>
<path id="path2_stroke" d="M 0 -2C -1.10457 -2 -2 -1.10457 -2 0C -2 1.10457 -1.10457 2 0 2L 0 -2ZM 1.2 2C 2.30457 2 3.2 1.10457 3.2 0C 3.2 -1.10457 2.30457 -2 1.2 -2L 1.2 2ZM 0 2L 1.2 2L 1.2 -2L 0 -2L 0 2Z"/>
<path id="path3_stroke" d="M 34 0.999999C 34.5523 0.999999 35 0.552284 35 -6.10352e-07C 35 -0.552285 34.5523 -1 34 -1L 34 0.999999ZM 7.98327e-07 -1C -0.552284 -1 -0.999999 -0.552285 -0.999999 -6.10352e-07C -0.999999 0.552284 -0.552284 0.999999 7.98327e-07 0.999999L 7.98327e-07 -1ZM 34 -1L 7.98327e-07 -1L 7.98327e-07 0.999999L 34 0.999999L 34 -1Z"/>
<path id="path4_stroke" d="M 7.98327e-07 1.11898e-06L 7.98327e-07 -0.999999L -0.999999 -0.999999L -0.999999 1.11898e-06L 7.98327e-07 1.11898e-06ZM 34 1.11898e-06L 35 1.11898e-06L 35 -0.999999L 34 -0.999999L 34 1.11898e-06ZM 34 27.6L 34 28.6L 35 28.6L 35 27.6L 34 27.6ZM 7.98327e-07 27.6L -0.999999 27.6L -0.999999 28.6L 7.98327e-07 28.6L 7.98327e-07 27.6ZM 7.98327e-07 1L 34 1L 34 -0.999999L 7.98327e-07 -0.999999L 7.98327e-07 1ZM 33 1.11898e-06L 33 27.6L 35 27.6L 35 1.11898e-06L 33 1.11898e-06ZM 34 26.6L 7.98327e-07 26.6L 7.98327e-07 28.6L 34 28.6L 34 26.6ZM 1 27.6L 1 1.11898e-06L -0.999999 1.11898e-06L -0.999999 27.6L 1 27.6Z"/>
<path id="path5_stroke" d="M 16.8909 2.99558C 17.7346 2.28264 17.8405 1.02075 17.1276 0.177077C 16.4147 -0.666595 15.1528 -0.772572 14.3091 -0.0596275L 16.8909 2.99558ZM 8.04205 1.50464L 9.32077 -0.0331816L 9.31819 -0.035318L 8.04205 1.50464ZM 7.95838 1.4353L 6.67925 2.97278L 6.68224 2.97526L 7.95838 1.4353ZM -1.39851 0.404043C -2.18813 1.17642 -2.20212 2.44267 -1.42975 3.2323C -0.657375 4.02193 0.608878 4.03591 1.39851 3.26354L -1.39851 0.404043ZM 14.3091 -0.0596275C 13.4976 0.626163 12.6326 0.934701 11.8153 0.938666L 11.8347 4.93862C 13.6915 4.92961 15.4436 4.2186 16.8909 2.99558L 14.3091 -0.0596275ZM 11.8153 0.938666C 10.9983 0.942628 10.1337 0.642776 9.32077 -0.0331794L 6.76333 3.04246C 8.21958 4.25334 9.97752 4.94763 11.8347 4.93862L 11.8153 0.938666ZM 9.31819 -0.035318L 9.23452 -0.104655L 6.68224 2.97526L 6.76591 3.0446L 9.31819 -0.035318ZM 9.23751 -0.102172C 7.69045 -1.38928 5.80639 -2.08962 3.83333 -1.99083L 4.03337 2.00417C 4.89752 1.9609 5.81747 2.2558 6.67925 2.97277L 9.23751 -0.102172ZM 3.83333 -1.99083C 1.86448 -1.89224 0.047596 -1.01046 -1.39851 0.404043L 1.39851 3.26354C 2.24176 2.43872 3.16502 2.04765 4.03337 2.00417L 3.83333 -1.99083Z"/>
</defs>
</svg>
