<svg width="94" height="60" viewBox="0 0 94 60" version="1.1" xmlns="http://www.w3.org/2000/svg" xmlns:xlink="http://www.w3.org/1999/xlink">
<title>icon_vagon</title>
<desc>Created using Figma</desc>
<g id="Canvas" transform="translate(-12739 -4320)">
<g id="icon_vagon">
<g id="Group">
<g id="Vector 2.7">
<use xlink:href="#path0_stroke" transform="translate(12745 4356)" fill="#9ECC2E"/>
</g>
<g id="Vector 2.8">
<use xlink:href="#path1_stroke" transform="translate(12775.5 4356)" fill="#9ECC2E"/>
</g>
<g id="Vector 2.11">
<use xlink:href="#path2_stroke" transform="translate(12806.5 4356)" fill="#9ECC2E"/>
</g>
</g>
<g id="Rectangle 2">
<use xlink:href="#path3_stroke" transform="translate(12740 4324)"/>
</g>
<g id="Vector 2">
<use xlink:href="#path4_stroke" transform="matrix(1 -2.44929e-16 2.44929e-16 1 12741 4378)" fill="#9ECC2E"/>
</g>
<g id="Vector">
<use xlink:href="#path5_stroke" transform="translate(12747 4363)"/>
</g>
<g id="Vector">
<use xlink:href="#path6_stroke" transform="translate(12766 4363)"/>
</g>
<g id="Vector">
<use xlink:href="#path7_stroke" transform="translate(12752.9 4369.38)"/>
</g>
<g id="Vector">
<use xlink:href="#path8_stroke" transform="translate(12787 4363)"/>
</g>
<g id="Vector">
<use xlink:href="#path9_stroke" transform="translate(12806 4363)"/>
</g>
<g id="Vector">
<use xlink:href="#path10_stroke" transform="translate(12793.5 4369.38)"/>
</g>
<g id="Vector">
<use xlink:href="#path11_stroke" transform="translate(12747 4338)"/>
</g>
<g id="Vector">
<use xlink:href="#path12_stroke" transform="translate(12766 4338)"/>
</g>
<g id="Vector">
<use xlink:href="#path13_stroke" transform="translate(12787 4338)"/>
</g>
<g id="Vector">
<use xlink:href="#path14_stroke" transform="translate(12806 4338)"/>
</g>
<g id="Vector 2">
<use xlink:href="#path15_stroke" transform="translate(12747 4343)"/>
</g>
<g id="Vector 2.1">
<use xlink:href="#path15_stroke" transform="translate(12766 4343)"/>
</g>
<g id="Vector 2.2">
<use xlink:href="#path15_stroke" transform="translate(12787 4343)"/>
</g>
<g id="Vector 2.3">
<use xlink:href="#path15_stroke" transform="translate(12806 4343)"/>
</g>
<g id="Vector">
<use xlink:href="#path16_stroke" transform="matrix(1 -2.44929e-16 2.44929e-16 1 12741 4332)"/>
</g>
<g id="Vector">
<use xlink:href="#path17_stroke" transform="matrix(1 -2.44929e-16 2.44929e-16 1 12801 4321)"/>
</g>
<g id="Vector">
<use xlink:href="#path18_stroke" transform="matrix(1 -2.53677e-16 2.36484e-16 1 12759.6 4321)"/>
</g>
<g id="Vector">
<use xlink:href="#path19_stroke" transform="matrix(1 -2.53677e-16 2.36484e-16 1 12819 4359)"/>
</g>
</g>
</g>
<defs>
<path id="path0_stroke" d="M 5.98736 1.32731C 6.72042 0.501055 6.64486 -0.763019 5.8186 -1.49607C 4.99234 -2.22913 3.72827 -2.15357 2.99521 -1.32731L 5.98736 1.32731ZM -1.49607 3.73501C -2.22913 4.56127 -2.15357 5.82534 -1.32731 6.5584C -0.501055 7.29146 0.763019 7.2159 1.49607 6.38964L -1.49607 3.73501ZM 16.45 1.35028C 17.1958 0.535457 17.1398 -0.729634 16.3249 -1.47538C 15.5101 -2.22112 14.245 -2.16511 13.4993 -1.35028L 16.45 1.35028ZM 8.00799 4.64972C 7.26225 5.46454 7.31825 6.72963 8.13308 7.47538C 8.94791 8.22112 10.213 8.16511 10.9587 7.35028L 8.00799 4.64972ZM 26.9334 1.35028C 27.6791 0.535457 27.6231 -0.729634 26.8083 -1.47538C 25.9935 -2.22112 24.7284 -2.16511 23.9826 -1.35028L 26.9334 1.35028ZM 18.4914 4.64972C 17.7456 5.46454 17.8016 6.72963 18.6164 7.47538C 19.4313 8.22112 20.6964 8.16511 21.4421 7.35028L 18.4914 4.64972ZM 2.99521 -1.32731L -1.49607 3.73501L 1.49607 6.38964L 5.98736 1.32731L 2.99521 -1.32731ZM 13.4993 -1.35028L 8.00799 4.64972L 10.9587 7.35028L 16.45 1.35028L 13.4993 -1.35028ZM 23.9826 -1.35028L 18.4914 4.64972L 21.4421 7.35028L 26.9334 1.35028L 23.9826 -1.35028Z"/>
<path id="path1_stroke" d="M 6.96666 1.35028C 7.7124 0.535457 7.6564 -0.729634 6.84157 -1.47538C 6.02674 -2.22112 4.76165 -2.16511 4.01591 -1.35028L 6.96666 1.35028ZM -1.47538 4.64972C -2.22112 5.46454 -2.16511 6.72963 -1.35028 7.47538C -0.535457 8.22112 0.729634 8.16511 1.47538 7.35028L -1.47538 4.64972ZM 17.45 1.35028C 18.1958 0.535457 18.1398 -0.729634 17.3249 -1.47538C 16.5101 -2.22112 15.245 -2.16511 14.4993 -1.35028L 17.45 1.35028ZM 9.00799 4.64972C 8.26225 5.46454 8.31825 6.72963 9.13308 7.47538C 9.94791 8.22112 11.213 8.16511 11.9587 7.35028L 9.00799 4.64972ZM 27.9334 1.35028C 28.6791 0.535457 28.6231 -0.729634 27.8083 -1.47538C 26.9935 -2.22112 25.7284 -2.16511 24.9826 -1.35028L 27.9334 1.35028ZM 19.4914 4.64972C 18.7456 5.46454 18.8016 6.72963 19.6164 7.47538C 20.4313 8.22112 21.6964 8.16511 22.4421 7.35028L 19.4914 4.64972ZM 4.01591 -1.35028L -1.47538 4.64972L 1.47538 7.35028L 6.96666 1.35028L 4.01591 -1.35028ZM 14.4993 -1.35028L 9.00799 4.64972L 11.9587 7.35028L 17.45 1.35028L 14.4993 -1.35028ZM 24.9826 -1.35028L 19.4914 4.64972L 22.4421 7.35028L 27.9334 1.35028L 24.9826 -1.35028Z"/>
<path id="path2_stroke" d="M 6.96666 1.35028C 7.7124 0.535457 7.6564 -0.729634 6.84157 -1.47538C 6.02674 -2.22112 4.76165 -2.16511 4.01591 -1.35028L 6.96666 1.35028ZM -1.47538 4.64972C -2.22112 5.46454 -2.16511 6.72963 -1.35028 7.47538C -0.535457 8.22112 0.729634 8.16511 1.47538 7.35028L -1.47538 4.64972ZM 17.0198 1.28037C 17.727 0.431823 17.6123 -0.829307 16.7638 -1.53644C 15.9152 -2.24357 14.6541 -2.12893 13.947 -1.28037L 17.0198 1.28037ZM 8.94693 4.71963C 8.23979 5.56818 8.35444 6.82931 9.20299 7.53644C 10.0515 8.24357 11.3127 8.12893 12.0198 7.28037L 8.94693 4.71963ZM 4.01591 -1.35028L -1.47538 4.64972L 1.47538 7.35028L 6.96666 1.35028L 4.01591 -1.35028ZM 13.947 -1.28037L 8.94693 4.71963L 12.0198 7.28037L 17.0198 1.28037L 13.947 -1.28037Z"/>
<path id="path3_stroke" d="M 8 1L 76 1L 76 -1L 8 -1L 8 1ZM 83 8L 83 35L 85 35L 85 8L 83 8ZM 80 38L 4 38L 4 40L 80 40L 80 38ZM 1 35L 1 8L -1 8L -1 35L 1 35ZM 4 38C 2.34315 38 1 36.6569 1 35L -1 35C -1 37.7614 1.23858 40 4 40L 4 38ZM 83 35C 83 36.6569 81.6569 38 80 38L 80 40C 82.7614 40 85 37.7614 85 35L 83 35ZM 76 1C 79.866 1 83 4.13401 83 8L 85 8C 85 3.02944 80.9706 -1 76 -1L 76 1ZM 8 -1C 3.02944 -1 -1 3.02944 -1 8L 1 8C 1 4.13401 4.13401 1 8 1L 8 -1Z"/>
<path id="path4_stroke" d="M 0 -2C -1.10457 -2 -2 -1.10457 -2 0C -2 1.10457 -1.10457 2 0 2L 0 -2ZM 90 2C 91.1046 2 92 1.10457 92 0C 92 -1.10457 91.1046 -2 90 -2L 90 2ZM 0 2L 90 2L 90 -2L 0 -2L 0 2Z"/>
<path id="path5_stroke" d="M 11 6C 11 8.76142 8.76142 11 6 11L 6 13C 9.86599 13 13 9.866 13 6L 11 6ZM 6 11C 3.23857 11 1 8.76143 1 6L -1 6C -1 9.866 2.13401 13 6 13L 6 11ZM 1 6C 1 3.23858 3.23858 1 6 1L 6 -0.999999C 2.13401 -0.999999 -1 2.13401 -1 6L 1 6ZM 6 1C 8.76142 1 11 3.23858 11 6L 13 6C 13 2.13401 9.86599 -0.999999 6 -0.999999L 6 1Z"/>
<path id="path6_stroke" d="M 11 6C 11 8.76143 8.76143 11 6 11L 6 13C 9.86599 13 13 9.866 13 6L 11 6ZM 6 11C 3.23858 11 1 8.76142 1 6L -1 6C -1 9.866 2.13401 13 6 13L 6 11ZM 1 6C 1 3.23858 3.23858 1 6 1L 6 -0.999999C 2.13401 -0.999999 -1 2.13401 -1 6L 1 6ZM 6 1C 8.76142 1 11 3.23858 11 6L 13 6C 13 2.13401 9.866 -0.999999 6 -0.999999L 6 1Z"/>
<path id="path7_stroke" d="M -6.50347e-07 -0.99999C -0.552285 -0.99999 -1 -0.552275 -1 9.76562e-06C -1 0.552294 -0.552285 1.00001 -6.50347e-07 1.00001L -6.50347e-07 -0.99999ZM 18.3658 1.00001C 18.9181 1.00001 19.3658 0.552294 19.3658 9.76562e-06C 19.3658 -0.552275 18.9181 -0.99999 18.3658 -0.99999L 18.3658 1.00001ZM -6.50347e-07 1.00001L 18.3658 1.00001L 18.3658 -0.99999L -6.50347e-07 -0.99999L -6.50347e-07 1.00001Z"/>
<path id="path8_stroke" d="M 11 6C 11 8.76142 8.76142 11 6 11L 6 13C 9.86599 13 13 9.866 13 6L 11 6ZM 6 11C 3.23857 11 0.999997 8.76142 0.999997 6L -1 6C -1 9.866 2.13401 13 6 13L 6 11ZM 0.999997 6C 0.999997 3.23858 3.23857 1 6 1L 6 -0.999999C 2.13401 -0.999999 -1 2.13401 -1 6L 0.999997 6ZM 6 1C 8.76142 1 11 3.23858 11 6L 13 6C 13 2.13401 9.86599 -0.999999 6 -0.999999L 6 1Z"/>
<path id="path9_stroke" d="M 11 6C 11 8.76143 8.76143 11 6 11L 6 13C 9.866 13 13 9.86599 13 6L 11 6ZM 6 11C 3.23858 11 1 8.76142 1 6L -0.999999 6C -0.999999 9.866 2.13401 13 6 13L 6 11ZM 1 6C 1 3.23858 3.23858 1 6 1L 6 -0.999999C 2.13401 -0.999999 -0.999999 2.13401 -0.999999 6L 1 6ZM 6 1C 8.76142 1 11 3.23858 11 6L 13 6C 13 2.13401 9.866 -0.999999 6 -0.999999L 6 1Z"/>
<path id="path10_stroke" d="M -1.41894e-06 -0.99999C -0.552286 -0.99999 -1 -0.552275 -1 9.76562e-06C -1 0.552294 -0.552286 1.00001 -1.41894e-06 1.00001L -1.41894e-06 -0.99999ZM 18.3658 1.00001C 18.9181 1.00001 19.3658 0.552294 19.3658 9.76562e-06C 19.3658 -0.552275 18.9181 -0.99999 18.3658 -0.99999L 18.3658 1.00001ZM -1.41894e-06 1.00001L 18.3658 1.00001L 18.3658 -0.99999L -1.41894e-06 -0.99999L -1.41894e-06 1.00001Z"/>
<path id="path11_stroke" d="M 4.31962 1L 7.68038 1L 7.68038 -0.999999L 4.31962 -0.999999L 4.31962 1ZM 7.68038 1C 9.66082 1 11 2.35152 11 3.71405L 13 3.71405C 13 0.974156 10.4713 -0.999999 7.68038 -0.999999L 7.68038 1ZM 11 3.71405L 11 9.28595L 13 9.28595L 13 3.71405L 11 3.71405ZM 11 9.28595C 11 10.6485 9.66082 12 7.68038 12L 7.68038 14C 10.4713 14 13 12.0258 13 9.28595L 11 9.28595ZM 7.68038 12L 4.31962 12L 4.31962 14L 7.68038 14L 7.68038 12ZM 4.31962 12C 2.33918 12 1 10.6485 1 9.28595L -1 9.28595C -1 12.0258 1.52874 14 4.31962 14L 4.31962 12ZM 1 9.28595L 1 3.71405L -1 3.71405L -1 9.28595L 1 9.28595ZM 1 3.71405C 1 2.35152 2.33918 1 4.31962 1L 4.31962 -0.999999C 1.52874 -0.999999 -1 0.974155 -1 3.71405L 1 3.71405Z"/>
<path id="path12_stroke" d="M 4.31962 1L 7.68038 1L 7.68038 -0.999999L 4.31962 -0.999999L 4.31962 1ZM 7.68038 1C 9.66082 1 11 2.35152 11 3.71405L 13 3.71405C 13 0.974155 10.4713 -0.999999 7.68038 -0.999999L 7.68038 1ZM 11 3.71405L 11 9.28595L 13 9.28595L 13 3.71405L 11 3.71405ZM 11 9.28595C 11 10.6485 9.66082 12 7.68038 12L 7.68038 14C 10.4713 14 13 12.0258 13 9.28595L 11 9.28595ZM 7.68038 12L 4.31962 12L 4.31962 14L 7.68038 14L 7.68038 12ZM 4.31962 12C 2.33918 12 1 10.6485 1 9.28595L -1 9.28595C -1 12.0258 1.52874 14 4.31962 14L 4.31962 12ZM 1 9.28595L 1 3.71405L -1 3.71405L -1 9.28595L 1 9.28595ZM 1 3.71405C 1 2.35152 2.33918 1 4.31962 1L 4.31962 -0.999999C 1.52874 -0.999999 -1 0.974155 -1 3.71405L 1 3.71405Z"/>
<path id="path13_stroke" d="M 4.31962 1L 7.68038 1L 7.68038 -0.999999L 4.31962 -0.999999L 4.31962 1ZM 7.68038 1C 9.66082 1 11 2.35152 11 3.71405L 13 3.71405C 13 0.974155 10.4713 -0.999999 7.68038 -0.999999L 7.68038 1ZM 11 3.71405L 11 9.28595L 13 9.28595L 13 3.71405L 11 3.71405ZM 11 9.28595C 11 10.6485 9.66082 12 7.68038 12L 7.68038 14C 10.4713 14 13 12.0258 13 9.28595L 11 9.28595ZM 7.68038 12L 4.31962 12L 4.31962 14L 7.68038 14L 7.68038 12ZM 4.31962 12C 2.33917 12 0.999997 10.6485 0.999997 9.28595L -1 9.28595C -1 12.0258 1.52874 14 4.31962 14L 4.31962 12ZM 0.999997 9.28595L 0.999997 3.71405L -1 3.71405L -1 9.28595L 0.999997 9.28595ZM 0.999997 3.71405C 0.999997 2.35152 2.33917 1 4.31962 1L 4.31962 -0.999999C 1.52874 -0.999999 -1 0.974155 -1 3.71405L 0.999997 3.71405Z"/>
<path id="path14_stroke" d="M 4.31962 1L 7.68038 1L 7.68038 -0.999999L 4.31962 -0.999999L 4.31962 1ZM 7.68038 1C 9.66082 1 11 2.35152 11 3.71405L 13 3.71405C 13 0.974155 10.4713 -0.999999 7.68038 -0.999999L 7.68038 1ZM 11 3.71405L 11 9.28595L 13 9.28595L 13 3.71405L 11 3.71405ZM 11 9.28595C 11 10.6485 9.66082 12 7.68038 12L 7.68038 14C 10.4713 14 13 12.0258 13 9.28595L 11 9.28595ZM 7.68038 12L 4.31962 12L 4.31962 14L 7.68038 14L 7.68038 12ZM 4.31962 12C 2.33918 12 1 10.6485 1 9.28595L -0.999999 9.28595C -0.999999 12.0258 1.52874 14 4.31962 14L 4.31962 12ZM 1 9.28595L 1 3.71405L -0.999999 3.71405L -0.999999 9.28595L 1 9.28595ZM 1 3.71405C 1 2.35152 2.33918 1 4.31962 1L 4.31962 -0.999999C 1.52874 -0.999999 -0.999999 0.974155 -0.999999 3.71405L 1 3.71405Z"/>
<path id="path15_stroke" d="M 0 1L 12 1L 12 -1L 0 -1L 0 1Z"/>
<path id="path16_stroke" d="M -3.51499e-07 -0.999996C -0.552285 -0.999996 -1 -0.55228 -1 4.27246e-06C -1 0.552289 -0.552285 1 -3.51499e-07 1L -3.51499e-07 -0.999996ZM 82 1C 82.5523 1 83 0.552289 83 4.27246e-06C 83 -0.55228 82.5523 -0.999996 82 -0.999996L 82 1ZM -3.51499e-07 1L 82 1L 82 -0.999996L -3.51499e-07 -0.999996L -3.51499e-07 1Z"/>
<path id="path17_stroke" d="M 0 -1C -0.552285 -1 -1 -0.552285 -1 0C -1 0.552285 -0.552285 1 0 1L 0 -1ZM 4 1C 4.55228 1 5 0.552285 5 0C 5 -0.552285 4.55228 -1 4 -1L 4 1ZM 0 1L 4 1L 4 -1L 0 -1L 0 1Z"/>
<path id="path18_stroke" d="M 0 -1C -0.552285 -1 -1 -0.552285 -1 0C -1 0.552285 -0.552285 1 0 1L 0 -1ZM 4.87891 1C 5.43119 1 5.87891 0.552285 5.87891 0C 5.87891 -0.552285 5.43119 -1 4.87891 -1L 4.87891 1ZM 0 1L 4.87891 1L 4.87891 -1L 0 -1L 0 1Z"/>
<path id="path19_stroke" d="M 0 3C -0.552285 3 -1 3.44772 -1 4C -1 4.55228 -0.552285 5 0 5L 0 3ZM 12 4L 12 5C 12.5523 5 13 4.55228 13 4L 12 4ZM 13 0C 13 -0.552285 12.5523 -1 12 -1C 11.4477 -1 11 -0.552285 11 0L 13 0ZM 0 5L 12 5L 12 3L 0 3L 0 5ZM 13 4L 13 0L 11 0L 11 4L 13 4Z"/>
</defs>
</svg>
