<svg width="62" height="62" viewBox="0 0 62 62" version="1.1" xmlns="http://www.w3.org/2000/svg" xmlns:xlink="http://www.w3.org/1999/xlink">
<title>icon_8</title>
<desc>Created using Figma</desc>
<g id="Canvas" transform="translate(-12605 -4477)">
<g id="icon_8">
<g id="Vector">
<use xlink:href="#path0_stroke" transform="translate(12613 4510.1)" fill="#9ECC2E"/>
</g>
<g id="Vector">
<use xlink:href="#path1_stroke" transform="translate(12635 4510.1)" fill="#9ECC2E"/>
</g>
<g id="Vector">
<use xlink:href="#path2_stroke" transform="translate(12610 4504)"/>
</g>
<g id="Vector">
<use xlink:href="#path3_stroke" transform="translate(12617.9 4492)"/>
</g>
<g id="Vector">
<use xlink:href="#path4_stroke" transform="translate(12624 4483)"/>
</g>
<g id="Vector">
<use xlink:href="#path5_stroke" transform="translate(12635 4504)"/>
</g>
<g id="Vector">
<use xlink:href="#path6_stroke" transform="translate(12635 4492)"/>
</g>
<g id="Vector">
<use xlink:href="#path7_stroke" transform="translate(12635 4478)"/>
</g>
<g id="Vector">
<use xlink:href="#path8_stroke" transform="translate(12623.6 4497.36)"/>
</g>
<g id="Vector">
<use xlink:href="#path9_stroke" transform="translate(12624 4487)"/>
</g>
<g id="Vector">
<use xlink:href="#path10_stroke" transform="translate(12606 4528)"/>
</g>
</g>
</g>
<defs>
<path id="path0_stroke" d="M -0.736816 6.85862C -1.76369 7.26555 -2.26626 8.42789 -1.85933 9.45476C -1.45239 10.4816 -0.290061 10.9842 0.736817 10.5773L -0.736816 6.85862ZM 22.7362 1.85933C 23.7631 1.4524 24.2657 0.290063 23.8587 -0.736816C 23.4518 -1.76369 22.2895 -2.26626 21.2626 -1.85933L 22.7362 1.85933ZM 0.736817 10.5773L 22.7362 1.85933L 21.2626 -1.85933L -0.736816 6.85862L 0.736817 10.5773Z"/>
<path id="path1_stroke" d="M 21.2643 10.5773C 22.2912 10.9842 23.4535 10.4816 23.8604 9.45472C 24.2673 8.42783 23.7647 7.26551 22.7378 6.8586L 21.2643 10.5773ZM 0.736771 -1.85935C -0.290118 -2.26625 -1.45244 -1.76366 -1.85935 -0.736768C -2.26625 0.290121 -1.76366 1.45244 -0.736768 1.85935L 0.736771 -1.85935ZM 22.7378 6.8586L 0.736771 -1.85935L -0.736768 1.85935L 21.2643 10.5773L 22.7378 6.8586Z"/>
<path id="path2_stroke" d="M 5.07891 24.8894C 5.29395 25.3981 5.88065 25.6361 6.38935 25.4211C 6.89806 25.2061 7.13612 24.6193 6.92109 24.1106L 5.07891 24.8894ZM 0 10.3059L -0.381133 9.38139C -0.627758 9.48306 -0.823538 9.67906 -0.924939 9.92579C -1.02634 10.1725 -1.02495 10.4496 -0.921088 10.6953L 0 10.3059ZM 25.3804 0.92452C 25.891 0.714027 26.1342 0.129466 25.9237 -0.381133C 25.7133 -0.891731 25.1287 -1.13501 24.6181 -0.92452L 25.3804 0.92452ZM 6.92109 24.1106L 0.921088 9.91656L -0.921088 10.6953L 5.07891 24.8894L 6.92109 24.1106ZM 0.381133 11.2304L 25.3804 0.92452L 24.6181 -0.92452L -0.381133 9.38139L 0.381133 11.2304Z"/>
<path id="path3_stroke" d="M -1 18.3438C -1 18.8961 -0.552285 19.3438 -2.08303e-07 19.3438C 0.552285 19.3438 1 18.8961 1 18.3438L -1 18.3438ZM -2.08303e-07 5.53116e-07L -2.08303e-07 -0.999999C -0.552285 -0.999999 -1 -0.552284 -1 5.53116e-07L -2.08303e-07 5.53116e-07ZM 17.0608 1C 17.6131 1 18.0608 0.552285 18.0608 5.53116e-07C 18.0608 -0.552284 17.6131 -0.999999 17.0608 -0.999999L 17.0608 1ZM 1 18.3438L 1 5.53116e-07L -1 5.53116e-07L -1 18.3438L 1 18.3438ZM -2.08303e-07 1L 17.0608 1L 17.0608 -0.999999L -2.08303e-07 -0.999999L -2.08303e-07 1Z"/>
<path id="path4_stroke" d="M -1 9C -1 9.55229 -0.552285 10 0 10C 0.552285 10 1 9.55229 1 9L -1 9ZM 0 1.8581e-09L -1.68918e-10 -1C -0.552285 -1 -1 -0.552285 -1 1.8581e-09L 0 1.8581e-09ZM 11 1C 11.5523 1 12 0.552285 12 -1.68918e-10C 12 -0.552285 11.5523 -1 11 -1L 11 1ZM 1 9L 1 1.8581e-09L -1 1.8581e-09L -1 9L 1 9ZM 1.68918e-10 1L 11 1L 11 -1L -1.68918e-10 -1L 1.68918e-10 1Z"/>
<path id="path5_stroke" d="M 14.5728 33.6279C 14.3673 34.1405 14.6162 34.7226 15.1289 34.9282C 15.6415 35.1337 16.2237 34.8848 16.4292 34.3721L 14.5728 33.6279ZM 25.0009 10.3059L 25.9291 10.6781C 26.1332 10.1689 25.8892 9.59042 25.382 9.38138L 25.0009 10.3059ZM 0 0L 0.38111 -0.924529C 0.0726124 -1.0517 -0.27899 -1.01662 -0.556278 -0.830997C -0.833565 -0.645377 -1 -0.333681 -1 0L 0 0ZM -1 21.1864C -1 21.7387 -0.552285 22.1864 0 22.1864C 0.552285 22.1864 1 21.7387 1 21.1864L -1 21.1864ZM 16.4292 34.3721L 25.9291 10.6781L 24.0728 9.93377L 14.5728 33.6279L 16.4292 34.3721ZM 25.382 9.38138L 0.38111 -0.924529L -0.38111 0.924529L 24.6198 11.2304L 25.382 9.38138ZM -1 0L -1 21.1864L 1 21.1864L 1 0L -1 0Z"/>
<path id="path6_stroke" d="M 16.0625 18.3438C 16.0625 18.8961 16.5102 19.3438 17.0625 19.3438C 17.6148 19.3438 18.0625 18.8961 18.0625 18.3438L 16.0625 18.3438ZM 17.0625 5.53116e-07L 18.0625 5.53116e-07C 18.0625 -0.552284 17.6148 -0.999999 17.0625 -0.999999L 17.0625 5.53116e-07ZM 1.66643e-06 -0.999999C -0.552283 -0.999999 -0.999998 -0.552284 -0.999998 5.53116e-07C -0.999998 0.552285 -0.552283 1 1.66643e-06 1L 1.66643e-06 -0.999999ZM 18.0625 18.3438L 18.0625 5.53116e-07L 16.0625 5.53116e-07L 16.0625 18.3438L 18.0625 18.3438ZM 17.0625 -0.999999L 1.66643e-06 -0.999999L 1.66643e-06 1L 17.0625 1L 17.0625 -0.999999Z"/>
<path id="path7_stroke" d="M 10 14C 10 14.5523 10.4477 15 11 15C 11.5523 15 12 14.5523 12 14L 10 14ZM 11 5L 12 5C 12 4.44772 11.5523 4 11 4L 11 5ZM 0 5L -1 5C -1 5.26522 -0.894643 5.51957 -0.707107 5.70711C -0.519571 5.89464 -0.265217 6 -2.22045e-16 6L 0 5ZM 1 3.20998e-07C 1 -0.552284 0.552287 -1 1.92599e-06 -1C -0.552283 -1 -0.999998 -0.552285 -0.999998 -3.20998e-07L 1 3.20998e-07ZM 12 14L 12 5L 10 5L 10 14L 12 14ZM 11 4L 0 4L 0 6L 11 6L 11 4ZM 1 5L 1 3.20998e-07L -0.999998 -3.20998e-07L -1 5L 1 5Z"/>
<path id="path8_stroke" d="M -6.2491e-07 -1C -0.552285 -1 -1 -0.552285 -1 -6.10352e-07C -1 0.552284 -0.552285 0.999999 -6.2491e-07 0.999999L -6.2491e-07 -1ZM 22.8405 0.999999C 23.3927 0.999999 23.8405 0.552284 23.8405 -6.10352e-07C 23.8405 -0.552285 23.3927 -1 22.8405 -1L 22.8405 0.999999ZM -6.2491e-07 0.999999L 22.8405 0.999999L 22.8405 -1L -6.2491e-07 -1L -6.2491e-07 0.999999Z"/>
<path id="path9_stroke" d="M -6.01916e-07 -1C -0.552285 -1 -1 -0.552285 -1 -6.10352e-07C -1 0.552284 -0.552285 0.999999 -6.01916e-07 0.999999L -6.01916e-07 -1ZM 22 0.999999C 22.5523 0.999999 23 0.552284 23 -6.10352e-07C 23 -0.552285 22.5523 -1 22 -1L 22 0.999999ZM -6.01916e-07 0.999999L 22 0.999999L 22 -1L -6.01916e-07 -1L -6.01916e-07 0.999999Z"/>
<path id="path10_stroke" d="M 60.5988 5.79623C 61.0411 5.46552 61.1316 4.83885 60.8009 4.39653C 60.4702 3.9542 59.8435 3.86372 59.4012 4.19442L 60.5988 5.79623ZM 30.931 5.12007L 31.5236 4.31457L 31.5222 4.31361L 30.931 5.12007ZM 30.6092 4.88413L 30.0164 5.68948L 30.0179 5.6906L 30.6092 4.88413ZM -0.654387 5.48398C -1.072 5.84539 -1.11757 6.47691 -0.756159 6.89453C -0.39475 7.31214 0.236773 7.3577 0.654388 6.9963L -0.654387 5.48398ZM 59.4012 4.19442C 55.219 7.32123 50.3925 8.9787 45.4764 8.9998L 45.485 10.9998C 50.8542 10.9767 56.0932 9.16482 60.5988 5.79623L 59.4012 4.19442ZM 45.4764 8.9998C 40.5604 9.02089 35.7243 7.40493 31.5236 4.31457L 30.3384 5.92558C 34.8652 9.25587 40.1158 11.0228 45.485 10.9998L 45.4764 8.9998ZM 31.5222 4.31361L 31.2004 4.07766L 30.0179 5.6906L 30.3397 5.92654L 31.5222 4.31361ZM 31.202 4.07878C 26.3961 0.541312 20.7812 -1.22871 15.084 -0.97632L 15.1725 1.02172C 20.3877 0.790685 25.5574 2.40735 30.0164 5.68948L 31.202 4.07878ZM 15.084 -0.97632C 9.38751 -0.723961 3.9064 1.53702 -0.654387 5.48398L 0.654388 6.9963C 4.8988 3.32314 9.95671 1.25278 15.1725 1.02172L 15.084 -0.97632Z"/>
</defs>
</svg>
