<svg width="82" height="63" viewBox="0 0 82 63" version="1.1" xmlns="http://www.w3.org/2000/svg" xmlns:xlink="http://www.w3.org/1999/xlink">
<title>icon_9</title>
<desc>Created using Figma</desc>
<g id="Canvas" transform="translate(-12745 -4477)">
<g id="icon_9">
<g id="Vector">
<use xlink:href="#path0_stroke" transform="translate(12746 4478)"/>
</g>
<g id="Vector">
<use xlink:href="#path1_stroke" transform="translate(12818 4480)"/>
</g>
<g id="Vector">
<use xlink:href="#path2_stroke" transform="translate(12809.2 4483.39)"/>
</g>
<g id="Vector">
<use xlink:href="#path3_stroke" transform="translate(12800.7 4487.83)"/>
</g>
<g id="Vector">
<use xlink:href="#path4_stroke" transform="translate(12792.1 4492.3)"/>
</g>
<g id="Vector">
<use xlink:href="#path5_stroke" transform="translate(12783.5 4496.79)"/>
</g>
<g id="Vector">
<use xlink:href="#path6_stroke" transform="translate(12775 4501.24)"/>
</g>
<g id="Vector">
<use xlink:href="#path7_stroke" transform="translate(12756 4538)" fill="#9ECC2E"/>
</g>
</g>
</g>
<defs>
<path id="path0_stroke" d="M 36.1555 29.57L 37.0085 30.0918C 37.2375 29.7175 37.1957 29.2377 36.9055 28.9086C 36.6153 28.5795 36.1444 28.478 35.7444 28.6584L 36.1555 29.57ZM 31.2048 37.6631L 32.0574 38.1856L 32.0578 38.1849L 31.2048 37.6631ZM 32.2523 39.978L 32.4214 38.9924L 32.2523 39.978ZM 33.2199 39.8261L 32.7719 38.932C 32.767 38.9345 32.762 38.9371 32.7571 38.9396L 33.2199 39.8261ZM 40.7923 36.0317L 41.2403 36.9258L 41.2526 36.9194L 40.7923 36.0317ZM 41.1934 35.731L 41.9164 36.4219C 41.9353 36.4021 41.9534 36.3815 41.9706 36.3602L 41.1934 35.731ZM 51.9105 22.4914L 51.4294 21.6147C 51.3155 21.6772 51.2149 21.7613 51.1332 21.8622L 51.9105 22.4914ZM 73.1703 10.825L 73.6514 11.7017L 73.6605 11.6966L 73.1703 10.825ZM 79.7389 3.07717L 80.6512 2.66743L 80.6478 2.65999L 79.7389 3.07717ZM 75.1622 1.41858L 74.897 2.38277C 75.0364 2.42111 75.1824 2.42877 75.325 2.40524L 75.1622 1.41858ZM 57.1557 5.10433L 57.617 5.99154C 57.6243 5.98775 57.6316 5.98388 57.6387 5.97992L 57.1557 5.10433ZM 19.7223 24.5709L 19.2613 25.4583C 19.5504 25.6085 19.8946 25.6085 20.1837 25.4581L 19.7223 24.5709ZM 5.20934 17.0307L 5.67038 16.1433L 5.67035 16.1433L 5.20934 17.0307ZM 3.46546 17.0307L 3.00445 16.1433L 3.00382 16.1436L 3.46546 17.0307ZM 1.02015 18.3032L 1.48168 19.1903L 1.48179 19.1903L 1.02015 18.3032ZM 0.41754 21.1723L 1.21515 20.5691C 1.20932 20.5614 1.20338 20.5538 1.19733 20.5462L 0.41754 21.1723ZM 14.2407 39.4517L 13.4431 40.0549C 13.7246 40.4271 14.2263 40.5552 14.6518 40.3633L 14.2407 39.4517ZM 35.3024 29.0482L 30.3517 37.1413L 32.0578 38.1849L 37.0085 30.0918L 35.3024 29.0482ZM 30.3522 37.1406C 30.0626 37.6131 29.9358 38.1675 29.9912 38.7188L 31.9812 38.5191C 31.9695 38.4025 31.9963 38.2854 32.0574 38.1856L 30.3522 37.1406ZM 29.9912 38.7188C 30.0465 39.2702 30.2809 39.7884 30.6587 40.1938L 32.122 38.8305C 32.0424 38.7451 31.9929 38.6357 31.9812 38.5191L 29.9912 38.7188ZM 30.6587 40.1938C 31.0365 40.5993 31.5369 40.8698 32.0832 40.9636L 32.4214 38.9924C 32.3068 38.9727 32.2016 38.9159 32.122 38.8305L 30.6587 40.1938ZM 32.0832 40.9636C 32.6295 41.0573 33.1914 40.9691 33.6828 40.7125L 32.7571 38.9396C 32.6539 38.9935 32.536 39.012 32.4214 38.9924L 32.0832 40.9636ZM 33.6679 40.7201L 41.2402 36.9257L 40.3443 35.1377L 32.7719 38.932L 33.6679 40.7201ZM 41.2526 36.9194C 41.4998 36.7913 41.724 36.6231 41.9164 36.4219L 40.4704 35.0402C 40.4302 35.0822 40.3834 35.1173 40.3319 35.1439L 41.2526 36.9194ZM 41.9706 36.3602L 52.6877 23.1206L 51.1332 21.8622L 40.4161 35.1018L 41.9706 36.3602ZM 52.3915 23.3681L 73.6514 11.7017L 72.6892 9.94834L 51.4294 21.6147L 52.3915 23.3681ZM 73.6605 11.6966C 77.6613 9.44678 79.607 7.62371 80.449 6.10752C 80.8834 5.32513 81.0276 4.61771 80.9958 3.99319C 80.9645 3.37989 80.7651 2.9211 80.6511 2.66744L 78.8267 3.4869C 78.9162 3.6862 78.9867 3.86611 78.9984 4.09514C 79.0095 4.31295 78.9698 4.65148 78.7005 5.13655C 78.1347 6.15529 76.5927 7.75318 72.6801 9.95338L 73.6605 11.6966ZM 80.6478 2.65999C 80.3306 1.96908 79.7741 1.23389 78.8035 0.76855C 77.8476 0.310278 76.602 0.167518 74.9994 0.43192L 75.325 2.40524C 76.6619 2.18468 77.4624 2.34357 77.9389 2.57201C 78.4006 2.79338 78.6628 3.12998 78.8301 3.49435L 80.6478 2.65999ZM 75.4274 0.454388C 75.3693 0.438413 75.2713 0.393983 75.0464 0.255764C 74.8516 0.136077 74.5517 -0.060442 74.2151 -0.239496C 73.4934 -0.623476 72.5413 -0.96905 71.1528 -0.998035C 68.4494 -1.05447 64.1692 0.0927792 56.6726 4.22875L 57.6387 5.97992C 65.0679 1.88114 68.9587 0.956602 71.111 1.00153C 72.1504 1.02322 72.7973 1.27161 73.2757 1.52615C 73.5393 1.66636 73.7397 1.80024 73.9993 1.95975C 74.2287 2.10073 74.539 2.2843 74.897 2.38277L 75.4274 0.454388ZM 56.6943 4.21713L 19.2609 23.6837L 20.1837 25.4581L 57.617 5.99154L 56.6943 4.21713ZM 20.1833 23.6836L 5.67038 16.1433L 4.7483 17.918L 19.2613 25.4583L 20.1833 23.6836ZM 5.67035 16.1433C 5.25858 15.9293 4.80142 15.8177 4.3374 15.8177L 4.3374 17.8177C 4.48038 17.8177 4.62131 17.8521 4.74833 17.9181L 5.67035 16.1433ZM 4.3374 15.8177C 3.87338 15.8177 3.41621 15.9293 3.00445 16.1433L 3.92647 17.9181C 4.05348 17.8521 4.19442 17.8177 4.3374 17.8177L 4.3374 15.8177ZM 3.00382 16.1436L 0.558511 17.4161L 1.48179 19.1903L 3.92709 17.9177L 3.00382 16.1436ZM 0.558614 17.4161C 0.178663 17.6138 -0.152636 17.8933 -0.411439 18.2346L 1.18212 19.4431C 1.26213 19.3376 1.36447 19.2513 1.48168 19.1903L 0.558614 17.4161ZM -0.411439 18.2346C -0.670237 18.5758 -0.850101 18.9703 -0.938132 19.3894L 1.01916 19.8005C 1.04642 19.6707 1.10211 19.5486 1.18212 19.4431L -0.411439 18.2346ZM -0.938132 19.3894C -1.02616 19.8085 -1.02018 20.242 -0.92062 20.6585L 1.02458 20.1936C 0.99375 20.0646 0.991897 19.9303 1.01916 19.8005L -0.938132 19.3894ZM -0.92062 20.6585C -0.821056 21.075 -0.630373 21.4644 -0.362249 21.7983L 1.19733 20.5462C 1.11444 20.443 1.05542 20.3225 1.02458 20.1936L -0.92062 20.6585ZM -0.380074 21.7755L 13.4431 40.0549L 15.0383 38.8485L 1.21515 20.5691L -0.380074 21.7755ZM 14.6518 40.3633L 36.5665 30.4816L 35.7444 28.6584L 13.8296 38.5401L 14.6518 40.3633Z"/>
<path id="path1_stroke" d="M 2.44721 0.894427C 2.94119 0.647438 3.14142 0.0467649 2.89443 -0.447214C 2.64744 -0.941192 2.04676 -1.14142 1.55279 -0.894427L 2.44721 0.894427ZM -0.447214 0.105573C -0.941192 0.352562 -1.14142 0.953235 -0.894427 1.44721C -0.647438 1.94119 -0.0467649 2.14142 0.447214 1.89443L -0.447214 0.105573ZM 1.55279 -0.894427L -0.447214 0.105573L 0.447214 1.89443L 2.44721 0.894427L 1.55279 -0.894427Z"/>
<path id="path2_stroke" d="M 4.44721 0.894425C 4.94119 0.647436 5.14142 0.0467627 4.89443 -0.447216C 4.64744 -0.941194 4.04676 -1.14142 3.55279 -0.894428L 4.44721 0.894425ZM -0.447213 1.10557C -0.941191 1.35256 -1.14142 1.95324 -0.894426 2.44722C -0.647436 2.94119 -0.0467628 3.14142 0.447216 2.89443L -0.447213 1.10557ZM 3.55279 -0.894428L -0.447213 1.10557L 0.447216 2.89443L 4.44721 0.894425L 3.55279 -0.894428Z"/>
<path id="path3_stroke" d="M 4.44722 0.894429C 4.94119 0.64744 5.14142 0.046767 4.89443 -0.447212C 4.64744 -0.94119 4.04677 -1.14141 3.55279 -0.894426L 4.44722 0.894429ZM -0.447213 1.10557C -0.941191 1.35256 -1.14142 1.95323 -0.894427 2.44721C -0.647438 2.94119 -0.0467651 3.14142 0.447214 2.89443L -0.447213 1.10557ZM 3.55279 -0.894426L -0.447213 1.10557L 0.447214 2.89443L 4.44722 0.894429L 3.55279 -0.894426Z"/>
<path id="path4_stroke" d="M 4.44721 0.894428C 4.94119 0.647438 5.14141 0.0467651 4.89442 -0.447213C 4.64743 -0.941192 4.04676 -1.14142 3.55278 -0.894426L 4.44721 0.894428ZM -0.447211 1.10557C -0.941189 1.35256 -1.14141 1.95324 -0.894423 2.44722C -0.647434 2.94119 -0.0467607 3.14142 0.447218 2.89443L -0.447211 1.10557ZM 3.55278 -0.894426L -0.447211 1.10557L 0.447218 2.89443L 4.44721 0.894428L 3.55278 -0.894426Z"/>
<path id="path5_stroke" d="M 4.44721 0.894431C 4.94119 0.647442 5.14142 0.0467691 4.89443 -0.447209C 4.64744 -0.941188 4.04677 -1.14141 3.55279 -0.894423L 4.44721 0.894431ZM -0.447214 1.10558C -0.941193 1.35257 -1.14142 1.95324 -0.894428 2.44722C -0.647439 2.9412 -0.0467658 3.14142 0.447213 2.89443L -0.447214 1.10558ZM 3.55279 -0.894423L -0.447214 1.10558L 0.447213 2.89443L 4.44721 0.894431L 3.55279 -0.894423Z"/>
<path id="path6_stroke" d="M 4.44721 0.894428C 4.94119 0.647438 5.14142 0.046765 4.89443 -0.447213C 4.64744 -0.941192 4.04676 -1.14142 3.55279 -0.894426L 4.44721 0.894428ZM -0.447212 1.10558C -0.941191 1.35257 -1.14141 1.95324 -0.894425 2.44722C -0.647435 2.9412 -0.0467619 3.14142 0.447216 2.89443L -0.447212 1.10558ZM 3.55279 -0.894426L -0.447212 1.10558L 0.447216 2.89443L 4.44721 0.894428L 3.55279 -0.894426Z"/>
<path id="path7_stroke" d="M 4.29258e-07 -2.00001C -1.10457 -2.00001 -2 -1.10458 -2 -1.09863e-05C -2 1.10456 -1.10457 1.99999 4.29258e-07 1.99999L 4.29258e-07 -2.00001ZM 60 1.99999C 61.1046 1.99999 62 1.10456 62 -1.09863e-05C 62 -1.10458 61.1046 -2.00001 60 -2.00001L 60 1.99999ZM 4.29258e-07 1.99999L 60 1.99999L 60 -2.00001L 4.29258e-07 -2.00001L 4.29258e-07 1.99999Z"/>
</defs>
</svg>
