<svg width="72" height="62" viewBox="0 0 72 62" version="1.1" xmlns="http://www.w3.org/2000/svg" xmlns:xlink="http://www.w3.org/1999/xlink">
<title>icon_6</title>
<desc>Created using Figma</desc>
<g id="Canvas" transform="translate(-12600 -4617)">
<g id="icon_6">
<g id="Vector">
<use xlink:href="#path0_stroke" transform="matrix(1 0 -1.73472e-18 1 12609 4642)" fill="#9ECC2E"/>
</g>
<g id="Vector">
<use xlink:href="#path1_stroke" transform="matrix(1 -2.44929e-16 2.44929e-16 1 12619 4642)" fill="#9ECC2E"/>
</g>
<g id="Vector">
<use xlink:href="#path2_stroke" transform="translate(12629 4642)" fill="#9ECC2E"/>
</g>
<g id="Vector">
<use xlink:href="#path3_stroke" transform="translate(12643 4651)" fill="#9ECC2E"/>
</g>
<g id="Vector">
<use xlink:href="#path4_stroke" transform="translate(12642 4657)" fill="#9ECC2E"/>
</g>
<g id="Vector">
<use xlink:href="#path5_stroke" transform="translate(12638 4643)"/>
</g>
<g id="Vector">
<use xlink:href="#path6_stroke" transform="matrix(-5.66693e-08 1 -1 -3.37164e-08 12656.9 4618)"/>
</g>
<g id="Vector">
<use xlink:href="#path6_stroke" transform="matrix(-5.66693e-08 1 -1 -3.37164e-08 12666 4618)"/>
</g>
<g id="Vector">
<use xlink:href="#path6_stroke" transform="matrix(-5.66693e-08 1 -1 -3.37164e-08 12648 4618)"/>
</g>
<g id="Vector">
<use xlink:href="#path7_stroke" transform="translate(12601 4658)"/>
</g>
<g id="Vector">
<use xlink:href="#path8_stroke" transform="translate(12618 4636)"/>
</g>
<g id="Vector">
<use xlink:href="#path9_stroke" transform="translate(12608 4636)"/>
</g>
<g id="Vector">
<use xlink:href="#path8_stroke" transform="translate(12628 4636)"/>
</g>
</g>
</g>
<defs>
<path id="path0_stroke" d="M -5.03175e-07 -2C -1.10457 -2 -2 -1.10457 -2 0C -2 1.10457 -1.10457 2 -5.03175e-07 2L -5.03175e-07 -2ZM 4 2C 5.10457 2 6 1.10457 6 0C 6 -1.10457 5.10457 -2 4 -2L 4 2ZM -5.03175e-07 2L 4 2L 4 -2L -5.03175e-07 -2L -5.03175e-07 2Z"/>
<path id="path1_stroke" d="M -3.01781e-07 -2C -1.10457 -2 -2 -1.10457 -2 0C -2 1.10457 -1.10457 2 -3.01781e-07 2L -3.01781e-07 -2ZM 4 2C 5.10457 2 6 1.10457 6 0C 6 -1.10457 5.10457 -2 4 -2L 4 2ZM -3.01781e-07 2L 4 2L 4 -2L -3.01781e-07 -2L -3.01781e-07 2Z"/>
<path id="path2_stroke" d="M -3.01905e-07 -2C -1.10457 -2 -2 -1.10457 -2 0C -2 1.10457 -1.10457 2 -3.01905e-07 2L -3.01905e-07 -2ZM 4 2C 5.10457 2 6 1.10457 6 0C 6 -1.10457 5.10457 -2 4 -2L 4 2ZM -3.01905e-07 2L 4 2L 4 -2L -3.01905e-07 -2L -3.01905e-07 2Z"/>
<path id="path3_stroke" d="M -9.20349e-07 -2C -1.10457 -2 -2 -1.10457 -2 0C -2 1.10457 -1.10457 2 -9.20349e-07 2L -9.20349e-07 -2ZM 23 2C 24.1046 2 25 1.10457 25 0C 25 -1.10457 24.1046 -2 23 -2L 23 2ZM -9.20349e-07 2L 23 2L 23 -2L -9.20349e-07 -2L -9.20349e-07 2Z"/>
<path id="path4_stroke" d="M -1.00038e-06 -2C -1.10457 -2 -2 -1.10457 -2 0C -2 1.10457 -1.10457 2 -1.00038e-06 2L -1.00038e-06 -2ZM 25 2C 26.1046 2 27 1.10457 27 0C 27 -1.10457 26.1046 -2 25 -2L 25 2ZM -1.00038e-06 2L 25 2L 25 -2L -1.00038e-06 -2L -1.00038e-06 2Z"/>
<path id="path5_stroke" d="M -0.992325 34.8763C -1.06062 35.4244 -0.671702 35.924 -0.123656 35.9923C 0.42439 36.0606 0.924032 35.6717 0.992325 35.1237L -0.992325 34.8763ZM 4.36144 4.60271e-07L 4.36144 -1C 3.85697 -1 3.4315 -0.624253 3.36911 -0.123656L 4.36144 4.60271e-07ZM 28.6386 4.60271e-07L 29.6309 -0.123656C 29.5685 -0.624253 29.143 -1 28.6386 -1L 28.6386 4.60271e-07ZM 32.0077 35.1237C 32.076 35.6717 32.5756 36.0606 33.1237 35.9923C 33.6717 35.924 34.0606 35.4244 33.9923 34.8763L 32.0077 35.1237ZM 0.992325 35.1237L 5.35376 0.123657L 3.36911 -0.123656L -0.992325 34.8763L 0.992325 35.1237ZM 4.36144 1L 28.6386 1L 28.6386 -1L 4.36144 -1L 4.36144 1ZM 27.6462 0.123657L 32.0077 35.1237L 33.9923 34.8763L 29.6309 -0.123656L 27.6462 0.123657Z"/>
<path id="path6_stroke" d="M 18.706 2.70634C 19.0971 2.31643 19.0981 1.68327 18.7082 1.29213C 18.3183 0.900995 17.6851 0.900002 17.294 1.28991L 18.706 2.70634ZM 9.27929 2.04803L 9.97955 1.33414L 9.97833 1.33295L 9.27929 2.04803ZM 9.18275 1.95365L 8.48229 2.66735L 8.48371 2.66873L 9.18275 1.95365ZM -0.755698 1.84113C -1.1174 2.2585 -1.07228 2.89005 -0.654919 3.25175C -0.237559 3.61345 0.393997 3.56833 0.755699 3.15097L -0.755698 1.84113ZM 17.294 1.28991C 16.1385 2.44177 14.869 2.99289 13.6385 2.99993L 13.6499 4.9999C 15.505 4.98928 17.2551 4.15265 18.706 2.70634L 17.294 1.28991ZM 13.6385 2.99993C 12.4085 3.00697 11.1384 2.47087 9.97955 1.33414L 8.57903 2.76192C 10.0384 4.19345 11.7943 5.01052 13.6499 4.9999L 13.6385 2.99993ZM 9.97833 1.33295L 9.88179 1.23857L 8.48371 2.66873L 8.58025 2.76311L 9.97833 1.33295ZM 9.8832 1.23995C 8.33315 -0.281328 6.4513 -1.10565 4.47952 -0.989181L 4.59745 1.00734C 5.89937 0.930438 7.25291 1.46079 8.48229 2.66735L 9.8832 1.23995ZM 4.47952 -0.989181C 2.51417 -0.873093 0.698317 0.163375 -0.755698 1.84113L 0.755699 3.15097C 1.94325 1.78069 3.28909 1.08462 4.59745 1.00734L 4.47952 -0.989181Z"/>
<path id="path7_stroke" d="M 39 1C 39.5523 1 40 0.552286 40 1.37842e-06C 40 -0.552283 39.5523 -0.999999 39 -0.999999L 39 1ZM 0 1.37842e-06L 0 -0.999999C -0.552285 -0.999999 -1 -0.552283 -1 1.37842e-06L 0 1.37842e-06ZM -1 20C -1 20.5523 -0.552285 21 0 21C 0.552285 21 1 20.5523 1 20L -1 20ZM 39 -0.999999L 0 -0.999999L 0 1L 39 1L 39 -0.999999ZM -1 1.37842e-06L -1 20L 1 20L 1 1.37842e-06L -1 1.37842e-06Z"/>
<path id="path8_stroke" d="M -1.01514e-06 4.49916e-07L -1.01514e-06 -1C -0.552286 -1 -1 -0.552284 -1 4.49916e-07L -1.01514e-06 4.49916e-07ZM 6 4.49916e-07L 7 4.49916e-07C 7 -0.552284 6.55228 -1 6 -1L 6 4.49916e-07ZM 6 22L 6 23C 6.55228 23 7 22.5523 7 22L 6 22ZM -1.01514e-06 22L -1 22C -1 22.5523 -0.552286 23 -1.01514e-06 23L -1.01514e-06 22ZM -1.01514e-06 1L 6 1L 6 -1L -1.01514e-06 -1L -1.01514e-06 1ZM 5 4.49916e-07L 5 22L 7 22L 7 4.49916e-07L 5 4.49916e-07ZM 6 21L -1.01514e-06 21L -1.01514e-06 23L 6 23L 6 21ZM 0.999999 22L 0.999999 4.49916e-07L -1 4.49916e-07L -1 22L 0.999999 22Z"/>
<path id="path9_stroke" d="M 3.17231e-07 4.49916e-07L 3.17231e-07 -1C -0.552284 -1 -1 -0.552284 -1 4.49916e-07L 3.17231e-07 4.49916e-07ZM 6 4.49916e-07L 7 4.49916e-07C 7 -0.552284 6.55228 -1 6 -1L 6 4.49916e-07ZM 6 22L 6 23C 6.55228 23 7 22.5523 7 22L 6 22ZM 3.17231e-07 22L -1 22C -1 22.5523 -0.552284 23 3.17231e-07 23L 3.17231e-07 22ZM 3.17231e-07 1L 6 1L 6 -1L 3.17231e-07 -1L 3.17231e-07 1ZM 5 4.49916e-07L 5 22L 7 22L 7 4.49916e-07L 5 4.49916e-07ZM 6 21L 3.17231e-07 21L 3.17231e-07 23L 6 23L 6 21ZM 1 22L 1 4.49916e-07L -1 4.49916e-07L -1 22L 1 22Z"/>
</defs>
</svg>
