<svg width="30" height="30" viewBox="0 0 30 30" version="1.1" xmlns="http://www.w3.org/2000/svg" xmlns:xlink="http://www.w3.org/1999/xlink">
<title>vk</title>
<desc>Created using Figma</desc>
<g id="Canvas" transform="translate(-10993 -4876)">
<g id="vk">
<g id="Group">
<g id="Vector">
<use xlink:href="#path0_fill" transform="translate(10993 4876)" fill="#44678D"/>
</g>
<g id="Vector">
<use xlink:href="#path1_fill" transform="translate(10995 4884)" fill="#FFFFFF"/>
</g>
</g>
</g>
</g>
<defs>
<path id="path0_fill" d="M 30 0L 0 0L 0 30L 30 30L 30 0Z"/>
<path id="path1_fill" d="M 5.70247 1.44514C 6.42833 3.12526 7.34824 4.70934 8.55983 6.13139C 8.72053 6.32063 8.92309 6.48888 9.13649 6.62586C 9.44818 6.8265 9.74225 6.75598 9.86899 6.42179C 10.003 6.07109 10.126 5.36034 10.1334 4.99208C 10.1534 4.0298 10.1304 3.39916 10.0752 2.43807C 10.0395 1.8225 9.80599 1.282 8.83995 1.11886C 8.54162 1.06828 8.51391 0.838109 8.70557 0.608503C 9.10459 0.130478 9.66044 0.054295 10.2632 0.0241459C 11.2401 -0.0253135 12.2207 0.0150514 13.1988 0.0241459C 13.5972 0.027572 13.998 0.057659 14.3904 0.137828C 14.9022 0.242416 15.1762 0.578914 15.2606 1.04722C 15.3042 1.28879 15.3267 1.53714 15.3206 1.78158C 15.2951 2.83193 15.2412 3.88173 15.2284 4.93153C 15.223 5.34359 15.2551 5.76592 15.3491 6.16721C 15.4807 6.72646 15.887 6.86686 16.3024 6.46278C 16.8299 5.94956 17.2951 5.37206 17.7316 4.78552C 18.5248 3.71865 19.1172 2.54782 19.6272 1.34061C 19.891 0.717699 20.0929 0.582402 20.8078 0.580721C 22.1516 0.577855 23.4954 0.576734 24.8392 0.580721C 25.0775 0.581842 25.3267 0.602896 25.5517 0.669984C 25.9167 0.779119 26.0617 1.05818 25.9761 1.41231C 25.7766 2.24216 25.2982 2.94748 24.7858 3.62559C 23.9635 4.71345 23.1018 5.77521 22.2602 6.85054C 22.1529 6.98752 22.0583 7.1336 21.9703 7.28191C 21.6556 7.81507 21.6774 8.114 22.1365 8.55789C 22.8672 9.2644 23.6494 9.92538 24.3571 10.6512C 24.8713 11.1792 25.3473 11.7521 25.7548 12.3552C 26.2703 13.1179 25.9519 13.8363 24.989 13.9642C 24.3832 14.0444 21.4241 13.9649 21.2712 13.9642C 20.4756 13.9609 19.7783 13.7022 19.2167 13.1958C 18.5921 12.632 18.0245 12.0136 17.4248 11.4253C 17.2441 11.2479 17.0512 11.078 16.8433 10.9296C 16.3527 10.5789 15.8712 10.6568 15.642 11.1968C 15.4461 11.6606 15.2769 12.8786 15.269 12.9826C 15.2278 13.5266 14.8585 13.8733 14.2084 13.9068C 12.3317 14.0023 10.513 13.8062 8.81882 12.9554C 7.38286 12.2346 6.2362 11.2156 5.24292 10.0271C 3.66507 8.13942 2.41879 6.06443 1.28096 3.92851C 1.22281 3.81932 0.0703654 1.52076 0.039396 1.41219C -0.0635473 1.04865 0.0324843 0.701379 0.360188 0.581842C 0.56448 0.507341 4.36415 0.581592 4.42735 0.584769C 5.03364 0.615541 5.44708 0.855301 5.70247 1.44514Z"/>
</defs>
</svg>
