<?xml version="1.0" encoding="utf-8"?><!DOCTYPE svg PUBLIC "-//W3C//DTD SVG 1.1//EN" "http://www.w3.org/Graphics/SVG/1.1/DTD/svg11.dtd"><svg xmlns="http://www.w3.org/2000/svg" xmlns:xlink="http://www.w3.org/1999/xlink"><symbol viewBox="0 0 40 20" id="arrow" xmlns="http://www.w3.org/2000/svg"><title>arrow_right_b</title><desc>Created using Figma</desc><g transform="translate(-1520 -2873)"><use xlink:href="#aa" transform="matrix(1 0 0 1 1520 2883)"/><use xlink:href="#ab" transform="matrix(1 0 0 1 1553 2874.33)"/></g><defs><path id="aa" d="M0 1h37.5v-2H0v2z"/><path id="ab" d="M0 0l7 8.667-7 8.666V0z"/></defs></symbol><symbol viewBox="0 0 20 10" id="arrowdown" xmlns="http://www.w3.org/2000/svg"><title>Vector</title><desc>Created using Figma</desc><use xlink:href="#ba" fill="#E0E0E0"/><defs><path id="ba" d="M10 10L0 0h20L10 10z"/></defs></symbol><symbol viewBox="0 0 18 15" id="back-arrow" xmlns="http://www.w3.org/2000/svg"><title>back-arrow</title><desc>Created using Figma</desc><use xlink:href="#ca"/><defs><path id="ca" d="M7 4V0L0 7l7 7V9.9c5 0 8.5 1.6 11 5.1-1-5-4-10-11-11z"/></defs></symbol><symbol viewBox="0 0 510 510" id="email" xmlns="http://www.w3.org/2000/svg"><path d="M459 51H51C22.95 51 0 73.95 0 102v306c0 28.05 22.95 51 51 51h408c28.05 0 51-22.95 51-51V102c0-28.05-22.95-51-51-51zm0 102L255 280.5 51 153v-51l204 127.5L459 102v51z"/></symbol><symbol viewBox="0 0 30 30" id="fb" xmlns="http://www.w3.org/2000/svg"><title>facebook</title><desc>Created using Figma</desc><g transform="translate(-11073 -4876)"><use xmlns:xlink="http://www.w3.org/1999/xlink" xlink:href="#path0_fill" transform="translate(11073 4876)" fill="#FFF"/><use xlink:href="#path1_fill" transform="translate(11073 4876)" fill="#3A559F"/></g></symbol><symbol viewBox="0 0 72 72" id="icon_bio" xmlns="http://www.w3.org/2000/svg"><title>icon_bio</title><desc>Created using Figma</desc><g transform="translate(-279 -4283)"><use xlink:href="#fa" transform="translate(303 4313)" fill="#9ECC2E"/><use xlink:href="#fb" transform="translate(292 4295)"/><use xlink:href="#fc" transform="translate(280 4284)"/><use xlink:href="#fd" transform="translate(287.522 4291.47)"/><use xlink:href="#fe" transform="translate(336.325 4284)"/><use xlink:href="#ff" transform="translate(336.318 4291.55)"/><use xlink:href="#fg" transform="translate(336.325 4340.32)"/><use xlink:href="#fh" transform="translate(336.354 4340.37)"/><use xlink:href="#fi" transform="translate(280 4340.32)"/><use xlink:href="#fj" transform="translate(287.53 4340.32)"/></g><defs><path id="fa" d="M9.045 15l-1.399 1.43 1.417 1.386 1.399-1.404L9.045 15zM-1.399 7.574l9.045 8.855 2.799-2.858-9.046-8.855-2.798 2.858zm11.86 8.838l14.955-15-2.832-2.824-14.955 15 2.833 2.824z"/><path id="fb" d="M23 0l.741-.671-.741-.82-.742.82L23 0zM0 11.379v-1h-1v1h1zM23 50.5l-.338.941.338.121.338-.12L23 50.5zm23-39.121h1v-1h-1v1zM23 0c-.742-.67-.741-.67-.741-.671h-.001l-.004.005a8.334 8.334 0 0 1-.1.108 35.615 35.615 0 0 1-1.636 1.599 43.7 43.7 0 0 1-4.816 3.823C11.617 7.656 6.067 10.379 0 10.379v2c6.643 0 12.593-2.967 16.83-5.864a45.692 45.692 0 0 0 5.04-4 37.51 37.51 0 0 0 1.376-1.325 24.027 24.027 0 0 0 .485-.507l.007-.008.002-.003h.001L23 0zM-1 11.379v2.114h2v-2.114h-2zm0 2.114c0 7.762.877 15.453 4.298 22.114 3.44 6.7 9.402 12.258 19.364 15.834l.676-1.882C13.8 46.135 8.262 40.895 5.078 34.693 1.872 28.453 1 21.14 1 13.493h-2zM23.338 51.44c9.962-3.576 15.923-9.134 19.364-15.834C46.122 28.947 47 21.255 47 13.493h-2c0 7.647-.873 14.96-4.077 21.2-3.184 6.202-8.723 11.442-18.26 14.866l.675 1.882zM47 13.493v-2.114h-2v2.114h2zm-1-3.114c-6.063 0-11.613-2.723-15.699-5.515a43.762 43.762 0 0 1-4.818-3.823A35.69 35.69 0 0 1 24.18-.213a21.762 21.762 0 0 1-.415-.433l-.02-.02-.003-.005L23 0c-.741.671-.741.671-.74.672l.002.003a1.73 1.73 0 0 1 .033.036l.096.103a37.588 37.588 0 0 0 1.74 1.702 45.751 45.751 0 0 0 5.042 3.999C33.41 9.412 39.36 12.379 46 12.379v-2z"/><path id="fc" d="M-.707.707L12.968 14.39l1.415-1.413L.707-.707-.707.707z"/><path id="fd" d="M6.127 6.158v1h1v-1h-1zM5.127 0v6.158h2V0h-2zm1 5.158H0v2h6.127v-2z"/><path id="fe" d="M12.968-.707L-.707 12.977.707 14.39 14.383.707 12.968-.707z"/><path id="ff" d="M0 6.13h-1v1h1v-1zm6.154-1H0v2h6.154v-2zM1 6.13V0h-2v6.13h2z"/><path id="fg" d="M14.383 12.977L.707-.707-.707.707 12.968 14.39l1.415-1.413z"/><path id="fh" d="M0 0v-1h-1v1h1zm1 6.158V0h-2v6.158h2zM0 1h6.125v-2H0v2z"/><path id="fi" d="M.707 14.39L14.383.707 12.968-.707-.707 12.977.707 14.39z"/><path id="fj" d="M6.152 0h1v-1h-1v1zM0 1h6.152v-2H0v2zm5.152-1v6.129h2V0h-2z"/></defs></symbol><symbol viewBox="0 0 69 72" id="icon_eco" xmlns="http://www.w3.org/2000/svg"><title>icon_eco</title><desc>Created using Figma</desc><g transform="translate(-282 -4073)"><use xlink:href="#ga" transform="translate(310.174 4105.05)" fill="#9ECC2E"/><use xlink:href="#gb" transform="translate(324.544 4105.05)" fill="#9ECC2E"/><use xlink:href="#gc" transform="translate(297.51 4105.05)" fill="#9ECC2E"/><use xlink:href="#gd" transform="translate(297.51 4111.35)" fill="#9ECC2E"/><use xlink:href="#ge" transform="translate(307.113 4078.71)"/><use xlink:href="#gf" transform="translate(283 4083.41)"/><use xlink:href="#gg" transform="translate(299.187 4119.8)"/><use xlink:href="#gh" transform="translate(307.113 4074)"/><use xlink:href="#gi" transform="translate(285.535 4127.39)"/><use xlink:href="#gj" transform="translate(340.807 4119.8)"/></g><defs><path id="ga" d="M9.306 9.349a4.274 4.274 0 0 1-2.191 1.175l.784 3.923a8.275 8.275 0 0 0 4.24-2.276L9.307 9.35zm-2.191 1.175a4.26 4.26 0 0 1-2.47-.244L3.11 13.974a8.26 8.26 0 0 0 4.789.473l-.784-3.923zm-2.47-.244a4.286 4.286 0 0 1-1.922-1.583l-3.33 2.217a8.286 8.286 0 0 0 3.717 3.06l1.535-3.694zM2.723 8.697A4.32 4.32 0 0 1 2 6.303h-4a8.32 8.32 0 0 0 1.394 4.611l3.33-2.217zM2 6.303c0-.852.252-1.685.723-2.393l-3.33-2.217A8.32 8.32 0 0 0-2 6.303h4zm.723-2.393a4.286 4.286 0 0 1 1.922-1.584L3.11-1.367a8.286 8.286 0 0 0-3.716 3.06l3.33 2.217zm1.922-1.584a4.26 4.26 0 0 1 2.47-.243l.784-3.923a8.26 8.26 0 0 0-4.789.473l1.535 3.693zm2.47-.243a4.274 4.274 0 0 1 2.19 1.175L12.14.435A8.274 8.274 0 0 0 7.899-1.84l-.784 3.923z"/><path id="gb" d="M10.562 6.303c0 2.384-1.924 4.304-4.281 4.304v4c4.58 0 8.28-3.724 8.28-8.304h-4zM6.28 10.607C3.923 10.607 2 8.687 2 6.303h-4c0 4.58 3.7 8.304 8.28 8.304v-4zM2 6.303C2 3.92 3.923 2 6.28 2v-4C1.7-2-2 1.724-2 6.303h4zM6.28 2c2.358 0 4.282 1.92 4.282 4.303h4C14.562 1.724 10.86-2 6.28-2v4z"/><path id="gc" d="M0 0v-2h-2v2h2zm0 12.607h-2v2h2v-2zM7.82-2H0v4h7.82v-4zM-2 0v6.303h4V0h-4zm0 6.303v6.304h4V6.303h-4zm2 8.304h7.82v-4H0v4z"/><path id="gd" d="M7.82-2H0v4h7.82v-4z"/><path id="ge" d="M.259 2.07a31.444 31.444 0 0 1 14.307-.458l.393-1.96A33.444 33.444 0 0 0-.259.137L.26 2.07zm14.307-.458c4.742.95 9.202 2.98 13.038 5.935l1.22-1.585A33.503 33.503 0 0 0 14.96-.348l-.393 1.96zm13.038 5.935a31.65 31.65 0 0 1 9.084 11.107l1.795-.883a33.65 33.65 0 0 0-9.659-11.809l-1.22 1.585zm9.084 11.107a31.772 31.772 0 0 1 3.26 13.993l2-.002a33.773 33.773 0 0 0-3.465-14.874l-1.795.883z"/><path id="gf" d="M10.242 50.324a31.662 31.662 0 0 1-7.515-12.055l-1.891.65a33.661 33.661 0 0 0 7.99 12.817l1.416-1.412zM2.727 38.269A31.755 31.755 0 0 1 1.23 24.127l-1.986-.24A33.755 33.755 0 0 0 .836 38.919l1.89-.65zM1.23 24.127a31.719 31.719 0 0 1 4.824-13.372L4.372 9.672A33.719 33.719 0 0 0-.756 23.887l1.986.24zm4.824-13.372a31.58 31.58 0 0 1 10.17-9.9l-1.038-1.71A33.58 33.58 0 0 0 4.372 9.672l1.682 1.083z"/><path id="gg" d="M46.811-.258a31.703 31.703 0 0 1-6.771 12.691l1.505 1.318c3.4-3.884 5.863-8.5 7.198-13.493l-1.932-.516zM40.04 12.433a31.551 31.551 0 0 1-11.668 8.37l.765 1.848a33.552 33.552 0 0 0 12.408-8.9l-1.505-1.318zm-11.668 8.37a31.444 31.444 0 0 1-14.154 2.32l-.135 1.996a33.443 33.443 0 0 0 15.054-2.468l-.765-1.848zm-14.154 2.32A31.464 31.464 0 0 1 .503 18.915l-1.006 1.728a33.464 33.464 0 0 0 14.586 4.476l.135-1.996z"/><path id="gh" d="M0 5.81l-.826-.563-.594.872.902.546L0 5.81zM3.13-.563l-3.956 5.81L.826 6.373 4.784.563 3.13-.563zM-.517 6.665l6.021 3.646L6.54 8.6.518 4.954-.518 6.665z"/><path id="gi" d="M6.991 7.057l-.076.997 1.056.081.02-1.058-1-.02zm-7.067.463l6.991.534.153-1.994-6.992-.534-.152 1.994zm8.067-.443L8.13.019l-2-.038-.138 7.057 2 .039z"/><path id="gj" d="M6.157 0l.902-.432-.458-.957-.929.514.485.875zm3.938 5.91L7.059-.431 5.255.432 8.29 6.774l1.804-.863zM5.672-.874l-6.157 3.41.97 1.75L6.64.875l-.969-1.75z"/></defs></symbol><symbol viewBox="0 0 88 43" id="icon_l" xmlns="http://www.w3.org/2000/svg"><title>icon_l</title><desc>Created using Figma</desc><g transform="translate(-428 -4088)"><use xlink:href="#ha" transform="translate(482 4090)" fill="#9ECC2E"/><use xlink:href="#hb" transform="translate(429 4094)"/><use xlink:href="#hc" transform="translate(429 4111.49)"/><use xlink:href="#hd" transform="translate(479 4089)"/><use xlink:href="#he" transform="translate(508.559 4089)"/><use xlink:href="#hf" transform="translate(506 4120)"/></g><defs><path id="ha" d="M3.654-1.282l-5.189 6.21 3.07 2.564 5.188-6.21-3.07-2.564zm9.906 0l-5.19 6.21 3.07 2.564 5.19-6.21-3.07-2.564zm9.905 0l-5.189 6.21 3.07 2.564 5.189-6.21-3.07-2.564zM3.654 10.573l-5.189 6.21 3.07 2.565 5.188-6.21-3.07-2.565zm9.906 0l-5.19 6.21 3.07 2.565 5.19-6.21-3.07-2.565zm9.905 0l-5.189 6.21 3.07 2.565 5.189-6.21-3.07-2.565zM3.654 21.508l-5.189 6.21 3.07 2.564 5.188-6.21-3.07-2.564zm9.906 0l-5.19 6.21 3.07 2.564 5.19-6.21-3.07-2.564zm9.905 0l-5.189 6.21 3.07 2.564 5.189-6.21-3.07-2.564z"/><path id="hb" d="M20.447 0v1h.003l-.003-1zm10.005 4.007l.695-.719-.002-.002-.693.721zM44.883 17.96l-.695.72.005.004.69-.724zm-3.498 8.164v1-1zm-3.497-1.401l-.695.719.004.004.691-.723zM0 1h20.447v-2H0v2zm20.45 0a13.399 13.399 0 0 1 9.31 3.729l1.385-1.443A15.398 15.398 0 0 0 20.445-1l.005 2zm9.307 3.726l14.43 13.952 1.391-1.438-14.43-13.952-1.39 1.438zm14.436 13.957c.36.343.647.756.842 1.213l1.839-.788a5.68 5.68 0 0 0-1.3-1.872l-1.381 1.447zm.842 1.213c.196.457.297.948.297 1.445h2c0-.768-.156-1.527-.458-2.233l-1.839.788zm.297 1.445c0 .496-.1.987-.297 1.444l1.839.788a5.669 5.669 0 0 0 .458-2.232h-2zm-.297 1.444c-.195.457-.482.87-.842 1.213l1.38 1.448a5.68 5.68 0 0 0 1.3-1.873l-1.838-.788zM44.192 24a4.063 4.063 0 0 1-2.806 1.124v2c1.56 0 3.06-.6 4.188-1.678L44.192 24zm-2.806 1.124a4.063 4.063 0 0 1-2.807-1.124l-1.382 1.446a6.063 6.063 0 0 0 4.188 1.678v-2zm-2.803-1.12l-12.78-12.36-1.39 1.438 12.78 12.36 1.39-1.438z"/><path id="hc" d="M13.588 5.182l.671-.742-.003-.003-.668.745zm10.17 9.192l-.67.742.003.002.668-.744zm10.86 4.14v-1h-.003l.002 1zM.002 1a19.284 19.284 0 0 1 12.919 4.926l1.335-1.489A21.285 21.285 0 0 0-.002-1l.004 2zm12.916 4.924l10.17 9.191 1.341-1.483L14.26 4.44l-1.341 1.484zm10.173 9.194a17.209 17.209 0 0 0 11.529 4.397l-.005-2a15.209 15.209 0 0 1-10.188-3.886l-1.336 1.489zm11.526 4.397H61.58v-2H34.618v2zm26.963 0c3.342 0 6.107-2.627 6.107-5.939h-2c0 2.145-1.806 3.939-4.107 3.939v2zm6.107-5.939c0-3.312-2.775-5.938-6.107-5.938v2c2.294 0 4.107 1.795 4.107 3.938h2zM61.58 7.638H40.742v2H61.58v-2z"/><path id="hd" d="M32.02 31v1h2.112l-1.338-1.634-.774.634zm.075-14.977l-.774-.633-.004.005.778.628zm.136-.166l.774.632.002-.002-.776-.63zM31.454.033l.721-.692-.256-.268-.37-.035-.095.995zM31.11 0l.096-.995L31.158-1h-.048v1zM0 0v-1h-1v1h1zm0 31h-1v1h1v-1zm32.794-.634c-3.437-4.197-3.352-9.466.08-13.715l-1.557-1.256c-3.999 4.953-4.134 11.276-.07 16.239l1.547-1.268zm.076-13.711l.136-.166-1.55-1.265-.135.166 1.55 1.265zm.137-.168c2.074-2.554 3.13-5.59 2.979-8.689l-1.998.098c.126 2.565-.743 5.125-2.534 7.33l1.553 1.261zm2.979-8.689c-.153-3.098-1.502-6.05-3.81-8.457L30.731.725c2.011 2.098 3.13 4.604 3.256 7.171l1.998-.098zM31.55-.962l-.344-.033-.192 1.99.344.034.192-1.991zM31.11-1H0v2h31.11v-2zM-1 0v31h2V0h-2zm1 32h32.02v-2H0v2z"/><path id="he" d="M0 1h7.44v-2H0v2z"/><path id="hf" d="M0 1h10v-2H0v2z"/></defs></symbol><symbol viewBox="0 0 67 67" id="icon_tem" xmlns="http://www.w3.org/2000/svg"><title>icon_nonf</title><desc>Created using Figma</desc><g transform="translate(-285 -3883)"><use xlink:href="#ia" transform="translate(297 3892)" fill="#9ECC2E"/><mask id="ic"><use xlink:href="#ib" fill="#fff" transform="rotate(180 176 1975)"/></mask><g mask="url(#ic)"><use xlink:href="#id" transform="rotate(180 176 1975)"/></g><use xlink:href="#ie" transform="rotate(180 154.225 1968.3)"/><use xlink:href="#if" transform="rotate(180 169.3 1954.9)"/><g><use xlink:href="#ig" transform="rotate(90 -1778.9 2117.5)"/></g></g><defs><path id="ia" d="M11.824 45l-.913 1.78a2 2 0 0 0 2.681-2.714L11.824 45zm.97-12.899l1.599 1.202-1.599-1.202zm3.413-7.182l1.528-1.291a2 2 0 0 0-3.49.907l1.962.384zm1.28 6.47l-1.955-.422a2 2 0 0 0 3.378 1.828l-1.423-1.406zM21 17.154l1.073-1.687a2 2 0 0 0-3.016 2.162L21 17.154zM28.65 45l-1.742-.983a2 2 0 0 0 2.657 2.761L28.65 45zm3.078-35.804l1.105-1.667a2 2 0 0 0-2.892 2.565l1.787-.898zm-.945 7.958l-1.921.557a2 2 0 0 0 3.18.998l-1.259-1.555zM15.366 0l.616-1.903a2 2 0 0 0-2.59 2.227L15.366 0zm-7.29 21.129l-1.996.129a2 2 0 0 0 3.485 1.206L8.076 21.13zm-1.963-7.308l1.713-1.033a2 2 0 0 0-3.707.891l1.994.143zM.403 27.95l1.95.443-1.95-.443zm13.19 16.117c-1.466-2.773-1.697-4.732-1.449-6.245.256-1.56 1.064-2.941 2.249-4.518L11.196 30.9c-1.293 1.72-2.583 3.736-2.999 6.275-.424 2.585.099 5.428 1.858 8.76l3.537-1.868zm.8-10.763a22.446 22.446 0 0 0 2.993-5.432c.283-.74.475-1.36.598-1.805a13.922 13.922 0 0 0 .17-.688l.01-.048a2.77 2.77 0 0 0 .005-.022v-.003c0-.001 0-.002-1.962-.386-1.963-.384-1.963-.385-1.962-.385v-.001-.002-.002s0-.001 0 0l-.002.013-.019.083c-.019.08-.05.208-.097.377-.093.337-.245.835-.477 1.44a18.445 18.445 0 0 1-2.454 4.457l3.197 2.404zm1.814-8.384a210.916 210.916 0 0 1-1.529 1.29v-.002l-.003-.002-.004-.005-.005-.006a.044.044 0 0 1-.002-.003l.024.032c.029.04.08.11.144.213.128.205.305.527.465.948.316.833.566 2.054.235 3.583l3.91.845c.523-2.418.132-4.432-.405-5.847a9.44 9.44 0 0 0-.814-1.65 7.38 7.38 0 0 0-.463-.656l-.014-.017-.006-.008a.09.09 0 0 0-.003-.003l-.001-.002s-.001-.001-1.529 1.29zm2.703 7.875c2.312-2.342 3.428-5.805 3.931-8.742.503-2.936.476-5.841.102-7.372l-3.886.95c.195.798.295 3.101-.158 5.746-.453 2.643-1.38 5.133-2.835 6.608l2.846 2.81zm1.017-13.952c3.757 2.39 6.648 6.716 8.007 11.548 1.36 4.837 1.097 9.865-1.026 13.627l3.484 1.966c2.783-4.93 2.955-11.117 1.392-16.675-1.563-5.563-4.95-10.814-9.71-13.841l-2.147 3.375zm9.638 27.936c6.785-3.493 10.846-7.548 12.866-11.876 2.03-4.35 1.878-8.712.74-12.56-1.128-3.819-3.24-7.19-5.247-9.727-1.986-2.509-4-4.362-5.09-5.086l-2.212 3.333c.616.41 2.332 1.918 4.166 4.236 1.813 2.29 3.611 5.208 4.548 8.378.928 3.14.997 6.464-.53 9.734-1.535 3.29-4.809 6.787-11.072 10.012l1.831 3.556zm.376-36.684c.409.815.676 1.987.607 3.11-.07 1.12-.448 1.93-1.023 2.396l2.516 3.109c1.724-1.395 2.386-3.432 2.499-5.259.113-1.825-.297-3.702-1.025-5.152l-3.574 1.796zm2.763 6.504C30.617 9.397 26.468 4.774 22.84 1.962a27.672 27.672 0 0 0-4.733-2.965 21.341 21.341 0 0 0-1.501-.67 13.829 13.829 0 0 0-.616-.227l-.005-.002h-.003s-.002 0-.617 1.902a222.508 222.508 0 0 1-.617 1.902h-.002-.002V1.9l.01.003.067.024c.065.023.17.062.309.117.278.111.696.288 1.216.543a23.67 23.67 0 0 1 4.043 2.536c3.109 2.409 6.668 6.363 8.472 12.587l3.842-1.113zM13.392.324c1.013 6.16-2.01 14.123-6.805 19.47l2.978 2.67c5.352-5.967 9.037-15.102 7.774-22.788l-3.947.648zM10.072 21c-.184-2.846-.396-5.148-2.246-8.212L4.4 14.855c1.34 2.22 1.507 3.728 1.68 6.403L10.071 21zM4.12 13.68c-.145 2.023-1.074 3.95-2.324 6.245C.613 22.095-.9 24.66-1.547 27.507l3.9.885c.495-2.177 1.657-4.17 2.955-6.554 1.23-2.259 2.587-4.883 2.8-7.874l-3.99-.285zm-5.666 13.826c-.862 3.796-.57 7.32 1.549 10.626 2.048 3.196 5.662 5.957 10.909 8.648l1.825-3.56c-5.016-2.572-7.884-4.934-9.367-7.247-1.411-2.202-1.698-4.572-1.015-7.58l-3.901-.887z"/><path id="ib" d="M67 33.5C67 52.002 52.002 67 33.5 67 14.998 67 0 52.002 0 33.5 0 14.998 14.998 0 33.5 0 52.002 0 67 14.998 67 33.5z"/><path id="id" d="M65 33.5C65 50.897 50.897 65 33.5 65v4C53.106 69 69 53.106 69 33.5h-4zM33.5 65C16.103 65 2 50.897 2 33.5h-4C-2 53.106 13.894 69 33.5 69v-4zM2 33.5C2 16.103 16.103 2 33.5 2v-4C13.894-2-2 13.894-2 33.5h4zM33.5 2C50.897 2 65 16.103 65 33.5h4C69 13.894 53.106-2 33.5-2v4z"/><path id="ie" d="M-.707 9.343a1 1 0 1 0 1.414 1.414L-.707 9.343zM10.757.707A1 1 0 0 0 9.343-.707L10.757.707zM.707 10.757L10.757.707 9.343-.707-.707 9.343l1.414 1.414z"/><path id="if" d="M-.678 12.665a1 1 0 0 0 1.356 1.47l-1.356-1.47zM15.195.735a1 1 0 1 0-1.357-1.47l1.357 1.47zM.678 14.135L15.195.735l-1.357-1.47-14.516 13.4 1.356 1.47z"/><path id="ig" d="M-.707 39.493a1 1 0 1 0 1.414 1.414l-1.414-1.414zM40.907.707a1 1 0 0 0-1.414-1.414L40.907.707zm-40.2 40.2l40.2-40.2-1.414-1.414-40.2 40.2 1.414 1.414z"/></defs></symbol><symbol viewBox="0 0 79 86" id="icon_teplop" xmlns="http://www.w3.org/2000/svg"><title>icon_teplop</title><desc>Created using Figma</desc><g transform="translate(-428 -3858)"><use xlink:href="#ja" transform="translate(429.002 3858)"/><use xlink:href="#jb" transform="translate(433 3866)" fill="#9ECC2E"/><use xlink:href="#jb" transform="translate(433 3918)" fill="#9ECC2E"/><use xlink:href="#jc" transform="translate(429 3859.47)"/><use xlink:href="#jd" transform="translate(429 3936.57)"/><use xlink:href="#je" transform="translate(429.002 3858)"/><use xlink:href="#jf" transform="translate(429.002 3912.52)"/><use xlink:href="#jg" transform="translate(473 3883)"/><use xlink:href="#jh" transform="translate(429 3889)"/><use xlink:href="#ji" transform="translate(492.557 3926.66)"/><use xlink:href="#jj" transform="translate(487.385 3923.04)"/></g><defs><path id="ja" d="M44.42 31.477v1h1v-1h-1zM43.42 0v31.477h2V0h-2zm1 30.477H0v2h44.42v-2z"/><path id="jb" d="M3.97-1.288l-5.5 6.531L1.53 7.82l5.5-6.532-3.06-2.576zm10.5 0l-5.5 6.531 3.06 2.577 5.5-6.532-3.06-2.576zm10.5 0l-5.5 6.531 3.06 2.577 5.5-6.532-3.06-2.576zm10.5 0l-5.5 6.531 3.06 2.577 5.5-6.532-3.06-2.576zM3.97 11.18l-5.5 6.53 3.06 2.577 5.5-6.531-3.06-2.576zm10.5 0l-5.5 6.53 3.06 2.577 5.5-6.531-3.06-2.576zm10.5 0l-5.5 6.53 3.06 2.577 5.5-6.531-3.06-2.576zm10.5 0l-5.5 6.53 3.06 2.577 5.5-6.531-3.06-2.576z"/><path id="jc" d="M22.9 3.171l.524-.852h-.002l-.523.852zm-.239-.146l-.524.851.001.001.523-.852zm21.229-.779a19.414 19.414 0 0 1-10.223 2.947l.008 2A21.415 21.415 0 0 0 44.95 3.942L43.89 2.246zM33.667 5.193A19.417 19.417 0 0 1 23.423 2.32l-1.048 1.704a21.417 21.417 0 0 0 11.3 3.17l-.008-2zM23.422 2.32l-.238-.146-1.046 1.704.238.147 1.046-1.705zm-.236-.146A21.423 21.423 0 0 0 11.163-.985l.074 1.998c3.843-.142 7.64.856 10.9 2.863l1.049-1.703zM11.163-.985a21.39 21.39 0 0 0-11.75 4.04l1.173 1.62a19.39 19.39 0 0 1 10.651-3.662l-.074-1.998z"/><path id="jd" d="M22.9 3.171l.524-.852h-.002l-.523.852zm-.239-.146l-.524.852h.001l.523-.852zm21.229-.779a19.414 19.414 0 0 1-10.223 2.947l.008 2A21.415 21.415 0 0 0 44.95 3.942L43.89 2.246zM33.667 5.193A19.417 19.417 0 0 1 23.423 2.32l-1.048 1.704a21.417 21.417 0 0 0 11.3 3.17l-.008-2zM23.422 2.32l-.238-.146-1.046 1.704.238.147 1.046-1.705zm-.236-.146A21.423 21.423 0 0 0 11.163-.985l.074 1.998c3.843-.142 7.64.856 10.9 2.864l1.049-1.704zM11.163-.985a21.39 21.39 0 0 0-11.75 4.04l1.173 1.62a19.39 19.39 0 0 1 10.651-3.662l-.074-1.998z"/><path id="je" d="M1 86V0h-2v86h2z"/><path id="jf" d="M44.42 0h1v-1h-1v1zm1 31.477V0h-2v31.477h2zM44.42-1H0v2h44.42v-2z"/><path id="jg" d="M19 18.002l.688.726.766-.726-.766-.726-.688.726zM-.688.726l19 18.002 1.376-1.452-19-18.002L-.688.726zm19 16.55L-.68 35.274l1.376 1.452 18.993-17.998-1.376-1.452z"/><path id="jh" d="M10.205 17.16c-.704 0-1.296-.176-1.776-.528-.48-.352-.853-.95-1.12-1.792-.256-.843-.384-1.99-.384-3.44s.128-2.597.384-3.44c.267-.843.64-1.44 1.12-1.792.48-.352 1.072-.528 1.776-.528s1.296.176 1.776.528c.48.352.848.95 1.104 1.792.267.843.4 1.99.4 3.44s-.133 2.597-.4 3.44c-.256.843-.624 1.44-1.104 1.792-.48.352-1.072.528-1.776.528zm0-.96c.523 0 .96-.363 1.312-1.088.352-.725.528-1.963.528-3.712 0-1.75-.176-2.987-.528-3.712-.352-.725-.79-1.088-1.312-1.088-.523 0-.96.363-1.312 1.088-.352.725-.528 1.963-.528 3.712 0 1.75.176 2.987.528 3.712.352.725.79 1.088 1.312 1.088zm4.716 2.64v-3.52h1.52l-.48 3.52h-1.04zm6.159-1.68c-.704 0-1.296-.176-1.776-.528-.48-.352-.853-.95-1.12-1.792-.256-.843-.384-1.99-.384-3.44s.128-2.597.384-3.44c.267-.843.64-1.44 1.12-1.792.48-.352 1.072-.528 1.776-.528s1.296.176 1.776.528c.48.352.848.95 1.104 1.792.267.843.4 1.99.4 3.44s-.133 2.597-.4 3.44c-.256.843-.624 1.44-1.104 1.792-.48.352-1.072.528-1.776.528zm0-.96c.523 0 .96-.363 1.312-1.088.352-.725.528-1.963.528-3.712 0-1.75-.176-2.987-.528-3.712-.352-.725-.79-1.088-1.312-1.088-.523 0-.96.363-1.312 1.088-.352.725-.528 1.963-.528 3.712 0 1.75.176 2.987.528 3.712.352.725.79 1.088 1.312 1.088zm6.56.96c-.448 0-.896-.032-1.344-.096a6.31 6.31 0 0 1-1.056-.224v-.72h2.08c.8 0 1.37-.165 1.712-.496.352-.341.528-.896.528-1.664 0-.8-.176-1.37-.528-1.712-.341-.352-.912-.528-1.712-.528H26.2V10.6h.96c.715 0 1.237-.16 1.568-.48.341-.33.512-.837.512-1.52 0-.63-.155-1.104-.464-1.424-.299-.33-.73-.496-1.296-.496H25.4v-.72c.256-.085.608-.16 1.056-.224A9.492 9.492 0 0 1 27.8 5.64c.96 0 1.68.245 2.16.736.48.49.72 1.232.72 2.224 0 .597-.123 1.093-.368 1.488-.235.395-.592.715-1.072.96v.064c.597.15 1.04.485 1.328 1.008.288.523.432 1.136.432 1.84 0 1.13-.261 1.947-.784 2.448-.523.501-1.381.752-2.576.752zm4.16-1.44a81.59 81.59 0 0 0 1.024-1.28 89.331 89.331 0 0 0 1.985-2.544c.394-.533.682-1.019.864-1.456.192-.448.288-.928.288-1.44 0-.81-.15-1.397-.448-1.76-.299-.373-.736-.56-1.312-.56h-2.24v-.72c.256-.085.602-.16 1.04-.224a9.605 9.605 0 0 1 1.36-.096c1.056 0 1.824.267 2.304.8.49.523.736 1.376.736 2.56a4.36 4.36 0 0 1-.32 1.664 7.893 7.893 0 0 1-.912 1.584 60.55 60.55 0 0 1-1.84 2.368c-.246.33-.582.752-1.008 1.264h4.08V17h-5.6v-1.28z"/><path id="ji" d="M0 7.763h1-1zm12.741 4.776a6.909 6.909 0 0 1-3.521 1.857l.385 1.962a8.908 8.908 0 0 0 4.541-2.396l-1.405-1.423zM9.22 14.396a6.978 6.978 0 0 1-3.98-.385l-.756 1.851a8.978 8.978 0 0 0 5.121.496l-.385-1.962zm-3.98-.385a6.851 6.851 0 0 1-3.085-2.495L.5 12.638a8.851 8.851 0 0 0 3.984 3.224l.756-1.851zm-3.085-2.495A6.687 6.687 0 0 1 1 7.763h-2c0 1.737.522 3.434 1.5 4.875l1.655-1.122zM1 7.763c0-1.334.401-2.64 1.155-3.752L.5 2.888A8.686 8.686 0 0 0-1 7.763h2zm1.155-3.752A6.85 6.85 0 0 1 5.24 1.516L4.484-.336A8.85 8.85 0 0 0 .5 2.888l1.655 1.123zM5.24 1.516a6.977 6.977 0 0 1 3.98-.385l.385-1.963a8.977 8.977 0 0 0-5.12.496l.755 1.852zm3.98-.385a6.91 6.91 0 0 1 3.521 1.857l1.405-1.423a8.908 8.908 0 0 0-4.54-2.397L9.22 1.131z"/><path id="jj" d="M3.55 2.243c0 .673-.558 1.243-1.275 1.243v2c1.795 0 3.274-1.44 3.274-3.243h-2zM2.274 3.486C1.557 3.486 1 2.916 1 2.243h-2C-1 4.047.48 5.486 2.275 5.486v-2zM1 2.243C1 1.57 1.557 1 2.275 1v-2C.479-1-1 .439-1 2.243h2zM2.275 1c.717 0 1.274.57 1.274 1.243h2C5.55.439 4.07-1 2.275-1v2z"/></defs></symbol><symbol viewBox="0 0 40 40" id="jpg" xmlns="http://www.w3.org/2000/svg"><title>003-jpg</title><desc>Created using Figma</desc><g transform="translate(-6191 -5)"><use xlink:href="#ka" transform="translate(6191 5)"/><use xlink:href="#kb" transform="translate(6206.72 23.664)"/><use xlink:href="#kc" transform="translate(6200.43 23.777)"/><use xlink:href="#kd" transform="translate(6194.43 23.777)"/></g><defs><path id="ka" d="M39.772 10.825L28.957.235A.842.842 0 0 0 28.37 0H12.251C10.447 0 8.98 1.382 8.98 3.081v10.765H2.448C1.098 13.846 0 14.88 0 16.152v11.542C0 28.966 1.098 30 2.448 30H8.98v6.924C8.98 38.62 10.447 40 12.25 40h24.478C38.532 40 40 38.62 40 36.926V11.358a.746.746 0 0 0-.228-.533zm-11.2-8.748l8.877 8.692h-8.877V2.077zM2.448 28.462c-.45 0-.815-.345-.815-.768V16.152c0-.423.365-.767.815-.767H24.49c.45 0 .815.344.815.767v11.542c0 .423-.365.768-.815.768H2.448zm35.92 8.464c0 .847-.736 1.536-1.64 1.536H12.251c-.904 0-1.639-.69-1.639-1.538V30h13.88c1.349 0 2.447-1.034 2.447-2.306V16.152c0-1.272-1.098-2.306-2.448-2.306H10.612V3.081c0-.85.735-1.543 1.639-1.543h14.688v10c0 .425.365.77.816.77h10.612v24.618z"/><path id="kb" d="M3.506 3.178V4.29h1.621v.838c-.213.157-.47.29-.767.4a2.57 2.57 0 0 1-.892.164c-.6 0-1.085-.196-1.454-.588-.37-.393-.555-.98-.555-1.765 0-.727.182-1.276.547-1.645.366-.37.857-.555 1.476-.555.408 0 .749.094 1.021.282.273.188.459.444.558.768l1.406-.247A2.317 2.317 0 0 0 5.522.516C5.032.172 4.352 0 3.482 0c-.67 0-1.23.11-1.679.33A3.016 3.016 0 0 0 .46 1.56C.153 2.093 0 2.705 0 3.393c0 .634.137 1.22.411 1.76.275.54.684.954 1.23 1.244.545.29 1.184.435 1.918.435.577 0 1.147-.103 1.71-.309.563-.206.992-.444 1.289-.714V3.178H3.506z"/><path id="kc" d="M4.965.746a1.847 1.847 0 0 0-1.01-.647C3.696.033 3.134 0 2.273 0H0v6.607h1.416V4.115h.923c.641 0 1.13-.032 1.468-.095.25-.05.494-.155.735-.313.24-.158.439-.375.595-.651.156-.277.235-.618.235-1.023 0-.526-.136-.955-.407-1.287zM3.752 2.565a.924.924 0 0 1-.442.324c-.188.07-.561.104-1.12.104h-.774V1.118H2.1c.51 0 .85.015 1.019.045.23.039.419.136.569.293.15.156.225.354.225.595a.852.852 0 0 1-.16.514z"/><path id="kd" d="M3.076 0v4.268c0 .535-.066.887-.197 1.057-.13.17-.353.255-.67.255-.312 0-.544-.119-.698-.356-.102-.157-.16-.424-.177-.803L0 4.566c.003.706.191 1.241.564 1.606.374.366.906.548 1.598.548.59 0 1.065-.116 1.425-.35.36-.232.61-.54.747-.925.102-.295.153-.716.153-1.262V0H3.076z"/></defs></symbol><symbol viewBox="0 0 510 510" id="local" xmlns="http://www.w3.org/2000/svg"><path d="M255 0C155.55 0 76.5 79.05 76.5 178.5 76.5 311.1 255 510 255 510s178.5-198.9 178.5-331.5C433.5 79.05 354.45 0 255 0zm0 242.25c-35.7 0-63.75-28.05-63.75-63.75s28.05-63.75 63.75-63.75 63.75 28.05 63.75 63.75-28.05 63.75-63.75 63.75z"/></symbol><symbol viewBox="0 0 187 60" id="logo" xmlns="http://www.w3.org/2000/svg"><title>logo</title><desc>Created using Figma</desc><g transform="translate(-246 -2621)"><use xlink:href="#ma" transform="translate(258.073 2629.45)"/><use xlink:href="#mb" transform="translate(369.727 2629.46)"/><use xlink:href="#mc" transform="translate(246 2621)" fill="#9ECC2E"/><use xlink:href="#md" transform="translate(256.004 2669.63)" fill="#9ECC2E"/></g><defs><path id="ma" d="M85.36.533h-2.17c-2.143 0-2.994 1.779-2.994 3.972v23.882h14.543v-4.244h-9.38V.533zM56.05 9.327v-.85a10.526 10.526 0 0 0-.942-4.672A6.277 6.277 0 0 0 52.373.948 9.318 9.318 0 0 0 47.99.005a10.36 10.36 0 0 0-3.238.478 7.175 7.175 0 0 0-2.54 1.429 6.234 6.234 0 0 0-1.66 2.265 7.72 7.72 0 0 0-.594 3.064 8.003 8.003 0 0 0 1.02 4.036 9.452 9.452 0 0 0 3.049 3.137l4.599 3.086c.566.363 1.099.779 1.59 1.243.39.375.706.823.929 1.321.213.505.317 1.05.307 1.6a3.437 3.437 0 0 1-.356 1.58 2.69 2.69 0 0 1-1.033 1.12 3.212 3.212 0 0 1-1.66.422 4.098 4.098 0 0 1-1.396-.221 2.914 2.914 0 0 1-1.208-.772 3.715 3.715 0 0 1-.837-1.5 8.095 8.095 0 0 1-.314-2.415V18.8h-4.934v1.078a11.33 11.33 0 0 0 .97 4.908 6.94 6.94 0 0 0 2.917 3.136 9.76 9.76 0 0 0 4.815 1.1 10.26 10.26 0 0 0 4.578-.935A6.398 6.398 0 0 0 55.82 25.4a8.673 8.673 0 0 0 .963-4.208 10.223 10.223 0 0 0-.32-2.708 6.789 6.789 0 0 0-.922-2.028 8.361 8.361 0 0 0-1.458-1.63 20.078 20.078 0 0 0-1.933-1.464l-5.276-3.571a5.06 5.06 0 0 1-.935-.78 2.87 2.87 0 0 1-.593-.992 4.15 4.15 0 0 1-.21-1.429 2.23 2.23 0 0 1 .391-1.3c.253-.352.596-.626.991-.793a3.52 3.52 0 0 1 1.396-.264 3.037 3.037 0 0 1 1.744.478c.522.372.91.91 1.103 1.53.286.88.418 1.807.39 2.735v.307l4.9.043zm-50.872 6.48h3.315c.423-.023.844.068 1.222.264.379.195.7.488.934.85.524.967.766 2.068.698 3.172a8.296 8.296 0 0 1-.314 2.507 2.6 2.6 0 0 1-.956 1.386 2.742 2.742 0 0 1-1.598.422H5.17l.007-8.601zm0-10.53c0-.429.174-.772.6-.772H7.97c.64-.03 1.277.107 1.85.4.456.262.805.683.984 1.186.212.631.309 1.297.286 1.965a4.398 4.398 0 0 1-.754 2.786 2.965 2.965 0 0 1-1.111.79 2.902 2.902 0 0 1-1.338.203H5.17V5.277h.007zM.014 28.38h10.398a6.007 6.007 0 0 0 2.735-.615 5.32 5.32 0 0 0 1.94-1.707 7.948 7.948 0 0 0 1.159-2.608c.266-1.086.395-2.202.384-3.322a9.49 9.49 0 0 0-.454-3.107 5.56 5.56 0 0 0-1.347-2.143 6.805 6.805 0 0 0-2.233-1.429 3.388 3.388 0 0 0 1.528-.771 5.234 5.234 0 0 0 1.152-1.43c.311-.584.546-1.209.697-1.857a8.554 8.554 0 0 0-.125-4.572 6.183 6.183 0 0 0-1.18-2.143 5.536 5.536 0 0 0-2.093-1.507A7.826 7.826 0 0 0 9.512.612H2.994C.85.612 0 2.39 0 4.584L.014 28.38zm18.144 0h5.54l1.62-7.251h5.84l1.285 7.25h5.582l-5.17-23.895C32.372 2.298 31.304.526 29.17.526h-1.396c-2.142 0-3.203 1.779-3.685 3.972L18.158 28.38zM25.96 17l1.863-9.73v-.086a.574.574 0 0 1 .193-.331.55.55 0 0 1 .71 0c.1.084.168.201.193.331V7.298l1.556 9.73L25.96 17zm32.219 11.38h5.54l1.62-7.251h5.84l1.285 7.25h5.582l-5.17-23.895C72.393 2.298 71.325.526 69.19.526h-1.396c-2.142 0-3.203 1.779-3.684 3.972L58.178 28.38zm7.823-11.373l1.863-9.73V7.19a.574.574 0 0 1 .193-.331.55.55 0 0 1 .71 0c.1.084.168.201.192.331V7.306l1.557 9.73-4.515-.03zm37.564-12.23h3.413c2.142 0 2.993-1.78 2.993-3.972V.533H94.976c-2.142 0-2.994 1.779-2.994 3.972v.272h6.406V28.35h5.164l.014-23.574z"/><path id="mb" d="M46.462 4.288a3.157 3.157 0 0 1 1.891.564c.539.413.947.98 1.173 1.629.285.818.422 1.682.404 2.55v11.302a5.372 5.372 0 0 1-.9 3.336 3.113 3.113 0 0 1-1.152.88 3.04 3.04 0 0 1-1.416.256 3.191 3.191 0 0 1-1.487-.246c-.47-.2-.888-.51-1.22-.905a5.36 5.36 0 0 1-.873-3.321V8.945a5.747 5.747 0 0 1 .873-3.443c.32-.412.735-.739 1.206-.95a3.103 3.103 0 0 1 1.501-.264zm-8.855 5.286v10.109a13.24 13.24 0 0 0 .663 4.422 7.103 7.103 0 0 0 1.835 2.857 7.074 7.074 0 0 0 2.791 1.579c2.338.63 4.794.63 7.132 0a6.444 6.444 0 0 0 2.833-1.62 6.663 6.663 0 0 0 1.71-2.824c.448-1.442.66-2.95.628-4.465V9.56a14.193 14.193 0 0 0-.628-4.48 7.257 7.257 0 0 0-1.78-2.943 6.896 6.896 0 0 0-2.79-1.614 11.745 11.745 0 0 0-3.539-.522c-1.204-.019-2.404.15-3.559.5a6.83 6.83 0 0 0-2.874 1.7 7.055 7.055 0 0 0-1.76 2.88 13.477 13.477 0 0 0-.655 4.479l-.007.014zm-3.392.036V8.224a9.602 9.602 0 0 0-.935-4.4 6.425 6.425 0 0 0-2.75-2.794 9.436 9.436 0 0 0-4.452-.979c-2.791 0-4.906.782-6.343 2.344-1.438 1.562-2.15 3.972-2.136 7.23v10.143a16.025 16.025 0 0 0 .356 3.536 8.122 8.122 0 0 0 1.298 2.965 6.24 6.24 0 0 0 2.568 2.036c1.332.539 2.756.796 4.188.757a9.767 9.767 0 0 0 3.998-.75 6.264 6.264 0 0 0 2.526-2.036 8.312 8.312 0 0 0 1.312-2.993c.262-1.171.388-2.37.377-3.572v-1.193h-5.164v1.486a9.612 9.612 0 0 1-.342 2.857 2.766 2.766 0 0 1-1.033 1.53 2.96 2.96 0 0 1-1.723.45 3.083 3.083 0 0 1-1.773-.444 2.646 2.646 0 0 1-1.005-1.514 10.265 10.265 0 0 1-.314-2.858V8.981c-.029-.94.082-1.88.328-2.786.16-.602.52-1.128 1.019-1.486a3.205 3.205 0 0 1 1.787-.436 3.11 3.11 0 0 1 1.765.436c.488.361.834.888.977 1.486.235.908.338 1.847.307 2.786v.615l5.164.014zM.021 4.516v23.882h14.543v-4.244h-9.4v-8.65h8.555V11.26H5.165V5.545c0-.429.174-.771.6-.771h5.806c2.143 0 2.994-1.78 2.994-3.972V.53H2.994C.85.53 0 2.31 0 4.51l.02.006z"/><path id="mc" d="M127.83 4.558H14.466a9.71 9.71 0 0 0-3.817.778c-1.216.521-2.32 1.28-3.252 2.236a10.24 10.24 0 0 0-2.178 3.321 10.433 10.433 0 0 0-.767 3.923v16.36c-.001 1.34.257 2.669.76 3.907 1.033 2.514 2.987 4.512 5.444 5.565 1.21.515 2.507.78 3.817.779h158.061a9.713 9.713 0 0 0 3.817-.779 10.083 10.083 0 0 0 3.252-2.236 10.232 10.232 0 0 0 2.177-3.318c.505-1.242.766-2.573.768-3.919V14.816a10.348 10.348 0 0 0-.761-3.908c-1.03-2.516-2.985-4.517-5.443-5.572a9.712 9.712 0 0 0-3.817-.778H127.83zM4.25 4.35a14.409 14.409 0 0 1 4.684-3.218A14.135 14.135 0 0 1 14.466 0h158.068c3.834.01 7.508 1.573 10.219 4.348 2.711 2.775 4.238 6.536 4.247 10.461v16.36c-.009 3.924-1.536 7.685-4.247 10.46-2.711 2.776-6.385 4.339-10.219 4.348H14.466c-3.832-.011-7.504-1.574-10.214-4.347C1.542 38.857.012 35.098 0 31.175V14.816c0-1.945.375-3.87 1.104-5.667A14.785 14.785 0 0 1 4.25 4.351z"/><path id="md" fill-rule="evenodd" d="M164.993 4.301h.53l.021-2.364h-.502a.827.827 0 0 0-.698.307 1.322 1.322 0 0 0-.244.836c-.004.215.034.428.111.628.062.171.169.322.308.436a.76.76 0 0 0 .474.157zm.53 5.23V5.959l-.446-.029-1.284 3.572h-2.31l1.696-4.08a2.097 2.097 0 0 1-.656-.564 2.743 2.743 0 0 1-.447-.85 3.37 3.37 0 0 1-.167-1.064 3.168 3.168 0 0 1 .167-1.036c.106-.312.269-.6.482-.85a2.255 2.255 0 0 1 .774-.571 2.494 2.494 0 0 1 1.04-.215h3.322v9.259h-2.171zm-8.423-.058h-2.093V.243l2.045.03v2.285c0 .184-.011.378-.025.583l-.017.253c-.021.3-.056.607-.098.922-.037.277-.068.548-.099.814l-.013.107c-.022.19-.044.37-.057.543-.008.1-.012.198-.012.293l1.835-5.8h2.093v9.186h-2.093V7.316c0-.25.014-.529.049-.822.035-.293.07-.6.118-.914l.133-.914c.042-.293.105-.565.105-.815L157.1 9.473zm-9.26-9.23h2.17V7.76h1.396V.272h2.17v7.451h.468v3.65h-2.094v-1.9h-4.11V.243zm-3.943 4.023h.531l.035-2.35h-.503a.811.811 0 0 0-.385.066.837.837 0 0 0-.313.24 1.322 1.322 0 0 0-.244.836 1.667 1.667 0 0 0 .112.629c.062.17.168.322.307.436a.768.768 0 0 0 .46.143zm.531 5.229V5.923l-.426.007-1.284 3.572h-2.31l1.696-4.08a2.108 2.108 0 0 1-.656-.564 2.764 2.764 0 0 1-.447-.85 3.44 3.44 0 0 1-.128-1.582c.028-.175.071-.349.128-.518a2.6 2.6 0 0 1 .482-.85c.215-.245.479-.44.774-.571a2.51 2.51 0 0 1 1.04-.215h3.301v9.223h-2.17zm-10.552-4.93V.209l5.667.064v9.201h-2.17V1.987h-1.431v3.179a17.745 17.745 0 0 1-.077 1.8 6.31 6.31 0 0 1-.237 1.257 2.363 2.363 0 0 1-.405.808 1.397 1.397 0 0 1-.593.42 2.217 2.217 0 0 1-.782.123 2.627 2.627 0 0 1-.425 0 2.687 2.687 0 0 1-.377-.094 3.821 3.821 0 0 1-.363-.142V7.78c.071.031.147.05.223.057h.307a.572.572 0 0 0 .301-.064.44.44 0 0 0 .188-.25c.058-.175.093-.358.105-.543.026-.151.044-.32.056-.507.009-.149.013-.308.013-.479V4.566zm-4.529-2.785a.833.833 0 0 0-.356-.08l.008.065a.85.85 0 0 0-.349.015.663.663 0 0 0-.369.472.792.792 0 0 0-.022.206v4.68a.92.92 0 0 0 .111.457.705.705 0 0 0 .629.355.711.711 0 0 0 .628-.356.88.88 0 0 0 .118-.457V2.458a.77.77 0 0 0-.118-.428.706.706 0 0 0-.28-.25zM127.666.2a3.983 3.983 0 0 1 1.325-.2l.021.065c.44.003.876.08 1.291.229.339.115.649.306.908.557a2.228 2.228 0 0 1 .523.828 2.983 2.983 0 0 1 .167 1.015v4.05a3.625 3.625 0 0 1-.307 1.572c-.201.43-.538.78-.956.993a4.153 4.153 0 0 1-3.314 0 2.116 2.116 0 0 1-.963-.993 3.568 3.568 0 0 1-.314-1.572v-4.15a2.913 2.913 0 0 1 .174-1.022c.114-.31.296-.592.53-.821.263-.249.575-.437.915-.55zm-6.33 2.044a3.633 3.633 0 0 0-.07.778l-1.967.05a3.754 3.754 0 0 1 .209-1.278c.124-.354.319-.678.572-.95.243-.26.538-.462.865-.593a2.84 2.84 0 0 1 1.082-.2c.39-.005.778.063 1.145.2.314.117.601.3.844.536.226.218.405.484.523.778.12.295.181.61.182.929.009.329-.034.657-.126.972-.076.27-.218.515-.412.714a2.451 2.451 0 0 1-.739.478c.219.078.431.174.635.286.188.106.356.246.495.415a1.776 1.776 0 0 1 .321.664c.086.333.126.677.119 1.021.007.408-.065.814-.21 1.194-.126.323-.327.61-.586.835-.264.23-.573.4-.907.5-.383.114-.78.17-1.179.165a3.893 3.893 0 0 1-.81-.079 2.8 2.8 0 0 1-.774-.286 2.224 2.224 0 0 1-.649-.543 2.492 2.492 0 0 1-.447-.85 4.1 4.1 0 0 1-.167-1.221h1.995c-.008.27.022.54.091.8a.718.718 0 0 0 .265.407.688.688 0 0 0 .412.114c.159.01.317-.03.454-.114a.71.71 0 0 0 .258-.407c.06-.262.086-.531.077-.8a1.504 1.504 0 0 0-.217-.929.873.873 0 0 0-.74-.278h-.313V3.808h.516a.5.5 0 0 0 .307-.114.86.86 0 0 0 .244-.343 1.45 1.45 0 0 0 .098-.557 2.132 2.132 0 0 0-.077-.6.787.787 0 0 0-.237-.393.688.688 0 0 0-.851 0 .822.822 0 0 0-.231.443zm-8.737 7.194V.208l2.045.064v2.286c0 .24-.018.499-.038.776l-.004.06c-.021.3-.056.607-.098.922l-.053.42-.058.501c-.035.3-.07.579-.07.836l1.835-5.8h2.094v9.15h-2.094V7.28c0-.25.014-.528.049-.821l.011-.094c.032-.265.064-.54.108-.82l.132-.915.04-.252c.034-.198.065-.386.065-.563l-1.87 5.623h-2.094zm-3.698-7.594a.84.84 0 0 0-.356-.079.837.837 0 0 0-.342.079.657.657 0 0 0-.279.25.805.805 0 0 0-.112.428v4.68a.921.921 0 0 0 .112.457.704.704 0 0 0 .628.355.704.704 0 0 0 .628-.355.88.88 0 0 0 .118-.457v-4.68a.77.77 0 0 0-.118-.428.705.705 0 0 0-.279-.25zM107.219.265a3.991 3.991 0 0 1 1.326-.2c.447 0 .89.078 1.312.229.338.115.648.306.907.557.232.233.411.516.523.828a2.993 2.993 0 0 1 .168 1.015v4.115c.015.54-.09 1.078-.307 1.571a2.12 2.12 0 0 1-.956.993 4.161 4.161 0 0 1-3.315 0 2.084 2.084 0 0 1-.524-.374 2.15 2.15 0 0 1-.439-.619 3.581 3.581 0 0 1-.314-1.571v-4.15a2.933 2.933 0 0 1 .174-1.022 2.203 2.203 0 0 1 .531-.822 2.467 2.467 0 0 1 .914-.55zM98.775 4.63V.272h5.66v9.216h-2.171V2h-1.388V5.18a17.975 17.975 0 0 1-.077 1.8 6.317 6.317 0 0 1-.237 1.258 2.363 2.363 0 0 1-.412.807 1.398 1.398 0 0 1-.593.421 2.224 2.224 0 0 1-.782.122 2.634 2.634 0 0 1-.426 0 2.756 2.756 0 0 1-.377-.093 3.898 3.898 0 0 1-.362-.143V7.795c.07.03.146.05.223.057h.307a.566.566 0 0 0 .3-.065.44.44 0 0 0 .189-.25c.057-.175.092-.358.104-.543a8.35 8.35 0 0 0 .042-.935v-1.43zM90.01 9.51h-5.052V.271h5.045v1.75h-2.875v1.815h2.575v1.779h-2.568v2.143h2.875v1.75zm-5.89-7.488h-1.612l.014 7.487h-1.995V2.022h-1.71V.272h5.304v1.75zm-12.142 2.28h.53l.028-2.365h-.502a.813.813 0 0 0-.698.307 1.313 1.313 0 0 0-.244.836c-.004.215.034.428.112.628.061.171.168.322.306.436a.77.77 0 0 0 .468.157zm.53 5.229V5.959l-.425-.029-1.284 3.572h-2.31l1.696-4.08a2.106 2.106 0 0 1-.656-.564 2.747 2.747 0 0 1-.447-.85 3.394 3.394 0 0 1 0-2.1c.106-.312.27-.6.482-.85.215-.245.479-.44.774-.571a2.492 2.492 0 0 1 1.04-.215h3.3v9.259h-2.17zm-7.627-7.602l-.565 4.065h1.144l-.579-4.065zm-3.224 7.58l1.96-9.23h2.61l1.997 9.23h-2.136l-.328-1.85H64.1l-.28 1.85h-2.163zM55.202.28h2.17v3.565h1.396V.272h2.17v9.201h-2.17V5.552h-1.396v3.957h-2.17V.28zm-7.027 3.294V.279h2.184v3.1a.726.726 0 0 0 .146.486.599.599 0 0 0 .454.158 1.885 1.885 0 0 0 .433-.043c.133-.03.261-.075.384-.136V.272h2.17v9.28h-2.17V5.63l-.335.079-.342.057h-.97c-.172 0-.344-.025-.51-.072a1.978 1.978 0 0 1-.523-.235 1.83 1.83 0 0 1-.46-.415 1.98 1.98 0 0 1-.336-.621 2.737 2.737 0 0 1-.125-.85zm-6.818 5.936V.28L43.4.272v2.286c0 .257-.02.536-.041.836-.021.3-.056.607-.098.922-.042.314-.077.621-.112.921-.035.3-.07.579-.07.836l1.836-5.8h2.093v9.222h-2.093V7.352c0-.25.014-.529.049-.822.035-.293.07-.6.118-.914l.133-.915c.042-.293.105-.564.105-.814l-1.87 5.622h-2.094zm-5.995 0V.28l5.046-.007v1.75h-2.875V9.51h-2.17zm-3.74-7.658a.831.831 0 0 0-.356-.079l.014-.007a.835.835 0 0 0-.356.086.66.66 0 0 0-.279.25.808.808 0 0 0-.112.429v4.679a.919.919 0 0 0 .112.457.706.706 0 0 0 .628.356.7.7 0 0 0 .628-.356.867.867 0 0 0 .119-.457v-4.68a.77.77 0 0 0-.119-.428.701.701 0 0 0-.28-.25zM29.94.272a3.986 3.986 0 0 1 1.326-.2l.028-.007c.44.003.876.08 1.29.229.34.115.649.306.908.557.233.233.411.516.524.828.114.326.17.67.167 1.015v4.143c.015.541-.09 1.079-.307 1.572a2.119 2.119 0 0 1-.963.972 4.173 4.173 0 0 1-1.657.345 4.16 4.16 0 0 1-1.658-.345 2.12 2.12 0 0 1-.963-.994 3.578 3.578 0 0 1-.314-1.571v-4.15a2.92 2.92 0 0 1 .175-1.022 2.22 2.22 0 0 1 .53-.822c.262-.248.574-.436.914-.55zm-8.444 4.365V.279l5.702-.007v9.223h-2.17V2.008h-1.431v3.179c.005.601-.021 1.202-.077 1.8a6.29 6.29 0 0 1-.237 1.258 2.358 2.358 0 0 1-.412.807 1.397 1.397 0 0 1-.593.421 2.218 2.218 0 0 1-.782.122 2.58 2.58 0 0 1-.425 0 2.743 2.743 0 0 1-.377-.093 3.813 3.813 0 0 1-.363-.143V7.802c.071.03.146.05.223.057h.307a.568.568 0 0 0 .3-.064.442.442 0 0 0 .189-.25c.057-.176.093-.358.104-.543.015-.122.025-.263.032-.423.007-.153.01-.324.01-.513V4.637zm-4.529-2.786a.832.832 0 0 0-.356-.079l.028-.007a.833.833 0 0 0-.37.086.66.66 0 0 0-.279.25.807.807 0 0 0-.111.429v4.679a.918.918 0 0 0 .111.457.719.719 0 0 0 .28.272.776.776 0 0 0 .348.084.705.705 0 0 0 .628-.356.879.879 0 0 0 .12-.457v-4.68a.77.77 0 0 0-.12-.428.7.7 0 0 0-.279-.25zM15.286.272a3.986 3.986 0 0 1 1.325-.2l.035-.007a3.9 3.9 0 0 1 1.277.229c.339.115.649.306.908.557.232.233.41.516.523.828.114.326.17.67.168 1.015v4.122a3.654 3.654 0 0 1-.308 1.571 2.12 2.12 0 0 1-.956.994 4.162 4.162 0 0 1-3.314 0 2.12 2.12 0 0 1-.963-.994 3.578 3.578 0 0 1-.314-1.571v-4.15a2.917 2.917 0 0 1 .174-1.022c.114-.311.296-.592.53-.822.263-.248.575-.436.915-.55zM6.98.28h2.094l.035 3.68L10.63.279h2.33l-1.995 4.08 1.996 5.157h-2.29L9.669 6.302l-.593 1.064v2.143H6.98V.28zM2.138 2.494v.771L.01 3.287v-.565a2.92 2.92 0 0 1 .174-1.014c.114-.315.295-.601.53-.836A2.45 2.45 0 0 1 1.63.308 3.845 3.845 0 0 1 2.948.1c.45-.008.897.06 1.326.2.34.113.652.3.914.55.235.229.417.51.53.821a3 3 0 0 1 .168 1.022v4a3.974 3.974 0 0 1-.321 1.715c-.2.441-.546.795-.977 1a3.796 3.796 0 0 1-1.647.314 3.748 3.748 0 0 1-1.654-.314 2.028 2.028 0 0 1-.97-.979 4.003 4.003 0 0 1-.314-1.714v-.593H2.18v.886c-.005.191.03.381.105.557a.657.657 0 0 0 .279.307.85.85 0 0 0 .412.093.68.68 0 0 0 .537-.221c.145-.208.217-.46.202-.715V5.552H2.557V3.844h1.124V2.465a.726.726 0 0 0-.112-.392.645.645 0 0 0-.28-.23.835.835 0 0 0-.355-.07.884.884 0 0 0-.524.178.713.713 0 0 0-.195.221c-.05.1-.076.21-.077.322zm88.807 7.015V.272h5.771V9.51H94.54V2.023h-1.416v7.486h-2.178z"/></defs></symbol><symbol viewBox="0 0 190 60" id="logo_footer" xmlns="http://www.w3.org/2000/svg"><title>logo</title><desc>Created using Figma</desc><g transform="translate(-2740 -1990)"><use xlink:href="#na" transform="translate(2752.27 1998.45)" fill="#BDBDBD"/><use xlink:href="#nb" transform="translate(2865.71 1998.46)" fill="#BDBDBD"/><use xlink:href="#nc" transform="translate(2740 1990)" fill="#BDBDBD"/><use xlink:href="#nd" transform="translate(2750.16 2038.63)" fill="#BDBDBD"/><use xlink:href="#ne" transform="translate(2842.57 2038.9)" fill="#BDBDBD"/></g><defs><path id="na" d="M86.73.533h-2.206c-2.177 0-3.042 1.779-3.042 3.972v23.882h14.776v-4.244H86.73V.533zM56.95 9.327v-.85a10.382 10.382 0 0 0-.958-4.672A6.322 6.322 0 0 0 53.213.948 9.596 9.596 0 0 0 48.76.005a10.682 10.682 0 0 0-3.29.478 7.323 7.323 0 0 0-2.58 1.429 6.24 6.24 0 0 0-1.688 2.264 7.616 7.616 0 0 0-.603 3.065 7.904 7.904 0 0 0 1.036 4.036 9.523 9.523 0 0 0 3.098 3.136l4.673 3.087c.575.363 1.117.779 1.616 1.242.396.375.717.824.943 1.322.217.505.323 1.05.312 1.6a3.393 3.393 0 0 1-.361 1.579c-.235.468-.6.858-1.05 1.122a3.305 3.305 0 0 1-1.687.421 4.225 4.225 0 0 1-1.418-.221 2.967 2.967 0 0 1-1.227-.772 3.7 3.7 0 0 1-.85-1.5 7.977 7.977 0 0 1-.32-2.415V18.8h-5.013v1.078c-.047 1.69.29 3.37.986 4.908a6.986 6.986 0 0 0 2.963 3.136 10.048 10.048 0 0 0 4.893 1.1c1.6.045 3.19-.275 4.651-.935a6.457 6.457 0 0 0 2.872-2.687 8.56 8.56 0 0 0 .978-4.207 10.073 10.073 0 0 0-.326-2.708 6.741 6.741 0 0 0-.936-2.029 8.415 8.415 0 0 0-1.482-1.628 20.387 20.387 0 0 0-1.964-1.465l-5.36-3.572a5.125 5.125 0 0 1-.95-.778 2.86 2.86 0 0 1-.603-.993 4.092 4.092 0 0 1-.213-1.429c-.007-.465.132-.92.397-1.3a2.378 2.378 0 0 1 1.007-.793c.45-.182.933-.272 1.418-.264a3.123 3.123 0 0 1 1.773.478c.53.372.923.91 1.12 1.529a7.97 7.97 0 0 1 .397 2.736v.307l4.978.043zM5.26 15.807h3.368a2.46 2.46 0 0 1 2.19 1.114c.533.967.779 2.068.71 3.172a8.173 8.173 0 0 1-.32 2.507 2.6 2.6 0 0 1-.97 1.386 2.82 2.82 0 0 1-1.624.421H5.254l.007-8.6zm0-10.53c0-.429.177-.772.61-.772h2.226c.65-.03 1.297.107 1.88.4.463.262.817.683.999 1.186a5.49 5.49 0 0 1 .29 1.965c.07.99-.2 1.973-.765 2.786-.311.347-.697.617-1.13.79a2.993 2.993 0 0 1-1.359.203H5.254V5.277h.007zM.014 28.379H10.58a6.188 6.188 0 0 0 2.78-.614 5.378 5.378 0 0 0 1.97-1.707 7.885 7.885 0 0 0 1.177-2.608c.27-1.086.402-2.202.39-3.322a9.35 9.35 0 0 0-.46-3.107 5.548 5.548 0 0 0-1.369-2.143 6.927 6.927 0 0 0-2.269-1.429 3.464 3.464 0 0 0 1.553-.771 5.25 5.25 0 0 0 1.17-1.43c.316-.584.554-1.209.709-1.857a8.427 8.427 0 0 0-.128-4.572 6.158 6.158 0 0 0-1.198-2.143 5.623 5.623 0 0 0-2.127-1.507A8.065 8.065 0 0 0 9.664.612H3.042C.865.612 0 2.39 0 4.584l.014 23.795zm18.435 0h5.63l1.645-7.25h5.934l1.305 7.25h5.672L33.381 4.484C32.892 2.298 31.807.526 29.638.526H28.22c-2.177 0-3.255 1.779-3.744 3.972l-6.027 23.881zM26.376 17l1.893-9.73v-.085a.573.573 0 0 1 .557-.461.565.565 0 0 1 .556.461V7.298l1.581 9.73-4.587-.029zm32.736 11.38h5.63l1.645-7.25h5.934l1.305 7.25h5.672L74.044 4.484C73.555 2.298 72.47.526 70.302.526h-1.418c-2.177 0-3.255 1.779-3.744 3.972l-6.027 23.881zm7.949-11.372l1.893-9.73V7.19a.573.573 0 0 1 .556-.461.565.565 0 0 1 .557.461V7.305l1.58 9.73-4.587-.028zm38.167-12.23h3.467c2.177 0 3.042-1.78 3.042-3.972V.533H96.5c-2.177 0-3.042 1.779-3.042 3.972v.272h6.509V28.35h5.247l.014-23.574z"/><path id="nb" d="M47.208 4.288a3.244 3.244 0 0 1 1.921.564c.547.413.962.98 1.191 1.629.29.818.43 1.682.411 2.55v11.301a5.308 5.308 0 0 1-.914 3.337 3.133 3.133 0 0 1-2.61 1.136 3.29 3.29 0 0 1-2.75-1.15 5.294 5.294 0 0 1-.887-3.323V8.945a5.676 5.676 0 0 1 .886-3.443 3.222 3.222 0 0 1 1.227-.95 3.198 3.198 0 0 1 1.525-.264zM38.21 9.574v10.108a13.047 13.047 0 0 0 .673 4.422 7.09 7.09 0 0 0 1.865 2.858 7.217 7.217 0 0 0 2.836 1.579c2.375.629 4.872.629 7.247 0a6.575 6.575 0 0 0 2.878-1.621 6.645 6.645 0 0 0 1.737-2.823c.456-1.443.672-2.951.639-4.465V9.56a13.984 13.984 0 0 0-.639-4.48 7.238 7.238 0 0 0-1.807-2.943A7.034 7.034 0 0 0 50.801.523a12.11 12.11 0 0 0-3.594-.522 11.97 11.97 0 0 0-3.617.5 6.965 6.965 0 0 0-2.92 1.7 7.037 7.037 0 0 0-1.788 2.88 13.278 13.278 0 0 0-.666 4.479l-.007.014zm-3.446.036V8.224a9.475 9.475 0 0 0-.95-4.4A6.476 6.476 0 0 0 31.02 1.03a9.716 9.716 0 0 0-4.523-.979c-2.837 0-4.985.782-6.445 2.344-1.461 1.562-2.184 3.972-2.17 7.23v10.143a15.769 15.769 0 0 0 .361 3.536 8.059 8.059 0 0 0 1.32 2.965 6.323 6.323 0 0 0 2.609 2.036c1.352.539 2.8.796 4.254.757a10.066 10.066 0 0 0 4.063-.75 6.346 6.346 0 0 0 2.566-2.036 8.247 8.247 0 0 0 1.333-2.993c.266-1.172.395-2.37.383-3.572v-1.193h-5.247v1.486a9.468 9.468 0 0 1-.347 2.857 2.765 2.765 0 0 1-1.05 1.53 3.045 3.045 0 0 1-1.75.45 3.172 3.172 0 0 1-1.802-.444 2.644 2.644 0 0 1-1.02-1.514 10.107 10.107 0 0 1-.32-2.858V8.981a9.35 9.35 0 0 1 .333-2.786 2.664 2.664 0 0 1 1.035-1.486 3.298 3.298 0 0 1 1.816-.436 3.2 3.2 0 0 1 1.793.436c.496.361.848.888.993 1.486.239.908.344 1.847.312 2.786v.614l5.247.015zM.021 4.516v23.882h14.777v-4.244H5.247v-8.65h8.693V11.26H5.247V5.545c0-.429.177-.772.61-.772h5.899c2.176 0 3.042-1.778 3.042-3.971V.53H3.042C.865.53 0 2.31 0 4.51l.021.006z"/><path id="nc" d="M129.881 4.558H14.698a10.003 10.003 0 0 0-3.878.778 10.255 10.255 0 0 0-3.304 2.236c-.948.95-1.7 2.078-2.214 3.321a10.289 10.289 0 0 0-.778 3.923v16.36a10.21 10.21 0 0 0 .772 3.907 10.363 10.363 0 0 0 5.531 5.565c1.229.515 2.547.78 3.878.778h160.597a10.003 10.003 0 0 0 3.878-.778 10.248 10.248 0 0 0 3.304-2.236 10.267 10.267 0 0 0 2.992-7.237V14.816a10.206 10.206 0 0 0-.772-3.908 10.363 10.363 0 0 0-5.531-5.572 10.002 10.002 0 0 0-3.878-.778h-45.414zM4.318 4.35a14.65 14.65 0 0 1 4.76-3.218A14.56 14.56 0 0 1 14.698 0h160.604a14.68 14.68 0 0 1 10.383 4.348A14.901 14.901 0 0 1 190 14.808v16.36a14.901 14.901 0 0 1-4.315 10.461 14.68 14.68 0 0 1-10.383 4.348H14.698A14.686 14.686 0 0 1 4.32 41.63 14.908 14.908 0 0 1 0 31.175V14.816c0-1.945.381-3.87 1.122-5.667a14.766 14.766 0 0 1 3.196-4.798z"/><path id="nd" d="M168.179 4.301h-.539a.79.79 0 0 1-.482-.157 1.01 1.01 0 0 1-.312-.436 1.667 1.667 0 0 1-.114-.628c-.015-.3.073-.595.249-.836a.842.842 0 0 1 .709-.307h.51l-.021 2.364zm0 1.658V9.53h2.205V.272h-3.375a2.569 2.569 0 0 0-1.056.215 2.29 2.29 0 0 0-.788.571c-.215.25-.381.538-.489.85a3.346 3.346 0 0 0 0 2.1c.1.309.254.597.454.85.181.233.408.425.667.565l-1.723 4.079h2.346l1.305-3.572.454.029zM157.494.244v9.23h2.127l1.9-5.623c0 .25-.064.522-.106.815l-.135.914c-.05.314-.085.621-.121.914a6.966 6.966 0 0 0-.049.822v2.143h2.127V.272h-2.127l-1.865 5.8c0-.256.036-.535.071-.835.035-.3.071-.607.113-.921.043-.315.078-.622.1-.922.021-.3.042-.579.042-.836V.272l-2.077-.028zm-5.077 0h-2.205v9.23h4.176v1.9h2.127v-3.65h-.475V.271h-2.205V7.76h-1.418V.244zm-5.672 4.022h-.539a.79.79 0 0 1-.468-.143 1.01 1.01 0 0 1-.312-.436 1.647 1.647 0 0 1-.113-.629c-.016-.299.072-.594.248-.836a.842.842 0 0 1 .709-.307h.51l-.035 2.35zm0 1.657v3.572h2.205V.272h-3.354a2.569 2.569 0 0 0-1.056.215c-.3.131-.569.326-.787.571-.216.25-.382.538-.49.85a3.145 3.145 0 0 0-.17 1.036c-.001.362.057.721.17 1.064.1.309.254.597.454.85.181.233.408.425.667.565l-1.723 4.079h2.347l1.304-3.572.433-.007zM136.024.208v5.786c0 .386-.023.715-.071.986a2.183 2.183 0 0 1-.106.543.44.44 0 0 1-.192.25.583.583 0 0 1-.304.064h-.312a.76.76 0 0 1-.227-.057v1.558c.12.053.243.101.368.142.126.04.254.071.383.093.144.012.289.012.433 0 .27.007.538-.034.794-.121.234-.085.442-.23.603-.422.188-.239.327-.513.411-.807.123-.41.204-.83.241-1.257.057-.598.083-1.2.078-1.8v-3.18h1.453v7.487h2.206v-9.2l-5.758-.065zM131.061 1.7c.125 0 .248.026.362.079a.708.708 0 0 1 .283.25.764.764 0 0 1 .121.428v4.68a.873.873 0 0 1-.121.457.713.713 0 0 1-.638.355.713.713 0 0 1-.638-.356.902.902 0 0 1-.114-.457V2.458a.798.798 0 0 1 .114-.428.67.67 0 0 1 .283-.25.861.861 0 0 1 .355-.015l-.007-.064zm0-1.7a4.11 4.11 0 0 0-1.347.2 2.504 2.504 0 0 0-.929.55c-.239.23-.423.51-.539.821-.12.327-.18.673-.177 1.022v4.15c-.016.542.093 1.08.319 1.572.207.432.551.782.978.993a4.287 4.287 0 0 0 3.368 0c.425-.213.767-.562.972-.993.22-.493.327-1.03.312-1.572v-4.05a2.945 2.945 0 0 0-.171-1.014 2.244 2.244 0 0 0-.531-.83 2.49 2.49 0 0 0-.922-.556 4.016 4.016 0 0 0-1.312-.229l-.021-.064zm-7.849 3.022a3.51 3.51 0 0 1 .071-.78.813.813 0 0 1 .234-.442.705.705 0 0 1 .865 0c.117.104.201.24.241.393.055.195.081.397.078.6.004.19-.03.38-.099.557a.872.872 0 0 1-.249.343.513.513 0 0 1-.312.114h-.524v1.743h.319a.885.885 0 0 1 .751.279c.174.276.251.603.22.929.01.269-.017.538-.078.8a.711.711 0 0 1-.262.407.797.797 0 0 1-.461.114.703.703 0 0 1-.418-.114.716.716 0 0 1-.27-.407c-.07-.26-.101-.53-.092-.8h-2.028c-.006.413.052.825.17 1.221.095.31.249.6.454.85.183.222.407.407.66.543.247.134.512.23.787.286.27.055.546.08.822.079.405.005.809-.05 1.198-.165.339-.1.653-.27.922-.5.263-.226.467-.512.596-.836.147-.38.219-.785.212-1.193a3.743 3.743 0 0 0-.12-1.021 1.776 1.776 0 0 0-.326-.664 1.778 1.778 0 0 0-.504-.415 4.362 4.362 0 0 0-.645-.286c.277-.112.532-.274.752-.478.196-.2.34-.445.418-.715a3.1 3.1 0 0 0 .128-.971 2.445 2.445 0 0 0-.185-.929 2.257 2.257 0 0 0-.531-.778 2.482 2.482 0 0 0-.858-.536 3.265 3.265 0 0 0-1.163-.2 2.92 2.92 0 0 0-1.099.2 2.444 2.444 0 0 0-.879.593 2.692 2.692 0 0 0-.582.95c-.145.41-.217.843-.213 1.279l2-.05zM114.406.208v9.23h2.127l1.9-5.623c0 .25-.064.522-.106.815l-.135.914c-.05.315-.085.622-.121.915a6.966 6.966 0 0 0-.049.821v2.143h2.127V.273h-2.127l-1.865 5.8c0-.257.035-.536.071-.836.035-.3.071-.607.113-.921.043-.315.078-.622.1-.922.021-.3.042-.579.042-.836V.272l-2.077-.064zm-4.12 1.557c.125 0 .248.027.362.079a.708.708 0 0 1 .283.25.764.764 0 0 1 .121.428v4.68a.864.864 0 0 1-.121.457.707.707 0 0 1-.283.271.791.791 0 0 1-.709 0 .716.716 0 0 1-.284-.271.911.911 0 0 1-.113-.457v-4.68a.797.797 0 0 1 .113-.428.668.668 0 0 1 .284-.25.857.857 0 0 1 .347-.079zm0-1.7a4.11 4.11 0 0 0-1.347.2 2.52 2.52 0 0 0-.929.55c-.238.23-.423.51-.539.822-.12.326-.18.673-.177 1.021v4.15c-.015.542.094 1.08.319 1.572.207.432.551.782.979.993a4.28 4.28 0 0 0 3.368 0c.424-.212.766-.562.971-.993a3.6 3.6 0 0 0 .312-1.571V2.694a2.944 2.944 0 0 0-.17-1.014 2.247 2.247 0 0 0-.532-.83 2.483 2.483 0 0 0-.922-.556 4.012 4.012 0 0 0-1.333-.229zm-9.926.207V6.06c0 .385-.014.697-.043.935a2.183 2.183 0 0 1-.106.543.44.44 0 0 1-.192.25.583.583 0 0 1-.305.065h-.311a.761.761 0 0 1-.227-.057v1.557c.12.054.243.101.368.143.126.04.254.07.383.093.144.011.289.011.433 0 .269.006.538-.035.794-.122.234-.085.442-.23.603-.421a2.36 2.36 0 0 0 .418-.808c.123-.41.204-.83.241-1.257.057-.598.083-1.2.078-1.8V2h1.411v7.487h2.205V.272h-5.75zM86.32 9.51h5.134v-1.75h-2.921V5.616h2.61v-1.78h-2.617V2.023h2.921V.272h-5.126V9.51zm-2.488-7.487h1.638V.272h-5.389v1.75h1.737V9.51h2.028l-.014-7.487zm-10.16 2.28h-.54a.79.79 0 0 1-.474-.158 1.007 1.007 0 0 1-.312-.436 1.653 1.653 0 0 1-.114-.628c-.015-.3.073-.595.249-.836a.844.844 0 0 1 .709-.307h.51L73.672 4.3zm0 1.657V9.53h2.205V.272h-3.354a2.57 2.57 0 0 0-1.056.215c-.3.131-.569.326-.787.571-.216.25-.382.538-.49.85a3.343 3.343 0 0 0 0 2.1c.1.309.254.597.454.85.181.233.408.425.667.565l-1.723 4.079h2.347l1.304-3.572.433.029zm-8.324.035l.574-4.064.588 4.064h-1.162zM64.638.28l-1.992 9.23h2.198l.284-1.85h1.687l.334 1.85h2.17L67.29.279h-2.652zm-6.345 0h-2.205v9.23h2.205V5.551h1.418v3.922h2.205v-9.2H59.71v3.571h-1.418V.28zm-9.345 0v3.294c-.003.288.04.575.127.85.076.226.19.436.34.621.132.164.29.304.468.415.166.103.345.183.532.235.169.047.343.071.518.072H51.918l.348-.057.34-.079v3.922h2.205V.272h-2.205v3.572c-.124.06-.255.107-.39.136-.144.03-.292.045-.44.043a.605.605 0 0 1-.46-.158.718.718 0 0 1-.15-.485V.28h-2.218zm-6.928 0v9.23h2.127l1.9-5.622c0 .25-.063.521-.106.814l-.134.915c-.05.314-.086.621-.12.914-.036.293-.05.572-.05.822v2.143h2.127V.272h-2.128l-1.864 5.8c0-.256.035-.535.07-.835.036-.3.072-.607.114-.921.042-.315.078-.622.1-.922.02-.3.042-.579.042-.836V.272L42.02.28zm-6.09 0v9.23h2.205V2.022h2.921V.272L35.93.28zm-4.162 1.493a.86.86 0 0 1 .361.079.71.71 0 0 1 .284.25.762.762 0 0 1 .12.429v4.679a.87.87 0 0 1-.12.457.711.711 0 0 1-.284.271.79.79 0 0 1-.709 0 .71.71 0 0 1-.283-.271.906.906 0 0 1-.114-.457v-4.68a.797.797 0 0 1 .114-.428.668.668 0 0 1 .283-.25.86.86 0 0 1 .362-.086l-.014.007zm0-1.7a4.113 4.113 0 0 0-1.348.2 2.513 2.513 0 0 0-.928.55c-.239.23-.423.51-.54.822-.12.327-.18.673-.176 1.021v4.15a3.53 3.53 0 0 0 .319 1.572c.206.432.55.782.978.993a4.283 4.283 0 0 0 3.368 0c.424-.205.768-.547.978-.971.221-.493.328-1.03.313-1.572V2.694a2.944 2.944 0 0 0-.17-1.014 2.245 2.245 0 0 0-.532-.83 2.486 2.486 0 0 0-.922-.556 4.015 4.015 0 0 0-1.312-.229l-.028.007zM21.84.28v5.787c0 .386-.014.697-.042.936a2.156 2.156 0 0 1-.107.542.442.442 0 0 1-.191.25.585.585 0 0 1-.305.065h-.312a.761.761 0 0 1-.227-.057v1.557c.12.054.244.102.369.143.125.04.253.07.383.093.144.011.288.011.432 0 .27.006.539-.035.794-.122.234-.084.442-.23.603-.421a2.34 2.34 0 0 0 .418-.807c.124-.41.205-.831.241-1.258.057-.598.083-1.199.078-1.8V2.008h1.454v7.487h2.205V.272L21.841.28zm-4.963 1.493a.86.86 0 0 1 .362.079.71.71 0 0 1 .283.25.762.762 0 0 1 .12.429v4.679a.87.87 0 0 1-.12.457.711.711 0 0 1-.283.271.79.79 0 0 1-.71 0 .711.711 0 0 1-.283-.271.905.905 0 0 1-.113-.457v-4.68a.798.798 0 0 1 .113-.428.668.668 0 0 1 .284-.25.86.86 0 0 1 .375-.086l-.028.007zm0-1.7a4.112 4.112 0 0 0-1.347.2 2.513 2.513 0 0 0-.929.55c-.239.23-.423.51-.539.822-.12.327-.18.673-.177 1.021v4.15c-.016.543.094 1.08.319 1.572.207.432.551.782.978.993a4.283 4.283 0 0 0 3.368 0c.425-.212.767-.562.972-.993.22-.493.327-1.03.312-1.571V2.694a2.942 2.942 0 0 0-.17-1.014 2.245 2.245 0 0 0-.532-.83 2.486 2.486 0 0 0-.922-.556 4.015 4.015 0 0 0-1.298-.229l-.035.007zM9.22.28H7.093v9.23H9.22V7.366l.603-1.064 1.021 3.214h2.326l-2.028-5.158L13.17.28h-2.368L9.256 3.96 9.22.278zM2.173 3.265v-.771c0-.112.027-.222.078-.322a.713.713 0 0 1 .198-.221.91.91 0 0 1 .893-.107.653.653 0 0 1 .284.228.718.718 0 0 1 .114.393v1.38H2.598V5.55h1.177v1.48a1.12 1.12 0 0 1-.206.714.709.709 0 0 1-.546.221.874.874 0 0 1-.418-.093.655.655 0 0 1-.284-.307 1.309 1.309 0 0 1-.106-.557v-.886H.003v.593A3.948 3.948 0 0 0 .322 8.43c.205.433.554.779.986.979a3.86 3.86 0 0 0 1.68.314 3.91 3.91 0 0 0 1.673-.314 2.05 2.05 0 0 0 .993-1c.236-.54.348-1.126.326-1.715v-4a2.956 2.956 0 0 0-.17-1.022A2.187 2.187 0 0 0 5.27.851 2.499 2.499 0 0 0 4.342.3 4.14 4.14 0 0 0 2.995.1a3.957 3.957 0 0 0-1.34.207 2.5 2.5 0 0 0-.929.564 2.26 2.26 0 0 0-.539.836c-.12.325-.18.668-.177 1.014v.565l2.163-.022z"/><path id="ne" d="M0 0v9.237h2.212V1.75h1.44v7.487h2.212V0H0z"/></defs></symbol><symbol viewBox="0 0 512 512" id="ok" xmlns="http://www.w3.org/2000/svg"><path fill="#f48420" d="M0 0h512v512H0z"/><g transform="matrix(1.357 0 0 1.357 -1327.868 -536.343)" fill="#fff"><path d="M1167.189 585.718c41.202 0 74.598-33.401 74.598-74.604 0-41.202-33.396-74.604-74.598-74.604-41.208 0-74.604 33.402-74.604 74.604s33.396 74.604 74.604 74.604zm0-111.306c20.266 0 36.702 16.43 36.702 36.702s-16.436 36.702-36.702 36.702c-20.272 0-36.708-16.43-36.708-36.702s16.436-36.702 36.708-36.702z"/><path d="M1221.803 591.534c-20.958 16.515-54.614 16.515-54.614 16.515s-33.663 0-54.619-16.515c-15.504-12.214-27.17-5.18-31.38 3.288-7.343 14.748.951 21.879 19.677 33.896 15.994 10.27 37.966 14.105 52.154 15.538l-11.847 11.845c-16.685 16.679-32.788 32.786-43.96 43.96-6.681 6.677-6.681 17.515 0 24.192l2.016 2.014c6.683 6.682 17.514 6.682 24.191 0l43.965-43.958 43.96 43.958c6.681 6.682 17.511 6.682 24.195 0l2.015-2.014c6.678-6.687 6.678-17.515 0-24.193l-43.968-43.965-11.88-11.88c14.201-1.46 35.94-5.313 51.796-15.498 18.723-12.017 27.022-19.148 19.677-33.896-4.209-8.465-15.88-15.501-31.377-3.287z"/></g></symbol><symbol viewBox="0 0 8 15" id="pagination" xmlns="http://www.w3.org/2000/svg"><title>Vector 2.4</title><desc>Created using Figma</desc><use xlink:href="#pa"/><defs><path id="pa" d="M8 7.5L0 0v15l8-7.5z"/></defs></symbol><symbol viewBox="0 0 40 15" id="picom" xmlns="http://www.w3.org/2000/svg"><title>Vector</title><desc>Created using Figma</desc><use xlink:href="#qa" fill="#828282"/><defs><path id="qa" d="M25.922 3.304c-1.263-.703-4.029-.37-4.671-.199-.921.245-1.286.745-1.667 1.434-.518.933-.566 4.173-.078 5.42.243.622.58 1.065 1.092 1.347 1.274.7 4.03.39 4.67.2.89-.263 1.236-.655 1.668-1.435.498-.9.534-4.19.078-5.42-.236-.634-.507-1.021-1.092-1.347zm-.574 5.339c-.1.647-.455.91-.96 1.138-.29.153-1.93.295-2.528-.075-.386-.24-.602-.623-.694-1.192-.154-.972-.19-1.6-.029-2.622.097-.647.444-1.063 1.012-1.22.44-.047 1.92-.201 2.455.151.376.249.633.58.723 1.145.157.97.18 1.655.02 2.675zM38.245 3.03a7.432 7.432 0 0 0-1.618-.162c-.641.01-1.291.14-1.76.22a11.74 11.74 0 0 1-.77.145 5.988 5.988 0 0 1-.81-.165 10.7 10.7 0 0 0-1.762-.193c-.935 0-2.22.22-2.733.33-.36.08-.35.44-.35.608v7.55c0 .075.072.23.216.23h1.3c.217 0 .361-.155.361-.383V4.957c0-.084.055-.071.072-.076.115-.023 1.15-.21 2.095-.075.529.074.794.458.794.915v5.642c0 .112.02.23.217.23h1.3c.217 0 .361-.155.361-.382V5.033c0-.088.03-.131.145-.153 0 0 1.446-.229 2.167-.076.7.147.649 1.197.649 1.449v5.108c0 .076.075.23.22.23h1.298c.22 0 .363-.154.363-.382V6.085c-.002-1.84-.336-2.72-1.755-3.055zm-32.178.378c-1.416-.722-3.322-.455-3.828-.38a18.04 18.04 0 0 0-1.59.303c-.507.121-.649.28-.649.84v10.6c0 .087.092.229.217.229h1.3c.224 0 .433-.158.433-.383v-2.973a7.12 7.12 0 0 0 1.012.152c.171.012 1.516.077 2.556-.19.806-.207 1.386-.69 1.704-1.41.423-.956.325-2.927.291-3.662-.05-1.053-.277-2.532-1.446-3.126zm-.54 5.35c-.107.693-.47 1.063-1.12 1.209-.858.192-2.457.009-2.457-.154V5.084c0-.08.105-.142.145-.152.548-.084 2.025-.278 2.673.077.49.269.674.608.764 1.177.154.969.154 1.549-.006 2.572zm4.845-5.656H9.021a.353.353 0 0 0-.254.112.395.395 0 0 0-.106.27v7.862c0 .123.122.228.217.228h1.35c.228 0 .362-.225.362-.381V3.33c0-.12-.121-.228-.218-.228zM10.377 0H9.028a.354.354 0 0 0-.255.113.396.396 0 0 0-.106.27V1.67c0 .123.11.228.206.228h1.361c.227 0 .361-.224.361-.381V.228c0-.12-.121-.228-.218-.228zm4.18 4.878c1.005-.43 2.351-.01 3.405.131.133.018.218-.037.218-.304 0-.294.006-.787 0-1.067-.003-.304-.032-.466-.361-.534-.954-.199-2.035-.26-2.552-.23-1.13.069-2.394.23-2.958 1.42-.377.796-.504 1.997-.491 3.074h.002c-.008 1.058.12 2.173.49 2.952.564 1.192 1.827 1.352 2.957 1.419.516.033 1.598-.03 2.552-.227.33-.069.358-.231.36-.535.007-.28 0-.775 0-1.067 0-.27-.084-.323-.217-.304-1.054.141-2.4.561-3.405.13-.16-.069-.567-.422-.7-.98a6.944 6.944 0 0 1-.169-1.41c.013-.495.064-1.043.17-1.486.132-.559.539-.91.699-.982z"/></defs></symbol><symbol viewBox="0 0 20 23" id="share" xmlns="http://www.w3.org/2000/svg"><title>Vector</title><desc>Created using Figma</desc><use xlink:href="#ra" fill="#828282"/><defs><path id="ra" d="M16.665 16.258c-.844 0-1.6.344-2.174.887l-7.924-4.79c.057-.266.102-.533.102-.809s-.046-.542-.102-.809l7.834-4.745a3.254 3.254 0 0 0 2.264.935C18.512 6.927 20 5.383 20 3.463 20 1.548 18.51 0 16.665 0c-1.843 0-3.333 1.548-3.333 3.462 0 .28.046.543.102.81L5.6 9.02a3.245 3.245 0 0 0-2.265-.936C1.488 8.084 0 9.63 0 11.546c0 1.916 1.488 3.463 3.335 3.463.876 0 1.666-.359 2.264-.934l7.91 4.8c-.055.245-.089.5-.089.754 0 1.859 1.458 3.371 3.244 3.371 1.788 0 3.246-1.511 3.246-3.371s-1.457-3.37-3.245-3.37z"/></defs></symbol><symbol viewBox="0 0 30 30" id="telephone" xmlns="http://www.w3.org/2000/svg"><title>i telephone</title><desc>Created using Figma</desc><use xlink:href="#sa"/><defs><path id="sa" fill-rule="evenodd" d="M15.48 0a16.985 16.985 0 0 1 9.738 4.857A17.108 17.108 0 0 1 30 14.077l-2.303.394a14.716 14.716 0 0 0-4.127-7.96 14.727 14.727 0 0 0-8.415-4.195L15.479 0zm7.328 19.846c-.98-.968-2.203-.968-3.177 0a185.01 185.01 0 0 0-2.217 2.222c-.2.206-.368.25-.611.112-.191-.104-.387-.2-.582-.296l-.007-.004a9.911 9.911 0 0 1-.866-.461c-2.154-1.355-3.958-3.097-5.556-5.057-.793-.974-1.498-2.016-1.992-3.19-.1-.237-.08-.393.113-.587.636-.614 1.258-1.243 1.882-1.873l.315-.318c1.018-1.024 1.018-2.222-.006-3.252a146.39 146.39 0 0 0-.545-.548l-.326-.326c-.29-.29-.58-.581-.87-.874-.2-.199-.397-.398-.595-.597-.4-.403-.799-.805-1.204-1.201-.98-.955-2.203-.955-3.177.006-.3.295-.595.593-.89.89-.441.446-.882.892-1.34 1.326C.453 6.486.098 7.304.023 8.26-.097 9.813.284 11.28.82 12.71c1.099 2.96 2.772 5.587 4.8 7.997 2.741 3.259 6.012 5.837 9.84 7.697 1.722.837 3.508 1.48 5.45 1.586 1.335.075 2.496-.262 3.427-1.305.417-.467.87-.906 1.322-1.346l.003-.003.012-.012c.233-.226.465-.451.692-.68.998-1.011 1.005-2.235.012-3.234a944.973 944.973 0 0 0-3.57-3.564zm-1.192-4.976l2.303-.393a10.297 10.297 0 0 0-2.878-5.556 10.242 10.242 0 0 0-5.868-2.928l-.324 2.316a7.945 7.945 0 0 1 4.544 2.266 7.944 7.944 0 0 1 2.223 4.295z"/></defs></symbol><symbol viewBox="0 0 455.731 455.731" id="tw" xmlns="http://www.w3.org/2000/svg"><path fill="#50abf1" d="M0 0h455.731v455.731H0z"/><path d="M60.377 337.822c30.33 19.236 66.308 30.368 104.875 30.368 108.349 0 196.18-87.841 196.18-196.18 0-2.705-.057-5.39-.161-8.067 3.919-3.084 28.157-22.511 34.098-35 0 0-19.683 8.18-38.947 10.107-.038 0-.085.009-.123.009 0 0 .038-.019.104-.066 1.775-1.186 26.591-18.079 29.951-38.207 0 0-13.922 7.431-33.415 13.932a223.578 223.578 0 0 1-10.088 3.103c-12.565-13.41-30.425-21.78-50.25-21.78-38.027 0-68.841 30.805-68.841 68.803a68.67 68.67 0 0 0 1.784 15.592c-5.314-.218-86.237-4.755-141.289-71.423 0 0-32.902 44.917 19.607 91.105 0 0-15.962-.636-29.733-8.864 0 0-5.058 54.416 54.407 68.329 0 0-11.701 4.432-30.368 1.272 0 0 10.439 43.968 63.271 48.077 0 0-41.777 37.74-101.081 28.885l.019.005z" fill="#fff"/></symbol><symbol viewBox="0 0 30 30" id="vk" xmlns="http://www.w3.org/2000/svg"><title>vk</title><desc>Created using Figma</desc><g transform="translate(-10993 -4876)"><use xlink:href="#ua" transform="translate(10993 4876)" fill="#44678D"/><use xlink:href="#ub" transform="translate(10995 4884)" fill="#FFF"/></g><defs><path id="ua" d="M30 0H0v30h30V0z"/><path id="ub" d="M5.702 1.445c.726 1.68 1.646 3.264 2.858 4.686.16.19.363.358.576.495.312.2.606.13.733-.204.134-.35.257-1.062.264-1.43a28.94 28.94 0 0 0-.058-2.554c-.035-.616-.269-1.156-1.235-1.32-.298-.05-.326-.28-.134-.51.399-.478.954-.554 1.557-.584.977-.05 1.958-.009 2.936 0 .398.004.799.034 1.191.114.512.104.786.44.87.91.044.24.067.49.06.734-.025 1.05-.079 2.1-.092 3.15-.005.412.027.834.121 1.235.132.56.538.7.953.296.528-.513.993-1.09 1.43-1.677.793-1.067 1.385-2.238 1.895-3.445.264-.623.466-.759 1.18-.76 1.345-.003 2.688-.004 4.032 0 .239 0 .488.022.713.089.365.11.51.388.424.742-.2.83-.678 1.535-1.19 2.214-.823 1.087-1.684 2.15-2.526 3.225a4.035 4.035 0 0 0-.29.43c-.314.534-.293.833.167 1.277.73.706 1.512 1.367 2.22 2.093.514.528.99 1.101 1.398 1.704.515.763.197 1.481-.766 1.61-.606.08-3.565 0-3.718 0-.795-.004-1.493-.263-2.054-.77-.625-.563-1.192-1.181-1.792-1.77a4.908 4.908 0 0 0-.582-.495c-.49-.351-.972-.273-1.201.267-.196.464-.365 1.682-.373 1.786-.041.544-.41.89-1.06.924-1.877.095-3.696-.1-5.39-.952-1.436-.72-2.583-1.74-3.576-2.928C3.665 8.14 2.419 6.064 1.28 3.93 1.223 3.819.071 1.52.039 1.412-.064 1.05.032.702.36.582c.204-.075 4.004 0 4.067.003.607.03 1.02.27 1.275.86z"/></defs></symbol></svg>